<svg xmlns="http://www.w3.org/2000/svg" width="177mm" height="177mm" viewBox="0 0 501.6 501.6"><text transform="translate(18.6 21.3)" font-size="6" fill="#295ba8" font-family="Helvetica">8F43909F9E525B416C4AE35C1994E63DCAEB2F50C66A46CFEA6A7D80C0F41DA1<tspan x="0" y="7.2">Block Height: 13642944</tspan></text><path d="M154.1,308.3h0Z" fill="#4b9460"/><path d="M250.8,336.1h0c0-.1,0-.1.1,0Z" fill="#4b9460"/><path d="M250.9,299.5c-.1,0-.1,0-.1-.1h0v.2Z" fill="#4b9460"/><path d="M250.8,279.4a.1.1,0,1,1,0,.2h0v-.2Z" fill="#4b9460"/><path d="M250.9,352.5v-.2h0v.2Z" fill="#4b9460"/><path d="M250.8,201.1h.1a.1.1,0,0,0-.1.1h0v-.2Z" fill="#4b9460"/><path d="M142.4,252.2V252h0Z" fill="#4b9460"/><path d="M250.7,192.1h0Z" fill="#4b9460"/><path d="M250.7,150.5h0Z" fill="#4b9460"/><path d="M128.1,208.1h0Z" fill="#4b9460"/><path d="M153.7,307.5h-.1v-.2Z" fill="#4b9460"/><path d="M250.7,278.6v-.2l.2.2Z" fill="#4b9460"/><path d="M325.5,408.6a4,4,0,0,1-.3-1.9v-.2a.5.5,0,0,0-.2-.6.8.8,0,0,0-.8.1l-1.1.9a6,6,0,0,1-4,1.3h-.5a4.6,4.6,0,0,1-2.8-1.1,5.5,5.5,0,0,1-1.7-2.8,9.2,9.2,0,0,1-.5-2.8V388.6c0-.4-.2-.6-.7-.6h-1.4a1.1,1.1,0,0,1-1.1-1.4c.1-.7.4-1,1.1-1s2-.3,3-.2a6.5,6.5,0,0,1,2-.2h.4c.3.1.5.2.6.5a7.4,7.4,0,0,1,0,2.1v.6c0,1.2-.1,2.4,0,3.6a3.7,3.7,0,0,0,.1,1.1,5.3,5.3,0,0,1-.1,1.3c0,.4.1.9.1,1.3a11.5,11.5,0,0,0-.1,1.9v1.8a6.7,6.7,0,0,0,.5,3.1,3.9,3.9,0,0,0,3.6,2.6,3.1,3.1,0,0,0,2.6-.9h.2a2.2,2.2,0,0,0,.8-2,6.6,6.6,0,0,0,0-1.4,13.4,13.4,0,0,1,.1-2,4.7,4.7,0,0,0-.1-1.7c0-.1-.1-.2,0-.2a8.1,8.1,0,0,0,0-2.2c0-.4.1-.9.1-1.3v-4.2h0c-.3-1.1-.1-1-1.2-1h-1l-.7-.2a1,1,0,0,1-.4-.5v-.6c0-.8.3-1.1,1.1-1.1h1.1l2.7-.2h1.5c.4.1.7.3.7.7v16.4c0,1.4,0,1.1.9,1.7l1.9,1.2a2.8,2.8,0,0,0,2,.4.7.7,0,0,0,.8-.8,2,2,0,0,0,.1-.7V392a1.3,1.3,0,0,0-.1-.6,1.4,1.4,0,0,0-.6-1.2c-.7-.4-1.4-1-2.1-1.5s-.2-.1-.2-.2-.4-.6,0-.9l.8-.5,4.6-2.1.5-.2c.5-.2.9,0,.9.5v2.9c0,.2.1.4.3.4s.4.1.5-.1l.9-.8a10.4,10.4,0,0,1,2.1-2.1,5.7,5.7,0,0,1,2.2-.7,1.8,1.8,0,0,1,1.4.6,3.1,3.1,0,0,1,.8,3.3,3.8,3.8,0,0,1-1.3,1.8.8.8,0,0,1-1,0l-2.1-1.4-.3-.3h-.6l-.5.3-1.5,1.4-.5.6a1,1,0,0,0-.4.9v12.2a1.9,1.9,0,0,0,.1.8c.1.3.2.5.5.5s.3,0,.5,0a17.6,17.6,0,0,1,2.3,0c.7,0,.9.4.8,1v.3a.9.9,0,0,1-.9.9h-9.2c-.4-.1-.8-.2-.9-.7a.8.8,0,0,0-.2-.4c-.1-.2-.2-.3-.5-.2h-.4c-1.3.7-2.8,1.1-4.1,1.7l-.4.3Z" fill="#7f7f7f"/><path d="M389.2,295.2c.2.2.4.1.6.2a3.1,3.1,0,0,1,2.3,3,1.3,1.3,0,0,1-.1.6,2.5,2.5,0,0,0,.2,1.7,1.7,1.7,0,0,1,.1.7v1.1a2.3,2.3,0,0,1-.9,1.9c-.3.2-.5.5-.9.6a2.3,2.3,0,0,1-2.5-.7,3.2,3.2,0,0,1-.8-2.1,3.6,3.6,0,0,1,.5-2.1.8.8,0,0,0-.2-1,2.3,2.3,0,0,0-.7-.7.9.9,0,0,0-1.3-.1,7.8,7.8,0,0,0-2.3,2.5,18.2,18.2,0,0,0-1.6,5,11.7,11.7,0,0,0-.4,3.7,1.9,1.9,0,0,1-.1.8,4.5,4.5,0,0,0-.1,1.1.8.8,0,0,0,.7.7h4a1.5,1.5,0,0,1,1.2.4.4.4,0,0,0,.5.1l.4-.2c1-.6,2.2-.8,3.2-1.5h.3a.6.6,0,0,1,.8.4v.3c-.1,1.7.1,3.4,0,5.2v14.4c.1.3.2.5.6.5h1.2c1,0,1.2.5,1.1,1.3s-.2.9-.9.9H374.9a.5.5,0,0,1-.6-.6v-.9c0-.4.1-.5.5-.6h1.7a.7.7,0,0,0,.7-.6V316.9a1.4,1.4,0,0,0-.7-1.3l-2-1.3h-.2c-.4-.3-.5-.6-.1-1a4.8,4.8,0,0,1,1.1-.9,7.6,7.6,0,0,0,1.6-1.1.5.5,0,0,0,.3-.5,12.5,12.5,0,0,0,.3-1.9,15.5,15.5,0,0,1,.7-3.1,22,22,0,0,1,2.5-5.4,5.5,5.5,0,0,1,1.7-2,7.3,7.3,0,0,1,.8-.9,7.7,7.7,0,0,1,3.7-1.9l.9-.3Zm-8.2,28h0V327a9.6,9.6,0,0,1,0,1.7v2.2a.8.8,0,0,0,.8.7h5.1c1.2,0,1.2,0,1.2-1.2V317.2a1.1,1.1,0,0,0-.3-.7l-1.6-1.2a1.7,1.7,0,0,0-1.4-.4H382a.8.8,0,0,0-1,.9v7.4Z" fill="#7f7f7f"/><path d="M420.9,328.5c-.3.3-.2.8-.3,1.2L420,331l-.9,1.2a2.4,2.4,0,0,1-.9.8l-1.3.7a5.6,5.6,0,0,1-3.6.6,7.3,7.3,0,0,1-2.9-.7,5.4,5.4,0,0,1-1.2-.9c-.2,0-.3-.2-.4-.3s-.6-.6-.7-1.2.1-.4,0-.5-.3.3-.4.4a7.3,7.3,0,0,1-3,2.8,4.3,4.3,0,0,1-1.4.4,5,5,0,0,1-4.5-1.5,5.9,5.9,0,0,1-1.2-2,10.9,10.9,0,0,1-.4-2.6,27.1,27.1,0,0,0,.1-2.9c0-1,0-2.1-.1-3.2a3.7,3.7,0,0,1,.1-1.1,2.8,2.8,0,0,0,.1-.9v-3.5c.1-.9-.4-1.3-1.1-1.6l-1.1-.5-.8-.4a.4.4,0,0,1-.1-.7,5.2,5.2,0,0,1,1-1.1l4.7-4.8h.1a.5.5,0,0,1,.5-.3c.2.1.4.3.3.5s.2,1.2.2,1.8a10.9,10.9,0,0,0-.1,1.8h0c.1.6.2.7.8.7h5.6a.5.5,0,0,1,.3.8l-.6,1.1a1.1,1.1,0,0,1-.9.8h-4.7c-.4,0-.5.2-.5.7a5.7,5.7,0,0,1,0,1.3,24.1,24.1,0,0,1,0,3.8c.1,2.2,0,4.4.1,6.6a4.1,4.1,0,0,0,.9,2.6,2.5,2.5,0,0,0,1.6.8h1.2a6,6,0,0,0,2.8-1.3,2.2,2.2,0,0,0,.6-1.3,3.4,3.4,0,0,1,0-1,.7.7,0,0,1,.2-.6.2.2,0,0,1,.4,0,3.7,3.7,0,0,1,.5,1.1,13.4,13.4,0,0,0,2.8,3.4,4.5,4.5,0,0,0,2.5.7,3.9,3.9,0,0,0,1.8-.6l.3-.3a4.9,4.9,0,0,0,.8-2.3c.1-.1,0-.2,0-.3a4.1,4.1,0,0,0-2.3-3.2,17.1,17.1,0,0,0-2.3-1.3l-1.9-1.1a6.3,6.3,0,0,1-2-2.6,9.4,9.4,0,0,1-.4-1.6,7.6,7.6,0,0,1,.2-2.6,6.1,6.1,0,0,1,1.5-3,5,5,0,0,1,2-1.5l1.9-.4a.6.6,0,0,1,.6,0,5.2,5.2,0,0,1,2.6,1c.9.6.8.7,1.6,0l.6-.5a.5.5,0,0,1,.7.2c0,.2.1.3.1.4V318c0,.2-.1.3-.2.5s-.3.2-.4.1l-.4-.5a31.3,31.3,0,0,0-2-3,4.7,4.7,0,0,0-2.7-1.6,1.4,1.4,0,0,0-1.1.1,2.7,2.7,0,0,0-1.6,3.3,3.5,3.5,0,0,0,1.2,1.9,11.4,11.4,0,0,0,2.3,1.5,18.2,18.2,0,0,1,2.7,1.5,5.6,5.6,0,0,1,2.5,3.5l.2.3Z" fill="#7f7f7f"/><path d="M80.7,300.1a1.9,1.9,0,0,1,1.6-.4,5.5,5.5,0,0,0,1.8-.1h.1a8.8,8.8,0,0,0,2.8,0h4.9c.2,0,.4.1.5,0a8.1,8.1,0,0,1,2.2,0c.4-.1.8.1,1.3,0h3.5a1.6,1.6,0,0,0,1.5-.3l.6-.4.7-.3c.3,0,.6.1.6.5V308l-.3.4c-.2,0-.3,0-.4-.2l-1.3-2.1a26.8,26.8,0,0,0-1.8-2.8.8.8,0,0,1-.2-.5.9.9,0,0,0-1.2-.7H90.3c-1.2,0-1.2,0-1.2,1.2a26.2,26.2,0,0,0,.1,2.8V308c0,2-.1,4.1-.1,6.1a.8.8,0,0,0,.1.4c0,.4.3.6.7.7h4.2a1.4,1.4,0,0,0,1.2-.6l1.9-3.2.5-.8H98q.3.2.3.3a1.1,1.1,0,0,1,.1.5v10.6a.9.9,0,0,1-.3.5h-.3v-.3a5.7,5.7,0,0,1-.8-1.3c-.4-.7-.9-1.4-1.3-2.2a1.9,1.9,0,0,0-1.8-1h-4a.8.8,0,0,0-.7.7v.4c.1,1.4,0,2.8,0,4.2s.1.5.1.8v.4c-.2,2.1,0,4.3-.1,6.4s.1.6.6.8h4.1a.6.6,0,0,1,.6.5,7.1,7.1,0,0,1-.1,1.4c0,.3-.2.4-.6.4H82a1.9,1.9,0,0,1-1.3-.3v-1.7a1.9,1.9,0,0,1,1.2-.4,10.8,10.8,0,0,0,1.8,0c.2.1.3,0,.5,0s.7-.2.7-.9V302.6a.5.5,0,0,0-.5-.5H81.9a1.6,1.6,0,0,1-.9-.3c0-.1-.2-.2-.3-.2Z" fill="#7f7f7f"/><path d="M252.1,348.6c-.2,0-.3.1-.4.3s-1.7,2.3-2.5,3.4l-3,4.1a24.8,24.8,0,0,1-1.9,2.6l-1.3,1.8-1.3,1.8c-.8,1.2-1.7,2.3-2.5,3.4s-.9,1.1-1.3,1.8a1.5,1.5,0,0,1-1.2.7c-1.3-.1-2.6,0-3.9,0a.7.7,0,0,1-.6-.2.6.6,0,0,1-.3-.6v-1a22.2,22.2,0,0,0,.3-3.7c0-.3.1-.5.1-.8a.4.4,0,0,0,.1-.3c-.1-.9.2-1.8.2-2.8a2.8,2.8,0,0,1,.1-.9.3.3,0,0,0,.1-.2c-.1-1.2.2-2.3.2-3.5a2.9,2.9,0,0,1,.1-1.3c.1-.2,0-.4,0-.7s0-.7.2-1.1v-.6a5.5,5.5,0,0,1,.2-1.8v-.4c0-.1,0-.2-.1-.2s-.2,0-.2.1l-.7,1.5-1.4,3.6c-.8,1.7-1.4,3.4-2.1,5.1l-1.8,4.1-1.5,4.1a4.7,4.7,0,0,1-.5,1,1.1,1.1,0,0,1-1,.6c-1.6-.1-3.1,0-4.7,0h-.3c-.6-.1-.7-.4-.5-.8s1.4-3.4,2.1-5.1.9-2.4,1.4-3.5.7-1.5,1-2.3,1-2.6,1.6-3.9,1-2.5,1.5-3.8l1.2-3.2c.5-1.1,1-2.2,1.4-3.3a3,3,0,0,0,.4-1,1.5,1.5,0,0,1,1.6-1.1h8.4c.2.2.4.3.4.6v1.3a22.8,22.8,0,0,0-.2,2.6l-.3,2.2v.7a7.8,7.8,0,0,1-.2,1.6,7.5,7.5,0,0,0,0,1.5,4.9,4.9,0,0,1-.1,1.2.7.7,0,0,0-.1.5,6.6,6.6,0,0,1-.1,1.4h-.1a26.1,26.1,0,0,1-.2,4c0,.2-.1.4.1.5s.3,0,.5-.3,1.5-2.2,2.4-3.3l1.4-1.9,1.1-1.5c1-1.5,2.2-3,3.3-4.5s.9-1.2,1.3-1.9.5-.6.7-1a35.5,35.5,0,0,0,2.3-3.1,1.8,1.8,0,0,1,1.3-.8h8.7c.4.2.5.4.3.8l-.4,1c-.5,1.3-1.1,2.7-1.6,4.1l-1.8,4.2-1.3,3.4c-.5,1.1-.9,2.1-1.3,3.2s-1.5,3.6-2.2,5.4-.9,2.1-1.3,3.1l-.7,1.8-.3.6a.8.8,0,0,1-.7.3h-4.9c-.8-.1-.9-.3-.7-1.1l.5-1.1c.7-1.8,1.3-3.6,2.1-5.3s.8-2.2,1.4-3.3a6.4,6.4,0,0,0,.2-.7l.6-1.4a23.3,23.3,0,0,0,1.1-2.8,14.2,14.2,0,0,1,.8-1.8,18,18,0,0,1,.8-2.1v-.3h0Z" fill="#7f7f7f"/><path d="M167.9,346.6h.2a8.2,8.2,0,0,1,3.8.6,5.6,5.6,0,0,1,3.9,4.1,7.3,7.3,0,0,1,0,3.6v.3c0,.1.1.1.1.2h.2l.2-.2a16.5,16.5,0,0,1,3.9-4.8,15,15,0,0,1,4-2.5,19.3,19.3,0,0,1,4.1-1.2,7.5,7.5,0,0,1,1.5,0h.9a10.1,10.1,0,0,1,4.2.8,5.6,5.6,0,0,1,3.3,4,9.4,9.4,0,0,1-.1,4.4l-.3,1.1a8.8,8.8,0,0,1-.5,1.5,15,15,0,0,1-2.8,4.7,15.4,15.4,0,0,1-3.8,3.4l-1.2.7a15.4,15.4,0,0,1-4.4,1.6c-.7-.1-1.5.3-2.2.1a8.2,8.2,0,0,1-2.7-.1,6.8,6.8,0,0,1-4.4-2.1,5.7,5.7,0,0,1-1.5-3.1,11.3,11.3,0,0,1,.1-3.2v-.3h-.2a3.5,3.5,0,0,1-.5.8,15.1,15.1,0,0,1-1.8,2.6,15.9,15.9,0,0,1-4.5,3.6,12.2,12.2,0,0,1-3.3,1.4,11.9,11.9,0,0,1-3.2.5h-1.7l-2.3-.4a6.6,6.6,0,0,1-2.8-1.3,2.7,2.7,0,0,1-.8-.7,4.3,4.3,0,0,1-1.2-2.3l-.3-1.3v-.5a.6.6,0,0,0,.1-.4,6.9,6.9,0,0,1,.3-2.5,12.1,12.1,0,0,1,1.1-3.2,3.6,3.6,0,0,1,.4-.9,5.9,5.9,0,0,0,.4-.8l.8-1.2a14.8,14.8,0,0,1,3.2-3.4,12.8,12.8,0,0,1,3.7-2.3,18.5,18.5,0,0,1,4-1.2,8.5,8.5,0,0,1,1.6,0Zm-9.4,14.3v.4a2.6,2.6,0,0,0,1.8,2.4,5.4,5.4,0,0,0,2.2.1,5.2,5.2,0,0,0,2.3-1,8.7,8.7,0,0,0,2.9-3.4,16.5,16.5,0,0,0,1.6-4.2,4.3,4.3,0,0,0,0-1.6,2.5,2.5,0,0,0-2.4-1.9h-1.1a3.7,3.7,0,0,0-1.8.4,9.8,9.8,0,0,0-3.5,3.2,15.8,15.8,0,0,0-1.3,2.6c-.2.6-.3,1.1-.5,1.6A3.4,3.4,0,0,0,158.5,360.9Zm30.2-9.2a3.7,3.7,0,0,0-1.8.2,8,8,0,0,0-3.4,2.6,14.7,14.7,0,0,0-2.3,4.5,9.9,9.9,0,0,0-.3,2.4,2.5,2.5,0,0,0,1.7,2.3,4.4,4.4,0,0,0,3.2-.2,6.4,6.4,0,0,0,2.7-1.8l.9-1.2.8-1.2a13.6,13.6,0,0,0,1.1-2.8,5.9,5.9,0,0,0,.4-2.3,2.3,2.3,0,0,0-2.5-2.5Z" fill="#7f7f7f"/><path d="M141.7,358.1h-3a.6.6,0,0,1-.4-.7l.6-1.6a2.9,2.9,0,0,0,.5-1.3c0-.2.2-.3.2-.5a1.4,1.4,0,0,1,1.6-.9,5.6,5.6,0,0,0,1.3,0c2.5-.1,5,0,7.4,0h2.8c.8,0,1,.3.8,1a7.8,7.8,0,0,1-.5,1.4c-.9,1.9-1.6,3.9-2.4,5.9l-2.2,5.2a7.8,7.8,0,0,0-.5,1.4c-.2.3-.4.5-.7.5h-4.3c-.7,0-1-.4-.7-1.1l.4-.9v-.2h-.2l-.8.4A13,13,0,0,1,139,368a8,8,0,0,1-3.3.8l-2.4.2h-1.8a7.8,7.8,0,0,1-4.6-1.6,7,7,0,0,1-2.3-3.1,2.9,2.9,0,0,1-.3-1,11.1,11.1,0,0,1,.1-4.8,33.1,33.1,0,0,1,1.8-5.3c.6-.9,1-2,1.7-3a24.8,24.8,0,0,1,1.9-2.6,13.6,13.6,0,0,1,2.4-2.4l2.7-2.1h.2a30.1,30.1,0,0,1,4.9-2.1l2.7-.6h4.6l1.2.2a9.6,9.6,0,0,1,2.9.8,6.6,6.6,0,0,1,3.6,4.2,9.5,9.5,0,0,1,.1,2.4c-.1.3-.1.8-.2,1.1s-.4.8-1,.8h-5.2a.7.7,0,0,1-.6-.7,3.6,3.6,0,0,0-.2-1.1,2.7,2.7,0,0,0-1.8-2.1,6.3,6.3,0,0,0-1.9-.3h-.6a5.7,5.7,0,0,0-2.6.3,6.5,6.5,0,0,0-2.3.9,7.3,7.3,0,0,0-2.6,2l-.2.2a16.8,16.8,0,0,0-3,4c-.4.9-.7,1.8-1.1,2.6a18.2,18.2,0,0,0-.7,2.5,6,6,0,0,0,.2,3.5,2.8,2.8,0,0,0,1.6,1.8,5.6,5.6,0,0,0,2.1.6h1.3a14,14,0,0,0,3.4-.8,15.1,15.1,0,0,0,2.8-1.5l.8-.8a11.6,11.6,0,0,0,1.6-2.1c.2-.3,0-.6-.4-.6h-2.8Z" fill="#7f7f7f"/><path d="M345.8,368.8h2.1l1.1.2a.6.6,0,0,1,.3.6,1.1,1.1,0,0,0-.1.8,1.8,1.8,0,0,0,1.4,1.4,6.2,6.2,0,0,0,2.7.2,7.9,7.9,0,0,0,2.7-1,7.3,7.3,0,0,0,2.2-2.4,13.3,13.3,0,0,0,1-2.4c.1-.1.1-.2.1-.4a.2.2,0,0,0-.2-.2l-.3.2a10.1,10.1,0,0,1-2.3,1.2,6.1,6.1,0,0,1-1.3.3,9.5,9.5,0,0,1-2.9.2,6.2,6.2,0,0,1-3.7-1.1,5.2,5.2,0,0,1-2.4-3.7,11.3,11.3,0,0,1,.2-3.2,21.7,21.7,0,0,1,.7-2.4,8.8,8.8,0,0,1,.9-2,17.4,17.4,0,0,1,1-1.9,26.1,26.1,0,0,1,2.7-3.1,19.9,19.9,0,0,1,3.9-2.5c.6-.1,1.1-.5,1.8-.6h.1a6.5,6.5,0,0,1,3.1-.4h.6a7,7,0,0,1,3.2.6,2.4,2.4,0,0,1,1.4,1.2l.3.3c.1.2.2.5.4.4s.4-.3.5-.5l.3-.9a1.2,1.2,0,0,1,1.2-.7h4.4c.2,0,.3.2.3.4a5.6,5.6,0,0,1-.4,1.2,25.2,25.2,0,0,0-1.2,2.9c-.6,1.3-1.2,2.7-1.7,4s-1.1,2.7-1.6,4.1l-2.4,5.7a13.4,13.4,0,0,1-.7,1.8,23.1,23.1,0,0,1-1.8,3.5,13.3,13.3,0,0,1-7.2,5.1c-1.2.4-2.3.4-3.5.7h-3.6a12.9,12.9,0,0,1-4.7-1.1,4.3,4.3,0,0,1-2.1-4.5l.3-1.4a.7.7,0,0,1,.6-.7h2.6Zm17.7-14.2v-.5a2.4,2.4,0,0,0-1.5-2.3,4.4,4.4,0,0,0-3.4,0,8.8,8.8,0,0,0-3.3,2.4,8.9,8.9,0,0,0-2,4,4.5,4.5,0,0,0,.1,2.8,1.6,1.6,0,0,0,.6.8,2.9,2.9,0,0,0,2.4.6h1a8.2,8.2,0,0,0,3.8-2.5,10.9,10.9,0,0,0,1.9-3.3A3.4,3.4,0,0,0,363.5,354.6Z" fill="#7f7f7f"/><path d="M181.8,312.7v15.8c0,.9,0,.9.8,1.5l1.2.7.9.5c.1.1.3,0,.3-.2a2.2,2.2,0,0,0,.1-.8v-2.9a1.7,1.7,0,0,1,.1-.7.2.2,0,0,1,.2-.2h.2a9.1,9.1,0,0,1,.7,1.4,11.4,11.4,0,0,0,1.8,2.5,6.2,6.2,0,0,0,1.7,1.1,3.9,3.9,0,0,0,2.1.3,2.5,2.5,0,0,0,1.8-1.2,2.7,2.7,0,0,0,.6-1.7,3.2,3.2,0,0,0-.7-2.5,4.7,4.7,0,0,0-1-1l-2.1-1.2a12.3,12.3,0,0,1-3.7-2.6,4.6,4.6,0,0,1-.9-1.5,6.3,6.3,0,0,1-.4-3.6,6,6,0,0,1,1.2-3,5.2,5.2,0,0,1,2.4-2,4.7,4.7,0,0,1,4.6.2l.8.5c.6.3.7.3,1.2-.1l.9-.6c.2-.2.5-.1.6.3a13.1,13.1,0,0,1,0,2.8v.3c.2,1.1,0,2.1.1,3.2v.3q-.1.3-.3.3c-.2.1-.3,0-.4-.2l-.7-1.1a10.6,10.6,0,0,0-2.2-2.9,3.9,3.9,0,0,0-1.9-1,1.4,1.4,0,0,0-.9,0h-.1a2.2,2.2,0,0,0-1.6,1.2,3.6,3.6,0,0,0-.2,2.5,3.4,3.4,0,0,0,.9,1.2,6.2,6.2,0,0,0,2.1,1.5,17.6,17.6,0,0,1,3.7,2.3,5.5,5.5,0,0,1,1.6,1.8,5.5,5.5,0,0,1,.6,2.2,12.1,12.1,0,0,1,0,1.9v.6a10.4,10.4,0,0,1-1.1,2.4,6.4,6.4,0,0,1-4.8,3.1,7,7,0,0,1-3.2-.2,8.7,8.7,0,0,1-3-1.6,1.2,1.2,0,0,0-1.3-.2l-3.9,1.6-1.9.7a.4.4,0,0,1-.6-.4,8.6,8.6,0,0,1-.1-1.6c.1-.4-.1-.6-.5-.6l-.7.2a7.5,7.5,0,0,1-2.8,1.8,8.7,8.7,0,0,1-3.2.3,7.9,7.9,0,0,1-3-1.2,9,9,0,0,1-3.2-4.2,16.7,16.7,0,0,1-.8-3,18.2,18.2,0,0,1-.1-3.3,12.6,12.6,0,0,1,1.2-5,7.1,7.1,0,0,1,.8-1.5,12.5,12.5,0,0,1,2.6-3,11.5,11.5,0,0,1,2.9-1.6,11.3,11.3,0,0,1,3.2-.5,12,12,0,0,1,2,.3l.7.2c.8.2.9,0,.9-.7v-2a5.4,5.4,0,0,0,0-1.8,24.3,24.3,0,0,1,0-2.7,4.5,4.5,0,0,0,.1-1.1,4,4,0,0,1,0-1.1,1.3,1.3,0,0,0-.8-1.4c-.9-.4-1.7-1.1-2.6-1.5h-.2c-.2-.2-.2-.5,0-.6l.3-.2c1.8-.7,3.5-1.7,5.3-2.3l.6-.3.6-.2a.5.5,0,0,1,.5.4,1.9,1.9,0,0,1,.1.8v16Zm-14,9.5h0v1a11.2,11.2,0,0,0,.5,3.1l.6,1.2a5.3,5.3,0,0,0,1.3,1.9,6.2,6.2,0,0,0,3.8,1.8,1.7,1.7,0,0,0,1,0l1.2-.4a4.5,4.5,0,0,0,1.4-1c.1-.2.2-.3.2-.5a7.6,7.6,0,0,0,.1-1.5c-.1-1.9,0-3.8,0-5.7s-.1-2,0-3a3.4,3.4,0,0,0,0-1,4.8,4.8,0,0,0,0-1.2v-.7a1.9,1.9,0,0,0-.2-.8,4.4,4.4,0,0,0-3.1-2,7.1,7.1,0,0,0-2.5.2,5.4,5.4,0,0,0-1.6,1,4.5,4.5,0,0,0-1.8,2.5c-.1.2-.2.3-.2.5a9.9,9.9,0,0,0-.7,3.8Z" fill="#7f7f7f"/><path d="M228.7,302.1h-1.9a.5.5,0,0,0-.3.5c0,.2.1.4.1.6l1.2,4.1a21.7,21.7,0,0,1,.7,2.4c.1.5.3.9.4,1.4s.5,1.9.8,2.8.6,2.3,1,3.4.5,1.8.8,2.8.9,3.2,1.4,4.9c0,.1.1.2.1.3h.3a8.8,8.8,0,0,0,.5-1.5c.6-1.6,1-3.2,1.5-4.8s1.1-3.6,1.7-5.3,1.1-3.5,1.7-5.3l1.3-4.3.3-.8a4.3,4.3,0,0,1,.1-.5c.1-.5-.1-.7-.6-.7h-2.9c-1,0-1.3-.3-1.2-1.2v-.4c-.1-.7.5-.9,1-.9h8.5c1,0,1.3.2,1.3,1.2v.5c-.1.5-.2.7-.8.8h-2.1a.7.7,0,0,0-.6.4,5.6,5.6,0,0,0-.4,1.2l-.9,2.7-1.8,5.9-1.5,4.3-1.2,3.8c-.3.9-.5,1.8-.8,2.7l-1.5,4.5c-.3.9-.6,1.9-.8,2.8l-.4.9c-.4,1.2-.7,2.4-1.1,3.5s-.1.2-.1.3a.5.5,0,0,1-.7,0,5.6,5.6,0,0,1-.4-1.2c-.5-1.9-1-3.7-1.6-5.5l-1.8-6.2c-.8-2.5-1.5-5-2.2-7.4a.5.5,0,0,0-.2-.4v-.2h-.1c-.1.1-.2.2-.2.3l-.9,2.8a17.2,17.2,0,0,1-.7,2.1l-.6,1.9c-.8,2.4-1.5,4.7-2.3,7s-.8,2.9-1.3,4.3l-.9,2.5c0,.2-.2.2-.4.1a1.6,1.6,0,0,1-.4-.7c-.4-1.3-.9-2.6-1.3-3.9s-1.4-4.7-2.2-7a27.6,27.6,0,0,1-.8-2.7c-.2-.7-.6-1.5-.8-2.2s-1.1-3.5-1.6-5.3l-1.8-5.4c-.3-1.1-.7-2.2-1-3.4a18,18,0,0,0-.8-2.1c-.1-.4-.3-.5-.7-.5h-2.2a.5.5,0,0,1-.5-.3,2.3,2.3,0,0,1,.1-1.8l.4-.2h7.7c.3,0,.6.1.9-.1h1.7c.6-.1,1,.2,1.1.9a2.8,2.8,0,0,1-.1.9.7.7,0,0,1-.7.7h-2.9a.3.3,0,0,0-.3.5c.1.5.3,1,.4,1.5s.9,2.7,1.3,4.1.7,1.8.9,2.7,1.2,3.7,1.7,5.6l1.7,5,1,3.4c.1.2.2.3.2.5a.2.2,0,0,0,.3,0,.8.8,0,0,0,.2-.5l1.5-4.6c.2-.8.5-1.5.7-2.2s.9-2.9,1.4-4.3a28.1,28.1,0,0,1,1-3.1,2.8,2.8,0,0,0,0-1.3,7.5,7.5,0,0,1-.5-1.6c-.3-1.1-.6-2.2-1-3.4l-.3-1a.8.8,0,0,0-.2-.5.9.9,0,0,0-1.1-.8h-1.2c-.6-.1-.8-.3-.8-.9s-.1-.5-.1-.7a.8.8,0,0,1,.7-.8,19.2,19.2,0,0,1,2.4,0h2.6c.8-.1,1.5.1,2.2,0h3.7a.6.6,0,0,1,.7.7,1.7,1.7,0,0,1,0,1,.7.7,0,0,1-.7.7Z" fill="#7f7f7f"/><path d="M270.5,316.3V301.9a1.1,1.1,0,0,0-.7-1.2l-2.4-1.3-.3-.3c-.2-.2-.2-.4-.1-.5l.6-.4,1.3-.7a19.2,19.2,0,0,0,3.3-1.4l1.6-.6c.3-.1.5,0,.5.3v.3a24.6,24.6,0,0,0,.2,2.8c0,.4-.1.8-.1,1.2a19.3,19.3,0,0,0,.1,2.4,1.9,1.9,0,0,1-.1.8,12.1,12.1,0,0,0,0,1.9,9.7,9.7,0,0,0,0,1.7c0,.3.1.6.1.8s0,1.3-.1,1.9a4.8,4.8,0,0,0,0,1.2,16.2,16.2,0,0,1,0,2.2,5.7,5.7,0,0,0,.1,1.3c0,.3.3.5.7.3l.3-.3,1.1-1.1a7,7,0,0,1,2.9-1.9,5.3,5.3,0,0,1,3.3-.1,2.4,2.4,0,0,1,1.1.6,6.9,6.9,0,0,1,2,3,5,5,0,0,1,.2,1.2,17,17,0,0,1,.2,3.9v2.3c0,1.1.1,2.3,0,3.4a9.6,9.6,0,0,0,0,1.7c0,1.1.1,2.2,0,3.2a1.3,1.3,0,0,0,.1.6c0,.3.1.5.4.5h1.8a.6.6,0,0,1,.6.5v.4c.1,1.1.1,1.2-1.1,1.2h-7.4c-.9,0-1-.1-1.1-1a4.3,4.3,0,0,0-.1-.5.9.9,0,0,1,.6-.7h1.4c.8,0,1-.1,1-.9V320.3a7.4,7.4,0,0,0-.6-3.4,3.1,3.1,0,0,0-1.3-1.7,4.6,4.6,0,0,0-2-.5h-.5a7.5,7.5,0,0,0-2,1l-1.3,1.1a1.1,1.1,0,0,0-.3.8,6,6,0,0,0,0,1.9,6.5,6.5,0,0,0,0,2.4,10.9,10.9,0,0,0-.1,1.8v.5c0,.1.1.3.1.4a2.9,2.9,0,0,0,0,1.6,4.9,4.9,0,0,1-.1,1.2c-.1.5.1.9,0,1.4v.8c0,.6.1,1.1.1,1.7a.3.3,0,0,0,.3.3h1.6c.6,0,.8.2,1,.8a1.7,1.7,0,0,1-.1.7c-.1.5-.3.7-.8.7h-8c-.8,0-.9-.2-.9-1a1.7,1.7,0,0,0-.1-.7.1.1,0,0,0-.1-.1h-.1l-.5.5a6.2,6.2,0,0,1-1.9,1.4,5.5,5.5,0,0,1-5.4-.5,6.2,6.2,0,0,1-1.4-1.8,8,8,0,0,1-.7-3.4v-6a5.7,5.7,0,0,1,.1-1.3c.1-.1,0-.3,0-.5v-4.2a.9.9,0,0,0-.5-.9l-1.6-.8a2.6,2.6,0,0,1-.9-.5.4.4,0,0,1-.1-.6.8.8,0,0,1,.4-.4c.9-1.1,2-2.1,3-3.1l2.6-2.6c.3-.3.5-.2.7.2a2.8,2.8,0,0,1,.1,1.3,2.4,2.4,0,0,0,0,1.2v1.3c-.1.5.1.8.7.8h5.3c.7.1.9.4.6,1a6.4,6.4,0,0,1-.8,1.4.7.7,0,0,1-.6.4h-4.6a.5.5,0,0,0-.6.6v2.8a2.2,2.2,0,0,1-.1.8v.6a.6.6,0,0,1,.1.4,9.6,9.6,0,0,0,0,2.4c0,1-.1,1.9-.1,2.9a15.3,15.3,0,0,0,.3,3,3,3,0,0,0,1.4,1.9,2.5,2.5,0,0,0,1.9.5,6.8,6.8,0,0,0,2.7-1l.4-.4c.2-.1.4-.2.6,0s0,.3,0,.5-.3.7-.5,1-.2.7.6.7h1.2c.6,0,.8-.1.8-.8V316.3Z" fill="#7f7f7f"/><path d="M213.3,368.5h-2.2a.5.5,0,0,1-.4-.7c0-.4.2-.8.2-1.3s-.1-.2-.3-.1l-.3.2-.9.6a9.7,9.7,0,0,1-3.6,1.6,3.8,3.8,0,0,1-2.1.2,4.9,4.9,0,0,1-1.7,0,5.8,5.8,0,0,1-4.4-2.8,4.8,4.8,0,0,1-.7-2.1,3.8,3.8,0,0,0-.1-1h0c.2-.6,0-1.3.2-1.8a28,28,0,0,1,.6-2.8,19.7,19.7,0,0,1,3.1-5.7,18.5,18.5,0,0,1,4-3.9c.8-.5,1.6-.8,2.4-1.2h.2a9.8,9.8,0,0,1,2.9-.9H213a4.5,4.5,0,0,1,3.5,1.4c.8.8.8.9,1.2-.1a16.7,16.7,0,0,0,.8-2l.7-1.5.7-1.8a16.9,16.9,0,0,1,1.3-3.1,1,1,0,0,1,1-.7h4.9a.5.5,0,0,1,.4.7,1.9,1.9,0,0,1-.2.7c-.5.9-.8,2-1.2,2.9l-1.7,4.1a24.4,24.4,0,0,1-1,2.4,4.2,4.2,0,0,1-.4,1c-.6,1.5-1.2,2.9-1.7,4.4s-1.2,2.7-1.7,4-1.1,2.9-1.7,4.3a8.8,8.8,0,0,0-.5,1.5,5,5,0,0,0-.5,1.3,2.4,2.4,0,0,0-.3,1.2c-.2.9-.5,1.1-1.5,1.2h-1.8Zm-9.6-7.4a3.7,3.7,0,0,0,.1,1.1,2.7,2.7,0,0,0,2.4,1.7,5.5,5.5,0,0,0,2.8-.6,8.8,8.8,0,0,0,2.9-2.5l.6-1a10.2,10.2,0,0,0,1.6-3.7,5.1,5.1,0,0,0,.3-2.1,2.5,2.5,0,0,0-1.9-2.3,4.5,4.5,0,0,0-3.4.5,9.9,9.9,0,0,0-4,4.1,22.9,22.9,0,0,0-1,2.3A6.9,6.9,0,0,0,203.7,361.1Z" fill="#7f7f7f"/><path d="M299.4,316.7V303.3c0-1.2,0-1.2-1.1-1.2h-2.4c-.5-.1-.6-.3-.6-.8a1.4,1.4,0,0,1,0-.9q0-.4.6-.6h7.9c1.4-.3,2.8.1,4.1,0a18.8,18.8,0,0,1,4.8,1.2,8.3,8.3,0,0,1,2.8,2.1,6.8,6.8,0,0,1,1.3,2.7,13.8,13.8,0,0,1,.3,2,8.6,8.6,0,0,1-.9,3.9,7.8,7.8,0,0,1-2.4,2.7,5.9,5.9,0,0,1-1.9,1.1c-.1.1-.3.1-.4.3s-.1.2,0,.2l1.5.5,1.7.7a8.7,8.7,0,0,1,3.4,3.2,5.7,5.7,0,0,1,1,3.4v.5a1.9,1.9,0,0,1,0,1.3,7,7,0,0,1-.3,1.4,8.3,8.3,0,0,1-1.7,3.2,9.5,9.5,0,0,1-5.1,3.2,11.3,11.3,0,0,1-3.2.5H296.1a.7.7,0,0,1-.8-.8,1.1,1.1,0,0,1,0-.8.8.8,0,0,1,.7-.8h2.5c.7,0,.9-.2.9-1V316.7Zm7.1,14.7h0a8.6,8.6,0,0,0,1.6,0,6.7,6.7,0,0,0,2.8-.6,7.1,7.1,0,0,0,3.2-3,8.2,8.2,0,0,0,.6-2.6,5.4,5.4,0,0,0,0-1.8,4.5,4.5,0,0,0-1-3,5.9,5.9,0,0,0-3.1-2.3,9.3,9.3,0,0,0-2.9-.5h-3.1c-.5-.1-.8.2-.9.7a1.9,1.9,0,0,0-.1.8v9.2a13.3,13.3,0,0,1,0,2c0,.8.3,1.3,1.3,1.2Zm-2.9-22.7v5.6c0,.7.2.9.9.9h1.3a6.7,6.7,0,0,0,2.4-.4,5.1,5.1,0,0,0,1.8-.9,5.3,5.3,0,0,0,2.4-2.9,7.7,7.7,0,0,0,0-5.2,4.9,4.9,0,0,0-2.4-2.7,5.3,5.3,0,0,0-2-.7,13.1,13.1,0,0,0-3.4-.3c-.8,0-.9.2-1,.9v5.7Z" fill="#7f7f7f"/><path d="M222.4,389.4v2.8c0,.1,0,.2-.1.2a.3.3,0,0,1-.4.2c-.2-.1-.3-.3-.4-.4a6.7,6.7,0,0,0-.9-1.4,10.9,10.9,0,0,0-1.3-1.7,4.7,4.7,0,0,0-2.1-1.6,2.5,2.5,0,0,0-3,1.4,3.3,3.3,0,0,0,1,3.9,14,14,0,0,0,2.4,1.5l2,1,.3.2a6.7,6.7,0,0,1,2.8,3.6,2.7,2.7,0,0,1,.3,1.2,4.1,4.1,0,0,0,0,1.1,6.8,6.8,0,0,1-.7,2.8,5.5,5.5,0,0,1-.8,1.5c-.1.1-.2.3-.4.4a8.3,8.3,0,0,1-3.2,2h-.3a9.7,9.7,0,0,1-3.8-.2,6.4,6.4,0,0,1-2.8-1.5h-.1c-.4-.4-.6-.4-.9,0l-1,1a3.8,3.8,0,0,1-3.4.5,3.1,3.1,0,0,1-1.8-1.6,5.6,5.6,0,0,1-.5-.8c-.1-.2-.3-.3-.6-.1l-.6.4-1.4,1.2a6.2,6.2,0,0,1-2.2,1,3.8,3.8,0,0,1-3.4-.9,4.4,4.4,0,0,1-1.4-2.2,7.8,7.8,0,0,1,.1-3.4,3,3,0,0,1,.4-.8,8.8,8.8,0,0,1,3.6-3.3l4.3-2,.4-.2a1.3,1.3,0,0,0,.8-1.3,6.7,6.7,0,0,1,0-2,9.4,9.4,0,0,0-.6-2.4,2.8,2.8,0,0,0-2-1.5.1.1,0,0,0-.1-.1,11,11,0,0,1-1.8.2.7.7,0,0,0-.8.8v2.9c0,.7-.3,1-.9,1h-3.2c-.3,0-.5-.2-.4-.6s.1-.3.1-.5a12.5,12.5,0,0,1,3.4-4.5,10.3,10.3,0,0,1,4.4-2.3,4.1,4.1,0,0,1,3.1.5,4.3,4.3,0,0,1,1.9,2.3,7.8,7.8,0,0,1,.4,2.6,19.3,19.3,0,0,0,.1,2.4,21.7,21.7,0,0,0-.1,2.6,13.3,13.3,0,0,0,0,2,3.8,3.8,0,0,1,0,1.5V401a3.4,3.4,0,0,0,.1,1v.7a1.7,1.7,0,0,0,.5,1.2,1.1,1.1,0,0,0,1,.6,1.8,1.8,0,0,0,1-.1c.5-.2.8-.4.8-1v-2a1.7,1.7,0,0,1,.1-.7c0-.2.1-.2.2-.3s.3.1.3.2l.8,1.5a7.5,7.5,0,0,0,3.3,3.3,1.5,1.5,0,0,0,.9.2h1.8a3.3,3.3,0,0,0,1.7-2.1.4.4,0,0,1,.1-.3,3.4,3.4,0,0,0-1-3.3,6.1,6.1,0,0,0-2.3-1.5,13.2,13.2,0,0,1-2-1.2l-1-.5a9.6,9.6,0,0,1-1.7-1.8,3,3,0,0,1-.4-1.1,6.3,6.3,0,0,1-.4-3,6.4,6.4,0,0,1,3.2-5.2l1.4-.5a3.6,3.6,0,0,1,2.3,0,5.2,5.2,0,0,1,2,.9l.4.2c.3.2.5.1.8-.1l.7-.5.4-.2c.3,0,.5.1.5.3a4.5,4.5,0,0,1,.1,1.1v2.6Zm-24.9,12.7v.6a2.3,2.3,0,0,0,2.6,2.2,4.3,4.3,0,0,0,2.6-1.3,1.7,1.7,0,0,0,.5-1.3,18.2,18.2,0,0,1,0-3.3,6.6,6.6,0,0,0,0-1.4c-.1-.4-.2-.6-.6-.4l-.6.3-2.8,1.5A3.3,3.3,0,0,0,197.5,402.1Z" fill="#7f7f7f"/><path d="M272.1,346.6a8.9,8.9,0,0,1,2.3.1,7.4,7.4,0,0,1,3.7,1.7,5.7,5.7,0,0,1,1.8,2.8,6.9,6.9,0,0,1,.1,3.2,15.7,15.7,0,0,1-.4,2.3c-.1.5-.4.9-.5,1.3a15.9,15.9,0,0,1-2.1,4.1c-.6.7-1.1,1.4-1.7,2a20.9,20.9,0,0,1-2.8,2.4l-2.2,1.2a13.6,13.6,0,0,1-4.4,1.1l-2,.2-2.4-.2a8.9,8.9,0,0,1-4.5-2.6l-.2-.3a7.8,7.8,0,0,1-.9-3.3,14.1,14.1,0,0,1,.7-4.1,13.6,13.6,0,0,1,1.1-2.8,13.2,13.2,0,0,1,2.3-3.5l.9-1a15.1,15.1,0,0,1,5.4-3.6,16.8,16.8,0,0,1,3.2-.9Zm-9.4,14.2v1a1,1,0,0,0,.2.7,2.8,2.8,0,0,0,2.2,1.4,5.4,5.4,0,0,0,3.7-1.1,11.1,11.1,0,0,0,2.8-2.9,18.3,18.3,0,0,0,1.4-3.2,8.4,8.4,0,0,0,.4-2.7,2.4,2.4,0,0,0-1.8-2.3,7,7,0,0,0-2.5.1,7.4,7.4,0,0,0-3.6,2.4,9.5,9.5,0,0,0-1.7,2.7c-.3.7-.5,1.4-.8,2A3.3,3.3,0,0,0,262.7,360.8Z" fill="#7f7f7f"/><path d="M293.1,368.5h-2.8c-.2,0-.3-.3-.3-.5a.6.6,0,0,1,.1-.4c.7-1.8,1.4-3.5,2.2-5.3s1.1-2.7,1.6-4.1,1.7-4.2,2.6-6.3l1.2-3.3a2.6,2.6,0,0,1,.3-.8.8.8,0,0,1,.9-.6,5.6,5.6,0,0,1,1.3,0,10.5,10.5,0,0,0,2.5-.1h.7a.5.5,0,0,1,.3.7,5.2,5.2,0,0,0-.2,1.1.4.4,0,0,0,.1.3h.2a9.6,9.6,0,0,1,2.1-1.4,8.8,8.8,0,0,1,4.4-1.2h1a4.9,4.9,0,0,1,2.1.3,4,4,0,0,1,2.9,3.4,6.5,6.5,0,0,1-.1,2.4,17.3,17.3,0,0,1-1.1,3.2,20,20,0,0,0-1,2.6c-.5,1.1-1,2.2-1.4,3.3l-1.6,4c-.3.7-.5,1.3-.8,1.9a1.2,1.2,0,0,1-1.2.8c-1.4-.1-2.8,0-4.3,0h-.3c-.5,0-.7-.3-.5-.7l.9-2.5,1.5-3.6,2.1-5.1a8.3,8.3,0,0,0,.6-2.1,2.6,2.6,0,0,0-.1-1.5,1.7,1.7,0,0,0-1.4-1,5.5,5.5,0,0,0-4.4,1.4,9.4,9.4,0,0,0-2.5,3.7l-2.1,5.4c-.5,1.1-.9,2.2-1.4,3.4s-.5,1.2-.8,1.9a1,1,0,0,1-1.1.8,16.2,16.2,0,0,0-2.2,0Z" fill="#7f7f7f"/><path d="M337.9,368.5h-2.5a.4.4,0,0,1-.4-.6,3.1,3.1,0,0,1,.2-.8,32,32,0,0,0,1.6-3.9c.6-1.5,1.3-3,1.8-4.5s1-2.4,1.4-3.7a2.7,2.7,0,0,0,.2-1.3,1.8,1.8,0,0,0-1.5-1.7h-1.9a4.7,4.7,0,0,0-1.5.6,9.9,9.9,0,0,0-2.5,2.5,13.3,13.3,0,0,0-1.6,3.4l-2.3,5.6-1.2,3.1-.5.9c-.1.3-.4.4-.7.5h-.8c-1.3,0-2.5-.1-3.7,0s-1.1-.3-.8-1.2l2.1-5.1,1.2-3,1.4-3.6,1.2-2.7c.4-1.3,1-2.5,1.4-3.8s.4-.9.5-1.5a.7.7,0,0,1,.7-.5h4.6a.5.5,0,0,1,.4.7,2.9,2.9,0,0,1-.2.9v.4c0,.1.1.2.2.1l.3-.2a11.1,11.1,0,0,1,3-1.7,6.4,6.4,0,0,1,3.3-.7h1.1a5,5,0,0,1,2.9.7,4.1,4.1,0,0,1,1.8,1.9,6.2,6.2,0,0,1,.2,2.7,12.9,12.9,0,0,1-.4,1.9,10.7,10.7,0,0,1-.7,1.9c-.5,1.4-1.2,2.8-1.7,4.2a23.3,23.3,0,0,1-1.1,2.8c-.5,1.1-.9,2.1-1.3,3.2s-.5,1.3-.8,1.9a.8.8,0,0,1-.5.5,1.1,1.1,0,0,1-.8.2Z" fill="#7f7f7f"/><path d="M281.1,373.6c2.8,0,5.6-.1,8.5,0a3.1,3.1,0,0,0,1.8-.5l.8-.5c.3-.2.6-.1.6.2a2.8,2.8,0,0,1,.1.9v8.1a.5.5,0,0,1-.3.5c-.2,0-.3-.1-.4-.3l-.9-1.4-.7-1.2c-.6-.9-1.2-1.8-1.7-2.7a1.2,1.2,0,0,0-1.3-.6h-1.3a14.7,14.7,0,0,1-2.1,0,6,6,0,0,0-1.9,0,5.7,5.7,0,0,1-1.3,0h-1.1c-.3.1-.5.2-.5.6s-.3,1,0,1.5v.4a8.8,8.8,0,0,0,0,2.8c-.2.5,0,1.1-.1,1.7s.1.9,0,1.4a5.7,5.7,0,0,0,0,1.3c.1.4-.1.9.1,1.3v.2a2.2,2.2,0,0,0-.1,1.1c0,.6.2.8.7.9h.3a10.3,10.3,0,0,1,2.5-.1h1.9a.9.9,0,0,0,.6-.3l.6-.9,1.8-3c.1-.2.2-.5.6-.4s.2.4.2.6v10.2a3.4,3.4,0,0,1,0,1c-.1.1-.3.2-.4.1l-.2-.2-.9-1.3-1.3-2.3c-.6-.8-.4-.9-1.7-.9h-4.1a.6.6,0,0,0-.5.5,7.4,7.4,0,0,0-.1,2.1c0,.2.1.3,0,.4a13.1,13.1,0,0,0,.1,2.8v.3a6.1,6.1,0,0,0-.1,1.9v5.2c.1.3.2.5.5.5h4a.8.8,0,0,1,.7.9v.8c0,.4-.2.6-.6.8H271.7c-.6-.1-.8-.3-.8-1a.4.4,0,0,1,0-.5c.1-.7.1-.9,1-1h2.4c.6-.1.7-.2.7-.8h0c.1-2.8,0-5.7.1-8.5s0-3.8-.1-5.7a14.7,14.7,0,0,0,0-2.1.7.7,0,0,1,.1-.5,1.4,1.4,0,0,0,0-.9,4.8,4.8,0,0,1,0-1.7v-3.2c0-1.1-.1-2.3,0-3.4a10.9,10.9,0,0,0-.1-1.8c0-.3-.1-.4-.4-.5a5.9,5.9,0,0,0-1.9-.1h-1.1a.7.7,0,0,1-.7-.6,2,2,0,0,1,0-1.1c.1-.4.3-.7.7-.7h9.5Z" fill="#7f7f7f"/><path d="M156.7,401a25.3,25.3,0,0,0,.1-2.8,1.7,1.7,0,0,1,.1-1,.2.2,0,0,1,.2-.2l.2.2.6,1.3a18.3,18.3,0,0,0,2.3,3.8l.5.7a8.3,8.3,0,0,0,2.3,1.9,6,6,0,0,0,3,.7,6.9,6.9,0,0,0,2-.3,4.7,4.7,0,0,0,2.7-2.3,6.2,6.2,0,0,0,.9-3.2,6.3,6.3,0,0,0-1.4-4.2,6.8,6.8,0,0,0-2-1.8l-2-1.2-1.1-.5a26.9,26.9,0,0,1-2.9-1.6,9.5,9.5,0,0,1-3.3-3,7.3,7.3,0,0,1-1.3-4.3v-1.1a10.2,10.2,0,0,1,1.3-4.8,9.4,9.4,0,0,1,2.7-2.9,8.2,8.2,0,0,1,3.2-1.2h.7c.1,0,.3-.1.4,0l1.5.2a8,8,0,0,1,3.5,1.6c0,.1.1.1.2.2a.8.8,0,0,0,.9,0l1.1-1,.8-.6c.2-.1.3,0,.4.1a2.4,2.4,0,0,1,.2.8c-.1,1.1-.1,2.2-.1,3.3a17.7,17.7,0,0,1,0,2.3v2.1a2.5,2.5,0,0,1-.1,1.2c0,.2-.2.3-.4.1s-.4-.6-.6-.9-.9-1.6-1.4-2.4l-1.1-1.6a8.9,8.9,0,0,0-2.9-2.2,7.9,7.9,0,0,0-2.2-.5,4.4,4.4,0,0,0-3.6,1.8,4.6,4.6,0,0,0-.8,1.9,4.4,4.4,0,0,0-.2,1,2.7,2.7,0,0,0,0,.9,5.6,5.6,0,0,0,2.2,3.9,13.2,13.2,0,0,0,3.2,2,15.5,15.5,0,0,1,2.2,1.2,18.1,18.1,0,0,1,3.3,2,8.7,8.7,0,0,1,3.4,5.6,12.1,12.1,0,0,1,0,1.9,10.6,10.6,0,0,1-1.5,5.5,6.2,6.2,0,0,1-1.4,1.8,8.8,8.8,0,0,1-3.6,2.4,6.5,6.5,0,0,1-2,.5,22.8,22.8,0,0,1-3.7,0h-.4l-2.6-1a9.7,9.7,0,0,1-3.1-2.2,1.3,1.3,0,0,1-.4-1V401Z" fill="#7f7f7f"/><path d="M123,321.3v9.8c0,.3.2.5.6.5h1.3c.7.1,1,.3,1,1s0,1.2-1.2,1.2h-7.9l-.5-.2a1.3,1.3,0,0,1-.2-1.3,1,1,0,0,1,.8-.7h1.6c.3,0,.4-.2.5-.5a8.1,8.1,0,0,0,0-2.2v-.7c.1-1.1-.1-2.2,0-3.4a7.5,7.5,0,0,0,0-1.5v-.9a.4.4,0,0,0,.1-.3,10.9,10.9,0,0,1-.1-1.8V317a.8.8,0,0,0-.2-.4l-1.5-1.1a.5.5,0,0,0-.6.1l-.4.4-.5.5c-.6.4-.8.5-1.5,0l-1.5-1.1-.5-.3a.6.6,0,0,0-.9.1l-1.2,1.1c-.2.2-.4.5-.7.6a1.7,1.7,0,0,0-.7,1.3v12.7c.1.5.2.7.8.7h3a.7.7,0,0,1,.4.5v1c-.1.4-.2.6-.6.6h-9.3c-.3,0-.7.1-.9-.2a1.5,1.5,0,0,1-.2-1.3,1,1,0,0,1,.8-.7h1.7a.4.4,0,0,0,.4-.4V318c0-.1.1-.3,0-.5a2.1,2.1,0,0,0-.7-1.3l-2-1.5h-.1c-.5-.4-.6-.8.1-1.1l.6-.3,3.1-1.4,2-1c.5-.2.9,0,.9.6v2.4a1.3,1.3,0,0,0,.1.6.4.4,0,0,0,.7.2,5.7,5.7,0,0,0,1.1-1.1,8.6,8.6,0,0,1,2.6-2.1,2.6,2.6,0,0,1,2.4-.2,2.3,2.3,0,0,1,1.1,1.1c.4.7.5.7,1.3.4l3-1.4,1.2-.5a.5.5,0,0,1,.6.3,2.5,2.5,0,0,1,.1.8v9.4Z" fill="#7f7f7f"/><path d="M262.1,397.8v6.8c0,.7.1.9,1.1,1h1.1c.6.1.7.2.7.8v.5a.9.9,0,0,1-.6.9H259a14.7,14.7,0,0,0-2.1,0h-.6c-.7-.1-.9-.3-.9-1v-.4c0-.6.2-.8.8-.8h1.1c.9-.2,1-.3,1-1.1V393.6a8,8,0,0,0-.6-3,3.3,3.3,0,0,0-1.8-1.7,4.1,4.1,0,0,0-2.9.1l-1.7,1.1c-1.2,1.2-1,.8-1,2.4v12.3a.8.8,0,0,0,.7.8h.6a2,2,0,0,1,1.1.1c.2,0,.3.2.4.4a3.7,3.7,0,0,1,.1,1.1.8.8,0,0,1-.4.4,1.5,1.5,0,0,1-.9.2h-7.5a1,1,0,0,1-.9-1.6c.1-.3.2-.5.5-.6h1.3c.9,0,1.1-.2,1-1.1v-4.9a40.1,40.1,0,0,1,0-4.9c-.1-.8.1-1.5,0-2.3a2.1,2.1,0,0,1,0-.8,1.1,1.1,0,0,0-.5-1.2l-1.1-.9-.9-.7a1.7,1.7,0,0,1-.6-.6c-.2-.3-.1-.5.2-.6l.9-.5,3.5-1.6c.2,0,.4-.2.6-.3l.9-.4c.6-.2,1,0,1,.6v2.8a.4.4,0,0,0,.6.3,1.8,1.8,0,0,0,.7-.5l1.3-1.3a10.4,10.4,0,0,1,1.7-1.2,18,18,0,0,1,2.2-.6,3.4,3.4,0,0,1,1.4.2,3.6,3.6,0,0,1,2.1,1.1,6.7,6.7,0,0,1,1.7,3.6,32.3,32.3,0,0,1,.1,4.4Z" fill="#7f7f7f"/><path d="M148.9,324.4v5.8c0,.3-.1.6.1.9a.6.6,0,0,0,.6.5h1.8a.3.3,0,0,1,.3.3,2.9,2.9,0,0,1,.1,1.3c-.1.4-.3.5-.7.5h-8.5a.5.5,0,0,1-.5-.5,3.3,3.3,0,0,1,0-1,.9.9,0,0,1,.8-.7h1.5a.6.6,0,0,0,.6-.5V317.7a1.5,1.5,0,0,0-.7-1.4l-1.9-1.5h-.2c-.6-.5-.6-.8,0-1.1l2-1,3.1-1.4.8-.4a.5.5,0,0,1,.7.5.7.7,0,0,1,.1.5v2.4c0,.4.4.6.8.4l.6-.6a7,7,0,0,1,3-2.4,5.1,5.1,0,0,1,4.2-.3,4.4,4.4,0,0,1,2.2,1.9,9.8,9.8,0,0,1,1.1,3.8,25.4,25.4,0,0,1,0,3.9,9.6,9.6,0,0,1,0,1.7,12.2,12.2,0,0,1,0,2.7c-.1.2,0,.3,0,.5v1.9a4.3,4.3,0,0,1,0,1.6,5.7,5.7,0,0,1,0,1.3c-.1.1,0,.3,0,.4s.3.6.8.6h1.3c.5.1.6.1.7.6a1.3,1.3,0,0,1,0,1.2.5.5,0,0,1-.6.4h-8.2a.7.7,0,0,1-.8-.7v-.6c.2-.7.2-.9,1-.9h1.2c.4,0,.6-.1.8-.6v-.3a17.7,17.7,0,0,0-.1-2.3c0-.2-.1-.4,0-.6a23.5,23.5,0,0,0,.1-2.6,8.1,8.1,0,0,1,0-2.2,18.2,18.2,0,0,0-.1-3.3c-.1-.2,0-.5,0-.7a5.4,5.4,0,0,0-1-3,4.1,4.1,0,0,0-1.3-1,4,4,0,0,0-4.3.9l-.8.8a1.7,1.7,0,0,0-.6,1.5,19.2,19.2,0,0,0,0,2.4Z" fill="#7f7f7f"/><path d="M341.4,333.8h-4c-.6,0-.9-.2-.9-.8a3.6,3.6,0,0,1,.2-1.1.5.5,0,0,1,.5-.3h1.7c.2,0,.3-.1.4-.3a2,2,0,0,0,.2-1.1V317.5a1.2,1.2,0,0,0-.5-1l-2.2-1.7a1,1,0,0,1-.4-.5.4.4,0,0,1,0-.6.5.5,0,0,1,.5-.3c1.2-.4,2.2-1.1,3.4-1.5a8.9,8.9,0,0,1,1.7-.8l.5-.3c.5-.1.8,0,.8.6a12.1,12.1,0,0,1,0,1.9v.8a.7.7,0,0,0,.4.5c.3.1.5.1.6-.1a3.4,3.4,0,0,1,.8-.9,7.8,7.8,0,0,1,3.9-2.5,4.8,4.8,0,0,1,5.7,3.3,26.1,26.1,0,0,1,.6,2.7c-.2.6.1,1.3-.1,1.9v.3c.1.5,0,1.1.1,1.6a6.7,6.7,0,0,1-.1,2v.8a7.4,7.4,0,0,1,0,2.1c0,1.3,0,2.5.1,3.7v.8c-.1.1,0,.3,0,.4s.3.9.9.9h1.2c.5.1.6.3.7.8s.1.2.1.3-.2,1.1-1.2,1.1h-7.5c-.8,0-1-.2-1.1-1.1v-.3a.7.7,0,0,1,.4-.6l.7-.2h1.2c.6,0,.8-.3.8-.9s-.1-2.8-.1-4.2V324a9.7,9.7,0,0,0,0-1.7,16.2,16.2,0,0,0,0-2.2,4.5,4.5,0,0,1-.1-1.1,3.9,3.9,0,0,0-.7-2.6A2.7,2.7,0,0,0,349,315l-.7-.2a1.7,1.7,0,0,0-1-.1,5.6,5.6,0,0,0-2.1.9l-1.2,1a2.2,2.2,0,0,0-.7,1.7v12.6c.1.6.3.7.8.7h1.7a.5.5,0,0,1,.4.5v1.1a.5.5,0,0,1-.5.5h-4.3Z" fill="#7f7f7f"/><path d="M291.6,396.4a14,14,0,0,1,2.1-7.1,13.1,13.1,0,0,1,2.3-2.4,8.8,8.8,0,0,1,4.3-1.9h.2a8.3,8.3,0,0,1,6.4,1.9,13.1,13.1,0,0,1,2,2.1,8.8,8.8,0,0,1,1.2,2.1,22.9,22.9,0,0,1,.9,2.8h.1a18.1,18.1,0,0,1-.1,5.2,9.2,9.2,0,0,1-1,3.2,10.2,10.2,0,0,1-3,3.8,7.7,7.7,0,0,1-3.7,1.9h-2.9a8.2,8.2,0,0,1-4.2-1.7,11.7,11.7,0,0,1-4.3-7.3.7.7,0,0,1-.1-.5,6.8,6.8,0,0,0-.2-1.4Zm4.4.2h0v2.5a17.1,17.1,0,0,0,.9,3,8.4,8.4,0,0,0,2.2,3.1,3.5,3.5,0,0,0,2.3.9,3,3,0,0,0,2.3-.8l1.3-1.4a10.4,10.4,0,0,0,1.5-3.4,10.6,10.6,0,0,0,.4-3.1v-2.9a14.8,14.8,0,0,0-1.4-4.2,7.3,7.3,0,0,0-1.6-2.2,3.7,3.7,0,0,0-4.8-.1,5.2,5.2,0,0,0-1.7,2.2c-.1.2-.1.3-.2.4a10.1,10.1,0,0,0-1.2,5.1Z" fill="#7f7f7f"/><path d="M223.7,396.8a15.3,15.3,0,0,1,.4-3.8,11.7,11.7,0,0,1,3.6-5.8,8,8,0,0,1,4.6-2.2h1.2a10.5,10.5,0,0,1,3.4.8,8.2,8.2,0,0,1,2,1.2,9.2,9.2,0,0,1,2.7,3.2,10.9,10.9,0,0,1,1,2.5,9.8,9.8,0,0,1,.5,1.6c0,.4.1.7.1,1h0a8.8,8.8,0,0,1,0,2.8,13.3,13.3,0,0,1-1.4,4.8,19.5,19.5,0,0,1-1.7,2.3,5,5,0,0,1-1.7,1.5,7.8,7.8,0,0,1-2.9,1.4h-2.1a5.6,5.6,0,0,1-2.2-.3l-1.7-.7a4.6,4.6,0,0,1-1.5-.9,12.8,12.8,0,0,1-2.9-3.7,9.6,9.6,0,0,1-1.1-2.8A11.2,11.2,0,0,1,223.7,396.8Zm15.3-.3a10.5,10.5,0,0,0-.3-3,11.7,11.7,0,0,0-2.1-4.7,5.1,5.1,0,0,0-2.1-1.5,3.3,3.3,0,0,0-3.3.7,8.7,8.7,0,0,0-2.8,4.9,20,20,0,0,0-.4,2.4,1.9,1.9,0,0,0,0,1.3v.3a7.4,7.4,0,0,0,.1,2.1,13.4,13.4,0,0,0,1.3,4,6.5,6.5,0,0,0,2.3,2.6,3.9,3.9,0,0,0,2.6.4,5.1,5.1,0,0,0,2.3-1.5,8.7,8.7,0,0,0,1.8-3.6A15.6,15.6,0,0,0,239,396.5Z" fill="#7f7f7f"/><path d="M293.5,352.8a6.3,6.3,0,0,0-4.6,1.7l-.5.7a13.9,13.9,0,0,0-2.2,3.7c-.6,1.3-1,2.7-1.6,4s-1.2,3.1-1.9,4.6-.1.4-.2.5a1.1,1.1,0,0,1-.9.5H277c-.6-.1-.8-.4-.7-.9l.7-1.8c.5-1.2,1.1-2.5,1.5-3.8s1-2.2,1.4-3.3l1.7-4.2c.6-1.4,1.2-2.9,1.7-4.3s.5-1.3.7-1.9a1.4,1.4,0,0,1,.2-.6,1.1,1.1,0,0,1,1-.8c1.4.1,2.7,0,4,0h.3a.5.5,0,0,1,.5.5,2.9,2.9,0,0,0-.2.9c0,.3-.3.6,0,.8s.5-.2.6-.3l1.4-1a9.4,9.4,0,0,1,3.6-1.1,1.7,1.7,0,0,1,1.4.2c.4.2.5.4.3.8a26,26,0,0,1-1,2.5c-.2.6-.5,1.1-.7,1.7l-.2.3a.9.9,0,0,1-.8.5Z" fill="#7f7f7f"/><path d="M135.4,320.5h-5.7a.7.7,0,0,0-.7.6v1.5a11.7,11.7,0,0,0,.9,3.2,7.8,7.8,0,0,0,1.6,2.4,7.9,7.9,0,0,0,1.7,1.4,5.6,5.6,0,0,0,2.1.6h.9a6,6,0,0,0,3.2-1,2.6,2.6,0,0,0,1.2-1.1h.2c.2-.2.5-.5.7-.4s.1.5.1.8c-.8,3-2.6,5.3-5.9,5.9h-1.9a7.5,7.5,0,0,1-3.2-1,12.8,12.8,0,0,1-2.6-2.6,10,10,0,0,1-.8-1.4,10.4,10.4,0,0,1-1.1-3.8,7.8,7.8,0,0,1-.2-1.4,12.3,12.3,0,0,1,.3-4.3,14.4,14.4,0,0,1,2.2-5.1,8.9,8.9,0,0,1,4.1-3.3,2.7,2.7,0,0,1,1.2-.3,6.9,6.9,0,0,1,4.7.9,6.6,6.6,0,0,1,1.8,1.9,9.2,9.2,0,0,1,1.9,5.5,1.4,1.4,0,0,1-.2.7c-.1.2-.2.4-.5.4h-6Zm-1.3-6.7a2.6,2.6,0,0,0-1.2.1,7.6,7.6,0,0,0-1.9,1.2,11.6,11.6,0,0,0-1.4,2.4v.4c-.1.2,0,.3.3.4s1.5,0,2.3.1h1.3a7,7,0,0,1,2.5,0l1.7-.2a.5.5,0,0,0,.4-.6,8.6,8.6,0,0,0-.7-2.1,4,4,0,0,0-1.8-1.6A3.4,3.4,0,0,0,134.1,313.8Z" fill="#7f7f7f"/><path d="M329.8,320.5h-5.3c-.9,0-1,.2-1,1a15,15,0,0,0,.2,2.2,21.4,21.4,0,0,0,.9,2.7,7.4,7.4,0,0,0,1.2,1.7l.9.8a5.4,5.4,0,0,0,3.2,1.3h.5a5.5,5.5,0,0,0,2.8-.6,4,4,0,0,0,1.8-1.4c.2-.1.3-.3.5-.5s.5,0,.5.3.1.5,0,.7a8.3,8.3,0,0,1-3.3,4.7,6.3,6.3,0,0,1-3.1,1,9.6,9.6,0,0,1-3.7-.6,6.6,6.6,0,0,1-1.7-1.2,10.8,10.8,0,0,1-3.2-4.9,15.5,15.5,0,0,1-.5-2.3,12.3,12.3,0,0,0-.2-1.9,2.1,2.1,0,0,1,0-1.1c.1-.9.2-1.8.4-2.8a13,13,0,0,1,1.8-4.2,9,9,0,0,1,1.4-2,8.4,8.4,0,0,1,4.1-2.3,5.9,5.9,0,0,1,2.3,0l1,.2a6.4,6.4,0,0,1,2.5,1.5,10.7,10.7,0,0,1,1.9,2.8,10.9,10.9,0,0,1,.7,3,3.6,3.6,0,0,1,.2,1.1.7.7,0,0,1-.6.7h-6.2Zm-1.4-6.7a3.2,3.2,0,0,0-2.2.7,6.7,6.7,0,0,0-2.2,3.3c-.1.2.1.6.4.7h.8a19,19,0,0,1,3.4-.1c1.1.1,2.3,0,3.5,0s.4-.3.4-.6a6.1,6.1,0,0,0-.5-1.8,3.2,3.2,0,0,0-2.3-2.1Z" fill="#7f7f7f"/><path d="M367.5,320.5h-5.8c-.3.1-.5.2-.5.5a7.6,7.6,0,0,0,.2,2.6l.3,1.2a7.7,7.7,0,0,0,3.9,4.9,5.4,5.4,0,0,0,2.1.5,7.5,7.5,0,0,0,2.1-.2,5.4,5.4,0,0,0,3-1.9l.5-.5c.2-.1.4-.1.4.1a1,1,0,0,1,0,.9,6.5,6.5,0,0,1-.4,1.3,8.3,8.3,0,0,1-1.9,2.7,6.1,6.1,0,0,1-3.2,1.6,7.2,7.2,0,0,1-4.8-.6,7.5,7.5,0,0,1-1.8-1.3,7.1,7.1,0,0,1-1.7-2.1,14,14,0,0,1-1.6-4h0a17,17,0,0,1-.2-4.5,15.9,15.9,0,0,1,.6-3,13,13,0,0,1,1.3-3,10.6,10.6,0,0,1,1.6-2.1l1.4-1.2a7.1,7.1,0,0,1,3.5-1.3,6.3,6.3,0,0,1,4,1l.7.5a3.4,3.4,0,0,1,.9.8,11.3,11.3,0,0,1,2.1,5.5,2.8,2.8,0,0,1,.1.9.7.7,0,0,1-.6.7h-6.2Zm-1.2-6.7a2.2,2.2,0,0,0-1.1.1,8.2,8.2,0,0,0-2,1.2,7.2,7.2,0,0,0-1.5,2.7c-.1.1,0,.3.1.4a.9.9,0,0,0,.7.3,5.5,5.5,0,0,1,1.8-.1,5.7,5.7,0,0,0,1.3,0,8.5,8.5,0,0,0,1.6,0h.5a1.1,1.1,0,0,0,.8,0h1.4c.2-.1.3-.2.3-.4a5.9,5.9,0,0,0-.5-1.9,3.2,3.2,0,0,0-2.3-2.1Z" fill="#7f7f7f"/><path d="M189.5,394.3H183c-.6-.1-1.2.1-1.8,0h-.5a.7.7,0,0,0-.6.6v.5a3.8,3.8,0,0,1,.1,1,4.9,4.9,0,0,0,.1,1.2,6.1,6.1,0,0,1,.3,1.1,8.7,8.7,0,0,0,1.4,2.7,6.6,6.6,0,0,0,1.9,1.8,3.7,3.7,0,0,0,2,.7l1.1.2a6.1,6.1,0,0,0,4.2-1.7l1-.9c.1-.2.4-.1.5.2a1.1,1.1,0,0,1,0,.8,14.7,14.7,0,0,1-1.4,2.8,6.8,6.8,0,0,1-3.9,2.7h0a8.7,8.7,0,0,1-3.6,0,6.8,6.8,0,0,1-2.7-1.3,8.8,8.8,0,0,1-2.1-2.2,12.7,12.7,0,0,1-2-6.3.7.7,0,0,0-.1-.5,7.4,7.4,0,0,1,.1-2.1c.1-.6.1-1.2.2-1.7a10.3,10.3,0,0,1,.7-2.5,18.6,18.6,0,0,1,1-2c.5-.8,1.1-1.4,1.6-2.1l1-.8a6.8,6.8,0,0,1,3.3-1.6H186a8.5,8.5,0,0,1,3.1.9l1,.7A6.7,6.7,0,0,1,192,389a11.2,11.2,0,0,1,1,3.1,5.5,5.5,0,0,1,.1,1.8c-.1.2-.2.4-.4.4h-3.2Zm-4.7-2h4c.1,0,.2-.1.2-.3a1.3,1.3,0,0,0,.1-.6,5.2,5.2,0,0,0-1.6-3,4.6,4.6,0,0,0-2.5-.8,4.5,4.5,0,0,0-3,1.6,7.4,7.4,0,0,0-1.3,2.1c-.3.8-.1,1,.7,1Z" fill="#7f7f7f"/><path d="M315.4,368.5h-2.2c-.7-.1-1-.5-.6-1.1s.5-1.4.8-2.1l1.7-4.2a20,20,0,0,0,1-2.6,22.9,22.9,0,0,0,1-2.3l1.2-3.1,1.2-2.6.9-2.4a1.4,1.4,0,0,1,.8-1c.2-.1.4-.2.5-.1a6,6,0,0,0,1.9,0h.7a2.6,2.6,0,0,0,1.5,0h.5a.6.6,0,0,1,.6.8v.4c-.6,1.4-1.2,2.9-1.7,4.3s-1.9,4.6-2.8,6.8l-2.7,6.7-.7,1.6a1.3,1.3,0,0,1-1.3.9,16.1,16.1,0,0,0-2.2,0Z" fill="#7f7f7f"/><path d="M248.3,324.2v-6.7a1.3,1.3,0,0,0-.4-.9l-1.5-1.3-.9-.6c-.2-.1-.3-.3-.4-.4s-.1-.5.2-.7l.6-.3a33.1,33.1,0,0,0,3.3-1.5l2.3-1c.3-.1.5-.1.6.3a3.6,3.6,0,0,1,.2,1.1c-.1.7,0,1.4-.1,2v1.6c.1,2.3.1,4.6,0,6.8v1.1c0,.6.1,1.1.1,1.7s-.1.9-.1,1.4,0,2.8.1,4.2.1.6.7.6h1.4a.6.6,0,0,1,.6.5,2,2,0,0,1,.2,1.1.7.7,0,0,1-.7.6H246a.7.7,0,0,1-.6-.4,2.9,2.9,0,0,1,0-1.3l.3-.2a1.1,1.1,0,0,1,.8-.3h1.2c.4,0,.5-.2.6-.6v-6.8Z" fill="#7f7f7f"/><path d="M368.4,364.6a7.1,7.1,0,0,1,.6-2.5c.2-.6.6-1.2.8-1.7l.3-.5,1.1-1.2,1.3-1.1a9.9,9.9,0,0,1,5.2-1.8,7.5,7.5,0,0,1,2.6.4,3.3,3.3,0,0,1,2.4,2.9,7.4,7.4,0,0,1-.5,3.6,8.6,8.6,0,0,1-2.3,3.3,8.3,8.3,0,0,1-1.4,1.3,12.5,12.5,0,0,1-3.6,1.5,6.5,6.5,0,0,1-2.4.1H372a3.3,3.3,0,0,1-3.1-1.9,4.9,4.9,0,0,1-.5-1.6Zm7.7-5.4h1.7a1.8,1.8,0,0,1,1.2.5,1.1,1.1,0,0,1,.2,1.1v.3a1.6,1.6,0,0,1-.7,1.5,1.8,1.8,0,0,0-.7.5.5.5,0,0,0-.3.6,7.6,7.6,0,0,0,.4,1.1c0,.1.2.2.4.1l.2-.2a7.9,7.9,0,0,0,1.9-3.3,3.1,3.1,0,0,0,.1-1.9,2.8,2.8,0,0,0-1.5-1.7,3.6,3.6,0,0,0-2.5-.1c-1.6.3-2.7,1.4-3.9,2.4a.2.2,0,0,0-.2.2l-1.1,1.6-.3.7a3.8,3.8,0,0,1-.3,1,2,2,0,0,0,0,1.1,2.5,2.5,0,0,0,1.3,2.2,4.4,4.4,0,0,0,2.8.2,8.2,8.2,0,0,0,1.9-.9h.2v-.2H376a.8.8,0,0,1-.8-.6c-.1-.3-.1-.5-.2-.8s-.1-.3-.2-.3l-.2.2-.5.9a.9.9,0,0,1-.9.6h-1a.6.6,0,0,1-.6-.8l.3-.7,1.3-3.4a3.6,3.6,0,0,1,.4-.9.9.9,0,0,1,1.1-.7Zm.3,2.1c0-.2-.1-.3-.2-.3a.5.5,0,0,0-.4.2.4.4,0,0,0,.1.3A.4.4,0,0,0,376.4,361.3Z" fill="#7f7f7f"/><path d="M327.1,337.5c.3,0,.5-.1.7,0a2,2,0,0,1,1.5.6,2.5,2.5,0,0,1,.9,2.1,3.5,3.5,0,0,1-1.2,2.9,4,4,0,0,1-1.2,1,3.2,3.2,0,0,1-1.9.3,2.1,2.1,0,0,1-1.1-.1,2.8,2.8,0,0,1-1.9-2.4,4.2,4.2,0,0,1,.9-2.9,9,9,0,0,1,2-1.4A3.1,3.1,0,0,1,327.1,337.5Z" fill="#7f7f7f"/><path d="M252.5,302.1a2.7,2.7,0,0,1-.7,2.1,3,3,0,0,1-2.1,1h-.3a3.1,3.1,0,0,1-2.1-2.8c.1-.2,0-.5.1-.8a2.7,2.7,0,0,1,1.2-2.2,2.5,2.5,0,0,1,2.9.3,2.7,2.7,0,0,1,1,1.9Z" fill="#7f7f7f"/><path d="M123.2,302.1a2.4,2.4,0,0,1-.5,1.8,3.6,3.6,0,0,1-1.5,1.2h-.8a3,3,0,0,1-1.9-1.2,5.6,5.6,0,0,1-.4-1.2,3.1,3.1,0,0,1,.5-2.5,2.4,2.4,0,0,1,4.2.1A3,3,0,0,1,123.2,302.1Z" fill="#7f7f7f"/><path d="M207.9,185.7c12,0,19.9,4.9,19.9,14.7,0,16.2-19.6,28-39.2,28-13.9,0-25.2-5.6-25.2-15.5,0-8,8.6-13.8,15.8-17.3v-2.7c-3.3-1.4-6.9-4.5-6.9-9.6s3.3-9.5,7.7-13.7c-6.2-3.6-10.6-10-10.6-17.5,0-12.2,11.1-21.1,23.5-21.1a24.8,24.8,0,0,1,17.3,6.9l17.2-8.6v11.6H212.8a18.9,18.9,0,0,1,3.6,11.2c0,12.1-11.2,21.1-23.5,21.1a25.6,25.6,0,0,1-11.7-2.9v15.4Zm-22.3,8.8c-6,2.5-12.5,7.4-12.5,15.4s7.8,13,20.9,13,25.5-7.3,25.5-18.2c0-7.7-6.6-10.2-16.5-10.2Zm7.3-25.6c7.8,0,13.4-7.5,13.4-16.8s-5.6-16.8-13.4-16.8-13.4,7.4-13.4,16.8S185.1,168.9,192.9,168.9Z" fill="#7f7f7f"/><path d="M232.6,137.9l21.1-8.2v11h3.2c4.8-4.5,10.5-9.7,19.3-9.7s12.2,4.3,14.4,10.3h3c4.6-4.6,11.4-10.3,20-10.3,10.5,0,15.2,7.6,15.2,18.7v36.2h9.5v4.7H309.5v-4.7h9.7V152.3c0-9-4.7-13.5-12.6-13.5-6.3,0-11.7,4.3-15.4,7.9v39.2h9.6v4.7H272v-4.7h9.6V152.3c0-9-4.5-13.5-12.6-13.5-6.2,0-11.6,4.3-15.3,7.9v39.2h9.6v4.7H234.6v-4.7h9.5V144.1Z" fill="#7f7f7f"/></svg>