<svg xmlns="http://www.w3.org/2000/svg" width="177mm" height="177mm" viewBox="0 0 501.6 501.6"><text transform="translate(18.6 21.3)" font-size="6" fill="#295ba8" font-family="Helvetica">2240D3CEDAF782EECB04433371ED7D18F71DFFF2169B0462488515E7D5B5F38D<tspan x="0" y="7.2">Block Height: 13642944</tspan></text><path d="M154.1,308.3h0Z" fill="#4b9460"/><path d="M308.7,336.1Z" fill="#4b9460"/><path d="M196.5,299.5c-.1,0-.1,0-.1-.1h.1v.2Z" fill="#4b9460"/><path d="M297,279.4h.1a.1.1,0,0,0-.1.1h0v-.2Z" fill="#4b9460"/><path d="M261.8,352.5v-.2h0v.2Z" fill="#4b9460"/><path d="M388.2,201.1h.1a.1.1,0,0,0-.1.1h0v-.2Z" fill="#4b9460"/><path d="M142.4,252.2V252h0Z" fill="#4b9460"/><path d="M288.3,192.1h0Z" fill="#4b9460"/><path d="M374.1,150.5h0Z" fill="#4b9460"/><path d="M128.1,208.1h0Z" fill="#4b9460"/><path d="M153.7,307.5h-.1v-.2Z" fill="#4b9460"/><path d="M296.4,278.6v-.2l.2.2Z" fill="#4b9460"/><path d="M113.8,360.6c.3-.3.2-.7.2-1a29.2,29.2,0,0,1,.3-3.4,17,17,0,0,0,.4-2.2,2.2,2.2,0,0,1,2.3-1.8,7.6,7.6,0,0,1,2.6.2c1,.3,2,.2,3,.5l2.6.4,3.2.6c.8,0,1.4.4,2.2.3a4.2,4.2,0,0,1,2.2.3c1.2.2,2.4.3,3.5.6l2.3.2a1.6,1.6,0,0,0,1.4-.8l.9-1.6a18.3,18.3,0,0,1,.8-2.5,7.4,7.4,0,0,0,.4-1.4,7.5,7.5,0,0,1,.5-1.6c.3-.8.4-1.6.7-2.4a19.4,19.4,0,0,0,.5-2,15.4,15.4,0,0,0,.5-1.7,24.6,24.6,0,0,0,.9-3.1c.1-1.1.7-2.2.9-3.4s.7-1.2.5-1.9.2-1,.4-1.5a6.7,6.7,0,0,1,.6-1.5,12.1,12.1,0,0,0,.5-1.8c.2-1,.6-1.9.8-2.8a30.9,30.9,0,0,1,1-3.4,35.6,35.6,0,0,0,1.2-4.2c.3-1.4.8-3,1.3-4.6s.6-2.5,1-3.7a36.8,36.8,0,0,0,1.5-4.7c.4-1.2.8-2.6,1.1-3.9s.8-2.6,1.2-4a15.4,15.4,0,0,1,1-3.5l.9-3.1.6-2a24.5,24.5,0,0,0,.8-2.9c.3-1.5.9-2.8,1.2-4.3a7.6,7.6,0,0,1,.6-2l.3-1.1.7-2.1a15.7,15.7,0,0,1,.8-2.9c.2-.9.5-1.7.7-2.5a18.3,18.3,0,0,0,.6-2.5l.6-2c.1-.6.5-1.2.6-1.8s.5-2,.8-3l.9-2.8c.5-1.5.8-3.1,1.3-4.6l.6-2.3a35.7,35.7,0,0,0,1-3.5c.3-1.2.7-2.3,1-3.5a5.9,5.9,0,0,0-.2-1.3c-.1-.6-.5-.5-.8-.7a6.8,6.8,0,0,0-2.8-.4,12.9,12.9,0,0,1-2.8-.1H161a3.3,3.3,0,0,1-2.6-.7.8.8,0,0,1-.3-.9,4.7,4.7,0,0,1,1.2-2.7l1.5-2.7a6.1,6.1,0,0,1,1.9-2.4l1.7-.5h7.2a7.4,7.4,0,0,0,3.3-.1,1.3,1.3,0,0,0,.7-.4,12.5,12.5,0,0,0,1.2-1.7c.5-1.3.9-2.6,1.4-4l1.2-3.3a25,25,0,0,1,1.6-4.3c.2-.4.3-.9.5-1.4s.3-1,.5-1.4a2.3,2.3,0,0,1,.6-1.2c.3-.6.4-1.3.7-1.9s.5-.7.4-1.1a1.7,1.7,0,0,1,.5-1.2,3.5,3.5,0,0,1,.6-1.4c.1-.4.5-.8.6-1.3a4.9,4.9,0,0,1,.6-1.7,24,24,0,0,0,1.1-2.3l1.2-2.5,1.3-2.7a4.7,4.7,0,0,1,1-2,11.9,11.9,0,0,0,1.2-2.2l1.2-2.4c.1-.3.5-.5.7-.8a5.1,5.1,0,0,1,.9-1.6l1.1-1.8.8-1.3a3.6,3.6,0,0,1,1.1-1.6c.5-.6.9-1.3,1.4-1.8l.2-.2a4.6,4.6,0,0,1,1.3-1.8,6.5,6.5,0,0,1,1.5-1.8l1.2-1.4a3.8,3.8,0,0,1,1.1-1.1,5.7,5.7,0,0,1,1.5-1.6c1.3-.9,2.4-2,3.7-2.9l1.8-1.2a26,26,0,0,1,6.9-2.9l4.5-.6,3.1-.3,2.4.2a15.9,15.9,0,0,1,3.3.8c.3,0,.4.4.6.5a6.5,6.5,0,0,1,2.8,2.1c.6.7,1.4,1.3,1.5,2.2a2,2,0,0,0,.4.8.6.6,0,0,1,.3.6c0,1.1.4,2.2.4,3.3a12.7,12.7,0,0,1-.4,2.6,11.7,11.7,0,0,1-.9,2.4c-.6.9-1,2-1.6,2.8a20.4,20.4,0,0,1-2.7,2.3,3.9,3.9,0,0,1-3,0l-4.5-2a11.3,11.3,0,0,0-2.7-1.3,3,3,0,0,1-1.6-.8l-.4-.2a14.5,14.5,0,0,1-2.6-1.1l-2.5-1.1-1.3-.7-2.1-.8a1.1,1.1,0,0,0-1.1.1c-.3.3-.4-.1-.5,0s-.1.3-.2.4l-1.6,3.1a17.7,17.7,0,0,0-.8,2.5,7.6,7.6,0,0,1-.9,2.8c-.3,1-.5,2-.9,3s-.4.7-.2,1.1-.3.1-.3.4a24.1,24.1,0,0,1-.8,2.5c-.3.9-.5,1.8-.8,2.7a6.3,6.3,0,0,0-.8,2.3,6.1,6.1,0,0,0-.7,2.4l-.3,1.1a18.8,18.8,0,0,0-1.4,4.2l-1.2,3.6-.6,1.7a6.8,6.8,0,0,0-.7,2c-.4,1-.6,2.2-1,3.2s-.9,2.8-1.3,4.2l-1.4,3.9c-.3.8-.5,1.7-.8,2.5a4.7,4.7,0,0,0-.2,2c0,.5.5.8.8.9s1.3.8,2.1.4.8,0,1.2.1a6.1,6.1,0,0,0,2.7.1l3.3.2h7.4l1.4.3c.6.2,1.3.6,1.8.4a4.4,4.4,0,0,0,1.6-.6l4.3-1.9,3-1.1,2-.6,2.5-.4a3.7,3.7,0,0,1,3.1.5,1.2,1.2,0,0,1,.4,1.1,6.5,6.5,0,0,1-.2,2c-.3,1.2-.5,2.4-.8,3.5a16.1,16.1,0,0,1-.6,3.3,15.5,15.5,0,0,0-.4,2.1l-.9,4.6c-.2.9-.3,1.8-.5,2.7s-.8,2.7-1,4.1-.5,2.9-.7,4.3-.5,2.2-.7,3.3a11.8,11.8,0,0,1-.4,1.9,4.7,4.7,0,0,1-.4,1.7,24.6,24.6,0,0,1-1,4.7l-.3,2a5.8,5.8,0,0,1-.4,1.9c-.2.8-.2,1.8-.4,2.6a42.1,42.1,0,0,1-1,4.4l-.3,1.4c-.1.8-.3,1.5-.4,2.3s-.1.6-.2,1-.1.7-.2,1l-.6,2.7c-.1.9-.4,1.7-.5,2.5a6.7,6.7,0,0,1-.6,2.8c-.3.5-.1,1.2-.3,1.7a6,6,0,0,0-.2,1.2,43.3,43.3,0,0,0-.8,5c0,.2-.3.5-.1.9s.6.5.7.8.9.1,1.4-.3l2.5-2.2.6-.7,2.9-2.8,2.3-2.5c.7-.6,1.2-1.4,1.9-2a19.2,19.2,0,0,0,1.8-2.2,19.9,19.9,0,0,0,2.8-3l1.9-2.3c.7-1,1.5-1.9,2.2-2.8a11.3,11.3,0,0,0,2.2-2.7l1.6-2c.5-.8,1.1-1.4,1.7-2.2a10.8,10.8,0,0,1,.8-1.1,4.8,4.8,0,0,0,1.4-2,14.2,14.2,0,0,0,1.7-3.5,20.2,20.2,0,0,1,.9-3.3c.2-.6.2-1.5.4-2.2s.3-2.2.6-3.3a4.7,4.7,0,0,0,.4-1.7c.1-.6.3-1.3.4-1.9a4.1,4.1,0,0,0,.3-1.6c.1-.6.3-1.2.4-1.8a7.4,7.4,0,0,0,.2-2.6.8.8,0,0,0-.4-.7l-.8-.5-1.8-.3h-5c-1.5-.2-3.1,0-4.5-.4s.1-.5-.2-.6-.4-.4-.3-.9a5.1,5.1,0,0,1,1.5-2.3l1.2-1.5c.4-.4.6-1.1,1.3-1.2s.5-.5.7-.7l2.3-2,2.2-1.9c1-.5,1.8-1.3,2.7-1.8s1.6-1,2.5-1.4l5.8-2.8,1.8-.7a32.9,32.9,0,0,1,4.3-.9,5.5,5.5,0,0,1,1.8.1c.3.1.7.2.7.6s.5.1.5.5a2,2,0,0,1,0,1.1c-.2,1.6-.6,3.2-.9,4.9s-.6,2.8-.8,4.3a10.1,10.1,0,0,1-.4,1.8c-.1.6-.5,1.9-.7,2.9a3.3,3.3,0,0,1-.4,1.7l-.6,3.8c-.3,1-.4,2.1-.8,3.1a13.2,13.2,0,0,0-.5,2.6c-.2.9-.5,2.2-.7,3.3s-.6,2.9-.9,4.4a32,32,0,0,0-.7,4.1,5.9,5.9,0,0,1-.5,2.3l-.6,2.3a10.1,10.1,0,0,1-.5,2.5c-.1.5-.1,1-.2,1.4s-.4,1.7-.5,2.6a12.8,12.8,0,0,1-.7,3.4c-.4,1.5-.6,3.1-.9,4.6s-.7,2.7-.9,4.1a16,16,0,0,0-.5,2.1c0,.8-.5,1.4-.3,2.1s-.3.6-.3,1a15.5,15.5,0,0,1-.8,3.6c-.3,1-.2,2-.5,3a1.7,1.7,0,0,0,0,1c.4.2.6.9,1.4.9s.2-.6.6-.4a.5.5,0,0,0,.4-.2,14.9,14.9,0,0,0,2.7-2.3l2.7-2.7,2.4-2.6,2.3-2.5c.3-.3.4-.7.8-1s.9-1.5,1.8-1.9,1-1.4,1.5-2.1a18.4,18.4,0,0,1,1.7-2.2,6.9,6.9,0,0,0,1.6-2.2l1.3-1.6a2.1,2.1,0,0,0,.6-1c.1-.3.8-.3.5-.9s.4-.6.7-.8a19.9,19.9,0,0,0,1.5-2.2,29.2,29.2,0,0,1,2.4-3.7,11.3,11.3,0,0,0,1.2-2.1,26.8,26.8,0,0,0,2.6-4.7c.4-.7.8-1.3,1.2-2.1a15.9,15.9,0,0,0,1.5-2.9c.5-1.1,1.2-2.1,1.6-3.1a27.2,27.2,0,0,1,1.1-2.5c.5-1.1.8-2.3,1.3-3.4a13.1,13.1,0,0,0,.9-2.8,1.9,1.9,0,0,0-1.5-2.1,16.7,16.7,0,0,0-3.2-.2l-2.9-.2-1.5.2a9,9,0,0,1-2.8-.4c-.6-.2-.6-.9-1-1.3s.1-.4.2-.7a14.8,14.8,0,0,1,1.3-3.5c.9-1.7,1.9-3.4,2.9-5l1-1.7c.7-.9,1.7-1.8,2.5-2.7s1.4-1.2,2.1-1.9l.2-.2,3-1.5a8.6,8.6,0,0,1,2.3-.5h2.3a7.9,7.9,0,0,1,3,1.2,8.1,8.1,0,0,1,1.8,1.9,11.9,11.9,0,0,1,1.8,5.7,26.2,26.2,0,0,1,0,5.6,22,22,0,0,1-.6,3.7c-.3,1.2-.7,2.5-1,3.8a4.4,4.4,0,0,1-.6,1.6l-.3,1.2-1.2,3.3-.7,1.4c-.5,1.4-1.2,2.8-1.8,4.1a20.1,20.1,0,0,1-1.4,2.5l-.8,1.4c-.3.8-.8,1.4-1.1,2.1s-1.2,1.6-1.4,2.5-.3.8-.6.9-1.1,1.8-1.7,2.6a32.8,32.8,0,0,0-2,3.1,7.4,7.4,0,0,1-1.6,1.9c-.4.3-.5,1-.8,1.4l-1.6,2.1c-.9,1.3-2,2.5-2.9,3.7a18.5,18.5,0,0,1-1.6,1.8,3.9,3.9,0,0,1-.8,1,15.9,15.9,0,0,1-2,2.4l-2.4,2.7a5.7,5.7,0,0,1-1.6,1.5c-.3.1-.4.4-.6.7a4.3,4.3,0,0,1-1.2,1.1,1.6,1.6,0,0,0-.8,1c-.1.6-.9.6-1.2,1.1s-1.2,1-1.7,1.7l-.8.7a6.9,6.9,0,0,0-1.3,1.1,23.9,23.9,0,0,1-2.3,2.2c-1.2.8-2.1,1.8-3.3,2.7l-2.1,1.5a13.3,13.3,0,0,1-1.9,1.4l-2.1,1.5a21.4,21.4,0,0,1-3.2,2c-.7.4-1.4,1-2.2,1.4l-3,1.6-3,1.5a6.7,6.7,0,0,1-2.5.8c-.3,0-.7.2-1,0a2.6,2.6,0,0,1-.9-1.7l.6-3c.4-1.4.5-2.9.9-4.3a10.3,10.3,0,0,0,.5-2.4c.3-.8.3-1.6.5-2.3s.4-2.5.7-3.8a11.4,11.4,0,0,1,.6-2.5.4.4,0,0,0,.1-.3c.1-.8.3-1.6.4-2.4a14,14,0,0,1,.6-2.8l.6-2.7c.3-1.4.6-2.9.8-4.4a2.5,2.5,0,0,0,0-1.7c-.1-.3-.1-.5-.4-.6a1.5,1.5,0,0,0-1.1.2c-.1.6-.6.6-.9.9l-1.6,1.8-2.4,2.9-2.6,3-1.3,1.4c-.8,1.1-2,2-2.8,3.2a2.2,2.2,0,0,1-.9.7,22.7,22.7,0,0,1-2.6,2.8l-1,.9a2,2,0,0,1-.9.9,17.3,17.3,0,0,1-2.8,2.6c-1.1.9-2,2-3.2,2.8l-1.6,1.2a7.5,7.5,0,0,1-2,1.5l-1.6,1.2-1.7,1.2a5.7,5.7,0,0,1-1.8,1.2c-.6.1-.9.6-1.4.9a33.4,33.4,0,0,0-3.7,2.1,3.7,3.7,0,0,1-1.6.7,2.2,2.2,0,0,1-1.6-.4.9.9,0,0,1-.4-1.3c.1-.7.1-1.4.2-2.1s.8-4.2,1.2-6.3.4-2.6.7-3.9.3-2.1.5-3.1l.9-4.6c.3-1.5.6-3,.8-4.6a16,16,0,0,1,.4-2.5l.5-2.6.3-1.8a17,17,0,0,1,.4-2.2c.3-1.2.3-2.6.7-3.8s.4-2.6.8-3.9a18.6,18.6,0,0,0,.4-2.6c.2-1,.3-2,.5-3.1a7.4,7.4,0,0,1,.4-1.4.8.8,0,0,0,.1-.7c-.1-.5.2-1,.2-1.4l.6-3c.2-1.4.4-2.8.7-4.2s.4-1.1.3-1.6.3-1.4.4-2.1.5-2.9.7-4.3a7.6,7.6,0,0,0,.5-2.7,2.2,2.2,0,0,0-.4-1.3c-.4-.9-1.3-.8-2-1h-5.6l-2.9-.2a1.9,1.9,0,0,1-1.5-.3,1,1,0,0,1-.8-1.3v-.2l.3-1.5c.2-1.2-.1-1.5-1.3-1.7l-4.8-.2h-3.4a2.8,2.8,0,0,0-2.1,1.3,17.8,17.8,0,0,0-1.2,2.9c-.3.8-.5,1.7-.8,2.5s-1.2,3.4-1.7,5.2-.9,2.8-1.3,4.2a19.6,19.6,0,0,1-1.2,3.4c-.3.9-.5,1.8-.8,2.6s-.8,2.7-1.3,4.1-1.1,2.9-1.5,4.5-.5,1.6-.7,2.4-.6,1-.5,1.6-.4.3-.4.8-.5,1.7-.7,2.5-1.3,3.4-1.7,5.2a10.6,10.6,0,0,1-.9,2.5c-.1.4-.3.8-.4,1.3s-.6,1.9-.9,2.8a28.1,28.1,0,0,1-1,3.1c-.4,1.5-1,2.9-1.4,4.4a5.6,5.6,0,0,0-.4,1.2c-.2.7-.5,1.3-.7,2l-.6,2c-.5,1.4-.9,2.8-1.4,4.2s-.7,2.2-1.1,3.4a5.7,5.7,0,0,0-.8,2.8c-.7.5-.7,1.4-.9,2.1s-.5,1.4-.7,2.1a12.5,12.5,0,0,0-.9,2.5,12.5,12.5,0,0,0-.9,2.5l-.6,1.5-1.5,3.8-1.2,3a28.8,28.8,0,0,1-1.3,3.1l-.9,1.9c-.4.7-.6,1.5-1,2.2l-.9,2a5.1,5.1,0,0,0-.7,1.7,2.2,2.2,0,0,1-.5.8c-.6.8-.7,1.8-1.4,2.6a.7.7,0,0,0-.3.8l-.3.7a5.4,5.4,0,0,0-1.1,1.8c-.3.9-1.1,1.5-1.5,2.4s-1.3,1.5-1.4,2.5-.4.4-.6.6-.7,1.2-1.1,1.7a14.3,14.3,0,0,0-1.4,2,12.9,12.9,0,0,1-1.6,1.7c-.5.5-.9,1.1-1.4,1.7a44,44,0,0,1-3.8,3.7l-1.7,1.1-1.6,1.2-1.2.7-3.1,1.3-3.3.9c-.4.1-.8.4-1.2.3s-.2.2-.2.3h-3.2c0-.2,0-.3-.3-.3l-1.7-.3-1.1-.3-1.6-1.1a7.6,7.6,0,0,1-1.7-2.3l-.5-1.2a4,4,0,0,1-.7-1.8c0-.3.2-.7-.3-.9Z" fill="#7f7f7f"/><path d="M323.1,262.3c.3.2.6,0,.8.2a.7.7,0,0,0,.9-.2c.5-.7,1.1-1.2,1.6-1.9a18.6,18.6,0,0,1,2.1-2.8l.6-1a12.1,12.1,0,0,0,2.1-2.8c.2-.5.8-.8,1.1-1.4s1-1,1.3-1.8.5-.6.8-.9a1.5,1.5,0,0,0,.6-.9c0-.4.5-.3.7-.6l1.5-2a9.3,9.3,0,0,0,1.6-1.8c.4.2.3-.2.5-.4a8.7,8.7,0,0,1,1.7-1.6c.4-.3.5-.7.9-1.1l2.8-2.5a10.1,10.1,0,0,0,1.9-1.7c.2-.4.8-.4,1.1-.8l.2-.2a9.1,9.1,0,0,1,2.3-1.5l1.3-.8,1.8-.9c.3,0,.5-.3.7-.4a24.2,24.2,0,0,1,5.3-1.3l3.4.2,1.1.5.9.4c1.7.9,1.9,1.1,3.4,3.2a12.3,12.3,0,0,1,1.4,3.1,8.1,8.1,0,0,0,.7,2.2,2.5,2.5,0,0,1,.2,1.2l.3,2.2c.2,1.6.3,3.2.4,4.7s0,2.5-.1,3.7a5.4,5.4,0,0,0,0,1.8c-.1,1.2-.2,2.3-.4,3.4l-.3,2.1a14.3,14.3,0,0,1-.4,2.2,31.5,31.5,0,0,1-1.1,4.4c-.3,1.1-.8,2.1-1,3.2s-1.2,3.1-1.7,4.7a28.7,28.7,0,0,1-1.8,4,22.1,22.1,0,0,1-1.8,3.4,11.9,11.9,0,0,0-.8,1.6,193,193,0,0,1-2.7,4.5,29,29,0,0,1-1.9,2.9l-2.2,3a25.6,25.6,0,0,1-2,2.6,10.6,10.6,0,0,1-1.9,2.3,3.9,3.9,0,0,0-.8,1L348,302a34.4,34.4,0,0,1-2.7,2.7,10.7,10.7,0,0,0-1.6,1.4,22.5,22.5,0,0,1-2.4,2.1,12.1,12.1,0,0,1-2.6,2c-.6.3-.9.9-1.5,1.3l-1.7,1.2c-.3.3-.8.3-1.1.6s-3.1,1.6-4.4,2.8-1.3.7-2,1a6.6,6.6,0,0,0-1.9.9,10.6,10.6,0,0,1-3.4,1.2l-1.5.5a16.4,16.4,0,0,1-3.8,1l-1.6.4a6.3,6.3,0,0,1-1.9.3,12,12,0,0,1-3.8.3l-2.2-.2h-2.1c-.7-.6-1.7-.4-2.5-.7a16.3,16.3,0,0,1-4.7-2.5,17.7,17.7,0,0,1-3-3.1c-.3-.4-.8-.8-.8-1.2a10.1,10.1,0,0,0-.7-1.5,11.7,11.7,0,0,1-.5-2,11.4,11.4,0,0,1-.3-4.5,26.8,26.8,0,0,1,.7-2.7c.2-.7.6-1.4.8-2.2s1.7-4.6,2.5-7l.9-2.5c.6-1.2.7-2.5,1.4-3.6s.2-1.2.5-1.8a16.1,16.1,0,0,0,1.2-3.3,7.5,7.5,0,0,0,.9-2.9,5.4,5.4,0,0,1,.5-1.1c.6-1.4,1-2.8,1.5-4.2a11.7,11.7,0,0,1,.9-2.4,1.7,1.7,0,0,0,.3-1c.2-.7.6-1.3.7-1.9a96045312269010.3,96045312269010.3,0,0,1,1.6-4.6c.3-1,.6-2.1,1-3.1a34.2,34.2,0,0,0,1.3-3.4c.3-.9.7-1.9,1-2.9l1.8-5.2c.2-.6.5-1.2.8-1.9s.3-1.3.6-2l1.2-3.2c.4-1.1.8-2.3,1.1-3.4l1.2-3.2a9.1,9.1,0,0,1,1.2-3.1c-.2-.4.3-.6.2-1s-.1-.2,0-.2.6-1.8,1-2.7l.9-2.6c.4-1.3,1-2.6,1.4-3.9a13.4,13.4,0,0,1,.9-2.6c.4-.5.4-1.2.7-1.8a12.5,12.5,0,0,0,.9-2.5c.4-1,.8-2.1,1.1-3.1a14.7,14.7,0,0,1,1.3-3.7,14.2,14.2,0,0,0,.5-1.6c.4-.9.7-1.8,1-2.7l.8-2.2c.3-.8.7-1.7,1-2.6a13.2,13.2,0,0,1,1-3c.3-.7.5-1.3.7-1.9s.5-1.4.7-2.1-.1-.6,0-1a3.7,3.7,0,0,0-1.2-2.2,12.2,12.2,0,0,0-2.9-1.7l-1.3-.9-4.8-2.8a18.8,18.8,0,0,1-2.3-1.6,1.2,1.2,0,0,1-.2-1.7.2.2,0,0,1,.2-.2,7.9,7.9,0,0,1,2.8-1.3c1.1-.5,2.4-.8,3.6-1.2l2.7-.9,3-1,3.7-1.3c1.3-.4,2.5-.9,3.9-1.2s1.9-.7,2.9-.9l2.4-.9c1.7-.4,3.2-1.2,4.9-1.6l2.5-.7c1.3-.2,2.1.6,1.8,1.8a31.8,31.8,0,0,1-1,3.3,16.9,16.9,0,0,0-1.1,2.7c-.3,1-.6,2.1-1,3.1s-.2,1.5-.9,2,0,.5-.1.8a10.4,10.4,0,0,0-.8,2.5l-.2.3a23.2,23.2,0,0,0-1.3,3.7,5.2,5.2,0,0,1-.6,1.6,15.5,15.5,0,0,0-.8,2.3c-.2.7-.6,1.3-.8,2a2.1,2.1,0,0,0-.3,1.2c-.1.8-.9,1.3-.7,2.1s-.4,1-.6,1.5a7.7,7.7,0,0,0-.7,1.6l-.6,1.9c-.4.8-.5,1.7-.9,2.5s-.6,1.9-1,2.9a17.1,17.1,0,0,0-1.3,3.4,8,8,0,0,0-.9,3.1c0,.2-.2.3-.3.5s-.9,2.4-1.3,3.7l-1.5,3.8a27.9,27.9,0,0,0-1.1,3.5,3.1,3.1,0,0,1-.5,1c-.5.9-.5,2-1,2.9a3.4,3.4,0,0,1-.4,1.2c-.3.3.1.9-.5,1s-.3.7-.3,1.1-.5,1.4-.7,2-1,2.1-1.1,3.3a6.7,6.7,0,0,1-.6,1.2,6.3,6.3,0,0,1-1,2.7c.3.6-.5,1.1-.3,1.7s-.8,1.7-1.1,2.5-.9,2.5-1.3,3.8-.6,1.3-.8,2a15.5,15.5,0,0,1-.8,2.3c-.2.9-.6,1.8-.9,2.8a8.8,8.8,0,0,1-.5,1.5C322.9,261.3,323.4,261.8,323.1,262.3ZM356,246.7a8.2,8.2,0,0,0-.3-3.1,1.7,1.7,0,0,0-1.7-1.2c-1.1-.1-1.8.7-2.8.9s-.7.3-.9.6l-.8.7a11.4,11.4,0,0,0-2.3,1.5c-1.1,1-2.3,1.8-3.3,2.8l-2.5,2.3c-1,1-2,2.1-3.1,3s-.4.8-.8,1.1a9.2,9.2,0,0,0-2.2,2.2,8.6,8.6,0,0,1-1.4,1.8c-.6.8-1.5,1.4-2.1,2.2l-1.9,2.3c-.3.3-.6.5-.7.8a12.6,12.6,0,0,1-1.4,1.9c-.5.6-2.1,2.8-3.3,4.1a31.3,31.3,0,0,0-2.2,3.1c-.8,1-.5.3-.5.6a2.3,2.3,0,0,1-.9,1.4,18,18,0,0,0-2.1,3.5,30,30,0,0,0-1.8,4.1c-.6,1.7-1.4,3.3-1.9,5a5.6,5.6,0,0,1-.4,1.2,15.4,15.4,0,0,0-.8,1.9,17.5,17.5,0,0,0-1.2,3.2c-.1.5-.6.9-.7,1.5s-.6.9-.4,1.4-.9,2.1-1.4,3.2-1.2,3-1.7,4.4-.2.8-.4,1.2a15.4,15.4,0,0,0-.8,1.9c-.4.9-.7,1.8-1,2.7s-.6,1.2-.4,1.8a4,4,0,0,0,1,1.2h1a30.3,30.3,0,0,0,4.2-.6l1.4-.4a10.4,10.4,0,0,0,3.8-1.1,24.9,24.9,0,0,0,5.2-2.5c1.2-.8,2.5-1.4,3.6-2.3l2.9-2.2c.9-.6,1.7-1.5,2.6-2.2l1.7-1.6a5.3,5.3,0,0,0,1.4-1.2,4.4,4.4,0,0,1,.8-1.1c1.1-.8,1.6-1.9,2.5-2.8s.5-.3.6-.5a6.9,6.9,0,0,1,1.6-2.2,1.8,1.8,0,0,0,.5-.7,5.4,5.4,0,0,1,1-1.6l1.7-2.4,1.2-2.1a13.5,13.5,0,0,0,1.5-2.6c.4-.9.9-1.8,1.4-2.7s1.3-2.7,1.9-4.1.1-.8.4-1.2a6.1,6.1,0,0,0,1.1-2.3c.6-1.6,1.1-3.2,1.6-4.8a28.1,28.1,0,0,0,.9-3.1c.2-1,.6-1.9.7-2.9s.7-2.5.8-3.8.3-2.3.4-3.5l.3-3.1c0-.5.4-1,.2-1.6s-.2-.9.2-1.2S356.2,247.6,356,246.7Z" fill="#7f7f7f"/></svg>