<svg xmlns="http://www.w3.org/2000/svg" width="177mm" height="177mm" viewBox="0 0 501.6 501.6"><text transform="translate(18.6 21.3)" font-size="6" fill="#295ba8" font-family="Helvetica">2240D3CEDAF782EECB04433371ED7D18F71DFFF2169B0462488515E7D5B5F38D<tspan x="0" y="7.2">Block Height: 13642944</tspan></text><path d="M114.2,273.8c-.2-.1-.5-.1-.5-.3a20.1,20.1,0,0,1-1.4-2.5,6.1,6.1,0,0,1-.5-1.8c-.1-.3-.2-.5-.5-.6a9.5,9.5,0,0,1-4.4.7,3.4,3.4,0,0,0-2.4.4,14.6,14.6,0,0,0-2.2,5.3,20.2,20.2,0,0,0-.7,2.3,18,18,0,0,1-.6,2.2c-.3,1.8-1.2,3.4-1.4,5.2a2.5,2.5,0,0,1-.6,1.5,3.7,3.7,0,0,1-.5,1.8,4.5,4.5,0,0,0-.3,1.1A17.6,17.6,0,0,1,97,293c0,.1-.1.3-.1.4a7.9,7.9,0,0,1-.8,3,6.6,6.6,0,0,0-.6,2c-.1.6-.6,1.2-.5,1.9s-.8,3.2-1.6,4.7a17.6,17.6,0,0,1-1.2,4.5c-.4.9-.4,1.9-.8,2.8s-.6,2.6-1,3.8a44.8,44.8,0,0,1-1.6,5.2c-.1,1.5-.9,2.8-1.1,4.3a5.4,5.4,0,0,1-.9,2.4,5.3,5.3,0,0,0-.4,1.7,8.4,8.4,0,0,1-.6,2.4,7.6,7.6,0,0,0-.6,2,1.5,1.5,0,0,1-.1.7,27.8,27.8,0,0,0-1.2,3.8,2.9,2.9,0,0,0-.2.9,12.3,12.3,0,0,0-.9,2.9,7.9,7.9,0,0,1-1.3,3.3c-.7.2-1-.2-1.4-.4s-.5-1.3-1.1-1.7a1.1,1.1,0,0,1-.2-.6,10.5,10.5,0,0,0-.4-1.7c-.8-3.5-1.8-6.9-2.8-10.3a10.1,10.1,0,0,1-.5-2.5,1.9,1.9,0,0,0-.2-.7l-.7-2.1c-.1-.7-.6-1.3-.5-2.1s-.3-2.5-1.1-3.6a10.1,10.1,0,0,0-.3-1.7,14.6,14.6,0,0,0-.5-2,5.4,5.4,0,0,1-.6-2.5c-.1-.5-.5-.9-.5-1.4a6.1,6.1,0,0,1-.3-1.3,12.1,12.1,0,0,0-.8-2.5,11.3,11.3,0,0,0-.3-1.8,75.5,75.5,0,0,0-2.3-7.6H66a2.4,2.4,0,0,1-.7,1.2,7.7,7.7,0,0,1-.2,1.5,21.6,21.6,0,0,0-1.6,5.1,15.5,15.5,0,0,0-.7,2.3,9.8,9.8,0,0,1-.6,2.3,21.7,21.7,0,0,1-.7,2.4c-.4,1-.4,2.1-1,3s-.4,1-.4,1.5a7.5,7.5,0,0,1-.4,1.6c-.1.7-.7,1.3-.5,2.1a4.7,4.7,0,0,0-.6,1.9,1.4,1.4,0,0,1-.2.7,16.1,16.1,0,0,0-.9,2.9c-.5,1.3-.7,2.6-1.1,3.8a7.4,7.4,0,0,0-.4,1.4,30.9,30.9,0,0,1-1.4,4.3c-.2.6-.1,1.3-.5,1.8-.4,2.1-1.3,4-1.7,6a2.3,2.3,0,0,1-1.1,1.1,6.4,6.4,0,0,1-1.9-2.9c-.3-.9-.6-1.8-1-2.7a4.4,4.4,0,0,1-.2-1,9.1,9.1,0,0,0-.7-2.5c-.2-.5,0-1-.3-1.4a2.3,2.3,0,0,1-.4-1.4l-.3-1a6.8,6.8,0,0,1-.8-3.1,3.8,3.8,0,0,1-.6-1.3c-.5-2.1-1.4-4-1.7-6.1v-.4c-.9-1.2-.5-2.8-1.3-4s0-.4-.1-.6a3.6,3.6,0,0,0-.2-1c-.6-1.8-1.1-3.6-1.7-5.4a5.7,5.7,0,0,1-.4-2.5,9.6,9.6,0,0,1-1.2-3.6,1.3,1.3,0,0,0-.1-.6c-.5-1.6-1.1-3.2-1.5-4.9s-1.2-3.6-1.6-5.4-1.3-4.3-1.8-6.5c-.1-.6-.4-1.1-.5-1.6a1.9,1.9,0,0,1-.3-.8,5.1,5.1,0,0,0-.6-2.1,6.1,6.1,0,0,1-.3-1.3c0-.6-.4-1-.6-1.5a8.8,8.8,0,0,0-.2-1.6c-.5-1.2-.7-2.4-1.2-3.6a6.5,6.5,0,0,1-.4-1.3,20.7,20.7,0,0,0-1-3.3,1.9,1.9,0,0,0-1.2-1.4c-1.5-.4-2.9-.1-4.3-.3s-.9-1.6-1.5-2-.3-1.5-.8-2.1v-.3h.1a.3.3,0,0,0-.1-.2v-.3a3.5,3.5,0,0,0,1-1.1,7,7,0,0,1,3.2-.5l2,.2h.6c1.7-.5,3.5,0,5.3-.1h4.2a5.4,5.4,0,0,1,1.8,0h1.7a8.7,8.7,0,0,1,3.6.4l.8.3c.4.6.3,1.4,1,1.8a2.8,2.8,0,0,1,.3,2l-.4,1.2-.8.8c-1-.2-1.9.4-2.9.2a14.3,14.3,0,0,0-2.9.1l-1.1,1.5a8.6,8.6,0,0,0,.5,2.7,5.7,5.7,0,0,1,.4,2.6c0,.2.3.2.4.3a26.8,26.8,0,0,1,.7,2.7h0a1.1,1.1,0,0,1,.4.9,5.3,5.3,0,0,0,.5,1.8c.2.5.3,1,.5,1.5s.5,2,.8,3a13.9,13.9,0,0,0,.6,1.9,1.9,1.9,0,0,1,0,1.3l.6.7a9.6,9.6,0,0,0,.8,2.9c.1.1.1.3.2.4a19.8,19.8,0,0,0,.8,3.3c.4,1,.3,2.1.9,3.1s0,.3.1.5v.6a16.8,16.8,0,0,1,1.2,3.8c.4.8.2,1.7.8,2.4s.7,1.7.5,2.5l.5.8-.2.3c0,.3.5.5.5.8l.3,1.2a7.2,7.2,0,0,0,.7,2.5,21.7,21.7,0,0,1,.7,2.4,4.4,4.4,0,0,0,.2,1h0l.2.2c.1,1,.6,1.8.8,2.8H53a2.9,2.9,0,0,0,1-1.2,45,45,0,0,0,1.4-4.9c.1-.2.1-.3.2-.4s.7-3.2,1.4-4.6a1.4,1.4,0,0,0,.2-.6,33.2,33.2,0,0,1,1.5-5.4c.3-1,.5-2,.8-3.1a8.3,8.3,0,0,1,.6-2.1,16.8,16.8,0,0,0,.7-2.4c.7-1.8.9-3.8,1.6-5.6a8.1,8.1,0,0,1,.7-2.2,15.7,15.7,0,0,0,.5-3,4.1,4.1,0,0,0-.4-1.9l-.6-2.2c0-.1.1-.2,0-.3-.8-1.7-.9-3.6-1.4-5.4s-.9-3.2-1.3-4.8-.4-.8-.2-1.3l-1.4-1-2.5-.2a4.2,4.2,0,0,1-1.6-.4c-.2-.2-.4-.3-.4-.6s.4-.1.6-.3-.7-.2-1-.5a2.5,2.5,0,0,1-.8-1.2,6,6,0,0,1,0-1.9,2.1,2.1,0,0,1,.5-1.2,7,7,0,0,1,3.2-.5c.3,0,.6.2.9.1a12.2,12.2,0,0,1,2.7-.1l3.4.2c.9-.5,2-.1,3.1-.2h9.1a2.1,2.1,0,0,1,1.8.5,2.2,2.2,0,0,1,.7.9c.2,1,1.2,1.5,1.2,2.6a3.3,3.3,0,0,1-.4,1.5c-.9,1.1-2,1.1-3.2,1.2s-2.2-.1-3.3-.1a6.8,6.8,0,0,0-2.9.6l-.5,1.2c.1.8.5,1.5.2,2.2a8.9,8.9,0,0,1,1.2,4.2l-.4.5c.4.2.8.3,1,.8s-.3.8.2,1.2.6,1,.4,1.7.3,1.1.4,1.7a5,5,0,0,0,.8,2,22,22,0,0,0,.7,3.7,18.1,18.1,0,0,1,.9,3.7,2.8,2.8,0,0,0,.4,1.3,6.7,6.7,0,0,1,.5,1.9c.2,1.1.6,2.1.8,3.1v.8h0a.9.9,0,0,1,.4.8c.1.8.3,1.5.4,2.2a2.4,2.4,0,0,1,.6,2.4,48.9,48.9,0,0,1,2.3,8.4c.9,1.9,1.1,4.3,1.7,6.8.1,0,.3.3.5.5a1.4,1.4,0,0,1,.2.6.4.4,0,0,0,.6-.2c.1-.5.6-.8.9-1.4s.9-2.5,1-3.8l.4-.7c0-.1.1-.2,0-.3a7.1,7.1,0,0,1,.6-2.5,4.3,4.3,0,0,0,.5-1.6,4,4,0,0,1,.9-2.1c-.1-.2-.2-.3-.2-.4.7-1.7.9-3.5,1.6-5.2a19.4,19.4,0,0,1,.5-2,18.9,18.9,0,0,0,.9-3.4c.3-1.2.8-2.4,1.1-3.7s.8-2.5,1-3.8a10.5,10.5,0,0,0,.6-2.4,1.4,1.4,0,0,1,.2-.6,9.8,9.8,0,0,0,.9-2.9,11.7,11.7,0,0,1,.6-2,16.8,16.8,0,0,0,.9-3.2c.4-1.2.7-2.5,1.1-3.8a17.7,17.7,0,0,0,1.4-5.6c0-.4-.4-.5-.9-.7s-2-.1-3.1,0a8.8,8.8,0,0,1-2.3,0,4.3,4.3,0,0,1-1.8-.6l-1.4-2.1a4.3,4.3,0,0,1,.5-3.5,7.9,7.9,0,0,1,3.4-.3h2.4a4.8,4.8,0,0,0,1.7,0,3.2,3.2,0,0,1,1.7.1,6,6,0,0,1,2.3-.2,3,3,0,0,0,1.3.1c2-.4,3.9,0,5.9-.1a5.2,5.2,0,0,1,2.4.5,8.6,8.6,0,0,1,1.3,2c.4.1.7,0,.8-.2s1.3-1.3,1.6-2.2,1.1-1,1.8-1.3l1.1-.4a8.1,8.1,0,0,1,4.2,1.4,8,8,0,0,0,.9,1.4c.3.5.2,1.2.8,1.5a10.4,10.4,0,0,0,.6,1.6,4.6,4.6,0,0,1,.3,2.3,13.5,13.5,0,0,1-.5,2.9c-.8,2.6-3.1,4.5-5.8,4a7,7,0,0,1-2.3-1.5,1.1,1.1,0,0,1-.3-.8h0Zm7.9-3.8h0ZM89.8,314.2c.1,0,.2-.1.1-.3a.4.4,0,0,0-.1.3h0ZM25.2,267.9h.1a.1.1,0,0,0-.1-.1l-.3-.2C24.9,267.9,25.1,267.9,25.2,267.9Zm38.5,34.2a1.1,1.1,0,0,0-.3.9c-.6,1.3-.7,1.7-.5,2.6a4.8,4.8,0,0,0,.5-2.6c.3-.2.2-.5.3-.9a.4.4,0,0,0,.1-.6C63.6,301.7,63.7,301.9,63.7,302.1Zm-8.3-34.2c0-.1-.1-.2-.3-.2s.2.2.3.2.4.3.6.2S55.6,267.9,55.4,267.9Zm16.5,0c-.2,0-.3-.2-.5,0s.3.2.5,0,.3,0,.3-.2S72,267.8,71.9,267.9Zm18.2,45.2a.6.6,0,0,0,.1-.8v.8h0ZM54,335.5c-.3.2-.3.6-.3.9s-.3.1-.2.3.2-.2.2-.3.3-.6.3-.9.2-.4.3-.6.2-1,.3-1.5h0c-.5.5-.3,1-.3,1.5S54,335.3,54,335.5Zm4.1-13.9c.1-.1.3-.2.1-.4H58v.4h0Zm-1.2,3.9a.4.4,0,0,0-.2.5c.3-.1.2-.3.2-.5h0Zm-.9,3.2c-.2.2-.3.3-.1.6s.1-.4.1-.6.3-.2.2-.3S56.1,328.6,56,328.7Zm28.8,2.7a.6.6,0,0,0,.1-.8v.8c-.2.1-.3.2-.1.4s.2.1.2-.1Zm-29.7.2c.4-.3.3-.7.3-1.1h0c-.4.3-.2.7-.2,1.2s-.4.3-.2.6S55.1,331.9,55.1,331.6Zm34.4-16.5c-.3.5-.3.5,0,1v-1h0ZM61,311.6c.4-.3.3-.8.3-1.2a1.5,1.5,0,0,0,.5-1.6,3.7,3.7,0,0,0-.5,1.6c-.4.3-.3.8-.3,1.2s-.1.1,0,.1Zm48.8-44c.4-.2.4-.2.5-.5s-.4.3-.5.5h0Zm-16.2.3c.2.1.4.3.6.1s-.2-.3-.6-.1-.3-.2-.5,0S93.4,268.1,93.6,267.9Zm-.3,33.9c.3-.4.3-.4.3-.7s-.2.5-.3.7-.2.2-.1.4S93.3,302,93.3,301.8Zm1.2-4.1-.4.6q-.1.3.3.3v-.9c.3-.2.3-.5.3-.9s.5-1,.7-1.6,0-.2-.2-.3a2.6,2.6,0,0,0-.5,1.9C94.5,297,94.5,297.4,94.5,297.7ZM88,320.4c.4-.3.3-.7.3-1.1s.3-.4.2-.6-.1.4-.2.6a.8.8,0,0,0-.3,1.1h0ZM64.8,298.6c-.2.2-.5.3-.4.7h.4v-.6c.2-.1.2-.1.1-.1A.1.1,0,0,1,64.8,298.6Zm25.9,12.7c.3-.3.3-.6.3-1.1a.7.7,0,0,0-.3,1.1c-.1.1-.3.1-.2.3S90.6,311.4,90.7,311.3Zm.9-3.6c-.4.3-.3.7-.5,1.1s0,.1.1.2.3-.8.4-1.3.1,0,0-.1Zm9.4-31.8c-.5.8-.5.8-.4,1.4s.3-.9.3-1.4.4-.8.2-1.5S100.7,275.4,101,275.9Zm-4.5-7.7h0c-.1-.3-.4-.4-.8-.5s-.5,0-.6.5Zm5.6,3.2c-.4.4-.2.9-.4,1.3s0,.2.1.3.3-1,.3-1.6h0ZM52.5,340.5c.7-.3.6-.9.5-1.6a3.7,3.7,0,0,0-.5,1.6c-.2.2-.3.3-.1.7Zm37.6-72.6-.3-.2c0,.2.2.2.3.2s.9.2,1.5.2a1.3,1.3,0,0,0-1-.4Zm-7.3,70.8c-.6.3-.6.8-.8,1.2s-.1.4.3.4l.3-.7a2.8,2.8,0,0,0,.1-.9c.2-.1.3-.2.2-.4s-.2-.1-.3.1ZM81,344a2.7,2.7,0,0,0,.8-2.3,6.7,6.7,0,0,0-.8,2.4c-.1,0-.2,0-.1.1A.3.3,0,0,0,81,344ZM41.9,267.9a3.2,3.2,0,0,0,3-.6c.1-.2,0-.4,0-.6s.3-.3.1-.6-.1.4-.1.6l-1,.8h-1a1.2,1.2,0,0,0-1,.3c-.1,0-.1.1,0,.1Zm79.3,4.3a7.6,7.6,0,0,1-.9.9,4.3,4.3,0,0,1-3.2,1.6c-.1,0-.2,0-.3.2h1.8l1.1-.5c.2-.6,1-.8,1.4-1.3a2.2,2.2,0,0,0,.1-.8c.1-.2.7-.2.4-.7h-.3A4.3,4.3,0,0,1,121.2,272.2Zm-14.7-4.1a3.1,3.1,0,0,0-3.1.3c0,.3-.2.5.1.7a3.1,3.1,0,0,1,1.2-.8Zm-28.2-1.3c-.7,0-.9.4-1.2.6s-.8.1-1,.5a1.6,1.6,0,0,0,1,.2A5.1,5.1,0,0,0,78.3,266.8Zm-53.9.8c-.8.1-1.2-.1-1.6.1a.5.5,0,0,0,.2.4C23.4,268,23.8,268.2,24.4,267.6Zm45.5.4a1.9,1.9,0,0,0-1.3.3c.2.3.3.3.5.3S69.8,268.5,69.9,268ZM51.7,343.3a1,1,0,0,0,.4-1.3C51.9,342.4,51.6,342.7,51.7,343.3Zm34.4-16.7c-.4.5-.4.5-.4,1.4a.1.1,0,0,1,.1-.1,7.6,7.6,0,0,1,.4-1.1C86.2,326.7,86.2,326.6,86.1,326.6Zm1.3-4.1c.3-.2.4-.6.4-1.2A1.5,1.5,0,0,0,87.4,322.5Zm5.2-17.8a13,13,0,0,1,.3-1.3v-.2C92.4,303.6,92.4,304,92.6,304.7Zm3.6-13.1c-.3.4-.4.7,0,1a.8.8,0,0,1,.1-.4C96.3,292,96.4,291.9,96.2,291.6Zm12-23.7c-.6-.1-.6-.1-.9.1A.6.6,0,0,0,108.2,267.9Zm-69,.2c.4-.1.8-.1,1.1-.5S39.4,267.5,39.2,268.1Zm-.7,0c0-.2-.1-.3-.2-.3s-.4.2-.3.5S38.4,268.3,38.5,268.1Zm21.2,47.7c.4-.2.5-.4.3-.8S59.5,315.4,59.7,315.8Zm.9-2.8c-.3.5-.3.5-.3.9A.8.8,0,0,0,60.6,313Zm26.1,11.8c-.1.2-.1.3-.2.4s-.1.3.1.4A.6.6,0,0,0,86.7,324.8Zm-30.4,2.9c.3-.1.3-.3.2-.5S56,327.4,56.3,327.7ZM93.9,300c.3-.3.3-.4.1-.6s-.2.1-.2.2S93.7,299.8,93.9,300Zm-31.7,7.3h.2a.2.2,0,0,0-.1-.4C62.1,306.9,61.9,307,62.2,307.3Zm36-22.1c.1-.3.5-.3.1-.7S98,284.8,98.2,285.2ZM97,289.1c.4-.2.4-.3.3-.6A.6.6,0,0,0,97,289.1Zm.4-1.1.3-.4c0-.1-.1-.2-.1-.3l-.2.2C97.3,287.6,97.4,287.7,97.4,288Zm1.6-5.6c.2-.1.4-.3.1-.5S98.9,282.2,99,282.4ZM26.4,268.1a.3.3,0,0,0-.1-.2c-.2-.1-.3-.2-.4.1A.4.4,0,0,0,26.4,268.1Zm33,49.2c.1-.2.2-.3,0-.5h-.1C59.1,317,59.1,317.2,59.4,317.3Zm-2,6.7c-.3.1-.4.2-.2.4S57.5,324.2,57.4,324Zm26.3,10.6c0,.1-.2.2.1.3S83.9,334.7,83.7,334.6Zm5.4-17.8h-.2v.2a.1.1,0,0,0,.1.1C89,316.9,89.1,316.9,89.1,316.8Zm-5.6,19q-.3.1,0,.3A.2.2,0,0,0,83.5,335.8Zm-30.2,1.8h.2a.1.1,0,0,0-.1-.1h-.1A.1.1,0,0,0,53.3,337.6ZM41,267.7c0,.1-.1.1-.1.2h.2C41.1,267.8,41,267.8,41,267.7Zm29.8.1c0-.1-.1-.1-.2-.1a.1.1,0,0,1-.1.1l.2.2C70.7,267.9,70.8,267.9,70.8,267.8Zm21.7,0c0-.1-.1-.1-.2-.1s-.1.1,0,.1v.2C92.4,267.9,92.5,267.9,92.5,267.8Zm16.2.2h.2c.1-.1,0-.2-.1-.2a.1.1,0,0,0-.1.1Zm-51.9.1c.2.1.4.1.4-.1S57,267.9,56.8,268.1Zm45.5,2.5c0,.1.1.2.2.1h-.2Zm19.7.3c0-.1-.1-.2-.2-.1h-.1c0,.1,0,.1.1.1Zm-56.9,27h0Zm34.5-17.7a.1.1,0,0,0,0,.2h.1A.1.1,0,0,0,99.6,280.2Zm.4-.8h0Zm.2-1h0ZM64.4,300.1c.1,0,.1,0,0-.1h0Zm38.5-30.4h0Zm-34.7-.4h0Zm5.5-1.2c0-.1,0-.1-.1-.1h.1Zm18.7,37.2h0Zm-18-37.5h0ZM92,306.3c.1,0,.1,0,0-.1h0ZM62,308h0Zm26.8,9.8h0a.1.1,0,0,0-.1.1h.1Zm-30.2,1.8h0Zm-.2.7h0c-.1.1-.1.1,0,.1Zm-.5,2.1v.2H58A.1.1,0,0,0,57.9,322.4Zm29.2.9h0Zm-1.6,5.3v.2h0ZM83.2,337c.1,0,.1,0,0-.1h-.1C83.1,337,83.1,337,83.2,337Z" fill="#7f7f7f"/><path d="M425.4,297.4c-.1-.6-.6-1-.9-1.5h0l-.3-.6a2.9,2.9,0,0,1,1-1.9c.3-.3.2-.7.6-.9l.7-.5a3.9,3.9,0,0,0,.8-1,13.7,13.7,0,0,1,1.6-1.8c.5-.4.7-1.1,1.2-1.5a22.9,22.9,0,0,0,2.1-2.3l.9-.8.6-1c.8-.4,1.1-1.3,1.8-1.8a2.3,2.3,0,0,1,1.2-.6l.8.4c.3.3.1.8.3,1.1l.8.6v6.8a2.1,2.1,0,0,0,.9,1.8,3,3,0,0,0,1.3.2,35.7,35.7,0,0,1,4.6.1H447a3.7,3.7,0,0,1,1.8,0,7.1,7.1,0,0,0,1.4-.1c.5.3,1.1.5,1.4,1a2.5,2.5,0,0,1,.2,1.2,1.6,1.6,0,0,0-.6,1.4h-.1v-.2a1.8,1.8,0,0,0,.6-1.4.9.9,0,0,1,.8.4,1.1,1.1,0,0,1,0,.8,6,6,0,0,1-2.7,3.9c-1.5-.1-3.1.3-4.8,0a8.2,8.2,0,0,0-2.7.1h-2c-1.6.4-1.9,1.8-1.9,3.1a28,28,0,0,1,0,4.1,10.9,10.9,0,0,0,.1,1.8c-.1,1.6,0,3.3-.1,5a16.2,16.2,0,0,0,.1,2.2c-.1,2,0,4,0,6v6.1a25.7,25.7,0,0,0,.7,4.6c.7,1,1.1,2.2,2.5,2.5l.6.4a2.9,2.9,0,0,0,1.6.4h1c.3,0,.6.1.8,0l2.6-.6a2.7,2.7,0,0,0,1.4-.7l.8-.5a5.7,5.7,0,0,0,2.6-3.3c.2-.4.2-.8.4-1.1a4.9,4.9,0,0,1,.7-1.9,5.2,5.2,0,0,1,1.8,2.1c.4.8,1,1.6,1.4,2.4a18.1,18.1,0,0,0,1.8,2.3,7.5,7.5,0,0,1,1.2,1.4c3.8,2.5,3.8,2,6,2.6l2.1-.5a9.5,9.5,0,0,1,2-1.1,9,9,0,0,0,1.4-11l-2.6-2.5a1,1,0,0,1-.7-.2,34.5,34.5,0,0,0-4.1-2.5,44,44,0,0,1-5.2-3.6c-.3-.7-1.1-1.1-1.3-1.9s-.1-.2-.2-.2a14.2,14.2,0,0,1-3.2-6.2c-.2-.5,0-1.1-.2-1.6a20.9,20.9,0,0,1,.3-6.6,3,3,0,0,0,.2-1,15.3,15.3,0,0,1,1.1-2.7c.6-1,1.2-2.1,1.9-3.1a10.8,10.8,0,0,1,4.9-3.6,13.7,13.7,0,0,1,2.9-.7,9,9,0,0,1,5.5,1.5L473,292a2.6,2.6,0,0,0,2.7,0,3.8,3.8,0,0,0,1.3-.9h.8a1.8,1.8,0,0,1,.7.5c.4.3.2.7.4,1.1l.7.6a22.6,22.6,0,0,1,.1,3.7c-.1,1.4,0,2.9,0,4.4a24.4,24.4,0,0,1-.2,5.4.6.6,0,0,1-.6.3,1.4,1.4,0,0,1-1-.5l-.3-.3v-.2l-1.2-1.8c-.4-.6-.6-1.4-1-2l-2.1-2.8a2.3,2.3,0,0,0-.7-.7l-1.6-1.3a2.8,2.8,0,0,0-1.8-.9l-2-.5a3.5,3.5,0,0,1-1.1.3,4.6,4.6,0,0,0-3.3,2.5,7.8,7.8,0,0,0-.8,5.6,2.5,2.5,0,0,1,.1.8c.7,1.7,2.1,2.7,3.4,4a2.5,2.5,0,0,1,1.1.5,6.6,6.6,0,0,0,2,1.4l3.7,2.1h.2c1.3,1.3,2.9,2.2,4.1,3.5l1.2,1.6c.7,1.2,1.3,2.5,2,3.6a9,9,0,0,1,.8,2.8c.1,1.1.3,2.1.3,3.1a.8.8,0,0,0,.2.5v.3a.8.8,0,0,0-.2.7c0,.4-.1.9-.1,1.4a6.6,6.6,0,0,1-.3,2.4c-.3,1.5-1,2.9-1.5,4.5s-.5.3-.7.6a15.2,15.2,0,0,1-5.7,5.3,2.5,2.5,0,0,0-1,.8c-.3.1-.7-.1-1.1.1a5.3,5.3,0,0,1-2.8.7,6,6,0,0,1-2.3.1l-2.5-.5-2.9-1.2a15.1,15.1,0,0,1-3.5-2l-1.1-1.2c-.3-.3-.6-.5-.7-.9s-.6-.9-1-1.2a.9.9,0,0,0-1,0,27.8,27.8,0,0,0-2.3,3.1l-1.8,1.4a12,12,0,0,1-3.8,1.8l-.9.3a3.6,3.6,0,0,1-2.7.1h-.4a9.4,9.4,0,0,1-4.6-1.6l-.5-.3c-.4-.8-1.2-1.3-1.7-2a20.2,20.2,0,0,1-3.1-5.8,14,14,0,0,1-.5-4.1c0-.1.1-.3,0-.4a6.2,6.2,0,0,1-.1-2.7c-.1-.6-.1-1.1-.2-1.7a4.9,4.9,0,0,0,.2-2.1,8.1,8.1,0,0,1,0-3.1c.1-.4-.2-.9-.2-1.4s.3-2.2-.1-3.2l.4-1.1a6,6,0,0,1-.1-2.3c.2-.8,0-1.5.2-2.3s-.3-1.6.1-2.3a5.3,5.3,0,0,1-.1-2.5c.2-.6-.1-1.2.1-1.9s-.1-2-.1-3.1l-.6-.9c-1.4-.5-2.5-1.5-3.9-2.1l-.7-.7Zm12.3,45.8h0Zm30.8-21.3h0Zm-30.8-19.2h0Zm-11.8-5.6h0Zm34.7,45.8c.1.1.1.2.3.1s-.2-.1-.3-.1-.2-.3-.3-.2S460.5,342.8,460.6,342.9Zm-9.1-5.3a.9.9,0,0,0,.3-.6c.1-.1.2,0,.3-.2s-.2.1-.3.2a.6.6,0,0,0-.3.6l-.3.3a1.2,1.2,0,0,0-.9,1.1,1,1,0,0,0-.6.9l-1.4.9a.7.7,0,0,0-.3.6l-.6.2a18.7,18.7,0,0,1-5.1,2,2,2,0,0,1-1.3.1,6.5,6.5,0,0,0-2.4-.2h0l.3.2a7.8,7.8,0,0,0,3,.4,2.1,2.1,0,0,0,1.1-.1,11.1,11.1,0,0,1,3.1-.9,7,7,0,0,1,1.7-1.3l.2-.4c.8.1,1.2-.6,1.8-1v-.5a1,1,0,0,0,.6-.9c.7-.1.8-.6.9-1.2Zm27.9-4.2c.1-.1.2-.1.1-.3a.4.4,0,0,0-.1.3c-.2.1-.2.1-.1.1Zm.3-1.4c-.1,0-.3.1-.2.3s.1-.2.2-.4h0Zm-35-34a.2.2,0,0,0-.3,0,3.6,3.6,0,0,0-2.3,0l-.4-.2a7.5,7.5,0,0,1-2,.2,2.5,2.5,0,0,0-2,1.8c0,.1,0,.2.2.3l.7-1.1c.4,0,.8-.4,1.2-.6s1.6,0,2.3-.4a2.1,2.1,0,0,0,2.3,0h.3c.1.1.2.3.4.1Zm33.8,37.5c.4-.7.4-.7.4-1.2s-.4.7-.4,1.2-.3.2-.1.4ZM462,297.4h.5l.6-.9a3.8,3.8,0,0,0,1.3-.9l2.8-.8-.9-.3c-.3.4-.9.3-1.3.4a3.9,3.9,0,0,0-2.9,2.4H462Zm15.7,39.1a16.1,16.1,0,0,1-5.2,5.2l-1.3.7a.6.6,0,0,0-.2.6l1-.5,1.1-.5.6-.4a38.5,38.5,0,0,0,3.5-3.5c.4-.4.5-1.1,1-1.4s.1-.2-.1-.3Zm-26.6-40h-.3l-1.7,1.4c-.6.1-1.1-.1-1.6,0s-1.1-.1-1.6.3.2.2.3.2a19.2,19.2,0,0,1,2.4,0,1.9,1.9,0,0,0,1.7-.8Zm19.3,46.6-.2-.2-.7.2a5.2,5.2,0,0,1-1.6.6,7.8,7.8,0,0,0-2.2.2c-.3.1-.6-.3-.9.3,1.3.5,2.5-.4,3.8-.2S469.9,343.7,470.4,343.1Zm-9.1-43.8c.2-.3.5-.4.3-.8S461.1,298.9,461.3,299.3Zm6.9-4.1c.1.2.2.3.5.2S468.4,295.1,468.2,295.2Zm-4,48.7c-.2-.3-.3-.4-.5,0S464,344.1,464.2,343.9ZM480.1,329a.2.2,0,0,0,0,.3A.2.2,0,0,0,480.1,329Zm-42.3-16.8c.1-.1.2-.2,0-.3A.2.2,0,0,0,437.8,312.2ZM463,343.6c-.2-.1-.3-.2-.4,0Zm15.9-48.2h0Zm-41-6.5h0Zm-.1-1.2h0Zm41.1,10.6h0ZM461,300.4h0Zm-23.3.4h0Zm.1,12.9h0Zm23.9,29.6h0Z" fill="#7f7f7f"/><path d="M51,346.4l.3-.3v.3Z" fill="#7f7f7f"/><path d="M363.1,224.2h-.3a26.4,26.4,0,0,0-3.7-2l-2.1-1.4a6.2,6.2,0,0,0-1.9-1.2,18.4,18.4,0,0,1-6-12.6,3.9,3.9,0,0,0,.2-1.6,10.2,10.2,0,0,1,.5-3.5,11.6,11.6,0,0,1,2.4-5.3l1.1-1.6a6.1,6.1,0,0,1,2.1-1.8,3.3,3.3,0,0,0,1-.6,1.9,1.9,0,0,1,.9-.5,10.4,10.4,0,0,0,1.6-.6,2,2,0,0,1,1.1-.3,10.8,10.8,0,0,1,5,.8l1.8.9,1.4,1.1,1.3.2a19.7,19.7,0,0,0,2.9-1.5,1.9,1.9,0,0,1,1,.5c.4.5.2,1,.4,1.5h.4a.5.5,0,0,1,.3.5,18.2,18.2,0,0,1,.1,3.3,16.1,16.1,0,0,0,.1,3.1c0,.2.1.4,0,.6-.2,1.7,0,3.4-.2,5.1s-.1,1.2-.7,1.6-.5-.7-.9-.8l-.2-.2c-.4-1-1.3-1.7-1.8-2.7a13.1,13.1,0,0,0-2-3,18.1,18.1,0,0,0-2.4-2.4,5.9,5.9,0,0,0-1.9-1.1l-2-.7-2.4.4-1.4,1a2.2,2.2,0,0,1-1.2,1.5,1.5,1.5,0,0,1-.1.7,8.2,8.2,0,0,0-.8,4,3.1,3.1,0,0,0,.6,2.1,6.5,6.5,0,0,0,1.6,2.1,18.5,18.5,0,0,0,3.7,2.5l2.4,1.5a22.6,22.6,0,0,0,2.6,1.6,6.2,6.2,0,0,1,2,1.6c.3.5.8.6,1.3,1l.3.6a.6.6,0,0,0,.6.3,21.9,21.9,0,0,1,3.7,7.3,13.8,13.8,0,0,1,.4,4.5,48.5,48.5,0,0,1-.8,5.5.6.6,0,0,1-.1.4c-.6,1.2-.8,2.6-1.8,3.5s-.2.8-.6,1.2a10.7,10.7,0,0,0-2.2,2.1,7,7,0,0,1-1.9,1.5l-1.9,1.1a4.9,4.9,0,0,1-2.3.8,12.7,12.7,0,0,1-3.4.3l-2.4-.3a5.2,5.2,0,0,1-2.2-.7c-.6-.3-1.2-.3-1.7-.6a15.7,15.7,0,0,1-3-2l-2.8-1.9a14.6,14.6,0,0,1-5,2,7.2,7.2,0,0,1-2.4,1.4l-4.9,2c-.2.2-.5.2-.8.3a1.8,1.8,0,0,1-1-.4c-.4-.3-.3-.8-.5-1.1s-.5-.3-.6-.6a6.3,6.3,0,0,1-.5-2.6,1,1,0,0,0-.7-.7l-1,.2-.4.2c-1.2,1-2.6,1.8-3.8,2.7a17.2,17.2,0,0,1-4.7,1.9,4.1,4.1,0,0,1-2.2.1l-2-.3a6.6,6.6,0,0,1-2.5-.7l-.3-.2c-2.4-.7-4-2.4-5.6-4.1s-1.4-1.6-1.9-2.5l-2.5-4.5a30.2,30.2,0,0,1-2.2-7.8c-.2-1.2-.3-2.5-.6-3.7a12.1,12.1,0,0,1-.1-1.9,45.7,45.7,0,0,1,.3-6.4l.3-1c.3-1.3.5-2.7.9-4a18,18,0,0,1,.6-2.2,18.9,18.9,0,0,1,.9-2.1c1.1-1.9,2-4.1,3.5-5.8a25.3,25.3,0,0,1,3.6-3.7c.6-.6,1.4-1,2-1.7s.1-.1.2-.2,2.3-1.3,3.5-1.8a15.7,15.7,0,0,1,3.1-.8l3-.5.5.3a15.4,15.4,0,0,1,6,.9c.4-.3,1.1,0,1.6-.5h0a6.2,6.2,0,0,0,.6-3.1,16.1,16.1,0,0,1,0-2.2c0-1.2-.1-2.5,0-3.7a14,14,0,0,0,0-2.9c0-1.5.1-2.9,0-4.3a13.6,13.6,0,0,1,.2-2,10.2,10.2,0,0,1-.1-3.9c-.2-.4-.3-.9-.5-1.4s-2-1-2.8-1.8l-2.8-2.1a1.6,1.6,0,0,0-.9-1.5c-.2-.7-.1-1,.3-1.3a4.6,4.6,0,0,1,1.6-1.1l1.6-.8,2.2-1.2,3.9-1.8a8.7,8.7,0,0,1,3.9-1.4l.6.4c.3.2.3.4.3.7l.8.9-.2.5.5.5a.8.8,0,0,1,.1.4,21.8,21.8,0,0,1-.1,2.5c0,.7.2,1.5.2,2.3a41,41,0,0,0-.2,4.9c.1,1.3,0,2.5,0,3.7a6.5,6.5,0,0,0,.1,2.4,3.1,3.1,0,0,1,.1.9c-.3.8,0,1.6-.2,2.5a18.5,18.5,0,0,0,.1,2.3,5.4,5.4,0,0,0,0,2.2c.2.6-.1,1.3,0,2a1.4,1.4,0,0,1,0,.9c-.2.5,0,1.1-.1,1.6s.1.9.1,1.4a32.3,32.3,0,0,1-.1,4.4,9.7,9.7,0,0,0,0,1.7,4.1,4.1,0,0,1,0,1.9v.4c.2,1.2.1,2.5.2,3.7a1.3,1.3,0,0,1-.1.6,16.1,16.1,0,0,0-.1,3.1c-.1,1.4,0,2.8-.1,4.1s.1,1.8.1,2.6a9.2,9.2,0,0,1,.1,1.6c-.1,1.1-.1,2.1-.1,3.1a1.7,1.7,0,0,1-.1.7,3.4,3.4,0,0,0,.1,2,4.1,4.1,0,0,1,.1,1.9,20.6,20.6,0,0,0,0,4.3c.1.2,0,.4,0,.6a16.1,16.1,0,0,0,0,3.8,17.1,17.1,0,0,1-.1,3.2,7,7,0,0,0,.3,3.2c1.5,1.1,2.8,2.5,4.6,3.1s.8-.5,1.2-.6a4.4,4.4,0,0,0,.5-2.7,6.1,6.1,0,0,1,0-1.9c.2-1-.1-2,.2-3.1a2.6,2.6,0,0,1,.9-.5c.4.3.9.6,1,1.2a10.8,10.8,0,0,0,1.1,1.8l1,2,.7.7a13,13,0,0,0,3.1,3.1,8.5,8.5,0,0,0,3.9,1.6l1,.2c2.3-.4,1.7,0,4.8-2.1l1-1.3c.3-1.5.9-3,1.1-4.5a16.3,16.3,0,0,0-.7-3,3.2,3.2,0,0,0-.8-1.4,16.3,16.3,0,0,0-1.7-2,5.7,5.7,0,0,0-1.3-.8.7.7,0,0,1-.6-.7c.1-.1.3-.1.1-.4Zm-5.6-25.4c.2,0,.2-.1.1-.1a.1.1,0,0,1-.1.1l-.3.3c-.3.1-.6.2-.5.6s.4-.4.5-.6ZM313.2,205a.9.9,0,0,0-.3.6c-.1.1-.3.2-.1.4v-.4a.6.6,0,0,0,.3-.6.6.6,0,0,0,.3-.6c.6-.5.6-.5.5-1a1.2,1.2,0,0,0-.5,1A.9.9,0,0,0,313.2,205Zm14.1-8.2c-.1-.1-.2-.4-.4-.1h.4c.2.1.3.3.6.1S327.5,196.8,327.3,196.8Zm29.1,4.1c-.3.2-.3.6-.3.9h0c.3-.2.2-.6.3-.9s.2-.2.1-.3S356.4,200.8,356.4,200.9Zm17,36.3c.2-.2.3-.3.2-.6s-.2.4-.2.6h0ZM315,244.6c0,.1.1.2.3.1H315c-.4-.3-.4-.3-.8-.3S314.7,244.5,315,244.6Zm-2.4-37.8a.9.9,0,0,0-.4,1c.4-.2.4-.6.4-1s.2-.1.1-.1Zm50.2,38.7c-.5-.1-1-.3-1.5.2s1.1.2,1.5-.2h.3l.6.2a3.7,3.7,0,0,0,1.5-.8c.1-.1.3,0,.3-.3l-.3.3a3.2,3.2,0,0,0-2.1.6Q363,245.2,362.8,245.5Zm-4.7,0c0-.2-.1-.2-.1-.1h.1c.3.4.8.2,1.2.3a1.1,1.1,0,0,0,1.1-.3C359.7,245.6,358.9,245.2,358.1,245.5Zm-41.1-.3h0c1,.6,1,.6,2.5.4A5.7,5.7,0,0,0,317,245.2Zm8.2-.9h-.5a19.1,19.1,0,0,1-4.5,1.3h-.1a.1.1,0,0,0,.1.1,11.4,11.4,0,0,0,4.5-1,.8.8,0,0,0,.5-.5.6.6,0,0,0,.6-.3,2,2,0,0,0,1.1-.3l2.1-1.4a6.1,6.1,0,0,0,1.7-1.4c.3-.2.7-.1.9-.6a5,5,0,0,0-1.3.3,22.9,22.9,0,0,1-4.1,2.8,1.3,1.3,0,0,0-.4.6A.9.9,0,0,0,325.2,244.3Zm47-5-1.1.9-1.3,1.2a7.6,7.6,0,0,1-2.1,1.9c-.1.1-.1.3-.2.4a1.4,1.4,0,0,0-1.3.6.4.4,0,0,0,.5.2,1.6,1.6,0,0,0,.8-.8,1.1,1.1,0,0,0,.8-.2c1.6-.9,2.5-2.5,3.8-3.6v-.6a1.9,1.9,0,0,0,1-1.4,2.3,2.3,0,0,0-1.1,1.1ZM315,201.8c.1-.1.3-.2.4-.4l1.8-2a10.7,10.7,0,0,1,3.2-2l.4-.4a21.5,21.5,0,0,1,4.3-.4c.2-.1.2-.2.1-.4a17.4,17.4,0,0,0-3.2.1c-.4.1-1,.2-1.2.8a2.4,2.4,0,0,0-1.4.2,9,9,0,0,0-2.8,2,4.2,4.2,0,0,0-1.6,2.5c-.6.3-.6.3-.7,1A1.4,1.4,0,0,0,315,201.8Zm30.8,39.5c-1,0-1.8.7-2.7.7s-.8.7-1.3.8l-3.6,1.5a.9.9,0,0,0-.6.6,2.7,2.7,0,0,0-2.2.9,2.9,2.9,0,0,0,2.2-.9l2.1-.6,4-1.9c.7-.3,1.6-.4,2.1-1.1s.7.1,1-.4A.7.7,0,0,0,345.8,241.3Zm-33.2-14.4h0l.6.6c-.2.7.6,1.3.4,2.1a5,5,0,0,1,.8,1.4,9.6,9.6,0,0,0,3.3,4.6l.9.9a2.6,2.6,0,0,1,1.6.9,7.9,7.9,0,0,1,2.2.6,2.9,2.9,0,0,0,1,.3,17,17,0,0,0,3.9,0,6.3,6.3,0,0,0,4-2.3,6,6,0,0,0,1.9-4.6,3.8,3.8,0,0,1,0-1.5,18.5,18.5,0,0,1,.1-3.3l-.3-1.2a8.8,8.8,0,0,0,.2-1.6c-.2-2.2.1-4.5,0-6.8a14.9,14.9,0,0,1,.1-4.7,9.7,9.7,0,0,1-.1-2.4,4.9,4.9,0,0,1,.2-2.4,7.6,7.6,0,0,1-.2-3,5.7,5.7,0,0,0-2-4.9,10.3,10.3,0,0,1-2-1.1c-.2-.2-.4-.2-.7-.3a9,9,0,0,0-4.3-.5,8.8,8.8,0,0,0-1.6.2c-.9.4-1.9.7-2.8,1.2a10.4,10.4,0,0,0-4.7,5,19.7,19.7,0,0,0-1.8,4.2,20.5,20.5,0,0,0-.9,4.3,21.9,21.9,0,0,0-.3,3.6,24.6,24.6,0,0,0,0,4.7,7.6,7.6,0,0,1,.1,1.5,7.6,7.6,0,0,0,.3,2.1,7.1,7.1,0,0,0,.3,2.1ZM360.1,197a.8.8,0,0,0-.9-.1l-1.1.9c-.2.1-.1.2.1.3Zm1-.2c.7.2.7.2.9-.2h-.2A.8.8,0,0,0,361.1,196.8Zm12.7,0c-.2.3-.1.5,0,.9S374,197,373.8,196.8ZM341,179.3a.5.5,0,0,0-.1.6A.5.5,0,0,0,341,179.3Zm33.4,55.3a.5.5,0,0,0,0-.7C374.2,234.1,374.2,234.3,374.4,234.6ZM340.9,215c-.1.2-.3.3,0,.5S341.1,215.2,340.9,215Zm-28.8-6.4c-.4.2-.4.4-.2.6S312.1,209,312.1,208.6Zm-.8,9.4c0-.2-.1-.2-.2-.2v.2h.2Zm45.2,27.1h-.2c-.1,0-.1.1,0,.2h.1C356.5,245.2,356.6,245.2,356.5,245.1Zm4.1-48.4a.3.3,0,0,0,0,.4A.3.3,0,0,0,360.6,196.7Zm-19.4-20.3h-.3v.2Zm-.3-4.1c.2-.1.2-.2,0-.4S340.8,172.2,340.9,172.3ZM316.2,245h0Zm31.4-4.8h0Zm26.4-4.4h0Zm.7-3.1c-.1,0-.1.1,0,.2h.1A.1.1,0,0,0,374.7,232.7Zm-14.4-11h-.2a.1.1,0,0,0,.1.1A.1.1,0,0,1,360.3,221.7Zm-49-7h-.1c.1.1.1,0,.2-.1Zm0-1.3h.1a.1.1,0,0,0-.1-.1.1.1,0,0,1-.1.1Zm.3-2.7c.1,0,.1,0,0-.1h0Zm29.4-1.6h0Zm0-2.3h0a.1.1,0,0,0-.1.1h.1Zm-.1-.9h0Zm33-3h0Zm-18,0h0Zm6.9-5.9h0Zm-36.5-.6h0ZM341,195h0Zm0-7.2h0Zm0-3.5h0Zm0-13.5h0Zm-.1-6.3h0Zm0-4.9h0Z" fill="#7f7f7f"/><path d="M157,342.6a6,6,0,0,1-1.4-2.1,6.7,6.7,0,0,0,0-2,1.8,1.8,0,0,0-1.1,1,2.1,2.1,0,0,1-.7,1.1,11.4,11.4,0,0,0-1.6,1.5,14.3,14.3,0,0,1-3,2l-1.6.6H146a6.9,6.9,0,0,1-4.7-.5l-1.6-.6c-.8-.6-1.4-1.4-2.2-1.9s-.3-.5-.4-.7h0c-.3-.3-.7-.6-.8-1s-.5-.7-.8-1.1a1,1,0,0,0-.2-.7,7.7,7.7,0,0,1-1.2-2.6,12.2,12.2,0,0,1-.9-5.7,12.2,12.2,0,0,0-.1-3.3v-1c.2-1.5-.2-3,.1-4.5s.1-2.3-.2-3.5,0-.4,0-.6a8.7,8.7,0,0,0,.1-2.3,9.3,9.3,0,0,1,.2-2.3V311a17,17,0,0,1,.1-3.9,1.4,1.4,0,0,0,.1-.9c-.3-1.2,0-2.4-.2-3.6s.1-.8.1-1.3l-.6-1.1c-1.4-1.3-3.4-1.5-4.6-3s-1.1-1.4-1.2-2.5a20.6,20.6,0,0,1,3.2-4.1,7.7,7.7,0,0,0,1.7-1.9c.5-.8,1.4-1.3,1.9-2.1a6.2,6.2,0,0,1,1.8-1.8,5.7,5.7,0,0,0,1.1-1.6,9,9,0,0,0,2-1.9l1.2-.2c.2,1.1,1.1,1.7,1.4,2.7s.1,4.5.2,6.7a3,3,0,0,0,.7,1.1l.3.2a23,23,0,0,1,3.7.2,16.9,16.9,0,0,1,3.2-.1h3a3.1,3.1,0,0,1,2,.7c.1.8.8,1.3,1.1,2.1s0,.4,0,.7-.6,1.2-.9,1.9a16.3,16.3,0,0,1-1.1,1.7,9.4,9.4,0,0,1-3.7.4c-1,.1-2-.1-3.1,0h-1.3a5.2,5.2,0,0,0-3.7,1.2,21.1,21.1,0,0,0-.2,2.6c-.1.9,0,1.8-.2,2.8v.3c.1,1.3.1,2.7.1,4V312c-.1,1.1,0,2.2,0,3.2a35.3,35.3,0,0,1,0,4.6c0,.6.1,1.3.1,1.9-.1,2.2,0,4.4-.1,6.6a6.4,6.4,0,0,0,.6,3.1c.2.4.1.7.2,1a12.9,12.9,0,0,0,2.3,2.4h.3c1.4.9,2.9.6,4.4.7h.3c.9-.7,2-.6,3-1.2a9.4,9.4,0,0,1,2.3-1c.5.2.4.7.4,1.1s.4.2.6.3.1,1.3.3,1.8-.5.7-.5,1.1.1.3.3.4a1.1,1.1,0,0,0,.8-.3c.4-.1.7-.3,1.1-.2a23.6,23.6,0,0,0,2.8-.4,4,4,0,0,0,1.1-3c0-1.9,0-3.8.1-5.7s-.1-2.3,0-3.5-.1-2.4-.1-3.7c.1-3.2,0-6.4,0-9.7h0a22.9,22.9,0,0,0,0-3.7V296.6c0-.6.1-1.2.1-1.7s.1-.4.1-.6a6.9,6.9,0,0,1,0-3.2c.1-.7-.3-1.4,0-2.1a8.7,8.7,0,0,1-.1-3.6c0-2.7-.2-5.4,0-8.1-.2-1.2.4-2.5-.1-3.8v-.3c.3-.9-.1-1.9-.1-2.9a6.9,6.9,0,0,0,0-3.5,9.2,9.2,0,0,0-2.9-2.3,13.1,13.1,0,0,1-2.4-1.7l-.2-.5h0a14.7,14.7,0,0,0-1-1.3,1.1,1.1,0,0,1-.1-.5v-.8q.1-.3.3-.3a16,16,0,0,1,4.5-2.3l.5-.2a4.8,4.8,0,0,1,2.1-.9,7.9,7.9,0,0,1,2.3-1.4,9.4,9.4,0,0,0,2.2-1.2c.8-.2,1.5-.5,2.4.3s.4,1.1.9,1.6.3.5.3.8a22.8,22.8,0,0,0,.2,2.6,13.2,13.2,0,0,0-.2,2.8c-.2,1.2.1,2.4-.2,3.6s-.2,1.3,0,1.9a4.8,4.8,0,0,1,0,1.7v.3c.4,2.5.1,5,.2,7.5s0,2.5.1,3.8-.1,2.2-.1,3.2,0,4.5,0,6.7-.1,2.5-.1,3.8a14.6,14.6,0,0,0,.2,2.9l.4.3c.1,0,.2.1.2,0a2.9,2.9,0,0,0,1.4-.8l1.6-1.7a13,13,0,0,1,3.5-3.1,11.1,11.1,0,0,1,3-1.7,5.8,5.8,0,0,1,2.9-.5l1.1-.2c1.6.3,3.2.4,4.8,1.7a6.4,6.4,0,0,0,1.9,1.6c.3.9,1.1,1.5,1.5,2.4a4.5,4.5,0,0,1,.6,1.2v.3a8.2,8.2,0,0,1,1.5,3.9,6.6,6.6,0,0,0,.4,1.5l-.2.9c-.1.1-.3,0-.3.3l.3-.3a2,2,0,0,1,.4,1.5,14.1,14.1,0,0,1-.1,2.9c0,.2.1.5.1.7a1.8,1.8,0,0,1,.1,1c-.1,1.2.1,2.4,0,3.5s.2,2.7.1,4.1,0,2-.1,2.9.3,1.5-.2,2.1a9,9,0,0,1,.2,2.3c.1,1,0,2.1,0,3.2s0,2.2,0,3.3-.1,2.4-.1,3.5a20.4,20.4,0,0,0,.3,3.4,5.2,5.2,0,0,0,2.1.4,6.3,6.3,0,0,1,2.6.7,18.6,18.6,0,0,0,1.1,1.9,1.1,1.1,0,0,1,.2.8,5.6,5.6,0,0,1,0,1.3,3.1,3.1,0,0,1-1,1.2,9.2,9.2,0,0,1-2.9.4h-6.1a21.1,21.1,0,0,0-3.5.2,5.6,5.6,0,0,1-1.3,0l-3-.3a3.1,3.1,0,0,1-1.9-.9,5.1,5.1,0,0,0-1.1-1.6c0-1.1-.2-2.1.5-3a2.1,2.1,0,0,1,1.6-.6l2.3-.3a3.1,3.1,0,0,0,1-.5,4,4,0,0,0,.7-1.9,45.1,45.1,0,0,0,0-5.2,3.8,3.8,0,0,0-.1-1.5c-.1-.2,0-.5,0-.8a2.2,2.2,0,0,0,.1-1.1,26.7,26.7,0,0,1,0-4,18.2,18.2,0,0,1,0-3.3v-3.7c.1-1.6,0-3.2.2-4.8v-.2c-.3-1.5-.4-3.1-.6-4.6a4.6,4.6,0,0,0-.5-2.3,5.6,5.6,0,0,0-2.6-3.4,10.4,10.4,0,0,0-3.3-1,2.4,2.4,0,0,0-1.2,0,8.8,8.8,0,0,1-1.7.2,5.9,5.9,0,0,1-2.1,1c-.5.8-1.5,1.1-2.2,1.8l-1.9,2.1c-1,2-.9,4-.9,6.1a17,17,0,0,1,0,3.9,19.2,19.2,0,0,0,0,2.4,37.5,37.5,0,0,1,.1,5.8,2.2,2.2,0,0,0,0,.8v1c-.2,2.4-.1,4.8-.1,7.3a9.1,9.1,0,0,0,.1,2.3,1.4,1.4,0,0,1,0,.9,4.3,4.3,0,0,0,.1,2.5c1.2.9,2.6.2,3.9.6s1.3,2,2.1,2.8a4.3,4.3,0,0,1,0,1.6l-.7,1a2.5,2.5,0,0,1-2,.6h-1.8a26.7,26.7,0,0,0-4,0h-1.4a13.3,13.3,0,0,1-2,0c-1.9-.1-3.8.2-5.7,0l-1.7-.3a.8.8,0,0,1-.3-.8,12.2,12.2,0,0,1,2.7.1.3.3,0,0,0,.3-.3l-2.1-.2c-.3,0-.6-.2-.8.1ZM169.6,321h0c-.1.1-.1.1,0,.1Zm-29-10.3h0Zm0-4.7h0Zm29-14.8h0Zm0-18.9h0Zm16.8,70.3c-.1,0-.3-.1-.4.2l.4-.2h0Zm-3.5-.3h0c0,.1.1.2.3.1Zm12-14.5c.1-.1.2-.1.1-.3s-.1.2-.1.3h0ZM153.2,339a.9.9,0,0,0,.6-.6,3.4,3.4,0,0,0,.9-1.4c.1-.1.1-.1,0-.1h0a2.7,2.7,0,0,0-1.1,1l.2.4q-.6.2-.6.6l-.3.3a1,1,0,0,0-.9.9,1.5,1.5,0,0,0-1.1,1.2,2,2,0,0,0-1.1.3l-1.9,1.2a1.2,1.2,0,0,0-1,.5c.4,0,.7.1.9-.2v-.3h1a14.3,14.3,0,0,0,2-1.4c.5-.3,1.1-.4,1.1-1.2s.9-.3.9-.9Zm-4.4-41h0c-.4-.2-.4-.2-.8.1S148.6,298.1,148.8,298Zm1.5,0c-.3-.1-.5-.4-.8,0s.3.2.8,0h.1A.1.1,0,0,0,150.3,298Zm19.6,6.2a3.1,3.1,0,0,0,.9-1.8h.5c.3-1.1,1.3-1.6,2.1-2.2v-.5h.9l.5-.7a10,10,0,0,0,2.3-.9,29.8,29.8,0,0,1,4.2-.1.4.4,0,0,0,.6.2c-.2-.3-.4-.2-.6-.2l-.2-.2c-1.2-.2-2.3-.6-3.5-.1h-1a13.3,13.3,0,0,1-2.1.9c-.3.4-.8.7-1.1,1.1a5.3,5.3,0,0,0-2.7,2.6l-.4.2a3,3,0,0,0-.5,1.6c-.1.1-.2.2-.1.3S169.9,304.3,169.9,304.2Zm-15.8-8.8c-1.3,1.6-1.3,1.6-1.3,2.4l1.2-1.4v-1.1a2.6,2.6,0,0,0,.7-1C154,294.4,154,294.5,154.1,295.4Zm-12.6,3.2h.4a6.3,6.3,0,0,1,3.3-.4l.4-.2c.3.1.7.3,1,0s-.4-.3-1,0a4,4,0,0,0-4.1.6c-.5,0-.7.3-.7.8S141.4,299,141.5,298.6Zm59.6,42.5-1.1.8-.8.2-2.2.2h-7.9c-.1,0-.2.2-.2.3s.6,0,.8,0h4.1a5.7,5.7,0,0,0,2.6,0,3.3,3.3,0,0,1,1,0,8.3,8.3,0,0,0,2.7-.3,1.5,1.5,0,0,0,1-1.2c.1-.1.2-.2.1-.3S201.1,341,201.1,341.1Zm-26.2,1.3a4.6,4.6,0,0,0,.7-.7c.1-.2.2-.3-.1-.5s-1,1-2.3,1.1a16.3,16.3,0,0,1-3.1-.1c-.1-.1-.2,0-.2.2A9.4,9.4,0,0,0,174.9,342.4Zm-28.4,1.1a1.4,1.4,0,0,0-1.5-.1h-1.1a4,4,0,0,0-1.5.1A5.8,5.8,0,0,0,146.5,343.5Zm19.9-1.2v.5a6.3,6.3,0,0,1,1.9-.3c.2,0,.2-.1.1-.3Zm-3.7,0c1.4.3,1.4.3,2.3-.1h-2.3Zm-.8-.1a2,2,0,0,0-1.1.2c-.1.1,0,.2,0,.3H162Zm21.8.3a1.8,1.8,0,0,0,1.6-.1A2.3,2.3,0,0,0,183.7,342.5Zm-31.5-45c-.3.3-.8,0-.9.7S152.1,298.2,152.2,297.5Zm17.3-29.9c.3-.4.3-.4,0-.7S169.3,267.4,169.5,267.6Zm25.4,51.9c-.1.3-.2.3-.2.4a.4.4,0,0,0,.1.3c0-.1.1-.1.1-.2S194.9,319.8,194.9,319.5Zm-25.4-53.7a.4.4,0,0,0,0-.6C169.3,265.4,169.4,265.6,169.5,265.8Zm25.6,56.6h-.2c-.1.1-.1.1-.1.2s.1.1.2.1S195.1,322.5,195.1,322.4Zm-25.4-62v.2h.1c0-.1.1-.1.1-.2Zm-29.1,24.8h0Zm-.2-1.5h0Zm29.3-3.4h0Zm0-4h0Zm-28.9,24.1h0Zm-.3,3.7h0Zm54.3,1.9h0Zm-25.2-43.5h0Zm.2,48.5c.1.1.1,0,0-.1h-.1A.1.1,0,0,0,169.8,311Zm24.9.5h0Zm-54.1,1.7h0Zm28.9.2h0Zm.2,1.3h0Zm-29,7.5h0Zm28.9,2.6h-.2v0Zm-28.9,2.3h0Zm28.8.5h0Zm0,3.5a.1.1,0,0,0,.1-.1h-.1Zm25.2.2h0Zm.1,1.3h0c-.1,0-.1,0-.1.1Zm-25.2,1.2v0Zm25.4,1.8h0Zm-29.4,6.8h-.1c-.1,0,0,.1.1.1Z" fill="#7f7f7f"/><path d="M260.1,286.2a6.4,6.4,0,0,1-.5,2.3c-.3,1-.7,2-1.1,3a16.5,16.5,0,0,1-1.4,2.6l-.6,1-.9.7a13.3,13.3,0,0,1-3,2.8l-2.4,1.7a.9.9,0,0,0-.5.8c1.2.6,2.3,1.3,3.5,1.8a22.9,22.9,0,0,1,2.9,1.8,23.1,23.1,0,0,1,2.4,2,27.5,27.5,0,0,1,2.2,2.6,44.2,44.2,0,0,1,3.2,6.1.6.6,0,0,1-.1.7,4.1,4.1,0,0,1,.5.9c.1.2.1.5.2.8s.3,1.6.3,2.3a5,5,0,0,1-.1,2.1c-.1.1,0,.3,0,.4a5.7,5.7,0,0,1-.2,2.6,21.7,21.7,0,0,0-.4,2.5,19.8,19.8,0,0,1-2.2,5.2,17.4,17.4,0,0,0-1.1,1.8l-.2.2-3,3.2a11.8,11.8,0,0,1-1.8,1.3l-1.2,1a2.2,2.2,0,0,1-1.3.6c-1,.8-2.1.9-3.2,1.4s-.2.3-.4.3-1.6.5-2.5.6l-2.4.4a11.6,11.6,0,0,1-3.7-.1l-1.2.3-.6-.2h-23a4.4,4.4,0,0,1-1.5-.8v-.8l-1-.8a4.4,4.4,0,0,1,.3-3.4l1.2-.6h4.1a3,3,0,0,0,3-2.6c.1-1.8,0-3.6,0-5.3a4.8,4.8,0,0,1,0-1.2,4.4,4.4,0,0,0-.2-2.3,3.3,3.3,0,0,0,.1-2.2c-.1-.3.1-.7.1-1a11.1,11.1,0,0,0-.1-2.6,10.6,10.6,0,0,0,.1-3.1c0-1.6,0-3.3.1-5s0-3.8-.1-5.7.1-2.1.1-3.2v-3.7a24.6,24.6,0,0,1,0-4.7,11,11,0,0,0-.3-1.6,10.1,10.1,0,0,0,.2-3c.1-2-.2-3.9,0-5.8a19.3,19.3,0,0,0,0-3.4v-.4a15.3,15.3,0,0,0,0-3.7,9.4,9.4,0,0,0,0-2.9c.4-1-.1-2.1.2-3.1a1.8,1.8,0,0,0-.4-1l-.3-.2a3.8,3.8,0,0,0-2.1-.1,8.9,8.9,0,0,0-2.8-.1,4.3,4.3,0,0,1-1.8-.6,1.1,1.1,0,0,1-.3-.8h0c.1-.1.4.1.5-.2h-.5a3.8,3.8,0,0,1-1.5-2.2l.4-1.3a2.2,2.2,0,0,1,2.3-1.2h.8a28,28,0,0,1,2.9,0,10.1,10.1,0,0,0,3,0h7.5l5.7.2h2.5a38.6,38.6,0,0,1,7.5,1,6.2,6.2,0,0,1,1.9.7c1.2.5,2.5,1.2,3.6,1.8s1.5,1.3,2.4,1.6l2.1,2.6a16.7,16.7,0,0,1,1.8,2.8l.6,1a6.1,6.1,0,0,1,.5,1.2l.6,1.7a11.6,11.6,0,0,0,.4,1.8,3.2,3.2,0,0,1,.3,1.7,11.1,11.1,0,0,0,.2,1.9,2.7,2.7,0,0,0,0,.9,2.9,2.9,0,0,1-.3,2.4h0a.1.1,0,0,0-.1.1c0,.1,0,.1.1.2ZM231,327.8c0,.1.1.2.1.1Zm0-15h0Zm16.2-6.8Zm12-21.3c0,.1.1.2.1.1h-.1v-.3h0a.1.1,0,0,1-.1.1C259.1,284.6,259.2,284.6,259.2,284.7Zm-2.1,6.8a.6.6,0,0,0,.3-.6,2.2,2.2,0,0,0,.9-2,.9.9,0,0,0,.3-.6c.4-.4.2-1,.5-1.4l-.2-.3c-.3.6-.6,1.1-.3,1.7a.6.6,0,0,0-.3.6,2.9,2.9,0,0,0-.9,2,.9.9,0,0,0-.3.6l-.3.3a12.7,12.7,0,0,0-1.3,1.9,3,3,0,0,0-1.3,1.2c0,.2-.2.3-.3.4l-2.6,2.1-2.1,1.5a.8.8,0,0,0-.3.8c1.3-.8,2.4-1.8,3.7-2.5s2.1-2.2,3.2-3.1l.8-1.3a1.6,1.6,0,0,0,.2-1Zm-15.5-22.7h0c-.2-.2-.4-.4-.7-.1ZM236,304.2c.2,0,.3.2.5,0s-.3-.2-.5,0h0Zm8.8.9c.1.1.2.2.4.1h-.4c-.2-.2-.3-.3-.7-.1Zm17,25.1c-.2.1-.2.3-.3.6s-.2.3-.3.6a2.8,2.8,0,0,0-1.1,1.7c-.5.5-1.1.9-1.5,1.4a9.3,9.3,0,0,1-3,2.9,16.7,16.7,0,0,0-1.6,1.2c0,.1-.1.3-.1.4a1,1,0,0,0-.9.6h-.4c-.6.1-.7.6-1.1.6a21.8,21.8,0,0,0-2.3.9l-2.5.7a4.7,4.7,0,0,1-1.7.3.3.3,0,0,0-.3.3h.4a22.9,22.9,0,0,0,6.3-1.9,4.4,4.4,0,0,0,1.6-1,1,1,0,0,0,.9-.6,1.9,1.9,0,0,0,1.4-.7c.3-.2.5-.5.8-.6a18.4,18.4,0,0,0,3.9-4v-.6a.5.5,0,0,0,.5-.3,2.8,2.8,0,0,0,.6-1.4.6.6,0,0,0,.3-.6c.5-.1.5-.1.3-.6a.9.9,0,0,0,.3-.6c.5-.5.5-.5.4-.9a1,1,0,0,0-.4.9C261.9,329.7,261.9,329.9,261.8,330.2Zm-24.6-62c.3-.1.6.1.9-.2a.6.6,0,0,0-.9.2h-.3a2.7,2.7,0,0,0-2.3-.1h2.3A.2.2,0,0,0,237.2,268.2Zm-5.6.9c1.1-.5,1.1-.5,1.5-1.2l-1.1.4a1,1,0,0,0-.4.8h0Zm10.9,73.5.3.2,1.2-.3a1.6,1.6,0,0,0-1.5.1.9.9,0,0,0-.8-.3,4.4,4.4,0,0,1-1.6-.2l-1.2.5a.9.9,0,0,0-.6-.4c-1.6.2-3.2,0-4.8.1h-4a2,2,0,0,0-1.1.2c.2.3.5.2.8.2s2.2-.1,3.3,0a14.8,14.8,0,0,0,2.1.1,30.9,30.9,0,0,1,4.3-.1.8.8,0,0,0,.9.2c.4,0,.7-.2,1-.1S241.9,342.6,242.5,342.6Zm-10.7-6.3a1.3,1.3,0,0,0,.9.7l1.7.2a5,5,0,0,1,1.7-.1,13,13,0,0,0,3.4.1c1.3,0,2.5-.2,3.8-.3s1.5-.7,2.4-.9a6.4,6.4,0,0,0,1.9-.8l3.1-2.3a7.1,7.1,0,0,1,1-1.4,9.6,9.6,0,0,0,1.4-2.1,22.8,22.8,0,0,0,1.5-4.4,7.4,7.4,0,0,0,.3-2.6,6.2,6.2,0,0,1,.1-1.9,3.9,3.9,0,0,1,0-2.6,17.8,17.8,0,0,0-1.4-5.5,4.9,4.9,0,0,1-1-1.6,1.2,1.2,0,0,0-.6-.6c-1.6-1.2-3-2.6-5-3.2a10.5,10.5,0,0,0-4.2-1.1l-2.9-.4h-1.4a14,14,0,0,1-2.9,0,5.3,5.3,0,0,0-3,.7,7.6,7.6,0,0,0-.7,1.3c0,1,0,2.2-.1,3.4s.3,2.4,0,3.6-.2,2.7,0,4.1-.2.7,0,1.1a5.4,5.4,0,0,1,0,2.2,3,3,0,0,0-.1,1.3,9.8,9.8,0,0,1,.1,3.4,2.7,2.7,0,0,0,0,.9,3.3,3.3,0,0,1,0,1.4v4.6c0,.2-.1.5,0,.7A5.4,5.4,0,0,1,231.8,336.3Zm.3-38a4.8,4.8,0,0,0,2.5.6,25.4,25.4,0,0,0,3.9-.1,1.6,1.6,0,0,1,.7,0,2.6,2.6,0,0,1,1-.4c1.3-.1,2.2-.9,3.3-1.4a6.3,6.3,0,0,0,2.3-1.7,11.4,11.4,0,0,0,3.1-4.1,8.3,8.3,0,0,1,.7-1.3,8.4,8.4,0,0,0,.5-1.7,32,32,0,0,0,.7-3.3,12.2,12.2,0,0,0,0-2.7,2.9,2.9,0,0,1-.1-1.3,5.9,5.9,0,0,0-.4-3,14,14,0,0,0-1.9-4.1,12.2,12.2,0,0,0-4.4-3.1c-.4-.3-.9-.1-1.3-.3s-2.7-.7-4-1a22.9,22.9,0,0,0-3.7,0,3.9,3.9,0,0,0-2.3.5c-.7.9-.7,2-1,3.1a4.4,4.4,0,0,1,.2,1.6V280a3.8,3.8,0,0,1,0,1.5,21.6,21.6,0,0,0,0,3.6,23.2,23.2,0,0,1,.1,3.7,12.1,12.1,0,0,0,0,3.8c.1.2,0,.5,0,.7a32.7,32.7,0,0,0-.1,4.4A1.4,1.4,0,0,0,232.1,298.3Zm-16.3,44.1c1,.5,8.5.5,11.6,0h0c-3.3-.3-6.5,0-9.8-.1A5.7,5.7,0,0,0,215.8,342.4ZM232,305a5.8,5.8,0,0,1,3.4-.7c-1.1-.6-1.6-.5-3.7.4-.2.4-.7.7-.6,1.5Zm-11.9-36.9c-.6-.5-1-.1-1.3-.2l-1.3-.2c-.2,0-.4.1-.3.3A9.2,9.2,0,0,0,220.1,268.1Zm16.7,36.1c1,.3,1,.3,1.8-.2A2.9,2.9,0,0,0,236.8,304.2Zm2.1-36c.3.4.7.2,1,.3s.2.1.4-.1A2.3,2.3,0,0,0,238.9,268.2Zm4.2,36.5c-.8-.3-.8-.3-1,0A1.2,1.2,0,0,0,243.1,304.7Zm20.3,19.7c-.1.9-.1.9.1,1.2A1.7,1.7,0,0,0,263.4,324.4Zm-21.8-20.3c-.5.2-.8,0-1,.4S241.1,304.6,241.6,304.1ZM231,271.6c.2,0,.2-.1.1-.2H231a.3.3,0,0,0-.1.2Zm32.8,51.7c-.2.2-.2.3,0,.4S263.9,323.5,263.8,323.3Zm-21-54.2h-.2v.2h.1C242.8,269.3,242.9,269.2,242.8,269.1Zm-11.6,4.7q-.3.1,0,.3A.2.2,0,0,0,231.2,273.8Zm-.1,4.2c.1,0,.1,0,.1-.1h-.1Zm.1-7.7h0Zm8.1,33.8h0Zm-8.1,15.1h0Zm-.1,1.4c0-.1-.1-.1-.2,0h.2Zm-.2.7h0Zm.2,3.7c-.1-.1-.1-.1-.2,0h.2Zm32.1,1.7h0Z" fill="#7f7f7f"/><path d="M385.7,343.8a4.3,4.3,0,0,1-2.9-.6.8.8,0,0,1-.2-.9c-.1-.4-.6-.3-.6-.5a2.4,2.4,0,0,1-.6-2.4,3.2,3.2,0,0,1,1.4-1.7l3.2-.2,1.2-1a2.1,2.1,0,0,0,.3-1.7,1.4,1.4,0,0,1,0-.9c.2-1.1-.2-2.2.1-3.4a30.9,30.9,0,0,1-.1-4.3c-.1-1.6,0-3.1,0-4.6v-4.4c0-1.5.1-3,0-4.4a22.8,22.8,0,0,0,0-3.7c-.1-.4.1-.7.2-1.2a6.6,6.6,0,0,1-.1-2.8.5.5,0,0,0,0-.5c-.3-.9,0-1.8-.2-2.8a13.6,13.6,0,0,0-2.5-2.2,29.3,29.3,0,0,0-2.6-1.9,2.8,2.8,0,0,0-.9-1.7,4.9,4.9,0,0,1,0-1.7,34.7,34.7,0,0,1,3.7-3,3.7,3.7,0,0,0,1.9-2,3.7,3.7,0,0,1,.6-1c.1-.3.1-.8.2-1.3a4.9,4.9,0,0,1,.4-2.1.7.7,0,0,0,.1-.5,15.4,15.4,0,0,1,.4-3,2.2,2.2,0,0,1,.3-1.4,1,1,0,0,0,.2-.7,28,28,0,0,1,.9-3.1c.4-1.4.8-2.8,1.3-4.2a29.8,29.8,0,0,1,1.9-4.6,8.1,8.1,0,0,0,.3-1.1c.2-.2.5-.3.7-.7a31.2,31.2,0,0,1,2-3.5c1.5-2.6,3.8-4.5,6-6.4a10.8,10.8,0,0,1,1.8-1.1l.6-.3a5.6,5.6,0,0,1,2.6-1.2l.9-.4a24.3,24.3,0,0,1,5.4-.1c3.8,1.7,3.4,1.7,5.2,4.8v.6l.6.5c0,1,.5,2,.2,3.1a8.7,8.7,0,0,0-.1,3.6,5,5,0,0,1,.2,1.2c0,.1-.2.2-.2.3h0l.5.6a14.9,14.9,0,0,1,.2,2.1,21.2,21.2,0,0,1-.2,2.4,19.3,19.3,0,0,1-1.3,2.4,4.4,4.4,0,0,1-2.8,2l-.9.2-1.7-.3c-2-1.1-2.8-3-3.9-4.7a25.4,25.4,0,0,1-.4-2.9,6.6,6.6,0,0,1,.3-3.1,8.8,8.8,0,0,0,.7-3.2c-.3-1-1.3-1.2-1.9-1.9l-1-.2a8.6,8.6,0,0,0-3.5,2.3,21.9,21.9,0,0,0-2.5,3.7c-1.4,2.2-2.1,5.1-2.8,7.8l-.3,1a33.9,33.9,0,0,0-1.1,7.1v.3c-.5,2-.2,4.1-.5,6.1a4,4,0,0,0,.4,3.2l1.3.5c2-.3,3.9.1,5.8-.1s3.6.8,5.6.9,2.2-1.3,3.4-1.8,2.5-1.2,3.7-1.8h1.2a9.5,9.5,0,0,1,1.9,3c0,.6-.2,1.1,0,1.6a.2.2,0,0,1,0,.3,10.1,10.1,0,0,0,0,3c.1,1.5-.3,2.9-.2,4.4a32.3,32.3,0,0,1,.1,4.4c-.1.2,0,.4.1.7a5.7,5.7,0,0,1,0,1.3,18.2,18.2,0,0,0,0,3.3c0,1.2-.1,2.4-.1,3.6a10.9,10.9,0,0,0,.1,1.8,8.8,8.8,0,0,1,0,2.3c-.1.9,0,1.9-.1,2.8a6.2,6.2,0,0,0,.1,2.7c-.4,1.2.1,2.5-.1,3.7s-.3,2.4.1,3.6a4.4,4.4,0,0,0-.1,2,6.6,6.6,0,0,0,.1,2c.2.5-.3,1,.2,1.5s2.9.2,4.3.8a28.5,28.5,0,0,1,1.6,3,7.8,7.8,0,0,0-.2,1.6l-.6.8a2.7,2.7,0,0,1-1.2.3,13.4,13.4,0,0,1-2.8.1c-.9-.1-1.8.1-2.7,0a56.1,56.1,0,0,0-5.8,0h-4.6c-1,.1-2.1-.1-3.1.1a14.5,14.5,0,0,0-3.6,0h-3.9a2.8,2.8,0,0,1-1.3,0,1.2,1.2,0,0,0-1,0,4.5,4.5,0,0,1-2.3,0,16.1,16.1,0,0,0-3.1.1h-1.1l-2.5-.4-.3.2Zm11.2-68.5a.1.1,0,0,1,.1-.1.3.3,0,0,1-.1-.2v-.3c.2-.2.5-.3.4-.7h-.4v.6a.1.1,0,0,0-.1.1v.5h0Zm7.6,67.3h.6c.1.2.4.3.6.4l1.3-.2c.2,0,.4-.1.2-.4l-2.1.2q-.3-.5-.6,0h-.4C404.4,342.9,404.4,342.7,404.5,342.6Zm-3.8-78.5a.6.6,0,0,0-.3.6,3.3,3.3,0,0,0-1.2,2.3.7.7,0,0,0-.3.6c-.1.1-.2.2-.1.3s.1-.2.1-.3a.6.6,0,0,0,.3-.6,13,13,0,0,0,1-1.5c.2-.3.1-.6.2-.9a.5.5,0,0,0,.3-.5l.3-.3c.5-.1.6-.5.6-.9a.9.9,0,0,0,.3-.6,1.1,1.1,0,0,0,1-.7,5.3,5.3,0,0,1,2.2-2,1.2,1.2,0,0,0,.6-.6c.5.3,1,0,1.5-.1a2.7,2.7,0,0,0-1.3-.2l-.2.3c-.3.1-.5,0-.7.2a6.9,6.9,0,0,0-2.2,1.6c-.4.5-.9.8-.9,1.5s-.5.1-.3.6a.8.8,0,0,0-.6.9Zm5.6,34.8h0a.5.5,0,0,0-.4-.2A.4.4,0,0,0,406.3,298.9Zm14.4,43.7q-.1-.3-.3,0l-.9-.2a1.6,1.6,0,0,0-1.5.2h0a2.5,2.5,0,0,0,2.4,0h.3c.1.1.2.2.4.1s0-.2-.1-.2Zm-22.9-71.2a.4.4,0,0,0,.1-.6c-.2.2-.1.4-.1.6s-.3.2-.2.4S397.7,271.6,397.8,271.4Zm26.4,70.9c.4-.1.6-.2.5-.7s-.5.4-.5.7-.3-.2-.5,0S424,342.5,424.2,342.3Zm-27.6-65.8a.6.6,0,0,0-.3.6v1.1h0c.2-.1.2-.4.3-.6v-1.1c.1-.1.2-.2.1-.4S396.6,276.3,396.6,276.5Zm-11.8,66.1h1.5c.4,0,.8.4,1.2.1v-.3l-2.5-.2h-.1a1.9,1.9,0,0,0-1.4.3Zm5.9,0a1.1,1.1,0,0,0-.8-.2c-.1.1-.2.2,0,.4h.3l.5-.2a.7.7,0,0,0,.9,0,1.1,1.1,0,0,0,.8.3h3.8l.3-.3c-.8.1-1.4-.4-2.1-.2s-1.9,0-2.8.3S391.1,342.2,390.7,342.6Zm5-42.8a1.2,1.2,0,0,0,.6-1.2c1.2.1,2.4-.3,3.6-.1a2.9,2.9,0,0,1,1.3-.1h1.3c.5.2.9-.1,1.4-.1l1.6.2a3.2,3.2,0,0,0-2.1-.6,21.7,21.7,0,0,1-5.1,0l-1.1.3a1.1,1.1,0,0,0-.9.4,1.6,1.6,0,0,0-.7.7v.5a.4.4,0,0,0-.2.6C395.8,300.2,395.6,300,395.7,299.8Zm21.4,42.8c-1.1-.4-1.4-.4-2.1,0a2.2,2.2,0,0,0,2.1,0c.2-.1.2-.1.1-.1A.1.1,0,0,0,417.1,342.6Zm1.8-71.5-1.1,1.7a4,4,0,0,1-2.7,1.9l-1,.2c-.3.1-.5-.2-.8,0s.2.3.4.3a3.4,3.4,0,0,0,2.4-.3c1.5-.8,2.8-1.8,2.8-3.8.1-.1.3-.1.1-.3Zm-22.4,66.2c.8.7,1.7,0,2.5.5s2.4.3,3.6-.2a6.2,6.2,0,0,0,2.7.2,14.3,14.3,0,0,1,2.9-.1l1.9-.6a2.4,2.4,0,0,0,.8-2.2,12.1,12.1,0,0,1,0-1.9,26.3,26.3,0,0,0-.1-5.6,2.2,2.2,0,0,1,0-.8,3,3,0,0,0,.1-1.3,10.9,10.9,0,0,0-.1-1.8c-.1-.7.2-1.4.1-2.1a7,7,0,0,1,0-2.5c.2-.9-.3-1.7-.1-2.6v-1c0-1.1.1-2.3.2-3.4s-.1-4.7,0-7a3.1,3.1,0,0,0-.8-2.3c-.4-.3-.9-.4-1.1-.8a5.5,5.5,0,0,0-1.7-1.3,5.6,5.6,0,0,0-3.5-1.1,17.7,17.7,0,0,1-4.6,0l-2,.5a2.6,2.6,0,0,0-.9.9,8.6,8.6,0,0,1-.1,1.6,14.1,14.1,0,0,0,0,2.9c-.1,1.9-.1,3.7-.1,5.6s.1,2.9.1,4.4v2.8c-.1,1.5.2,3-.2,4.4a6.8,6.8,0,0,1,.2,1.4c-.1,1.4-.1,2.9-.1,4.3V331c0,1.6.1,3.1,0,4.7A3.2,3.2,0,0,0,396.5,337.3Zm15.8,5.5c-.2-.2-.2-.4-.3-.4h-3.7c-.1-.1-.4,0-.3.4Zm-12.2-.1a4.7,4.7,0,0,0-3.1-.1A6.2,6.2,0,0,0,400.1,342.7Zm3.2.1c-.1-.4-.4-.4-.7-.5h-1.1c-.2,0-.5.1-.5.4Zm15.5-44.7h-.1v1.6h.1Zm-20.6-28c.2-.3.4-.5.2-.8S398.1,269.6,398.2,270.1Zm15.5,72.5c.4.1.4.1.5-.2S413.9,342.3,413.7,342.6Zm9.5-.1c-.2-.2-.4-.3-.6,0S422.9,342.9,423.2,342.5Zm-27.6-54.9-.2.3c0,.1.1.3.1.4s.2-.2.2-.3S395.6,287.8,395.6,287.6ZM418.8,261l-.2.3c0,.2.1.3.1.5l.2-.3C418.9,261.3,418.8,261.2,418.8,261Zm0,41.5c.1-.2.1-.4-.1-.4S418.6,302.3,418.8,302.5ZM413,342.4c-.1,0-.1.1-.2.2h.1c.1-.1.2-.1.2-.2A.1.1,0,0,0,413,342.4Zm-16.9-62.9c.2-.2.2-.3,0-.4S396,279.3,396.1,279.5Zm0,1.2c.1-.2.2-.3,0-.4S396,280.5,396.1,280.7ZM419,293.9h-.3c.1.1.1.2.2.1S419,294,419,293.9Zm-.3-2.2h.1A.1.1,0,0,0,418.7,291.7Zm-22.8-9.1h0Zm2.7-13.9h0Zm-3.2,40.7h0Zm23.4,2.2h0a.1.1,0,0,0-.1.1ZM395.2,321h0Zm23.5,1.4h0a.1.1,0,0,0,.1.1h-.1Zm6.3,17.8h0Zm-35.9,2.4h0Zm32.8-.1c0-.1,0-.2-.1-.1s0,.1,0,.1Zm-33.5.2h0Z" fill="#7f7f7f"/><path d="M155.3,241a1.6,1.6,0,0,1,.6.8,11.5,11.5,0,0,1,.2,1.6,3.5,3.5,0,0,1-1,1.9,6,6,0,0,1-2.3.2,4.4,4.4,0,0,0-2.3.2,3.8,3.8,0,0,0-2.1-.1,12.2,12.2,0,0,1-2.7,0H145a25.4,25.4,0,0,1-3.9,0H131l-1.5-.2a2,2,0,0,1-1.1-.3c-.4-.4-.4-1-.9-1.5s-.6-1.3-.7-2.1a7.7,7.7,0,0,1,.7-1.7l1.2-.6h4.4a5.4,5.4,0,0,0,1.9-.8,4.3,4.3,0,0,0,.6-2.4c0-1.5.1-2.9,0-4.4a4.2,4.2,0,0,1,.1-1.6c.2-.5-.3-1,0-1.5s0-.4,0-.7a1.3,1.3,0,0,1-.1-.6c.2-1-.1-2.1.1-3.2a14.5,14.5,0,0,0,.1-3.6c.1-.8-.1-1.5,0-2.3a7.1,7.1,0,0,0-.2-2,5.5,5.5,0,0,0,.2-2.2c-.1-1.3,0-2.4,0-3.6v-3.8a26.7,26.7,0,0,1,0-4v-.5a9.7,9.7,0,0,1,0-3.8,13.8,13.8,0,0,0-.1-2.9,12,12,0,0,1,0-1.9,3.8,3.8,0,0,0,.1-1.5c-.2-1,.2-2-.2-3a5.5,5.5,0,0,0,0-3.6,6,6,0,0,0,.2-2.7c-.2-1.1,0-2.2-.1-3.3s-.1-1.7-.1-2.5.1-2,.1-3.1a11,11,0,0,0-.2-1.8,1.7,1.7,0,0,0-1.3-.5h-3.4a3.6,3.6,0,0,1-2.7-1.1l-.2-.8c-1.5-1.5-1.5-2.7-.2-4.2a5.1,5.1,0,0,1,2.4-.4c.8.1,1.5-.2,2.2-.1a7.5,7.5,0,0,0,2.1-.2l.8.4.9-.3h1.6a7.1,7.1,0,0,1,2.9,0h1a19.3,19.3,0,0,1,2.4-.1c2,0,4,.2,6,.1h.3c1.9.4,4-.2,5.9.2a18,18,0,0,1,4-.1h5.9c1-.2,2.2-.1,3.1-.8l1.1-.4.6-.6,1.4-.4c.8.8.8,2.1,1.7,2.7a9.2,9.2,0,0,1,.1,3.3.3.3,0,0,0,0,.4c.1,1,0,2,0,3.1s0,3.2,0,4.8,0,3.2-.1,4.9a8.2,8.2,0,0,1-.4,2.6l-.5.2h-.5l-.6-.8-4.4-7.3a21,21,0,0,1-1.3-2.6,6.5,6.5,0,0,0-1.3-1.6c-1-.4-1.9-1-3-.7s-2.6.1-3.9-.3a2.5,2.5,0,0,0-1.2.1,12.2,12.2,0,0,1-3.3.1h-5.3a3.3,3.3,0,0,0-2.8,1.2,4.6,4.6,0,0,0-.2,2.6c-.3,1.5.1,3.1-.2,4.6a4.1,4.1,0,0,0,0,2.2,7.7,7.7,0,0,1,.2,1.5,4.9,4.9,0,0,0,0,1.7c.1.8-.3,1.6-.1,2.4a5,5,0,0,1-.1,2.1,24.3,24.3,0,0,0,0,2.7c.1,2.1.2,4.3.1,6.5a2.7,2.7,0,0,0,.3,1.8.9.9,0,0,0,.8.3,41.9,41.9,0,0,0,6.1.2h2.3l1-.2,1.4-.7,1.8-2.5a1.1,1.1,0,0,1,.2-.8c.9-1.2,1.4-2.7,2.3-3.9a5.3,5.3,0,0,1,1.3-1.3c.8.5.8.5,1.1,1.6s.7.4.8.8a13.7,13.7,0,0,1,.2,1.9c0,1.6-.1,3.1-.1,4.7s-.1,5.8,0,8.7a19.2,19.2,0,0,1,0,2.4,13.4,13.4,0,0,0,0,2c.1,1-.2,2.1-.1,3a3,3,0,0,1-.7,1.1,4.7,4.7,0,0,1-1.4-1.4v-.2c0-.4-.5-.2-.7-.5l-1.9-3.6-1.4-2.5a6.6,6.6,0,0,0-1.4-1.5,4.6,4.6,0,0,0-2.6-.3h-.3a10.5,10.5,0,0,0-3.5-.2l-3.2.2a3.9,3.9,0,0,0-2.1.8c-.2,1.1-.7,2.3-.3,3.4l-.3.8.4.8a4.8,4.8,0,0,0-.2,2.9,15.3,15.3,0,0,1,0,3.7,16.1,16.1,0,0,0,0,2.2,20.8,20.8,0,0,1,0,2.5,17.6,17.6,0,0,0,0,2.3c.1.8,0,1.7.1,2.5a23.5,23.5,0,0,1-.1,2.6,22.6,22.6,0,0,0,.1,2.6c0,.2.1.3,0,.4a13.4,13.4,0,0,0-.1,2.8l.6.8a11.5,11.5,0,0,0,2.6.3h2.5c.9-.1,1.7.3,2.5.1s1,.6,1.4.8l.6,1.2h0Zm8.5-39.2c.1-.1.1-.1,0-.1Zm-.9-31.9h0q-.2-.3-.3,0h-.3c-.5-.3-.5-.3-1,0h1.6Zm-18.5,4.4c.1-.1.2-.1.1-.3a.4.4,0,0,0-.1.3h0Zm0,34c-.1.1-.2.1-.2.3s.2-.2.2-.3.3-.2.1-.4Zm-10.6-38.4c-.1-.2-.2-.3-.4-.1s-.1.2.1.2h.3c.2.2.4.3.6.2S134,169.9,133.8,169.9Zm21.7,36.3h.1a.4.4,0,0,0,.5.2C156,206.1,155.7,206.3,155.5,206.2Zm-9.9.3c-.5.1-.9.2-1.1.6s.7.1,1.1-.6.6.1.9-.2A.6.6,0,0,0,145.6,206.5Zm-.9-35.1a11.4,11.4,0,0,1,1.1-1.1l.9-.2,1-.2c.1-.1.4,0,.3-.3-1.8-.2-2.5.1-3.4,1.4v.4c-.2.1-.5.1-.3.5S144.6,171.6,144.7,171.4Zm8.5,34.8h.1a.1.1,0,0,0-.1-.1c-.2-.3-.6-.3-.9-.3h-4.4v.2A44.7,44.7,0,0,0,153.2,206.2Zm-.3,38.1a5.6,5.6,0,0,0-3.4-.1c-1.3-.3-2-.2-2.5.2a.6.6,0,0,0,.7.1h.8a16,16,0,0,0,3.8.1c.2.1.4,0,.6-.2a2.1,2.1,0,0,0,1.7-.2c.1-.3.4-.6.6-1s.3-.3-.1-.4l-.9,1.2h-.6A.9.9,0,0,0,152.9,244.3Zm-11.1,0a2.7,2.7,0,0,0-1.5-.3h-9.2a1.2,1.2,0,0,0,1,.4h1.6l6.5.2a3,3,0,0,0,1.6-.2c.2-.1.4.1.6-.2A.4.4,0,0,0,141.8,244.3Zm14.5-74.7c0,.2.2.2.3.3a17.2,17.2,0,0,1,3.2.2h.6c.1-.1.3-.2,0-.6a4.4,4.4,0,0,1-2,.2C157.7,169.6,157,169.2,156.3,169.6Zm-27.8-.1.2.2a8.6,8.6,0,0,0,2.8.2h0c-.2-.3-.6-.2-.9-.2h-1.2C129.1,169.6,128.8,169.3,128.5,169.5Zm14.6,74.6c1.1.5,1.1.5,2,.2S144,244,143.1,244.1Zm5.7-74.3h2A2.8,2.8,0,0,0,148.8,169.8Zm-18.4,74.3-1.6-.2-.2.2A1.5,1.5,0,0,0,130.4,244.1Zm22.9-74.3a2.3,2.3,0,0,0-1.4-.2c-.1,0-.3.1-.2.4S152.7,170,153.3,169.8Zm2.5.1a1.3,1.3,0,0,0-1.2-.2A1.6,1.6,0,0,0,155.8,169.9Zm-11.6,49.2a1.9,1.9,0,0,0,0,1.3A1.5,1.5,0,0,0,144.2,219.1Zm29.1-43.6c-.2.3-.1.6,0,1A.9.9,0,0,0,173.3,175.5Zm-27.5,68.6c0,.3.1.4.4.4h0C146.2,244.2,146.1,244.1,145.8,244.1Zm8.9-38a.4.4,0,0,0-.6,0C154.3,206.3,154.5,206.2,154.7,206.1Zm-10.5-26.5c0,.1-.2.2.1.3S144.4,179.7,144.2,179.6Zm0-1.5c0,.1-.1.3.1.4S144.4,178.2,144.2,178.1Zm-11.9-8.3c.1,0,.3.2.4-.1S132.4,169.6,132.3,169.8Zm11.9,65.1h0Zm.1-5.7Zm0-3.6v.2h.1Zm-.1-2.4v.2h0Zm19.4-7.6c-.1,0-.1.1,0,.1h0Zm-19.3-2.3h0c-.1,0-.1.1-.1.2Zm19.7-8.6h0Zm-19.6-19.2h0Zm28.6-3.4c.1,0,.1-.1,0-.2h0Zm.3-2.1h0Zm.1-8.3h-.1c-.1,0-.1,0,0,.1Zm0-5.3h0Z" fill="#7f7f7f"/><path d="M222.5,241.9a.9.9,0,0,0-.3.6h0a1,1,0,0,1,.8.3c.3.8-.3,1.5-.7,2.3l-1.4.6a5.9,5.9,0,0,0-2.3,0c-1.3,0-2.6.1-3.8,0h-8.6a7.6,7.6,0,0,1-2.6-.6c-.1-1-1.1-1.5-1.5-2.4s-.3-1-.1-1.7l.7-1a4.5,4.5,0,0,1,2.5-.7,5.4,5.4,0,0,0,2.7-.9,24.7,24.7,0,0,0,.3-3.9,14,14,0,0,1,0-2.9c.1-1.1-.1-2.1-.1-3.2s.1-2.3.1-3.4a10.3,10.3,0,0,1-.1-1.7,14,14,0,0,0,0-2.9,11.1,11.1,0,0,1,.2-1.9,20.9,20.9,0,0,0,0-2.5,28.1,28.1,0,0,1-.1-2.9c.1-1.3.1-2.5.1-3.8s.1-.3.1-.4-.1-2.5-.4-3.7-1.5-1.2-1.9-2.1l-1.4-.3-1.7.7c-.7,1.1-1.5,2.2-3.2,1.7s-3.1-2.1-4.6-3.2l-.9-.5a2.3,2.3,0,0,0-1.4.4l-4.7,4h-.1l-.3.5c-1.1,1.8-1.1,1.8-.9,4.1,0,.2.1.4,0,.6a11.4,11.4,0,0,0,0,3.2v1.3a12.2,12.2,0,0,0,0,2.7,8,8,0,0,1-.2,3.1,5.8,5.8,0,0,1,.2,1.9c-.1.9,0,1.9-.1,2.9s.5,2.8,0,4.2,0,.6,0,.9a6.5,6.5,0,0,1,0,2.4c-.1,1.1,0,2.2-.1,3.2s0,1.2.1,1.7a4.3,4.3,0,0,0,2.4.8h3.9c1,.4,1.3,1.4,1.8,2a4,4,0,0,1,.7,2.4,3.6,3.6,0,0,0-.4,1.1,3.4,3.4,0,0,1-2.2.7h-2.5l-1,.2a3.2,3.2,0,0,0-1.7-.1h-.9a15.3,15.3,0,0,0-3.7.1c-.5.1-1-.2-1.6-.2a4.8,4.8,0,0,1-2.9,0,2.9,2.9,0,0,0-1.3.1,8.2,8.2,0,0,1-2.7-.1,2.5,2.5,0,0,1-1.4-.8.8.8,0,0,1-.2-.8l-1-1a1.8,1.8,0,0,0-.3-1.2,3.7,3.7,0,0,1,.9-2,3.1,3.1,0,0,1,2.3-.4c.5.2.9-.1,1.4-.1l1.2-.8.2-.4a16.3,16.3,0,0,0,.2-4.4,12.2,12.2,0,0,1,0-2.7,8.1,8.1,0,0,0,.1-2.2c-.1-1.9,0-3.8,0-5.7s-.1-2.8-.1-4.2a11,11,0,0,1,.2-1.8,12.1,12.1,0,0,1,.1-1.9,9.7,9.7,0,0,0-.1-1.7c0-2.8,0-5.5-.2-8.3a15.9,15.9,0,0,0-1.3-1.3c-.5-.3-.6-1-1.3-1.1l-.4-.8-.8-.2c-.3-.7-1.1-.9-1.5-1.7a14,14,0,0,1-.9-1.7,1.5,1.5,0,0,1,.3-1.3,3,3,0,0,1,1.1-.7,61,61,0,0,0,5.7-2.9,47.9,47.9,0,0,1,5.6-2.6c.3,0,.5.3.8.4a13.7,13.7,0,0,1,1.6,3.2,16.1,16.1,0,0,0,.1,4.4c.3.4.7.3,1.1.3a12.6,12.6,0,0,0,2-2c.7-.9,1.5-1.6,2.2-2.4a7.5,7.5,0,0,0,1.5-1.6l2.4-1.3a4.7,4.7,0,0,1,5.2.3,4.4,4.4,0,0,1,1.3,1.4c.2.7.9,1,1.3,1.6h1.6l3.3-1.7a4.4,4.4,0,0,1,1.7-.7,2.1,2.1,0,0,0,1-.6,7.9,7.9,0,0,1,3-1.2,3.5,3.5,0,0,1,1.3.8l.3,1.2.7.3a20.9,20.9,0,0,1,0,2.5c0,1.4.1,2.7.1,4.1v2.6a50.4,50.4,0,0,0,0,5.5v.4a17.7,17.7,0,0,0,0,4.6v.5c-.2,1,0,1.9-.2,2.8a21.7,21.7,0,0,0,.1,2.6v3.8a25.4,25.4,0,0,0,.1,3.9v.4a26.4,26.4,0,0,0-.2,2.8,13.1,13.1,0,0,1,0,2.8,17.6,17.6,0,0,0,0,2.3c.1,1.3.1,2.6.2,3.9s2.3.5,3.4.8l1.2.7c0,.7.7,1.1.9,1.7Zm-6.5-8.2h0Zm0-1.5h0Zm0-4.5h0Zm0-14.1h0Zm-26.1-11.2.3-.3.3-.3.3-.3a1.5,1.5,0,0,0,1.1-.4,2.2,2.2,0,0,1,2.2-.6c-1-.8-1.6-.2-2.2-.1l-1.1,1.1-.3.3-.3.3-.3.3-.3.2c-1,.4-1.4,1.5-2.5,1.8s-1.3,1.6-1,3l1.3-2.5a6.6,6.6,0,0,0,2.2-2.2Zm10.6,1.4c-.3.1-.6,0-1,.2a.7.7,0,0,0,1-.2.7.7,0,0,0,.6-.2,2.2,2.2,0,0,0,1.5-1.8c-.8.4-1.1,1.2-1.5,1.7S200.6,203.6,200.5,203.8Zm3.5-2.3h0a.9.9,0,0,0,1,0Zm15.6,42.8-.3-.2a6.1,6.1,0,0,1-1.4.1c-.2-.1-.5,0-.7.4a6.6,6.6,0,0,0,2.4-.3.7.7,0,0,0,.7.2,3.4,3.4,0,0,0,1.4-.5c.1-.2.3-.4.1-.6A4.7,4.7,0,0,1,219.6,244.3Zm-45,0h0l.4.2a20.6,20.6,0,0,0,4.3-.1,10.1,10.1,0,0,0-2.5-.4Zm13.5,0a.9.9,0,0,0-.5-.3l-1.1.2h-1.1a.5.5,0,0,0,.5.4,5.5,5.5,0,0,0,2.2-.2l.5.2h3.9a4.8,4.8,0,0,0,1.7-.5c.1-.1.3-.2.2-.4h-.3a3.9,3.9,0,0,1-2.4.5A14.6,14.6,0,0,0,188.1,244.3Zm-7.9.1h.2c1.2.1,2.3,0,3.5.2s.7,0,.8-.4a.3.3,0,0,0-.1-.2,26.7,26.7,0,0,1-4,0C180.4,244,180.2,244.1,180.2,244.4Zm32.5.2h3.4c.1-.1.3-.1.1-.3S213.8,244,212.7,244.6Zm-6-.3v.2h1c.3-.1.6.1.9-.3S207.2,243.9,206.7,244.3Zm-2.8-.2c.3.4.3.4.5.1S204.2,244,203.9,244.1Zm5.4.3c.4.3.4.3.6,0S209.5,244.3,209.3,244.4Zm2.1-.2c.1.4.3.4.6.2S211.7,244.2,211.4,244.2Zm-6.1.2a.4.4,0,0,0,.6,0C205.7,244.1,205.5,244,205.3,244.4Zm-19.4-33.8c.2,0,.1-.1.1-.2h-.1A.2.2,0,0,0,185.9,210.6Zm0,15c0,.2-.1.3.1.4S186.1,225.8,185.9,225.6Zm.1,9.5c-.2,0-.2.2-.2.3h.1A.2.2,0,0,0,186,235.1Zm8.6,7.7a.1.1,0,0,0,.1-.1h-.2a.1.1,0,0,0-.1.1Zm16.2,1.6h0ZM186,233.9h0Zm0-14h0a.1.1,0,0,0-.1-.1h.1Zm29.9-4.5h0Zm.2-10.7h0Zm0-2c.1,0,.2,0,.1-.1h-.1Zm.1-2.5v.2h0Z" fill="#7f7f7f"/><path d="M258.3,244.3c-.5-.3-.7-.8-1.1-1.2s0-1.4-.2-2a2.6,2.6,0,0,1,2.3-1.6l2.6-.3c.3-.4,1-.5,1.2-1.1s.2-2.8.2-4.2a36.9,36.9,0,0,1,0-4.7c.1-.5-.2-.9-.2-1.4a20.1,20.1,0,0,1,.1-2.5c.1-.5-.1-1,0-1.5s-.1-2.6,0-3.9a26.4,26.4,0,0,0,.1-4h.1v-.3h0c-.2-1.8.1-3.6,0-5.3s0-3.4-.1-5.2l-1-1.2a12.7,12.7,0,0,1-5.3-5.9c-.1-.5.3-.8.7-1.2a21.5,21.5,0,0,1,2.6-1.4,25.3,25.3,0,0,0,2.3-1.2c.6-.5,1.3-.6,1.9-1.1l1.2-.8c1.4-.4,2.7-1.2,4-1.5a1.3,1.3,0,0,1,1,.3c.4.2.3.6.5,1.1l.6.4a9.9,9.9,0,0,1,.2,4.5c.4.5.2,1.1.3,1.7a1.2,1.2,0,0,0,.8.2,6.1,6.1,0,0,0,2.1-1.8,5.7,5.7,0,0,1,1.5-1.6c.6-.6,1.3-1.1,1.9-1.8a10.7,10.7,0,0,1,2.5-1.6l2.4-.8,1.3-.3a6.5,6.5,0,0,1,2.4.1,4,4,0,0,0,1.9.2,13.5,13.5,0,0,0,2.6,1.5c.7.6,1.1,1.6,1.8,2.1s.6,1.8,1.5,2.2a4.8,4.8,0,0,0,.7,2.1c.3.2.1.6.3.9s.2,1.5.6,2.1.2,1.4.4,2.2.1,2.6.4,3.9a.3.3,0,0,1,0,.4c-.3,1.2.1,2.4-.1,3.6a19.3,19.3,0,0,1,.1,2.4,8.2,8.2,0,0,1-.1,2.7,15.5,15.5,0,0,1-.1,2.2,7.6,7.6,0,0,1,.1,3,5.3,5.3,0,0,0,.1,1.3,8.2,8.2,0,0,1-.1,2.7,5.3,5.3,0,0,0-.1,1.3,35.4,35.4,0,0,0,.2,4.6,2.4,2.4,0,0,1,0,1.2c-.4,1.4,0,2.8-.2,4.2a3.2,3.2,0,0,0,1,1.3c1.4.2,2.9-.3,4.1,1.1a3.4,3.4,0,0,0,.9,1.5l.4,1.5a9.8,9.8,0,0,1-.8,1.8l-1,.3c-1.5-.1-3,.3-4.5,0a.7.7,0,0,0-.6.1,6.1,6.1,0,0,1-1.9,0,24.9,24.9,0,0,0-6.1,0h-3.5l-1-.7a12.1,12.1,0,0,0-1.5-2.2,1.9,1.9,0,0,1,0-1.3c.1-.4.2-.7.3-1.2a8.5,8.5,0,0,1,3.2-.9,4.1,4.1,0,0,0,1.8-.5,5.3,5.3,0,0,0,.8-2.5,6.7,6.7,0,0,1-.1-2,1.7,1.7,0,0,0,.1-1c-.3-1.4.1-2.8,0-4.1s0-2.5,0-3.8a9.1,9.1,0,0,0-.1-1.7,20.2,20.2,0,0,1,.1-3.5,2.2,2.2,0,0,0,0-.8,3.4,3.4,0,0,1,.1-1.4,2.7,2.7,0,0,0,0-.9,7.6,7.6,0,0,1-.2-2.6c.1-.8-.1-1.7,0-2.5a33.9,33.9,0,0,0-.2-4.5,9.8,9.8,0,0,0-.5-1.6,3.9,3.9,0,0,1-.6-2.1,9.4,9.4,0,0,0-4.8-2.9,9.5,9.5,0,0,0-5.5,1.3,11.2,11.2,0,0,0-4.7,4.9c-.1.4-.1,1.1-.3,1.8s.1.8.1,1.2a38.4,38.4,0,0,0,0,4.8,20.9,20.9,0,0,1-.1,2.5,1.3,1.3,0,0,0-.1.6c.3,1.7-.1,3.4.2,5.1a2.2,2.2,0,0,1-.1.8,4.1,4.1,0,0,0,0,2.2,21.8,21.8,0,0,1-.1,2.4,2.3,2.3,0,0,1,.2,1.5c-.2,1.5,0,3.1-.2,4.6a18.2,18.2,0,0,1-.1,3.3,3.4,3.4,0,0,0,.6,1.2c1.5.5,3.2,0,4.4,1.2a8.6,8.6,0,0,0,1,1.6,3.2,3.2,0,0,1,.3,2.2c-.4.5-.7,1.2-1.4,1.4a13,13,0,0,1-4.4.1c-2.2.2-4.5-.1-6.8,0h-2.4a26.1,26.1,0,0,1-2.8,0l-1.6-.2-.5-.6v-.4c.2-.1.5.1.6-.2S258.5,244.1,258.3,244.3Zm19.1-1.8v.3h-.2a15.9,15.9,0,0,1-1.3,1.3.4.4,0,0,0-.1.3.9.9,0,0,0,1.1-.4l.5-1.2h.1v-.2h0Zm19.1-8.8h0Zm5.6,10c.1-.1.3-.2,0-.4v.4c-.1,0-.1.1,0,.1A.1.1,0,0,1,302.1,243.7Zm-15.9.6q-.1-.3-.3,0c-.4,0-.8-.4-1.2-.2s.4.6,1.2.2h.3a.6.6,0,0,0,.9.1.3.3,0,0,0-.3-.3Zm13.5,0c.9.4,1.1.4,1.5-.2s-1-.2-1.5.2l-.4-.2a10.7,10.7,0,0,1-3.1,0l-.2.4h3Zm-35.8,0c.6.3.6.3,1,0a.8.8,0,0,0-1,0c-.1-.1-.3-.3-.4-.2a10.9,10.9,0,0,1-1.8-.1,2.9,2.9,0,0,0-1.6.3c-.2-.2-.3-.3-.5-.1s0,.1.1.2h.4c.1.1.3.3.4.2h2.2A1.7,1.7,0,0,0,263.9,244.3Zm7.6-38.4a6.3,6.3,0,0,0,1.3-2l1-.8a9.9,9.9,0,0,1,4-2.6l.4-.3c.2-.1.4-.1.3-.4a8,8,0,0,0-3.6,1.7,10.4,10.4,0,0,0-3.5,4v.4h0Zm-5.2,38.3c.5.5.8.3,1.1.4h5.7a5.9,5.9,0,0,0,1.9-.1c.1,0,.2-.2,0-.4s-2.8,0-4.2.1S267.9,244,266.3,244.2Zm25.7.3c-.3-.6-.6-.5-.8-.5a10.1,10.1,0,0,0-2.5.2c0,.1,0,.2.1.2S290.8,244.3,292,244.5Zm.6-.1c1.7.3,1.7.3,2.6,0l-2.5-.3A.4.4,0,0,1,292.6,244.4Zm-13.3-44.6c.6,0,.6,0,.9-.2S279.6,199.5,279.3,199.8Zm3.7.1c-.9-.5-.9-.5-1.3-.2S282.4,199.9,283,199.9Zm-11.9,34.9c.1-.3.2-.5,0-.8A.6.6,0,0,0,271.1,234.8Zm-5.4,9.6c.1,0,.1-.1.1-.2h-.1l-.2.2Zm30.5-28c0,.3-.1.5.2.8S296.6,216.7,296.2,216.4Zm.1,1.6h-.1v.2C296.4,218.2,296.5,218.1,296.3,218Zm0,4.2c.1-.1.2-.3,0-.4S296.2,222.1,296.3,222.2ZM271,226.7c-.1,0-.2,0-.1.1h.2Zm12.7-26.5h-.2c-.1,0-.1.1,0,.2h.1C283.7,200.3,283.7,200.3,283.7,200.2Zm12.6,34.7h0Zm0-4.7h.1c-.1-.1-.1-.1-.1.1Zm0-1h0Zm0-1.4h0Zm0-1h0Zm-25.2-3.9v.2h0Zm0-6.3h0Zm.3-9.8h0Zm9.7-7v-.2c-.1,0-.1.1-.1.2Zm-10-4.2h0Z" fill="#7f7f7f"/><path d="M319.7,295.1a11.8,11.8,0,0,1,2.5-2.5,13.3,13.3,0,0,1,6-3.1,9.9,9.9,0,0,1,6.1.8l.8.6a1.9,1.9,0,0,0,1.1.7,27.4,27.4,0,0,1,2.9,4.6,15.6,15.6,0,0,1,1.9,6.1,8.6,8.6,0,0,0,.3,1.7c0,.4.1.8.1,1.2s.2,3.5-.1,5.3a7.6,7.6,0,0,0,.1,1.5c0,.4.1.9.1,1.4a7.7,7.7,0,0,1-.2,1.5c0,.4.1.8.1,1.3,0,2.2.1,4.4-.1,6.6s.1,2.1.1,3.1c-.1,2.6,0,5.3,0,7.9a27.1,27.1,0,0,0,.1,2.9,1.3,1.3,0,0,0,.6.7l1.6.4h1l1.1.3,1.7,3.1c0,.2-.1.4-.1.7a2,2,0,0,1-1.8,1.9l-2.2.2h-.2c-1.6.1-3.3-.2-5,.2s-1.1-.4-1.7-.1-3.8.1-5.7,0a7,7,0,0,1-2.7-.8l-.3-1.2-.5-.3a3.5,3.5,0,0,1-.6-2.2l.8-1.3a8.8,8.8,0,0,1,3.2-.7l.6.3c.5-.2.8-.7,1.2-1.1a11.9,11.9,0,0,0,.3-4.2c0-1.2.1-2.3.1-3.4v-1.5a20.1,20.1,0,0,1-.1-2.5,16.1,16.1,0,0,0,0-3.8,14.8,14.8,0,0,1,.1-2.1c0-1.7-.1-3.5-.1-5.3v-4.1a24.6,24.6,0,0,0-.2-2.6,14.1,14.1,0,0,0-.1-2,7.8,7.8,0,0,1-.7-2.3c-.6-.6-.8-1.6-1.6-2.2a14,14,0,0,0-4-1.6c-1.3-.1-2.6.5-4,.6s-1.6,1.1-2.4,1.7a8.8,8.8,0,0,0-3.6,5,20,20,0,0,0,0,3.5c-.1,1.9,0,3.8,0,5.7v5.8c0,3.6-.1,7.2-.1,10.7.1,1.3-.1,2.6,0,3.9s0,.7.2,1a1.6,1.6,0,0,0,1.3.6,13.8,13.8,0,0,1,2.6.4l1,.9c.2.1.2.5.4,1l.6.5a14.1,14.1,0,0,1,.1,2l-.6.7-.6.5a18.2,18.2,0,0,1-4,.2c-1.6.1-3.2,0-4.8.2a10.5,10.5,0,0,1-2.5-.1,8.3,8.3,0,0,0-2.2.1h-.8c-1.1-.1-2.3-.1-3.4-.3l-.8-.3c-.4-1.1-1.3-2-1.6-3.3a9.5,9.5,0,0,1,.9-1.7c1.2-.7,2.5-.6,3.9-.8l1-.7a3.2,3.2,0,0,0,.8-2.3c-.2-1.4-.1-2.8-.2-4.2s-.2-5.4,0-8.1c.1-1-.1-2.1-.1-3.2a27.1,27.1,0,0,1,.1-2.9,26.1,26.1,0,0,1,0-2.8c-.3-1.1.3-2.3,0-3.4s0-.4,0-.6,0-2.5.2-3.7a6.1,6.1,0,0,0-.3-2.3,26.6,26.6,0,0,0-3.5-3.2,1.6,1.6,0,0,1-.7-.7,4.1,4.1,0,0,0-1.2-1.1v-.7c-.1-.4-.7-.5-.8-1a1.2,1.2,0,0,1,.7-1.5,3.9,3.9,0,0,0,1.1-.6l1.2-.8a3.4,3.4,0,0,0,1.5-.7l.4-.2c1.6-.6,3-1.6,4.6-2.2l.6-.4a4.2,4.2,0,0,1,3.9-.8c.3.4,0,1.1.6,1.5h-.1l.3.3h0c.4.5.3,1.2.5,1.7a17.7,17.7,0,0,0-.1,4,.7.7,0,0,0,.5.4l1.6-.6,1.4-1.7h0Zm-4.1,9.1c.2-.1.2-.3.2-.6s1.2-1.7,2.1-2.3.2-.2.2-.4.1-.1.1-.2a3.4,3.4,0,0,0,2-1.5,13.4,13.4,0,0,1,6-1.2,1.4,1.4,0,0,0-.9-.5h-.7c-1.1-.1-2.2.5-3.3.5s-.9.6-1.1,1.1a2.7,2.7,0,0,0-1.6.8c-.2.2-.4.3-.4.7l-1.2.8c-.4.7-1.1,1.2-1.2,2.1s-.2.4-.2.6-.2.1-.1.1A.1.1,0,0,1,315.6,304.2Zm-4.2,38.4-.7-.2-.2.3a.6.6,0,0,0,.9-.1h.3a.6.6,0,0,0,.7.2h3.1a1,1,0,0,0,1-.4h-4.1l-.7.3Q311.6,342.3,311.4,342.6Zm17.9,0h.1a1.8,1.8,0,0,0,2,0h.3a.5.5,0,0,0,.4.2h2.7c.1,0,.3-.1.2-.4a9.2,9.2,0,0,0-3.3.2q-.1-.3-.3,0C330.7,342.5,330,342.2,329.3,342.6Zm-23.1,0h0l.3.2h2c.2,0,.4-.1.3-.4A4.6,4.6,0,0,0,306.2,342.6Zm32,0h0l.2.2a13.3,13.3,0,0,1,2,0h.7l.7-.2c.2,0,.5.2.6-.1l-.3-.2a8.8,8.8,0,0,1-2.8,0A2,2,0,0,0,338.2,342.6Zm-21-.1h2a3.7,3.7,0,0,0,2-.7.2.2,0,0,0-.1-.4l-1.1.6-1.4.2C318.2,342.3,317.7,341.9,317.2,342.5Zm26.8,0c.5.4.5.4,2-.2s.7-.7.6-1.3A4.2,4.2,0,0,1,344,342.5Zm-39.1-.2h-1.8C304.4,342.7,304.4,342.7,304.9,342.3Zm31.7.2c-.7-.2-.7-.2-.8.2S336.3,342.9,336.6,342.5Zm-27-.1v.2h.2c.1,0,.1-.1.1-.2Zm31-21.9c.2-.2.2-.3,0-.4S340.5,320.4,340.6,320.5Zm-.2-7.1h.2a.1.1,0,0,0,.1-.1h-.3Zm.2-4.4h-.2c0,.1,0,.2.2.2h.1A.4.4,0,0,0,340.6,309Zm2.6,33.6s.1-.1,0-.1-.1-.1-.2,0h.2Zm-27.7-48.1a.1.1,0,0,1-.1-.1c-.1,0-.1,0,0,.1Zm0-2.2h.1c0-.1,0-.1-.1-.1Zm-.1,12.8h0Zm25.3,1.8h0Zm0,28.1h-.1A.1.1,0,0,0,340.7,335Zm-3.3,7.7h-.1A.1.1,0,0,1,337.4,342.7Z" fill="#7f7f7f"/><path d="M249.2,193.8a12.5,12.5,0,0,1,3.6,4c.6.9,1.1,1.8,1.7,2.6a7.6,7.6,0,0,1,1.1,3.3,2.2,2.2,0,0,1,.6,1.3c0,.7.6,1.2.5,1.9a5.9,5.9,0,0,0,.5,1.9,4.7,4.7,0,0,1,.2,1.7,19.2,19.2,0,0,0,0,2.4,2.7,2.7,0,0,1-.8,1,8.2,8.2,0,0,1-4.1.5,12.8,12.8,0,0,0-1.9.1H237.4a36.5,36.5,0,0,0-4.7.1h-1.5l-.5.4a2.3,2.3,0,0,0-.9,1.8,17.9,17.9,0,0,0,.8,6.9l.8,2.6v.7a23.4,23.4,0,0,1,1.5,2.7c.8,1.2,1.8,2.1,2.6,3.3l.8.4a14.1,14.1,0,0,0,3.8,2.1,2.3,2.3,0,0,0,1.1.3,22.2,22.2,0,0,0,3.7.3h1l3-1.1a11.4,11.4,0,0,0,3.4-1.9c.3-.2.3-.7.8-.8s.5-.5.7-.9.7.5,1.1.3,0,1,.3,1.3.5.1.7.6h0a8,8,0,0,1-.8,3.7,22.9,22.9,0,0,1-2.9,4.7c-.4.5-1,.8-1.4,1.3a7.4,7.4,0,0,1-3.3,2.2,3.7,3.7,0,0,0-1.2.7,17.5,17.5,0,0,1-8.8.1,6.7,6.7,0,0,1-2.1-1,31.9,31.9,0,0,1-4.4-3.1l-.5-1-.7-.4-2.1-3a26.4,26.4,0,0,1-2-3.7,4.1,4.1,0,0,0-.5-.9,4.2,4.2,0,0,1-.6-2.1l-.5-.8a30.1,30.1,0,0,1-.8-3.9c-.2-1.9-.8-3.7-.6-5.5a.9.9,0,0,0-.1-.5,14.3,14.3,0,0,1,.3-5,3.1,3.1,0,0,1,.1-2.1c.5-1.3.5-2.7.9-4l1.2-4.2a1.9,1.9,0,0,1,.4-.9l.2-.3c.4-.3.2-.9.6-1.3a8.3,8.3,0,0,0,.8-1.2,13.9,13.9,0,0,1,3.3-4.6l.4-.6a18.1,18.1,0,0,1,3.3-2.9,3.5,3.5,0,0,1,1.4-.6,5.5,5.5,0,0,0,1.4-.9h.8a9.6,9.6,0,0,1,3.3-.6h1.7a10.9,10.9,0,0,1,5.5,2.1c.3.2.8.3,1,.6h0Zm-15.6,49.6h0Zm10-45.5h0Zm10.6,38.4c.1-.1.3-.1.1-.4v.4l-.3.3c-.1.1-.3.2-.1.4v-.4Zm-5.3,6.8-.5.2a9.4,9.4,0,0,0-3,1.5l-1.2.3h-1.3l-1.1.2c-.4,0-.9-.3-1.3,0s.4.3.7.4h.7c.5,0,.9-.4,1.4-.4a4.7,4.7,0,0,0,1.6-.2,7.8,7.8,0,0,0,3.2-1.5c.1-.1.1-.3.2-.4a.6.6,0,0,0,.6-.3l.3-.3a1.5,1.5,0,0,0,.9-.4l.9-.9a4,4,0,0,0,1.4-2.2l.5-.2.8-1.3c0-.1-.1-.1-.2-.4a7.2,7.2,0,0,0-1.1,1.9,1,1,0,0,0-.5.4,11.6,11.6,0,0,1-1.8,2,2.4,2.4,0,0,0-.9,1.1Zm-19.7-28.6a10.8,10.8,0,0,1,2.6-1.4,3.9,3.9,0,0,0-1.6.1c-.4.4-1,.6-1,1.3s-.2.4,0,1Zm4.2-13.9a1,1,0,0,0-.8.4c-.4,1-1.5,1.9-1.7,3.1v.3a.5.5,0,0,0-.2.4.4.4,0,0,0,.2-.4c.6-.2.5-.8.7-1.3l1.3-1.7a1.3,1.3,0,0,0,.3-.8l1.1-.7a.9.9,0,0,0,.4-.8h.5a2.8,2.8,0,0,1,1.4-1l1.8-.6c.5-.2,1.2-.1,1.6-.5h-1.2c-1.6.2-3.1.5-4.1,2A1.5,1.5,0,0,0,233.4,200.6Zm22.3,12.1a.7.7,0,0,0-.6-.1,4.3,4.3,0,0,1-2.2.4H241.8c-.3,0-.6-.1-.8.2l1.3.3a6.6,6.6,0,0,1,1.4-.1,2,2,0,0,0,1.3-.1h.8a5.5,5.5,0,0,0,1.8.1h1.9c1.4-.1,2.9,0,4.3,0a2.6,2.6,0,0,0,1.5-.2l.4-.4a.8.8,0,0,0,.7-.4V212A1,1,0,0,0,255.7,212.7Zm-20.9-11.8a19.7,19.7,0,0,0-3.2,4.9c.3.8-.6,1.4-.5,2.2a1.8,1.8,0,0,0,1.6.2,27.1,27.1,0,0,1,2.9.1h1.3c1.6.1,3.1-.3,4.7.1s.8-.1,1.3-.1h.5c1.3.3,2.5-.2,3.7-.1s.8-.4.9-.9a4.9,4.9,0,0,0,.2-2.4,10.9,10.9,0,0,0-.7-2.4c-.4-.7-1-1.2-1.1-1.9l-1.1-.8a5.9,5.9,0,0,0-3.4-1.3,11.3,11.3,0,0,0-3.2.2,4.5,4.5,0,0,0-2.6,1.4A4.6,4.6,0,0,1,234.8,200.9Zm-2.5,12.3a13.5,13.5,0,0,0,4.3-.1h-3.9Zm5.2,0c1.8.2,2,.2,2.7-.1a7.4,7.4,0,0,0-2.1-.1C237.9,213,237.7,212.9,237.5,213.2Zm2.5,32.4a1.3,1.3,0,0,0-1.4-.3C239,245.4,239.4,245.8,240,245.6Zm1.8-48.4q-.3-.3-.9,0T241.8,197.2Zm-4.2,47.9h-.3c0,.1.1.1.1.2A.2.2,0,0,0,237.6,245.1Zm17-9.9h0Zm-11.8-37.7h0Z" fill="#7f7f7f"/><path d="M299.7,331.6c.2.1.4.1.5.4s.1.3,0,.5a20.2,20.2,0,0,1-2.7,6.2,14.9,14.9,0,0,1-5,4.7,11.7,11.7,0,0,1-2.6,1,5.8,5.8,0,0,0-1.4.3,8.3,8.3,0,0,1-5.4,0,8.5,8.5,0,0,0-1.7-.4H281a16.5,16.5,0,0,1-4.4-2.6c-.4-.3-.9-.5-1.1-.9s-.7-.7-1-1.2a8.7,8.7,0,0,0-.9-1.1,14.5,14.5,0,0,1-2.4-3.5,24.8,24.8,0,0,1-1.7-3.2.5.5,0,0,0-.2-.4c-.4-.7-.3-1.6-.6-2.3a4.4,4.4,0,0,1-.7-2.2c0-.4-.3-.7-.4-1.1s-.5-2.4-.6-3.6a18.6,18.6,0,0,0-.4-3.3,7.6,7.6,0,0,1,.1-3,1.9,1.9,0,0,0,.1-.8,11.2,11.2,0,0,1,.4-3.2,6.9,6.9,0,0,0,.3-2c-.1-.4.4-.7.3-1.1s.5-2.6,1-3.9a38.3,38.3,0,0,1,3-6.5,24.3,24.3,0,0,1,4.2-4.9,13,13,0,0,1,3.9-2.7l2.6-1a2.3,2.3,0,0,1,1.1-.3,11.3,11.3,0,0,0,3.2-.2,12.5,12.5,0,0,0,2.6.7,7.7,7.7,0,0,1,3.1,1.6l.8.6a7.4,7.4,0,0,1,1.9,1.6c.6.8,1.1,1.6,1.7,2.3a12.3,12.3,0,0,1,1.9,3.1c.6,1.2.8,2.4,1.4,3.5v.6a.4.4,0,0,0,.1.3,2.1,2.1,0,0,1,.7,1.4,4.1,4.1,0,0,0,.3,1.6,3.4,3.4,0,0,1,.2,1.4,5.1,5.1,0,0,0,.3,1.7c-.4.6-.1,1.4-.4,2.1s-.1.1-.2.2a2.6,2.6,0,0,1-1.7.7H297a3.1,3.1,0,0,0-1.9.1,2.4,2.4,0,0,1-1.2,0l-1-.2a19.3,19.3,0,0,1-3.4.1,5.5,5.5,0,0,1-1.8-.1,4.9,4.9,0,0,1-2.4.1,2.9,2.9,0,0,0-1.6.1,3.4,3.4,0,0,1-1,0,21.7,21.7,0,0,0-3.6-.1h-2a5.6,5.6,0,0,0-2.8,1,6.1,6.1,0,0,0-.3,2.3c0,.2-.1.5-.1.7s-.5-.1-.6.2.4,0,.6-.2a.8.8,0,0,1,.2.8,6.3,6.3,0,0,0,.3,2.7,3.3,3.3,0,0,1,0,1,3.7,3.7,0,0,1,.6,2.1c0,.2,0,.3.1.4,1,2.8,2.1,5.4,4.4,7.3a14.2,14.2,0,0,0,5,3,7,7,0,0,0,3.8.3h.1a7.1,7.1,0,0,0,2.6-.1,18.2,18.2,0,0,0,4.2-1.9,15,15,0,0,0,3.1-2.4,1.1,1.1,0,0,1,.9.4l.5,1.6c-.4,0-.6.2-.6.5a1.1,1.1,0,0,0-.3.9c-.1.1-.1.1,0,.1h0c.3-.2.3-.5.3-.9A.9.9,0,0,0,299.7,331.6Zm-15.3-36.3q.2.3.3,0c.5.2,1,.5,1.6.1l-1.1-.3c-.2,0-.3.1-.5.3h-.3c-.4-.3-.4-.3-.8,0s-.8-.1-1.2.4.9,0,1.2-.4Zm3.8,16h-.8a.8.8,0,0,0-1-.2c.1.3.2.3.4.4l.6-.2c.4.3.4.3.9,0h.2a.8.8,0,0,0,1,.1c0-.2-.2-.3-.4-.3l-.6.2Q288.3,311,288.2,311.3Zm-4.4,0c.6,0,1.2.5,1.9.1l-1.5-.4-.4.3c-.1,0-.1.1,0,.1Zm14.1,24.2h-.4c-.1.6-.7,1-.7,1.7a.8.8,0,0,0-.6.8,2.7,2.7,0,0,0-1.5,1.8l-.5.2-1.9,1.3a2.3,2.3,0,0,0-.8.9,2.5,2.5,0,0,0-1.2.1,4.9,4.9,0,0,1-1.6.5,10.6,10.6,0,0,0-2.5.9c-.3-.2-.7-.3-.9.1s.7.2.9-.1a7.8,7.8,0,0,0,5.3-1.5,8.5,8.5,0,0,0,3.2-2.4,2.7,2.7,0,0,0,1.5-1.8.8.8,0,0,0,.6-.8,2.4,2.4,0,0,0,.9-1.1,1.4,1.4,0,0,1,.2-.7c.2-.2.4-.3,0-.5S297.9,335.3,297.9,335.5Zm1.2-24.2h.8c.6-.5.6-.5.5-1.1s-1,.5-1.3,1-.5-.4-.7,0S298.7,311.5,299.1,311.3Zm-24.7-7.1a5.6,5.6,0,0,0,1.2-3c.6,0,.6-.4.6-.8s.5-.2.6-.4a14.9,14.9,0,0,0,1.5-2,32.8,32.8,0,0,1,3.7-2.2h-.6c-.3.1-.6.1-.8.3a6.4,6.4,0,0,1-1.8,1,1.2,1.2,0,0,0-.5,1,1.6,1.6,0,0,0-1.1.5c-.3.6-.9,1.1-1,1.9a.8.8,0,0,0-.6.9,4.9,4.9,0,0,0-1.1,2.9h-.1Zm-1.1,9.1a6.6,6.6,0,0,1,1.4-1.5v-.2c1.4.1,2.8-.1,4.2-.1l.8-.2a2.5,2.5,0,0,0,1.9.1c-.6-.5-1.3-.2-1.9-.1s-.3-.2-.5-.2a6.7,6.7,0,0,1-2,0c-.8.2-1.7-.1-2.5.5s-1.3.3-1.4,1.5v.3a.4.4,0,0,0-.2.5C273.4,313.8,273.2,313.5,273.3,313.3Zm23.2-2c.7.3.7.3,1.2,0s-.8.1-1.2,0a4,4,0,0,0-1.8-.2.6.6,0,0,0-.6.4A4,4,0,0,0,296.5,311.3Zm-10.2-14.7a8.3,8.3,0,0,0-3.5.5c-1.3-.1-2,1.2-3.2,1.5a3.7,3.7,0,0,1-1.5,1.3c-1.2,1.9-2.5,3.7-2.9,6l.3.4.9.2h.7c1,.2,2.1-.2,3,.2s2.2,0,3.2,0h6.2a5,5,0,0,0,2.8-1,9.3,9.3,0,0,0-1.3-6.3c-.8-.9-2-1.3-2.7-2.1Zm4.2,14.8a7.5,7.5,0,0,0,2.1.2,1.1,1.1,0,0,0,.7-.2A3.1,3.1,0,0,0,290.5,311.4ZM280.6,343c.5.3.5.3.7.1S280.9,342.8,280.6,343Zm2.5-31.7c-.1-.2-.2-.1-.3-.1s-.4,0-.4.4S283,311.7,283.1,311.3Zm15.1,23.2.2-.2a.2.2,0,0,0,0-.3C298.2,334.1,298.2,334.1,298.2,334.5Zm2.5-25.9c-.1.1-.1.2.1.4S300.9,308.7,300.7,308.6Zm-13.2-12.8h0Zm-14.4,19h0Zm5.5,27.3h0Zm4.5,1.5c-.1-.1-.1-.1-.2,0h.2Zm.6.2c.1,0,.1,0,0-.1h0Z" fill="#7f7f7f"/><path d="M380.1,331.4a5.8,5.8,0,0,1-1,4.4c-.1.2-.3.4-.3.6a4.6,4.6,0,0,1-1,1.8,10.7,10.7,0,0,1-1.5,2.2,12.6,12.6,0,0,1-2.4,2.2h-.2a11.3,11.3,0,0,1-4.3,2c-.3,0-.5.2-.9.4s-1.6,0-2.5.1a9.7,9.7,0,0,1-2.9-.4l-2.1-.6a12.4,12.4,0,0,1-2-1,37.1,37.1,0,0,1-3.2-2.3l-.9-.8-1.5-2h.1v.2c-.1-.1-.3-.2-.3-.3s-1.7-3-2.7-4.5-.2-.8-.4-1.2a28.3,28.3,0,0,1-2.1-6c-.3-1.2-.4-2.5-.7-3.8a15.8,15.8,0,0,1-.4-3.8c-.1-1,0-2,0-3a7.7,7.7,0,0,0,.2-1.5,3.4,3.4,0,0,1,.4-2,2.6,2.6,0,0,1,.3-2.1c0-.1.1-.3.1-.4a4.7,4.7,0,0,1,.4-2.3,31.7,31.7,0,0,1,1.4-4c.4-.9.7-1.9,1.2-2.8s1.2-2,1.8-3l2.5-3.4a40.8,40.8,0,0,0,3.3-2.5l.8-.5a16.7,16.7,0,0,1,7.2-1.9,6.6,6.6,0,0,0,3.2.7l.4.2c1.5.4,2.6,1.5,3.8,2.3a.8.8,0,0,1,.4.4c1.1,1.2,2.2,2.3,3.2,3.6s.6,1.2,1,1.8a5.4,5.4,0,0,1,.8,1.9c0,.3.4.6.6.9v.6l.5.6c.2,1,.5,2.1.8,3.2a18,18,0,0,1,.5,4.6v1a3.9,3.9,0,0,1-.4.9c-.5.6-1.1.6-1.7.8a11.4,11.4,0,0,0-3.2,0,32.3,32.3,0,0,0-4.4.1h-1.3c-.9-.1-1.7.1-2.6,0h-2.5a3.3,3.3,0,0,1-1.4,0h-2.7a3.8,3.8,0,0,1-2.1-.1h-.7a4.5,4.5,0,0,1-2.3,0,3.4,3.4,0,0,0-1.6,1,5.1,5.1,0,0,0-.6,3.8,24.4,24.4,0,0,0,.7,3.9l-.3.5v.3c.4.4.7.7.6,1.3a1.1,1.1,0,0,0,.2.8,13.1,13.1,0,0,0,1.2,2.7,5.9,5.9,0,0,1,.6,1.4c.8,1.2,2.1,1.9,3,3.2s1,.9,1.7,1.2a9.3,9.3,0,0,1,2,1l2.1.4a14,14,0,0,0,5,0,17.2,17.2,0,0,0,2.8-.8l.4-.2c1.2-1.2,2.9-1.7,4-3.2h1.2a3.3,3.3,0,0,1,0,1.4c.3.3.6,0,.8.1Zm-17.9,12.1c.1.1.2.3.4.1h-.4c-.1-.1-.1-.3-.3-.2S362.1,343.4,362.2,343.5Zm-7.3-40.2a19668661934115.2,19668661934115.2,0,0,1,.6-1.2l1-1.5c.1-.1.1-.4.2-.5l1-.8-.2-.4a.9.9,0,0,0,.6-.6.5.5,0,0,0,.6-.6c.2,0,.4-.1.4-.3s-.2-.3-.5-.1v.4a.5.5,0,0,0-.6.6c-.4,0-.5.2-.6.6a1.4,1.4,0,0,0-.8,1.2,2.5,2.5,0,0,0-1.2,1.1v.9a19668661934115.2,19668661934115.2,0,0,0-.6,1.2h0ZM379,333.1c-.4.3-.3.6-.3.9a2,2,0,0,0-.8.8,2.8,2.8,0,0,1-.7,1.6l-1.1,1.5a3.7,3.7,0,0,0-.7,1.4.8.8,0,0,0-.7.4,11.4,11.4,0,0,1-2.8,2.1,6.2,6.2,0,0,1-2.5,1.1l-1.3.5v.2h1a7.7,7.7,0,0,0,3.7-1.9h.1a5.8,5.8,0,0,0,2.5-2.4c.8-.3,1-1.1,1.5-1.6a9.4,9.4,0,0,0,1.7-3.3c.1-.1.1-.2.1-.4s.3-.5.3-.9.1-.1,0-.1Zm-7.1-21.8q-.1-.3-.3,0h-1a7.8,7.8,0,0,0-3.4.2c1.5.3,2.9-.1,4.3.2v-.4h.3c.8.4.8.4,1.7-.1A8.6,8.6,0,0,0,371.9,311.3Zm-17.6.6c-.7.3-.9.7-.7.9l.8-.5c0-.2-.1-.3-.1-.4l.3-.3a2.8,2.8,0,0,0,1.8-.2,1.7,1.7,0,0,0-1-.3,1.4,1.4,0,0,0-.8.5Zm26.1-1.2a1.9,1.9,0,0,0-1.3.7h.5c.4-.2.7-.4.8-.8s.6-.3.5-.7h-.4Zm-16.7,33.1c-.1-.2-.2-.3-.4-.2l.4.2a1.1,1.1,0,0,0,.8.2h2.6c.1,0,.2-.1.1-.4Zm-7.3-37.3a24.4,24.4,0,0,0,2.6.1c1.6-.1,3.1.1,4.7,0a5,5,0,0,1,1.7-.1,26.4,26.4,0,0,0,4,.1,4.7,4.7,0,0,1,1.2,0c.3-.3.8-.3,1.2-.5l.8-1a7.6,7.6,0,0,0-.3-3.4,8.6,8.6,0,0,0-2.7-3.8l-2.2-1.1h-1.9a6.4,6.4,0,0,0-5,1.5c-.3.3-.7.2-1,.4a12.4,12.4,0,0,1-1.4,1.8,9.7,9.7,0,0,1-1.5,1.9c-.5,1.3-.9,2.5-1.3,3.7a1.2,1.2,0,0,0,.6.6Zm.8,5.1c3,.1,6,0,9-.1.1,0,.2,0,.1-.3a18.7,18.7,0,0,1-4.1,0c-1.4-.1-2.8.4-4.1-.1S357.4,311.2,357.2,311.6Zm7.1-16.1a5.1,5.1,0,0,0-4,.8c-.3.2-.4.2-.5.9a5.1,5.1,0,0,1,2.2-1.1Zm12,15.8a1.5,1.5,0,0,0,1.3.2c.1-.1.4-.1.1-.5S376.7,311.1,376.3,311.3Zm-11.1-15.8,1.4.3.2-.2A2.2,2.2,0,0,0,365.2,295.5Zm9.2,16c1.2.1,1.2.1,1.1-.4S374.8,310.9,374.4,311.5Zm-21.1,3.4c.1-.2.1-.3-.1-.4A.6.6,0,0,0,353.3,314.9Zm1.1-10.4c.1.1-.2.2.1.3S354.6,304.6,354.4,304.5Zm26.4,3.2h0Zm-27.5,6h0Zm26,18.7h0Zm-21.5,9.2h0Z" fill="#7f7f7f"/><path d="M108.2,338.2a4.7,4.7,0,0,1,3-.8,3.1,3.1,0,0,0,1.5-.3l.7-.7a8.3,8.3,0,0,0,.4-3.1,10.5,10.5,0,0,1,.1-2.5c0-.6-.3-1.1-.2-1.7s.1-2.6.1-3.8a16.2,16.2,0,0,1,0-2.2,4.8,4.8,0,0,1,0-1.7.2.2,0,0,0,0-.3,14,14,0,0,1,0-2.9c0-1,.1-1.9.1-2.8a7.4,7.4,0,0,1-.1-2.1,6.7,6.7,0,0,0,0-2c0-1.5,0-2.9.1-4.4s-.3-1.6.1-2.2-.4-1.4-.5-2-.5-.1-.7-.2a9.8,9.8,0,0,0-1.8-1.7,8.7,8.7,0,0,1-2.8-3.2c-.1-.3-.4-.5-.6-.9v-1.1c.1-.1.1-.2.2-.2a12.2,12.2,0,0,1,3.8-2.2,8.3,8.3,0,0,0,1.6-.9c.3-.4.7-.3,1.1-.5l4-2.2a4.6,4.6,0,0,1,2.3-.6,1.7,1.7,0,0,1,1.2,1,10.9,10.9,0,0,0,.8,1.5,7,7,0,0,1,0,2.5c0,.2-.1.4,0,.6a19.3,19.3,0,0,1,.1,3.4c0,.6-.1,1.3-.1,2s.1.7.1,1a3.4,3.4,0,0,1,.1,1,11.4,11.4,0,0,0-.1,4.5,5.3,5.3,0,0,1-.1,1.3c.1.9-.1,1.9,0,2.8s-.1,1.8.1,2.7a7.6,7.6,0,0,1-.1,1.5c0,.9,0,1.9.1,2.9a12.8,12.8,0,0,1-.1,1.9,45.1,45.1,0,0,1-.1,5.2,12.7,12.7,0,0,0,.1,2c0,1,.1,2,.2,3a9.9,9.9,0,0,1-.3,1.5,5.9,5.9,0,0,1,.1,1.9,28,28,0,0,0,0,2.9,1.9,1.9,0,0,0,.3.8c1,1,2.2.5,3.3.7l1.2.6c.2.9,1,1.6,1.3,2.6V342a2.5,2.5,0,0,1-1.6,1.7h-5.4c-1.9,0-3.7.1-5.6,0a33.7,33.7,0,0,1-5.5,0L109,343c-.5-1-1.3-1.8-1.5-3.1A4.1,4.1,0,0,1,108.2,338.2Zm1.3,4.1h-.1A.1.1,0,0,0,109.5,342.3Zm17.9-.6a1,1,0,0,0-.9.6h-1.6a6.4,6.4,0,0,0-2,.3c0,.1.1.2.1.1h3.1a.5.5,0,0,0,.4-.2h.5a.8.8,0,0,0,.4-.7c.1-.1.1-.1,0-.1Zm-14.7.6c1.4.6,2.8,0,4.1.5l1.5-.3-.3-.2c-1.2-.2-2.4.1-3.6-.1A10.3,10.3,0,0,0,112.7,342.3Zm6.3.3a5.7,5.7,0,0,0,3-.2,6.2,6.2,0,0,0-2.7-.1A.3.3,0,0,0,119,342.6Zm-8.9-.5c.1.3.2.3.2.4h1.4c-.1-.1-.1-.1-.1-.2S110.7,342.3,110.1,342.1Zm11.6-12.5q-.3.1,0,.3A.2.2,0,0,0,121.7,329.6Zm-.1-6.5c0,.1-.2.2.1.3S121.8,323.2,121.6,323.1Zm0-30h0Zm.1,5.7h0Zm0,7.1v.2h.1Zm0,4.4h.1s.1-.1,0-.1h-.1Zm0,.9v.2h.1Zm0,13.7h0Zm0,6.7h0Z" fill="#7f7f7f"/><path d="M216.8,175c-.6.7-1.1,1.4-1.7,2s-1.5.6-2.1,1a4.8,4.8,0,0,1-3.6-.9,9.3,9.3,0,0,1-1.2-1.8c-.1-.3-.5-.6-.8-1a2.4,2.4,0,0,0-.5-1,5.7,5.7,0,0,1-.8-2.5,7.9,7.9,0,0,1,.8-4.8,7.2,7.2,0,0,1,2.3-2.6,2.9,2.9,0,0,1,1-.3h1.9l1.9.7a13.7,13.7,0,0,0,2,2.2c.1.9.9,1.5,1,2.4a5.5,5.5,0,0,1,.4,3.8C217.3,173.1,217,173.9,216.8,175Zm-.2-3.9v.3a1.1,1.1,0,0,0-.3,1.2c-.2.1-.3.3-.1.6s.1-.4.1-.6.3-.8.3-1.2h.1a.3.3,0,0,0-.1-.2h0Zm-5.6,5.6c.2,0,.4.2.5,0s-.3-.2-.5,0h-.3C210.9,176.9,211,176.8,211,176.7Zm3.9-1.5a1.1,1.1,0,0,0,.5-.9c.1-.1.4-.1.1-.4v.4a1.1,1.1,0,0,0-.5.9c-.2.1-.4,0-.4.3Zm-.9.8c-1.5.3-1.5.3-1.8.9A2.6,2.6,0,0,0,214,176Z" fill="#7f7f7f"/><path d="M332.6,191.7h0Z" fill="#7f7f7f"/><path d="M263.3,215.9a.3.3,0,0,1-.1-.2h.1v.4Z" fill="#7f7f7f"/><path d="M222.5,241.9h0Z" fill="#7f7f7f"/><path d="M214.9,267.9c-.1-.1-.1-.1-.1-.2h.1v.3Z" fill="#7f7f7f"/><path d="M260.1,285.9c0,.1,0,.1.1.2h-.1v-.3Z" fill="#7f7f7f"/><path d="M315.6,290.9h0Z" fill="#7f7f7f"/><path d="M315.8,290.9a.3.3,0,0,1,.1.2h-.1v-.3Z" fill="#7f7f7f"/><path d="M424.5,295.9h0Z" fill="#7f7f7f"/><path d="M425.3,297.4h0Z" fill="#7f7f7f"/><path d="M379.3,329.9h0Z" fill="#7f7f7f"/><path d="M380.1,331.4h0Z" fill="#7f7f7f"/><path d="M385.7,343.8h0Z" fill="#7f7f7f"/><path d="M385.1,342.6h-.3v-.3Z" fill="#7f7f7f"/></svg>