<svg xmlns="http://www.w3.org/2000/svg" width="177mm" height="177mm" viewBox="0 0 501.6 501.6"><text transform="translate(18.6 21.3)" font-size="6" fill="#295ba8" font-family="Helvetica">2240D3CEDAF782EECB04433371ED7D18F71DFFF2169B0462488515E7D5B5F38D<tspan x="0" y="7.2">Block Height: 13642944</tspan></text><path d="M154.1,308.3h0Z" fill="#4b9460"/><path d="M308.7,336.1Z" fill="#4b9460"/><path d="M196.5,299.5c-.1,0-.1,0-.1-.1h.1v.2Z" fill="#4b9460"/><path d="M297,279.4h.1a.1.1,0,0,0-.1.1h0v-.2Z" fill="#4b9460"/><path d="M261.8,352.5v-.2h0v.2Z" fill="#4b9460"/><path d="M388.2,201.1h.1a.1.1,0,0,0-.1.1h0v-.2Z" fill="#4b9460"/><path d="M142.4,252.2V252h0Z" fill="#4b9460"/><path d="M288.3,192.1h0Z" fill="#4b9460"/><path d="M374.1,150.5h0Z" fill="#4b9460"/><path d="M128.1,208.1h0Z" fill="#4b9460"/><path d="M153.7,307.5h-.1v-.2Z" fill="#4b9460"/><path d="M296.4,278.6v-.2l.2.2Z" fill="#4b9460"/><path d="M140.3,321.9c.4-1.2,1.5-1.7,2.4-2.4a52.7,52.7,0,0,1,10-5.2l7.4-3c-7.7.9-15.2,2.9-23.1,4.3a3.2,3.2,0,0,1,1.8-1.2c5.8-2.8,12.1-4.2,18.4-5.2a125.3,125.3,0,0,1,14.9-1.5c.3-.7-.1-1.1-.3-1.5a201.6,201.6,0,0,1-7.6-19.5,1.9,1.9,0,0,0-1.5-1.4c-17.3-4-24.3-17.1-25.9-29.8a2.3,2.3,0,0,0-.4-1.4,35.4,35.4,0,0,1-5.6-10.5l-.4-.7-1.1,1a7.9,7.9,0,0,1-2.5,1.5c-2.9,1.1-3.8.4-3.5-2.6.4-5.2-.4-10.5,1-15.8a2.6,2.6,0,0,0-1.4,1.3,47.9,47.9,0,0,1-5.3,6.6,8.7,8.7,0,0,1-2.5,1.9c-2,.9-3.4,0-3.5-2.1a31.6,31.6,0,0,1,1.5-9.2A85.1,85.1,0,0,1,125,199.1a45,45,0,0,1,5.7-6.6c-.3-.7-.9-.8-1.3-1.1a70.9,70.9,0,0,1-14.1-10.9,30.2,30.2,0,0,1-4.9-6.4,5.7,5.7,0,0,1-.4-4.6,15.1,15.1,0,0,1,6.9-8.9,39.1,39.1,0,0,1,16.1-5.2,80.4,80.4,0,0,1,20.8.2,2,2,0,0,0,1.5-.1c-.9-3.5-1.8-7-2.4-10.6s-1.2-8.1-.5-12.2a7.8,7.8,0,0,1,2.3-4.6c1.6-1.3,2.9-1.2,4.3.2a29.5,29.5,0,0,1,2.2,3.1,24.6,24.6,0,0,0,1.7,2.7,1.1,1.1,0,0,0,1.5.6,1.5,1.5,0,0,0,1.1-1.3,19.7,19.7,0,0,0,.1-4.2c-.2-5.2-.7-10.5-.2-15.7a28.7,28.7,0,0,1,2.4-10,12.3,12.3,0,0,1,6.2-6.3c3.8-1.6,7.5.8,7.4,4.9s-.8,5.3-1.3,7.9a12.4,12.4,0,0,0-.4,3.3c0,.5.1.9.6,1a.9.9,0,0,0,1-.5,18.1,18.1,0,0,0,1.8-4c1.6-5.4,3.2-10.8,4.9-16.3a61.4,61.4,0,0,1,4-10,18.8,18.8,0,0,1,5.1-6.4,11.1,11.1,0,0,1,9.6-2.4,19.1,19.1,0,0,1,6.9,2.9c3.9,2.6,5.3,6.3,4,10.9a24.5,24.5,0,0,1-6.9,11c-2.8,2.8-6.1,5.1-9.2,7.7a35.9,35.9,0,0,0-8.4,9.4,22.8,22.8,0,0,0-2.3,5.6,4,4,0,0,0,4.1-.9l4.2-4.2a10.1,10.1,0,0,1,4.4-2.8c4.3-1.2,7.7,2,6.7,6.4a8.8,8.8,0,0,1-2.1,3.6l-4.5,5c8.9,9.5,8.9,9.6,10.8,25.8.5.2.8-.2,1.2-.3,9.2-3.2,18.6-4.5,28.3-2.6l1.2.3c6.7,2.1,9,5.8,8.7,12.8-.3,5.1-2.6,9.5-5.5,13.6a55.9,55.9,0,0,1-5.8,6.4l23.6.6a2.8,2.8,0,0,0-1-1.3,39.9,39.9,0,0,1-8.5-11.6,20.9,20.9,0,0,1-1.9-11.3,9.8,9.8,0,0,1,6-8.2,22,22,0,0,1,9.1-2.1,57.2,57.2,0,0,1,23.8,3.7h.4c.2-2.4.2-4.9.6-7.3a29.5,29.5,0,0,1,4.9-13,19.7,19.7,0,0,1,9.5-7.6,12.4,12.4,0,0,1,11.1,1l1.3.7h.3l1.2-8a223,223,0,0,0,2.2-24.5,71.5,71.5,0,0,0-1.6-19.6,27.8,27.8,0,0,0-2.1-5.7,1.4,1.4,0,0,0-2.1-.8,38.6,38.6,0,0,1-7.6,2,17,17,0,0,1-3.9.1c-3.4-.3-5.2-2.3-5.3-5.7-.1-8.5,5.1-13.9,13.7-14a33.4,33.4,0,0,1,11.3,1.8,16.6,16.6,0,0,1,9.9,9,39,39,0,0,1,3.8,15.7,79.5,79.5,0,0,1-.8,16.9c0,.5-.1.9-.1,1.8a24.7,24.7,0,0,1,3.4-4.1c2.5-2.3,5.3-3.7,8.8-3.3a7.2,7.2,0,0,1,6,5.7,4.8,4.8,0,0,1-1.3,4.8l-7.5,6.9a41.1,41.1,0,0,0-5.8,6,9.5,9.5,0,0,0-2,4.7c.7.1,1.1-.3,1.6-.5a16.1,16.1,0,0,1,6.8-1.9,5.9,5.9,0,0,1,5.5,8.1,12.6,12.6,0,0,1-2.9,4.3,35,35,0,0,1-4.9,3.7,21.7,21.7,0,0,0-5.1,4.5c2.2,1.2,2.6,3.1,2.3,5.3-1.5.1-2.6-.1-3-1.6a1.8,1.8,0,0,0-1.2-1,19.5,19.5,0,0,0-2.6,5.2,36.9,36.9,0,0,0-1.1,4.5,1.2,1.2,0,0,0,.9,1.5,13.9,13.9,0,0,1,6.5,5.5,1.6,1.6,0,0,0,2.2.8,77.3,77.3,0,0,1,33.5-.8,33.3,33.3,0,0,1,10.5,3.9,16.3,16.3,0,0,1,7.8,10v2.3a24.9,24.9,0,0,1-6,8.4,74.3,74.3,0,0,1-14.1,10.8c-.4.2-1,.3-1.2.9,8.3,9.1,13.1,19.9,16,31.7a26.2,26.2,0,0,1,1,8.4c-.1,2.2-1.6,3-3.6,2.1a10.6,10.6,0,0,1-2.6-2,74,74,0,0,1-5.1-6.3c-.3-.5-.5-1-1-1.2s-.2.3-.2.5c.6,3.7.3,7.5,1.9,11a18.9,18.9,0,0,1,1.3,5.7c.3,3.3-.9,4.1-4,2.7a7.7,7.7,0,0,1-2.1-1.4c-.3-.3-.5-.8-1.1-.8l-.6,1.4a35.4,35.4,0,0,1-4.9,9.2,4.3,4.3,0,0,0-.9,2.2c-1.7,15.2-11,25.7-25.7,29.5a1.9,1.9,0,0,0-1.6,1.4c-2.1,6.6-4.8,13-7.5,19.4a2.5,2.5,0,0,0-.5,1.6,137.7,137.7,0,0,1,18,2c7.7,1.4,15.4,4,17,5.9-7.7-1.4-15.2-3.4-22.9-4.3l7.4,3a52.7,52.7,0,0,1,10,5.2c.9.7,1.9,1.2,2.4,2.4h-.3l-1.7-.8-18.9-7.2a45.9,45.9,0,0,0-17.5-3.8,50.7,50.7,0,0,1-5.5-.3c-.5-.1-1,0-1.4-.6a3.2,3.2,0,0,1,2.1-1,42.1,42.1,0,0,1,7.1-.2c.7,0,1.2-.1,1.5-.8,2.5-6,5.2-12,6.9-18.4.1-.5.5-1.1.1-1.8a134.5,134.5,0,0,1-21.9,1.6,117.3,117.3,0,0,1-22-1.8V289a52.8,52.8,0,0,0,2.2,13.1c.9,2.9.9,2.9,3.9,3.1a18.9,18.9,0,0,1,6.7,1.2c1,.4,2,1,1.6,2.6l-1.9-.5a20.8,20.8,0,0,0-8.6-.5c-10.4,1.7-20.8,4.1-31.1,6.3l-1.8.3a22.4,22.4,0,0,1,5.3-3.3c5.6-2.7,11.6-3.8,17.8-4.6-9.3-1.4-18.2,1.3-27.3,2,10.1-6,21-6.4,32.2-4.8a2.2,2.2,0,0,0,0-1.6c-.6-4-1.7-7.9-1.9-12-.1-1.3.6-2.9-.2-3.8s-2.4-.9-3.6-1.3c-7.5-2.5-14.6-5.7-20.5-11s-8.6-10.6-9.3-17.8a36.7,36.7,0,0,1,2.3-16.7c3.5-9.7,9.1-18.1,15.5-26.1a1.8,1.8,0,0,0,.8-1.4c-16.7-.7-33.5-1.2-50.3-1.6a2.3,2.3,0,0,0,.9,1.5c2.3,2.8,4.5,5.7,6.5,8.7,5,7.4,9.3,15.2,11.3,23.9,3.3,13.8-1.1,25-12.7,32.9a53,53,0,0,1-7.3,4.2,97,97,0,0,1-11.3,4.3c-.7.1-1.2.3-1.1,1.2a51.6,51.6,0,0,1-1.4,12.3,15.1,15.1,0,0,0-.6,4.4c11.3-1.7,22.2-1.3,32.3,4.7-9.1-.7-18-3.4-27.3-2,8.3,1,16.2,2.8,23.2,7.8h-1.5L213.9,309c-5.4-1.1-10.7-2-16-.1h-.6c-.1-1.6.9-2.1,2-2.5a21.3,21.3,0,0,1,7.5-1.1,2.2,2.2,0,0,0,2.3-1.6,47.3,47.3,0,0,0,2.3-10.4,22.8,22.8,0,0,0,.2-6.4c-14.7,2.6-29.2,2.2-43.8.3a4,4,0,0,0,.2,1.9c1.7,6.3,4.4,12.2,6.9,18.2.3.7.8.8,1.5.8a34.7,34.7,0,0,1,7.2.3,2.4,2.4,0,0,1,2.1,1.2,25.5,25.5,0,0,1-5.4.6c-6,.1-11.8.7-17.4,3.1s-9.2,3.5-13.7,5.2a91.1,91.1,0,0,0-8.6,3.5ZM151,210.2c-.3.9-.6,1.9-1,2.8a175.6,175.6,0,0,0-6.9,22.4c-1.8,8.2-3,16.6-1.6,25s5.7,15.2,13.7,18.9a41.6,41.6,0,0,0,6.6,2.7,87.6,87.6,0,0,0,24.4,3.9c10.3.3,20.5-.3,30.5-3.4s16.6-7,22.8-14.1c4.3-4.9,5.7-10.6,5.2-17a47.2,47.2,0,0,0-4.5-16c-5.2-11.2-12-21.3-19.3-31.2l-2.1-2.9.3-.3a54.4,54.4,0,0,1,4.7,4.9c1.6,2.1,3.5,2.7,6.2,2.8,16.5.3,33,.8,49.5,1.3a2.7,2.7,0,0,0,2.4-.9c1.7-1.9,3.4-3.7,5.2-5.4.3-.4.6-.9,1.3-.8l-1.2,1.6a229.6,229.6,0,0,0-14.4,21.9,83.4,83.4,0,0,0-8,18.4c-3.3,11.7-.3,21.3,9.4,28.8a54.1,54.1,0,0,0,19.6,9.5c14.9,3.8,29.8,3.7,44.7,1a50.4,50.4,0,0,0,17.6-6.4,22,22,0,0,0,9.4-11.8,35,35,0,0,0,1.9-11.1c.3-9.7-1.7-19.1-4.5-28.4a1.9,1.9,0,0,0-.5-1,8.9,8.9,0,0,1-3-5.6c-.7-3.2-.6-6.5-1.9-9.6h.1c.6,0,.5.9,1.1,1,.5-2.3.2-4.7,1.5-6.8l-1.8-2.2c-.4-.7-.9-.8-1.7-.5a48.8,48.8,0,0,1-13.5,3,24.5,24.5,0,0,0-15.9,6.4,24.3,24.3,0,0,1-8,4.5,3.3,3.3,0,0,1-3.8-.6c-3.8-3.3-7.5-6.9-11.1-10.4a4.4,4.4,0,0,0-1.9-1c-9.7-1.4-18.5-5.2-26.7-10.4a4,4,0,0,0-2.4-.7H235.3a5.3,5.3,0,0,0-3,.9c-8.1,5.1-16.8,8.9-26.4,10.3a2.7,2.7,0,0,0-1.9,1c-3.8,3.5-7.5,7.2-11.5,10.5a2.6,2.6,0,0,1-2.9.6,34.8,34.8,0,0,1-8.7-4.7,67.6,67.6,0,0,0-7-4.9,3.9,3.9,0,0,0-1.6-.7,83,83,0,0,1-20.8-3.9c-.4-.1-.8-.3-1.2.2l-3.8,4.8a1.7,1.7,0,0,0-.1.7,75.6,75.6,0,0,1,.9,8.6C148.6,213.7,149.4,211.7,151,210.2Zm189-7.8h.7a90.3,90.3,0,0,0,48.7-23,33.7,33.7,0,0,0,5.6-6.3,3.5,3.5,0,0,0,.3-3.4,11.2,11.2,0,0,0-3.8-4.8,28.9,28.9,0,0,0-10-4.8c-10.9-3.3-22-3.1-33.1-.8-2.3.5-2.1.1-1.8,2.6A13.8,13.8,0,0,1,334,177.2c-1.4.1-2.8-.1-4.2.1,4.3,1.9,8.9,1.4,13.7,1.1-1.6,1.6-4.7,2.2-9.4,1.9s-9.2-1.3-12-5.7c-4.2,3.8-9,5.9-14.6,5.1,4-1.2,7.9-2.7,11.1-5.8h-.3l-.8.3a15.7,15.7,0,0,1-11.3.3c-5.9-2-9.1-6.5-10.6-12.2a6.2,6.2,0,0,0-4-4.6l-2.9-1a49.6,49.6,0,0,0-14.3-2.2,37.8,37.8,0,0,0-11.1,1.2c-3.1.9-4.6,3-5,6.1a11.5,11.5,0,0,0-.1,2.6c.4,4.9,2.5,9.1,5.3,13,8,11.1,18.8,18.1,31.9,21.7a23.2,23.2,0,0,0,5.6,1.1l-6.5-7.8a2.1,2.1,0,0,0-1-.6,17.3,17.3,0,0,1-5.7-3,55.9,55.9,0,0,1-15.5-19.3c-1.1-2.2-1-2.3-3.3-2.1-.1,0-.1-.1-.2-.2a.4.4,0,0,1,.1-.3c3.7-6.4,14.2-9.2,20.5-5.4.5.3,1,.6,1.1,1.3a4.6,4.6,0,0,1-2.6-.1,15.4,15.4,0,0,0-4.3-.5c-.9,0-1.3.4-1.1,1.4a19.1,19.1,0,0,0,1.1,4.1,62.2,62.2,0,0,0,6.9,13c7.6,11.3,16.5,21.5,25.8,31.3,1.9,2,1.2,2.1,3.9.5a161.3,161.3,0,0,0,29.7-22.3,89.4,89.4,0,0,0,16.6-20.7,3.3,3.3,0,0,0,.7-1.8c-1.8-1-4.1-.7-6.2-1.6,6.7-3.6,23.8,3.8,24.3,10.4-1.9-.5-3-2.2-4.8-3l-1.1,1.2a81.2,81.2,0,0,1-14.3,12.5c-4.3,2.9-8.7,5.3-13.8,6.4a2.4,2.4,0,0,0-1.1.6,68.9,68.9,0,0,1-7.8,6.5ZM189.9,173.9c3.1,3.1,7,4.6,11,5.8-5.7.8-10.4-1.3-14.6-5.1-2.3,3.8-5.9,4.9-9.9,5.6s-10.1-.1-11.3-1.8c4.6.3,9.2.8,13.5-1.2h-.8c-10.2.7-16.8-6-15.8-16.1.1-1.1-.2-1.4-1.2-1.7a72.9,72.9,0,0,0-28.3-.7c-5.4,1-10.7,2.6-15.2,5.9a12.3,12.3,0,0,0-4,4.5,4.1,4.1,0,0,0,.3,4.4,38.6,38.6,0,0,0,5.4,6,92.2,92.2,0,0,0,36.8,20.4,71.8,71.8,0,0,0,12.4,2.6l-.3-.5a108.2,108.2,0,0,1-9.9-8c-.3-.4-.7-.4-1.2-.5A35.2,35.2,0,0,1,148,190a78.3,78.3,0,0,1-19-15.4,3.1,3.1,0,0,0-1.4-1.1l-2.1,1.6c-.8.5-1.4,1.3-2.5,1.2,1.4-7,18.8-14.3,24.2-10.2-2,.8-4.2.5-6.2,1.7.3.5.5,1,.8,1.4a74.4,74.4,0,0,0,9.2,13c10.9,12.5,23.9,22.4,38.2,30.8,1,.6,1.5.4,2.3-.4a280.5,280.5,0,0,0,21.9-25.7c4-5.4,7.8-10.9,10.5-17.1a30.2,30.2,0,0,0,2-6c.3-1.4-.3-1.7-1.5-1.7a25.7,25.7,0,0,0-4,.5c-.8.1-1.7.5-2.5,0,1.1-1.9,5.7-3.2,9.7-2.8a15.3,15.3,0,0,1,12.1,7.4c-1,.4-2-.8-2.7,0a8.1,8.1,0,0,0-1.1,2.7l-.3.5a58.9,58.9,0,0,1-13.3,16.9,17.1,17.1,0,0,1-5.6,3.7,9.8,9.8,0,0,0-5,3.9l-3.5,4.3c-.2.2-.6.4-.4,1l4.2-.9c13.5-3.5,24.6-10.6,32.8-21.9a25.3,25.3,0,0,0,5.1-11c1.2-7.4-1.2-10.6-7.9-11.5a51.7,51.7,0,0,0-15.7.2,30.5,30.5,0,0,0-11,3.3,4,4,0,0,0-2.3,2.9,18.5,18.5,0,0,1-2.7,6.7,15.2,15.2,0,0,1-11.9,7.2A19.2,19.2,0,0,1,189.9,173.9ZM328.8,65.6c-.7,1.6-2.1,1.8-3.2,2.3s-1.1.8-.7,1.7a28,28,0,0,1,1.3,4.1,79.9,79.9,0,0,1,2.1,20.1,221.9,221.9,0,0,1-3.2,37.3,5.1,5.1,0,0,0,.6,3.2,27.4,27.4,0,0,1,3.7,9.6,38,38,0,0,1,.6,5.8h3.5c.8,0,.9-.5,1-1.1a22.1,22.1,0,0,1,1.5-5c.6-1.6,1.4-3.1,2.1-4.8l-4.6-.5a3.3,3.3,0,0,1,2.7-2.5,6.1,6.1,0,0,1,2.7,0,1.5,1.5,0,0,0,1.9-.7,35.2,35.2,0,0,1,9-8.2,5.9,5.9,0,0,0,2.7-3.1,3.1,3.1,0,0,0-.8-3.9,3.2,3.2,0,0,0-3.2-.7,24.3,24.3,0,0,0-7.7,3.9,1.9,1.9,0,0,1-2,.4c-.8-.4-.5-1.1-.5-1.7a9.2,9.2,0,0,1,.1-1.6,18.3,18.3,0,0,1,3.5-7.3,73.8,73.8,0,0,1,7.6-8.2,34.4,34.4,0,0,0,5-5.1,3.6,3.6,0,0,0,.2-4.6,3.5,3.5,0,0,0-3.9-1.3,10,10,0,0,0-6.1,3.5c-1.6,1.9-3,3.9-4.4,5.9a23.8,23.8,0,0,1-3.1,4,2.1,2.1,0,0,1-1.8.9,1.9,1.9,0,0,1,.1-1.3,98.5,98.5,0,0,0,2.4-24.8,41.6,41.6,0,0,0-3-15.2c-2.7-6.2-7.2-10-13.9-11.1-4.5-.7-8.7-.1-12,3.3a7.8,7.8,0,0,0-2.5,6.6,3.7,3.7,0,0,0,3.7,3.5,15.3,15.3,0,0,0,3.7-.2c3.2-.5,6.1-1.7,9.2-2.5A15.2,15.2,0,0,1,328.8,65.6ZM189,127.8a3.4,3.4,0,0,1-.8-1.4c-.3-1.2-1-1.4-2.1-1.1a8.2,8.2,0,0,1-2.2.2c-.7.1-.9-.5-1-1s.2-.9.8-.9a20,20,0,0,1,2.4-.4c1-.1,1.4-.6,1.5-1.6A18.2,18.2,0,0,1,190,115a37.2,37.2,0,0,1,7.7-9.1c3.2-3,6.6-5.6,10-8.3a15.6,15.6,0,0,0,5.9-10.7c.4-2.9-.4-5.5-3-7.1-4.5-2.7-10-3.3-14,2.2a35.5,35.5,0,0,0-4.8,9c-2.4,6.8-4.2,13.8-6.4,20.7a25.8,25.8,0,0,1-1.4,3.9,4,4,0,0,1-4.4,2.3,3.5,3.5,0,0,1-2.9-3.6,15.7,15.7,0,0,1,.5-5.3c.4-2.3,1-4.5.6-6.8s-1.6-2.8-3.6-1.6a10.7,10.7,0,0,0-4.6,6.9,35.2,35.2,0,0,0-.9,9.1v13.2a14.9,14.9,0,0,1-1,5.5c-1.5,3.7-4.2,4.1-6.7,1l-.6-.8c-.7-1-1.4-2.1-2.2-3.1s-.8-1.2-1.5-1.1-1,.9-1.2,1.6a16.6,16.6,0,0,0-.6,7,80.8,80.8,0,0,0,3,13.8c.6,2,1.6,3.2,3.7,3.5s1.6,0,2.1-.9a14.2,14.2,0,0,1,10.7-6.6c1.3-.1,2.6.1,4,.1a33.6,33.6,0,0,1,2.5-12.2A20.9,20.9,0,0,1,189,127.8Zm0,31a13.2,13.2,0,0,1,0,9.2,1.8,1.8,0,0,0,.7,2.4c5.1,4,12.3,3.1,16.6-2.2a25.3,25.3,0,0,0,5.5-18c-.6-7.6-4.4-14-10.3-18.9s-10.2-3.3-14.1,1.5-5.7,10.8-6.3,17c0,.4-.1.9.5,1.2l2.8,1.5c1.2-5.3,4.2-7.9,8.3-7a6.9,6.9,0,0,1,5.6,7.7C197.6,157.4,194.3,159.5,189,158.8Zm135-6.3a25.3,25.3,0,0,1,2.3-1.2,1.6,1.6,0,0,0,1-1.8,35.4,35.4,0,0,0-2.1-9.1,22,22,0,0,0-5.4-8.9c-3.5-3.2-7.7-3.6-11.6-1.1a16.4,16.4,0,0,0-2.6,2c-8.9,9.2-11.4,18.6-6.8,30a16.9,16.9,0,0,0,5.8,8.1,11.6,11.6,0,0,0,14.1-.1,1.7,1.7,0,0,0,.7-2.4,12.6,12.6,0,0,1-.3-7.9c.1-.4.4-.8.2-1.2-5.4.5-8.6-1.5-9.2-5.8a6.9,6.9,0,0,1,5.9-7.7C320,144.7,323,147.4,324,152.5ZM113.9,234.1a5.3,5.3,0,0,0,2.4-2,56.1,56.1,0,0,0,4.7-6.2c1.6-2.5,3.3-5,5-7.4.4-.6.8-1.3,1.6-1.3a2.5,2.5,0,0,1,.2,1.9c-.1,1.5-.4,3.1-.6,4.7-.5,3.4-1,6.8-1.4,10.3a4.6,4.6,0,0,0,.3,3.6,3.1,3.1,0,0,0,1.7-1.7,30.8,30.8,0,0,0,2.4-5.2c2-5.5,4-10.9,6.1-16.4a3.2,3.2,0,0,1,1.3-2.1c2.5,3.4,3.5,7.3,5.5,10.9,2.1-7.2.7-14.1-1.4-20.9a1.8,1.8,0,0,1,2.1.4c.6.5.5,1.3,1.2,2l3.4-4.4c-4.9-1.9-9.3-3.9-13.8-5.9a1.5,1.5,0,0,0-1.7.3,31.3,31.3,0,0,0-6.3,7.3,120.3,120.3,0,0,0-12.4,28.2A6.4,6.4,0,0,0,113.9,234.1Zm250.4-33.8c-2.1,6.9-3.7,13.7-1.4,20.8,2-3.5,3-7.5,5.5-10.8a4.6,4.6,0,0,1,1.4,2.4c1.9,5,3.7,10.1,5.6,15.2a39.6,39.6,0,0,0,2.9,6.3,2,2,0,0,0,1.7,1.4,11,11,0,0,0,0-5.1c-.5-4-1.1-7.9-1.7-11.8a7.3,7.3,0,0,1,0-3.6,3.5,3.5,0,0,1,1.7,1.4l3.7,5.4a96,96,0,0,0,5.9,8.3c.7.7,1.3,1.6,2.5,1.8a8.3,8.3,0,0,0-.5-4.4,132.5,132.5,0,0,0-10.7-25.2,35.8,35.8,0,0,0-5.5-7.3,1.7,1.7,0,0,0-2.3-.4c-3.8,1.9-7.7,3.4-11.7,5a1.7,1.7,0,0,0-1.2.7,3,3,0,0,0,1.2,1.3C362.1,200.7,362.8,199.7,364.3,200.3ZM186.5,166.2c.5-4.2-.3-7.8-3-10.8a11.1,11.1,0,0,0-15.4-1.1c-4.8,4.2-5.5,11.1-1.5,15.8a14,14,0,0,0,7.1,4.5,11,11,0,0,0,9.1-1.6c-3.2-1.5-4.3-3.7-3-6.1S183.5,164.3,186.5,166.2ZM325.6,173a10.8,10.8,0,0,0,8.2,1.8c5-.8,9.9-5.5,10.5-9.9a12,12,0,0,0-5.6-11.7c-4.2-2.3-8.3-1.9-12.2.7s-5.5,7.9-4.5,12.2c3.1-1.8,5.5-1.4,6.7,1S328.7,171.7,325.6,173ZM137.4,249.4l.3-.3a94.1,94.1,0,0,1,4.5-20.4,1.1,1.1,0,0,0-.1-1.1c-1.7-1.6-2.5-3.7-3.5-5.7-.2-.4-.2-.9-.8-1.1l-1.8,4.9-1.8,4.8a32.1,32.1,0,0,1-2.4,4.5c-.9,1.5-2,2.8-3,4.2s-2.6,2-3.4,3.5c3-.2,4.7-2.5,7-4.2C134.3,242.1,134.9,246.2,137.4,249.4Zm233.3.3c2.9-3.5,3.4-7.7,5.4-11.2l3.2,2.8a5.6,5.6,0,0,0,3.7,1.5,8.4,8.4,0,0,0-1.1-3.8c-1.3,1.2-2.3.6-3.4-.4a35.3,35.3,0,0,1-8.6-15.3c-.5-1.5-1.2-3-1.9-4.7-1.1,2.1-2.1,4-3,5.9a1,1,0,0,0,0,.9A93.6,93.6,0,0,1,370.7,249.7ZM199.8,125.8c-2.2-1.6-4.3-1.7-6.4-.2s-1.7.2-2.4.9a.7.7,0,0,0,.7.3,12.9,12.9,0,0,1,8.2.7.9.9,0,0,0,1.1-.3,35.7,35.7,0,0,0,4.4-5.2,5,5,0,0,0,.9-2.1,2.6,2.6,0,0,0-1-2.2c-.6-.5-1.3-.2-1.9.2-2.2,1.3-3.9,3.3-5.9,5C198.6,123.7,200.2,123.7,199.8,125.8Zm71.1,64.1a3.1,3.1,0,0,0-2.7-1.5l-26.7-.6c-1.8-.1-2.9.9-4.1,2.1ZM135.7,177.7c4.8-4.2,4.8-4.4,2.3-8.7l-.3-.4c-.1-.4-.4-.5-.8-.4a17.1,17.1,0,0,0-5.8,2.7c-.5.4-.8.8-.4,1.4A25.5,25.5,0,0,0,135.7,177.7Zm236.9.1a27.4,27.4,0,0,0,4.7-5c.7-.9.6-1.5-.3-2.2a21.4,21.4,0,0,0-5.4-2.3c-.5-.2-.8-.1-1,.4s-1.3,2.3-1.9,3.4a1.1,1.1,0,0,0,0,1.4Zm-141.2-5.1a7.6,7.6,0,0,0,.8-1.1c.6-1.2,1.2-2.4,1.7-3.6s.8-2.5-1.2-3.8l-1-.5c-2.3-.9-2.8-.7-3.4,1.6,0,.3-.1.5-.1.7s-1.6,2.9-.8,4.2,2.5,1.6,3.7,2.4Zm45.6.1,3.8-2.3a.9.9,0,0,0,.4-1.2,44.2,44.2,0,0,1-1.4-5.2c-.1-.3-.1-.6-.5-.8s-5.3,1.5-5.4,2.8a1.5,1.5,0,0,0,.1.7A30.6,30.6,0,0,0,277,172.8Zm6.2,8.3a12.7,12.7,0,0,0,2.2-2.5c.4-.4.3-.8,0-1.3a21.2,21.2,0,0,1-2.9-4.6c-1.4.9-2.8,1.5-4.1,2.5A27.5,27.5,0,0,0,283.2,181.1Zm-58,0a25.9,25.9,0,0,0,4.8-6l-4.1-2.4a25.6,25.6,0,0,1-2.8,4.6c-.3.4-.6.8-.2,1.3A13.4,13.4,0,0,0,225.2,181.1Zm141,2.3a20,20,0,0,0,4.3-3.9c-1.4-1.6-2.8-3-4.3-4.6l-2.2,4a.8.8,0,0,0,0,.9Zm-224,0,2.2-3.7a.8.8,0,0,0,.1-.7,42.3,42.3,0,0,0-2.4-4l-4.2,4.6A31.6,31.6,0,0,0,142.2,183.4Zm10.5,5.9-6.1-7.8c-.7.4-.9,1.1-1.4,1.7s-.6,1.4.4,2.1A29,29,0,0,0,152.7,189.3Zm209.1-7.8-6.1,7.8a1.3,1.3,0,0,0,.9-.1l4.9-2.9c2.7-1.8,2.7-2.3.5-4.7Zm-139.1,2a10,10,0,0,0-1.9-2.2l-4.6,6.9.2.2Zm64.9-2.3-1.9,2.3,6.3,4.9.2-.2Zm33.1-30.7a1.9,1.9,0,0,0-2-2,2,2,0,0,0-2.1,2,2.1,2.1,0,0,0,2.1,2.1A2,2,0,0,0,320.7,150.5Zm-128.9.1a2.1,2.1,0,0,0-1.9-2.1,2,2,0,0,0-2.2,2,2.1,2.1,0,0,0,1.9,2.1A2.1,2.1,0,0,0,191.8,150.6Zm135.4,17.2a1.1,1.1,0,0,0-1.2-1.1,1.1,1.1,0,0,0-1,1.2,1,1,0,0,0,1.1,1.1A1.1,1.1,0,0,0,327.2,167.8Zm-145-1.1a1,1,0,0,0-1,1.3,1,1,0,0,0,1.1,1c.8-.1,1.2-.5,1.1-1.3S182.9,166.8,182.2,166.7Z" fill="#7f7f7f"/><path d="M368.5,322.2h-.8l-.6-.3-1.1-.5-6.2-2.4-12.7-4.9a44.7,44.7,0,0,0-17.4-3.7,27.5,27.5,0,0,1-4.1-.2H324a1.7,1.7,0,0,1-1.5-.6v-.2h.1a3.3,3.3,0,0,1,2.3-1.1,24.2,24.2,0,0,1,6-.3H332c.7,0,1-.1,1.2-.6l.7-1.6a124,124,0,0,0,6.2-16.7.8.8,0,0,0,.1-.4,1.1,1.1,0,0,0,.1-1.1,150.6,150.6,0,0,1-21.7,1.6,117.7,117.7,0,0,1-21.7-1.8V289a49.2,49.2,0,0,0,2.2,13c.8,2.7.8,2.7,3.5,2.9h.5a20.7,20.7,0,0,1,6.4,1.2c.8.4,2.2,1,1.7,2.9v.3l-.9-.2-1.3-.3a20.7,20.7,0,0,0-8.4-.6c-8.2,1.4-16.4,3.2-24.4,4.9l-6.8,1.4-1.3.3-1.5.3.8-.7a24.7,24.7,0,0,1,5.3-3.4,59.5,59.5,0,0,1,15.7-4.3c-5.3-.4-10.6.4-15.8,1.1a92.4,92.4,0,0,1-9.2,1.1h-1.2l1.1-.6c8.8-5.1,19-6.7,32.1-4.8a1.7,1.7,0,0,0,0-1,.4.4,0,0,0-.1-.3l-.6-3.7a57.4,57.4,0,0,1-1.3-8.3,7.1,7.1,0,0,1,.1-1.4,3.1,3.1,0,0,0-.2-2.2,4.8,4.8,0,0,0-2.3-.9l-1.2-.3c-6.2-2.1-14-5.3-20.6-11.1a27.5,27.5,0,0,1-9.4-17.9c-.6-5.3.2-10.8,2.3-16.9,3.1-8.4,8-16.7,15.6-26.1.1-.1.2-.2.2-.3a1.2,1.2,0,0,0,.5-.7c-16.1-.7-32.8-1.2-49.7-1.7a1.6,1.6,0,0,0,.5.8l.3.3c2.6,3.2,4.7,6,6.6,8.8,6,8.9,9.5,16.3,11.3,24,3.3,13.7-1.2,25.2-12.9,33.2a55.8,55.8,0,0,1-7.3,4.1,82.6,82.6,0,0,1-11.4,4.3c-.6.2-.9.3-.9.9.3,4.1-.5,8.1-1.3,12v.4a2.9,2.9,0,0,0-.2.9,10.6,10.6,0,0,0-.5,3.1c13.2-1.9,23.5-.3,32.2,4.8l1.1.6H245a92.4,92.4,0,0,1-9.2-1.1c-5.1-.7-10.4-1.5-15.8-1.1,6.9,1,14.4,2.8,21,7.6l.7.4h-.8l-1.5-.2-7.1-1.4-18.5-3.9c-5.1-1.1-10.4-2-15.8-.2h-.9v-.2c-.1-1.7,1.1-2.3,2.2-2.8a20.6,20.6,0,0,1,7.6-1.1,1.9,1.9,0,0,0,2-1.4,45.7,45.7,0,0,0,2.4-10.3,29.6,29.6,0,0,0,.2-6c-13.1,2.2-27.3,2.3-43.4.2a5,5,0,0,0,.2,1.2v.3a122.7,122.7,0,0,0,6.2,16.6l.7,1.6c.2.5.5.6,1.2.6h1.2a25.2,25.2,0,0,1,6.1.3h.2a2.7,2.7,0,0,1,2,1.4l.2.3h-.4a38.6,38.6,0,0,1-5.4.6c-5.3.1-11.5.5-17.3,3-2.9,1.3-5.9,2.4-8.8,3.5l-4.9,1.8-2.2.8c-2.1.8-4.3,1.6-6.4,2.6h-.8l.2-.4c.3-1.1,1.2-1.6,2-2.2l.5-.3a43.4,43.4,0,0,1,10-5.2l2.4-1,3.1-1.2c-4,.5-8,1.4-12.1,2.2s-5.9,1.3-8.9,1.8h-.7l.4-.5a3.7,3.7,0,0,1,1.6-1.3h.3c6.1-3,12.8-4.3,18.5-5.2a139.6,139.6,0,0,1,14.7-1.5.8.8,0,0,0-.2-.8l-.2-.3c-2.4-5.7-5.3-12.4-7.6-19.5a1.4,1.4,0,0,0-1.3-1.2c-20.1-4.7-25-20.9-26.1-30.1a2.1,2.1,0,0,0-.3-1.2,37.9,37.9,0,0,1-5.7-10.6l-.2-.4h-.1l-.7.7a7.3,7.3,0,0,1-2.6,1.6c-1.6.6-2.6.6-3.2.1s-.9-1.4-.7-3a36.4,36.4,0,0,0,.1-5.7,38.6,38.6,0,0,1,.8-9.5c-.3.1-.4.4-.5.6l-.2.3-.6.7a53.8,53.8,0,0,1-4.8,5.9,8.6,8.6,0,0,1-2.6,2,2.8,2.8,0,0,1-2.7,0,3,3,0,0,1-1.2-2.4,31.8,31.8,0,0,1,1.5-9.3,84,84,0,0,1,12-26.4,49.4,49.4,0,0,1,5.5-6.6,1.2,1.2,0,0,0-.7-.5l-.4-.2a71.9,71.9,0,0,1-14.1-11,28.3,28.3,0,0,1-4.9-6.5,5.8,5.8,0,0,1-.5-4.8,15.8,15.8,0,0,1,7.1-9.1c5.5-3.4,11.5-4.6,16.2-5.2a80.7,80.7,0,0,1,20.8.2H155a16,16,0,0,1-.5-2.1c-.7-2.7-1.4-5.5-1.9-8.4s-1.2-8-.5-12.3a7.7,7.7,0,0,1,2.5-4.7c1.6-1.4,3.1-1.3,4.7.2a14.5,14.5,0,0,1,1.7,2.6l.4.6a23.3,23.3,0,0,0,1.7,2.6,1,1,0,0,0,1.2.6,1.3,1.3,0,0,0,.9-1.2,17,17,0,0,0,.1-3.9v-.2c0-.9-.1-1.8-.1-2.6a96.8,96.8,0,0,1-.1-13.2,30.3,30.3,0,0,1,2.4-10,12.5,12.5,0,0,1,6.4-6.4,5.7,5.7,0,0,1,5.4.3,5.5,5.5,0,0,1,2.4,4.8,23.4,23.4,0,0,1-.9,5.9c-.1.7-.3,1.4-.4,2.1v.5a8.3,8.3,0,0,0-.3,2.7c0,.5.1.7.4.8s.4-.1.7-.5a14.3,14.3,0,0,0,1.7-3.8c.7-2.5,1.5-4.9,2.2-7.3l2.7-9a58.5,58.5,0,0,1,4.1-10.1,18.9,18.9,0,0,1,5.1-6.5,11.5,11.5,0,0,1,9.9-2.5,21.6,21.6,0,0,1,7,2.9c4,2.8,5.4,6.6,4.1,11.3a25,25,0,0,1-7,11.1,62,62,0,0,1-6.2,5.3l-3,2.4a33.3,33.3,0,0,0-8.3,9.4,17.7,17.7,0,0,0-2.2,5.2,3.6,3.6,0,0,0,3.5-.9l.6-.6,3.6-3.6a10.3,10.3,0,0,1,4.5-2.9,5.4,5.4,0,0,1,7,6.7,8,8,0,0,1-2.1,3.8l-3.1,3.5-1.2,1.3c8.6,9.3,8.8,9.7,10.7,25.6l.4-.2.4-.2c10.1-3.5,19.4-4.3,28.4-2.6l1.3.3c6.8,2.1,9.2,5.8,8.9,13.1-.3,4.5-2,8.8-5.6,13.8a51.9,51.9,0,0,1-5.3,6l22.5.5-.5-.6-.3-.2c-4.1-4.1-6.8-7.8-8.5-11.7a21.2,21.2,0,0,1-2-11.4,10.1,10.1,0,0,1,6.2-8.5,25.4,25.4,0,0,1,9.2-2.1c8.9-.3,16.8.9,23.9,3.8h0a10.9,10.9,0,0,0,.1-1.8c.2-1.7.3-3.5.5-5.2a33.3,33.3,0,0,1,4.9-13.2,21.3,21.3,0,0,1,9.7-7.7,12.8,12.8,0,0,1,11.4,1.1l1.1.6h.1l.3-2.2c.3-1.8.6-3.7.8-5.6a183.1,183.1,0,0,0,2.2-24.4,71.6,71.6,0,0,0-1.6-19.6,22.7,22.7,0,0,0-2.1-5.6,1.2,1.2,0,0,0-1.7-.7,40.4,40.4,0,0,1-7.7,2.1,17.2,17.2,0,0,1-3.9.1c-3.6-.4-5.5-2.5-5.6-6s1.2-7.8,3.6-10.3,6.1-3.9,10.4-4a36.5,36.5,0,0,1,11.4,1.8,17.3,17.3,0,0,1,10.1,9.1c2.2,4.4,3.4,9.4,3.8,15.9a86.3,86.3,0,0,1-.8,16.9c0,.3-.1.5-.1.9a20.5,20.5,0,0,1,2.9-3.4c2.8-2.7,5.7-3.8,9-3.4a7.4,7.4,0,0,1,6.3,5.9,5,5,0,0,1-1.5,5.2l-.8.7-6.6,6.1a46.6,46.6,0,0,0-5.8,6,9.5,9.5,0,0,0-1.9,4.2,1.3,1.3,0,0,0,.8-.3l.4-.2c2.3-1,4.5-1.9,6.9-1.8a6.3,6.3,0,0,1,5.2,2.6,6.2,6.2,0,0,1,.5,5.8,12.4,12.4,0,0,1-2.9,4.4,27.1,27.1,0,0,1-5,3.8,20.9,20.9,0,0,0-4.8,4.1c2.4,1.5,2.4,3.8,2.2,5.5v.2h-.2c-1.4.1-2.8,0-3.3-1.8a1.5,1.5,0,0,0-.8-.8,22.8,22.8,0,0,0-2.4,5,31.5,31.5,0,0,0-1.1,4.4h0c-.1.7,0,.9.7,1.2a14.1,14.1,0,0,1,6.6,5.7c.5.8.9.9,1.9.7a76.6,76.6,0,0,1,33.6-.9,32,32,0,0,1,10.6,4,16.7,16.7,0,0,1,8,10.1h0v2.4a26.9,26.9,0,0,1-6.1,8.5,75.5,75.5,0,0,1-14.1,10.8l-.4.2c-.2.1-.5.2-.6.5,7.5,8.2,12.7,18.5,15.9,31.6a29.2,29.2,0,0,1,1,8.5,2.5,2.5,0,0,1-4,2.3,9.5,9.5,0,0,1-2.7-2,53.8,53.8,0,0,1-4.8-5.9l-.3-.5-.2-.3-.5-.6h0c.2,1.2.3,2.4.4,3.6a24.2,24.2,0,0,0,1.4,7.4,17.6,17.6,0,0,1,1.4,5.8c.2,1.8-.1,2.8-.8,3.4s-1.9.4-3.6-.4a9.4,9.4,0,0,1-2.2-1.5c-.1-.1-.2-.2-.2-.3l-.6-.4v.3l-.3.9a44,44,0,0,1-4.9,9.3,3.7,3.7,0,0,0-.9,2c-1.8,15.4-11,26-25.9,29.8a1.6,1.6,0,0,0-1.4,1.2,197,197,0,0,1-7.6,19.4c0,.1-.1.2-.1.3a1.6,1.6,0,0,0-.3.9,135.9,135.9,0,0,1,17.7,2c8.1,1.5,15.6,4.2,17.2,6l.5.6h-.7l-8.7-1.7c-4-.9-8.1-1.8-12.2-2.3l3.1,1.2,2.4,1a43.4,43.4,0,0,1,10,5.2l.5.3a4.8,4.8,0,0,1,2,2.2Zm-38.4-12.3a45.2,45.2,0,0,1,17.2,3.7l12.7,4.9,6.2,2.3,1.2.6a.1.1,0,0,1,.1.1,4.1,4.1,0,0,0-1.5-1.4l-.5-.4a46.5,46.5,0,0,0-9.9-5.1l-2.4-1-5-2-1.7-.8,1.9.2c4.7.6,9.5,1.6,14.2,2.6l7.7,1.6c-2.5-1.8-9.3-4-16.2-5.2a138,138,0,0,0-17.9-2.1h-.3v-.2a2.4,2.4,0,0,1,.4-1.5c0-.1.1-.2.1-.3,2.4-5.6,5.2-12.2,7.6-19.3a2.3,2.3,0,0,1,1.7-1.6c14.7-3.7,23.8-14.1,25.6-29.2a4.6,4.6,0,0,1,.9-2.4,36.4,36.4,0,0,0,4.8-9.1,3.6,3.6,0,0,0,.4-.9l.3-.7h.2a2.3,2.3,0,0,1,1.1.6l.2.2a8,8,0,0,0,2,1.5c1.5.6,2.5.8,3,.4s.8-1.3.6-2.8a17.7,17.7,0,0,0-1.3-5.7,22.3,22.3,0,0,1-1.5-7.6l-.3-3.5c-.1-.1,0-.3,0-.4s.1-.1.1-.2v-.3h.3a4.7,4.7,0,0,1,1,1c0,.1.1.2.1.3l.4.5a42.6,42.6,0,0,0,4.7,5.8,9.7,9.7,0,0,0,2.5,1.9,2.7,2.7,0,0,0,2.3.2,2.5,2.5,0,0,0,.9-2,28.9,28.9,0,0,0-1-8.4c-3.2-13-8.4-23.3-15.9-31.5h-.1v-.2a1.8,1.8,0,0,1,1-.9l.3-.2a70.4,70.4,0,0,0,14-10.7,25.6,25.6,0,0,0,5.9-8.3v-2.2a16,16,0,0,0-7.6-9.7,31.3,31.3,0,0,0-10.5-3.9,75.6,75.6,0,0,0-33.4.8,1.9,1.9,0,0,1-2.5-.9,13.4,13.4,0,0,0-6.3-5.5c-.8-.3-1.3-.7-1-1.8h0a36.9,36.9,0,0,1,1.1-4.5,18.6,18.6,0,0,1,2.6-5.3h.3a1.8,1.8,0,0,1,1.3,1.2c.4,1.3,1.2,1.5,2.5,1.5.3-2.4-.4-3.9-2.1-4.9h-.3l.2-.3a18.4,18.4,0,0,1,5.1-4.5,31.1,31.1,0,0,0,4.9-3.7,12.3,12.3,0,0,0,2.8-4.2,5.5,5.5,0,0,0-5.2-7.7,16.8,16.8,0,0,0-6.7,1.8l-.3.2a1.9,1.9,0,0,1-1.5.3h-.2v-.3a9.2,9.2,0,0,1,2.1-4.7,36.9,36.9,0,0,1,5.8-6.1l6.7-6.1.8-.8a4.6,4.6,0,0,0,1.3-4.6,7,7,0,0,0-5.9-5.4c-3-.4-5.8.7-8.5,3.2a24.7,24.7,0,0,0-3.4,4.1l-.6.8V97.2a4.1,4.1,0,0,0,.1-1.1,78,78,0,0,0,.8-16.8,40.2,40.2,0,0,0-3.7-15.6,16.2,16.2,0,0,0-9.8-8.8,32.4,32.4,0,0,0-11.2-1.8c-4.2,0-7.6,1.3-10,3.8a13.4,13.4,0,0,0-3.4,9.9c.1,3.3,1.8,5.1,5,5.4a16.3,16.3,0,0,0,3.8-.1,37.2,37.2,0,0,0,7.6-2,1.7,1.7,0,0,1,2.4,1,26.8,26.8,0,0,1,2.2,5.7,72.3,72.3,0,0,1,1.6,19.7,225.6,225.6,0,0,1-2.2,24.5c-.3,1.9-.6,3.7-.8,5.6a20,20,0,0,0-.4,2.4v.2h-.8l-1.2-.8a12.3,12.3,0,0,0-10.9-.9,19.5,19.5,0,0,0-9.4,7.5,30.5,30.5,0,0,0-4.8,12.9,43.6,43.6,0,0,0-.5,5.2c0,.6-.1,1.3-.1,2v.3h-.8a54.8,54.8,0,0,0-23.7-3.7,22.9,22.9,0,0,0-9,2,9.4,9.4,0,0,0-5.8,8,19.9,19.9,0,0,0,1.9,11.1,38,38,0,0,0,8.4,11.6l.2.2a2.9,2.9,0,0,1,.9,1.2v.4l-24.6-.6.5-.5a42.5,42.5,0,0,0,5.6-6.4c3.6-4.9,5.3-9,5.5-13.4.4-7-2-10.5-8.4-12.5l-1.3-.4c-8.9-1.7-18.1-.8-28.1,2.7h-.3c-.3.1-.6.4-1.1.2h-.1v-.2c-1.9-16.1-1.9-16.1-10.7-25.6l-.2-.2,1.5-1.7,3.2-3.5a7.4,7.4,0,0,0,2-3.5,4.9,4.9,0,0,0-6.3-6.1,10.1,10.1,0,0,0-4.3,2.8c-1.3,1.2-2.4,2.4-3.6,3.6l-.6.6c-1.1,1.1-2.4,1.4-4.3,1h-.3v-.3a16.6,16.6,0,0,1,2.3-5.7,33,33,0,0,1,8.5-9.5l2.9-2.4a78.7,78.7,0,0,0,6.2-5.3,24.2,24.2,0,0,0,6.9-10.9c1.2-4.4-.1-8-4-10.6a18,18,0,0,0-6.7-2.8,10.9,10.9,0,0,0-9.4,2.3,17.9,17.9,0,0,0-5,6.3,56.2,56.2,0,0,0-4,10c-1,3-1.9,6-2.8,9.1s-1.4,4.8-2.2,7.2a12,12,0,0,1-1.8,4,1.1,1.1,0,0,1-2.1-.6,8.9,8.9,0,0,1,.3-2.8V110c.2-.7.3-1.4.5-2.1a28,28,0,0,0,.9-5.8,5,5,0,0,0-2.2-4.3,5.1,5.1,0,0,0-4.8-.3,11.7,11.7,0,0,0-6.2,6.2,30.9,30.9,0,0,0-2.3,9.8,94,94,0,0,0,0,13c.1.9.1,1.8.2,2.7v.2a26.7,26.7,0,0,1-.1,4,1.9,1.9,0,0,1-1.3,1.6,1.4,1.4,0,0,1-1.8-.7,21.1,21.1,0,0,1-1.8-2.7l-.3-.6a22.7,22.7,0,0,0-1.8-2.5c-1.3-1.3-2.4-1.4-3.9-.1a7.1,7.1,0,0,0-2.2,4.3c-.8,4.2-.2,8.3.4,12.1s1.2,5.7,1.9,8.4l.6,2.3v.2h-.2a1.7,1.7,0,0,1-1.4.1h-.3a75,75,0,0,0-20.6-.2c-6.9.9-11.8,2.5-16,5.1a15.4,15.4,0,0,0-6.9,8.7,5.6,5.6,0,0,0,.5,4.4,23.2,23.2,0,0,0,4.8,6.4,71.6,71.6,0,0,0,14,10.9l.3.2a2.3,2.3,0,0,1,1.1.9v.4a39.1,39.1,0,0,0-5.6,6.6,85.1,85.1,0,0,0-12,26.2,34.7,34.7,0,0,0-1.4,9.2,2,2,0,0,0,.9,1.9,2.2,2.2,0,0,0,2.1,0,9.7,9.7,0,0,0,2.5-1.9,52.7,52.7,0,0,0,4.8-5.8l.5-.8.2-.2a1.9,1.9,0,0,1,1.3-1.1l.5-.2v.5a37.7,37.7,0,0,0-.9,10c0,1.9,0,3.8-.1,5.7s0,2.3.4,2.6,1.3.3,2.7-.3a6,6,0,0,0,2.4-1.4,4.6,4.6,0,0,1,.7-.7l.7-.6v.3l.2.3c.1.2.2.3.2.5a39.2,39.2,0,0,0,5.6,10.4,3,3,0,0,1,.5,1.5c1.1,9.1,5.9,25,25.7,29.6a2.2,2.2,0,0,1,1.6,1.6c2.3,7.1,5.2,13.8,7.6,19.5l.2.2a1.9,1.9,0,0,1,.2,1.5h-.2a118.3,118.3,0,0,0-14.9,1.4c-5.7,1-12.3,2.3-18.4,5.2l-.3.2-.8.4,8.1-1.6c4.8-1,9.4-2,14.1-2.6l1.9-.2-1.7.8-5,2-2.4,1a46.5,46.5,0,0,0-9.9,5.1l-.5.4a5.4,5.4,0,0,0-1.6,1.4,52.2,52.2,0,0,1,6.1-2.5l2.2-.8,4.9-1.9c2.9-1,5.9-2.1,8.8-3.4,5.9-2.5,12.1-3,17.5-3.1a23.8,23.8,0,0,0,4.9-.5,1.9,1.9,0,0,0-1.4-.7h-.3a19.4,19.4,0,0,0-5.9-.3h-1.2a1.6,1.6,0,0,1-1.7-1l-.7-1.6a119.1,119.1,0,0,1-6.2-16.7v-.2a3.5,3.5,0,0,1-.2-1.8v-.2h.2c16.3,2.1,30.6,2,43.8-.3h.3v.3a22.5,22.5,0,0,1-.2,6.4,47.2,47.2,0,0,1-2.4,10.5,2.2,2.2,0,0,1-2.5,1.7,24.2,24.2,0,0,0-7.4,1.1c-1,.4-1.9.9-1.8,2h.2c5.5-1.9,11-1,16.1.1l18.5,3.9,7.1,1.5h.4c-7.1-4.8-15.2-6.3-22.2-7.2l-2.1-.3,2.1-.3c6.2-.9,12.3,0,18.2.9l7.8,1c-8.4-4.6-18.3-5.9-31-4.1h-.3V304a13.7,13.7,0,0,1,.4-3.6c.1-.3.1-.6.2-.9v-.4a46.9,46.9,0,0,0,1.3-11.8c-.1-1.1.6-1.3,1.3-1.5a86.2,86.2,0,0,0,11.3-4.3,54.4,54.4,0,0,0,7.2-4.1c11.6-7.9,15.9-18.9,12.7-32.6-1.8-7.6-5.3-15-11.3-23.8-1.8-2.7-4-5.6-6.6-8.8l-.2-.2a2.3,2.3,0,0,1-.7-1.4v-.3h.3c17.1.4,34,1,50.4,1.6h.2v.3a2.3,2.3,0,0,1-.6,1.4l-.3.2c-7.5,9.4-12.4,17.6-15.4,26a37,37,0,0,0-2.4,16.6,27.1,27.1,0,0,0,9.3,17.5c6.5,5.8,14.3,9,20.4,11l1.1.3a6.2,6.2,0,0,1,2.6,1.1,3.5,3.5,0,0,1,.4,2.7,5.7,5.7,0,0,0-.1,1.3,55.9,55.9,0,0,0,1.2,8.2c.2,1.2.5,2.5.7,3.7a.4.4,0,0,0,.1.3,3,3,0,0,1-.1,1.6v.2h-.2c-12.6-1.8-22.5-.5-31,4.1l7.9-1c5.9-.9,12-1.8,18.2-.9l2,.3-2,.3c-5.5.7-11.9,1.8-17.7,4.6a22.2,22.2,0,0,0-4.4,2.5h.7l6.8-1.5c8-1.7,16.2-3.4,24.4-4.8a20.3,20.3,0,0,1,8.7.5l1.2.3h.4c.1-1.1-.6-1.5-1.6-1.9a16.2,16.2,0,0,0-6.1-1.2h-.5c-3.1-.2-3.2-.3-4.1-3.2a50.5,50.5,0,0,1-2.1-13.2,5.7,5.7,0,0,1-.1-1.4v-1.1h.3a111,111,0,0,0,21.9,1.8,129.8,129.8,0,0,0,21.9-1.6h.2v.2a2.5,2.5,0,0,1,0,1.7.4.4,0,0,0-.1.3,135,135,0,0,1-6.3,16.8l-.7,1.6a1.6,1.6,0,0,1-1.7,1h-1.2a22.6,22.6,0,0,0-5.8.2,5.4,5.4,0,0,0-1.9.7,1.6,1.6,0,0,0,.9.3h1.6a28.3,28.3,0,0,0,4.1.3Zm-12.6-23.6a92.7,92.7,0,0,1-23.7-2.9,54,54,0,0,1-19.7-9.6c-9.7-7.4-12.9-17.2-9.6-29.1a82.9,82.9,0,0,1,8.1-18.4,202.7,202.7,0,0,1,14.4-22l.5-.7h0l-.2.2-.8.8c-1.4,1.5-3,3.1-4.4,4.7a3.3,3.3,0,0,1-2.6,1L271,210c-13.5-.4-27.4-.8-41.1-1-2.9-.1-4.8-.9-6.3-2.9s-2.1-2.3-3.2-3.4a4.6,4.6,0,0,1-.7-.7h0l1.5,2c6.9,9.4,13.9,19.7,19.2,31.2a46.7,46.7,0,0,1,4.6,16.1c.5,6.9-1.2,12.5-5.3,17.2-5.7,6.6-13.2,11.2-22.9,14.2s-18.6,3.8-30.6,3.4a86.7,86.7,0,0,1-24.5-3.9c-2-.7-4-1.5-6.6-2.7-7.8-3.7-12.4-10.1-13.9-19.1s0-17.9,1.6-25.2a183.3,183.3,0,0,1,7-22.4c.2-.5.3-1,.5-1.6a24,24,0,0,0-1.6,2.7c-.4.6-.7,1.3-1.1,2l-.5.8v-1a40.8,40.8,0,0,0-.6-6.3l-.3-2.2a1.3,1.3,0,0,1,.2-.9c1.3-1.8,2.7-3.5,3.8-4.9a1,1,0,0,1,1.4-.2h.1a88.6,88.6,0,0,0,20.8,3.9,3.9,3.9,0,0,1,1.7.6c1.8,1.1,3.5,2.4,5.2,3.6l1.8,1.3a30.7,30.7,0,0,0,8.6,4.7,2.5,2.5,0,0,0,2.7-.5c3.2-2.7,6.3-5.7,9.3-8.5l2.1-2a3.3,3.3,0,0,1,2-1.1c8.9-1.3,17.5-4.7,26.3-10.3a6.2,6.2,0,0,1,3.2-.9h38.1a4.2,4.2,0,0,1,2.6.8c8.9,5.7,17.6,9.1,26.6,10.4a3.8,3.8,0,0,1,2,1l1.2,1.2c3.2,3,6.5,6.2,9.9,9.1a2.9,2.9,0,0,0,3.5.6,25.2,25.2,0,0,0,7.9-4.4,25.8,25.8,0,0,1,16.1-6.5,47,47,0,0,0,13.4-3,1.7,1.7,0,0,1,2.1.6l1.2,1.6.5.6v.2h-.1a11.9,11.9,0,0,0-1.1,4.5l-.3,2.2v.3h-.2a.6.6,0,0,1-.6-.3,25.6,25.6,0,0,1,1,5.4c.2,1.1.3,2.2.6,3.3a9.1,9.1,0,0,0,2.8,5.5,1.9,1.9,0,0,1,.7,1.1c2.3,7.7,4.8,17.9,4.5,28.5a36.5,36.5,0,0,1-1.9,11.2,22.3,22.3,0,0,1-9.6,11.9,48,48,0,0,1-17.6,6.5A119.9,119.9,0,0,1,317.5,286.3Zm-29.2-83.7h.6l-.6.9-.8,1.1a212.9,212.9,0,0,0-14.4,22c-3.9,6.8-6.5,12.6-8,18.3-3.3,11.8-.3,21.1,9.3,28.5a53.5,53.5,0,0,0,19.5,9.4c13.8,3.6,28.4,3.9,44.6,1a50.6,50.6,0,0,0,17.4-6.3,21.7,21.7,0,0,0,9.3-11.7,38.4,38.4,0,0,0,2-11c.3-10.5-2.3-20.7-4.6-28.3a2.5,2.5,0,0,0-.4-.9,9.1,9.1,0,0,1-3.1-5.8c-.2-1.1-.4-2.2-.5-3.4a22.4,22.4,0,0,0-1.4-6.1.4.4,0,0,1,.1-.3v-.2h.2c.4,0,.6.4.8.6v.2a11,11,0,0,0,.2-1.8,12.6,12.6,0,0,1,1.2-4.5,1,1,0,0,1-.4-.5,10.1,10.1,0,0,1-1.3-1.6c-.4-.5-.7-.6-1.4-.3-5.4,1.8-9.6,2.8-13.6,2.9a25.2,25.2,0,0,0-15.7,6.4,26.9,26.9,0,0,1-8.1,4.6,3.7,3.7,0,0,1-4.1-.7c-3.4-3-6.7-6.1-9.9-9.2l-1.2-1.2a3.5,3.5,0,0,0-1.7-.9c-9-1.3-17.8-4.7-26.8-10.5a4.1,4.1,0,0,0-2.3-.7H235.3a5.1,5.1,0,0,0-2.9.8,66.4,66.4,0,0,1-26.5,10.3,2.7,2.7,0,0,0-1.7,1l-2.1,2c-3,2.9-6.1,5.8-9.4,8.5a2.7,2.7,0,0,1-3.2.6,31.6,31.6,0,0,1-8.8-4.7l-1.8-1.3c-1.6-1.2-3.3-2.5-5.1-3.6a3.9,3.9,0,0,0-1.5-.6,85.5,85.5,0,0,1-20.9-3.9h0c-.5-.2-.7-.2-.8,0l-3.9,4.9a.8.8,0,0,0,0,.5l.3,2.2c.2,1.7.5,3.5.6,5.4l.6-1.1a11.8,11.8,0,0,1,2.6-3.7l.8-.7-.6,1.9a14.6,14.6,0,0,0-.7,1.9,165.8,165.8,0,0,0-6.9,22.3c-1.6,7.3-3.1,15.9-1.6,25s5.9,15.1,13.5,18.7c2.6,1.2,4.6,2,6.6,2.7,7,2.3,14.8,3.5,24.3,3.8,12,.4,21.6-.6,30.4-3.3s17-7.6,22.7-14c4-4.6,5.7-10.1,5.2-16.8-.4-4.9-1.9-10-4.6-16-5.2-11.5-12.3-21.7-19.2-31.1l-1.5-2-.8-1.2.7-.6.2.2a10.6,10.6,0,0,0,1.5,1.5,34,34,0,0,1,3.2,3.4c1.7,2.2,3.6,2.6,6,2.7l41,1.1,8.5.2a2.7,2.7,0,0,0,2.2-.8c1.4-1.6,3-3.2,4.4-4.7l.8-.7.2-.2A1.5,1.5,0,0,1,288.3,202.6Zm82.2,47.8v-.7a97,97,0,0,0-5.6-24.2,1.2,1.2,0,0,1-.1-1.2l2.2-4.2,1.2-2.2.2.6.6,1.6a24.5,24.5,0,0,1,1.2,3.1c2.1,6.6,4.8,11.4,8.6,15.2,1.1,1,1.9,1.4,3.1.4l.2-.3.2.3a9.6,9.6,0,0,1,1.1,4v.3H383a5.6,5.6,0,0,1-3.8-1.6l-2.2-1.8-.8-.7a31.5,31.5,0,0,0-1.8,4.1,21,21,0,0,1-3.5,6.8ZM368,219.2l-.6,1.2-2.2,4.2c-.1.2,0,.4.1.7a96.8,96.8,0,0,1,5.6,23.7,28.7,28.7,0,0,0,3-6.1,35.7,35.7,0,0,1,1.9-4.5l.2-.3.3.2,1,.9,2.2,1.9a5.4,5.4,0,0,0,3.2,1.4,8.5,8.5,0,0,0-.9-3.1c-1.4,1.1-2.5.3-3.5-.6-3.9-3.8-6.7-8.7-8.7-15.4a24.5,24.5,0,0,0-1.2-3.1C368.3,219.9,368.1,219.6,368,219.2ZM137.5,249.9l-.3-.3a24,24,0,0,1-3.3-6.6c-.5-1.3-1-2.7-1.6-4l-1.3,1c-1.6,1.4-3.2,2.8-5.6,3h-.5l.3-.5a9.5,9.5,0,0,1,1.9-2.1l1.4-1.4.4-.4c.9-1.2,1.9-2.4,2.7-3.7a27.5,27.5,0,0,0,2.3-4.5l1.2-3.2.6-1.6,1.9-5.1h.2c.7.1.8.6,1,.9s0,.2.1.2l.6,1.4a13.9,13.9,0,0,0,2.8,4.3,1.3,1.3,0,0,1,.2,1.4,93.8,93.8,0,0,0-4.5,20.3l-.2.3v.2Zm-5.1-11.8.2.3a41.7,41.7,0,0,1,1.9,4.4,27,27,0,0,0,2.9,6.2,101,101,0,0,1,4.5-20.4c.2-.4.2-.6,0-.8a13.4,13.4,0,0,1-2.9-4.5l-.6-1.3a.4.4,0,0,1-.1-.3,1,1,0,0,0-.4-.5l-1.7,4.6a8.8,8.8,0,0,0-.5,1.5,32.4,32.4,0,0,1-1.3,3.3,24.6,24.6,0,0,1-2.3,4.6,33.7,33.7,0,0,1-2.8,3.8l-.3.4-1.5,1.4-1.5,1.5a9.1,9.1,0,0,0,4.6-2.7l1.6-1.3ZM126,238h-.1a4.6,4.6,0,0,1-.5-3.4c0-.2.1-.3.1-.5.3-2.3.6-4.7.9-6.9s.4-2.3.5-3.4.5-3.1.7-4.7v-.2a2,2,0,0,0-.2-1.3c-.5.1-.8.5-1.1,1h-.1l-4,5.9-1.3,1.9a41.1,41.1,0,0,1-4.4,5.9,5.9,5.9,0,0,1-2.5,2.1h-.3v-.3a7.9,7.9,0,0,1,.3-4.1,118.2,118.2,0,0,1,12.5-28.2,28.7,28.7,0,0,1,6.4-7.4,1.6,1.6,0,0,1,1.9-.4c3.9,1.8,8.6,3.9,13.8,5.9h.3l-3.8,5-.2-.2a2.5,2.5,0,0,1-.7-1.2,1.6,1.6,0,0,0-2.1-1.2c2,6.5,3.5,13.6,1.4,20.7l-.2.7-.4-.6c-.8-1.4-1.4-3-2.1-4.5a32.4,32.4,0,0,0-3.2-6.1,3.4,3.4,0,0,0-.9,1.5.4.4,0,0,1-.1.3c-1,2.7-2,5.3-2.9,8s-2.1,5.6-3.1,8.4a43.8,43.8,0,0,1-2.5,5.3h0a3.2,3.2,0,0,1-1.8,1.6Zm1.7-21.1h.1a2.2,2.2,0,0,1,.3,1.9v.2l-.6,4.7c-.2,1.1-.3,2.2-.5,3.3s-.7,4.7-1,7v.5a3.6,3.6,0,0,0,.2,2.7c.7-.2,1-.8,1.3-1.3h0a28,28,0,0,0,2.4-5.2c1.1-2.8,2.1-5.6,3.1-8.4l3-8c0-.1.1-.2.1-.3a3.1,3.1,0,0,1,1.4-1.9l.2-.2v.3a28.2,28.2,0,0,1,3.4,6.4c.6,1.3,1.1,2.6,1.8,3.8,1.9-6.9.4-13.7-1.6-20v-.3h.3a2.2,2.2,0,0,1,2.4.5,1.8,1.8,0,0,1,.6,1,1.6,1.6,0,0,0,.4.7l2.9-3.8c-5-1.9-9.6-4-13.4-5.8a1.1,1.1,0,0,0-1.4.4,27.1,27.1,0,0,0-6.2,7.2,111.9,111.9,0,0,0-12.4,28.1,6.5,6.5,0,0,0-.4,3.4,6.7,6.7,0,0,0,2-1.7c1.6-1.9,3-3.9,4.4-5.9l1.2-1.9,4.1-5.9v-.2a2.3,2.3,0,0,1,1.6-1.2ZM380.2,236H380a2.4,2.4,0,0,1-1.9-1.4v-.2a34.8,34.8,0,0,1-2.9-6.3l-3-8.1c-.8-2.4-1.7-4.8-2.6-7.1a.6.6,0,0,0-.1-.4,3.3,3.3,0,0,0-1-1.7,30.4,30.4,0,0,0-3.2,6.2c-.6,1.4-1.3,2.9-2.1,4.4l-.3.5-.2-.6c-2.3-7.3-.6-14.5,1.3-20.7-1-.3-1.6.4-2.3,1.4v.2h-.2a3.4,3.4,0,0,1-1.3-1.4v-.4c.2-.5.7-.6,1.1-.7h.2c3.7-1.4,7.8-3,11.7-4.9a1.9,1.9,0,0,1,2.6.4,42.4,42.4,0,0,1,5.6,7.4,144.6,144.6,0,0,1,10.7,25.3,8.3,8.3,0,0,1,.5,4.5v.3h-.2a4.7,4.7,0,0,1-2.5-1.7l-.2-.2a80.3,80.3,0,0,1-5-6.9,13,13,0,0,0-1-1.5l-3.6-5.3a3,3,0,0,0-1.3-1.2,9.4,9.4,0,0,0,0,2.9v.2c.2,1.7.5,3.5.7,5.2s.7,4.4,1,6.7h0a11,11,0,0,1,0,5.1Zm-11.9-26.1.2.2a4.1,4.1,0,0,1,1.5,2.1c0,.2,0,.3.1.4.8,2.4,1.7,4.7,2.6,7.1s1.9,5.4,2.9,8.1a48.8,48.8,0,0,0,2.9,6.2v.2c.3.5.6,1,1.2,1.1a11.9,11.9,0,0,0,0-4.6v-.2c-.4-2.2-.7-4.4-1-6.6s-.5-3.5-.8-5.2v-.2a7,7,0,0,1,.1-3.5v-.3h.2a3.2,3.2,0,0,1,1.8,1.6l3.7,5.3,1,1.5a54,54,0,0,0,5,6.8l.2.2a4.4,4.4,0,0,0,1.8,1.5,8.9,8.9,0,0,0-.6-4,135.2,135.2,0,0,0-10.6-25.1,36.7,36.7,0,0,0-5.5-7.3,1.3,1.3,0,0,0-1.9-.3c-4,1.9-8.1,3.5-11.8,4.9h-.3l-.7.4a3.4,3.4,0,0,0,.8.9c.6-.8,1.5-1.9,3.1-1.2h.2v.2c-1.9,6.3-3.6,13-1.5,20,.6-1.2,1.2-2.5,1.7-3.8a28.6,28.6,0,0,1,3.5-6.4Zm-50.2,3.9c-.4,0-.7-.3-1.3-.9l-.7-.8c-11-11.6-19.2-21.5-25.8-31.4a64.9,64.9,0,0,1-7-13,25.8,25.8,0,0,1-1.1-4.2,1.6,1.6,0,0,1,.2-1.2,1.5,1.5,0,0,1,1.2-.5,22,22,0,0,1,3.6.4h1.4a4.2,4.2,0,0,0,1.6.1c-.1-.4-.4-.5-.8-.7h-.1a14.6,14.6,0,0,0-11-1.2,14.8,14.8,0,0,0-9.2,6.5h0c2.2-.1,2.3,0,3.3,2v.2A55.8,55.8,0,0,0,288,188.5a18,18,0,0,0,5.6,3,1.7,1.7,0,0,1,1.1.6l7,8.4H301a34,34,0,0,1-5.7-1.1c-13.5-3.7-24.3-11.1-32.1-21.9-3.3-4.6-5-8.7-5.3-13.1a21.7,21.7,0,0,1,.1-2.6c.5-3.4,2.2-5.5,5.3-6.4a37.8,37.8,0,0,1,11.1-1.2,54.5,54.5,0,0,1,14.4,2.2l2.8,1h.1a6.3,6.3,0,0,1,4.2,4.7c1.6,6.2,5.1,10.3,10.4,12.1a15.7,15.7,0,0,0,11.1-.4l.8-.3c.2-.1.3,0,.4.1h.1l.4.2-.3.2a23.7,23.7,0,0,1-9.9,5.4c4.6.3,8.9-1.4,13-5.1l.2-.2.2.2c2.8,4.5,7.3,5.4,11.8,5.7s6.9-.2,8.5-1.4h-.1c-4.5.3-8.7.6-12.9-1.2l-.9-.4H334a13.3,13.3,0,0,0,9.3-4.8,13.9,13.9,0,0,0,3-10.2v-.5c-.2-1.8-.2-2,1.4-2.2l.7-.2c12.2-2.5,23.1-2.2,33.3.8a29.7,29.7,0,0,1,10.1,4.9,11.8,11.8,0,0,1,3.9,4.9,3.8,3.8,0,0,1-.4,3.7,31.7,31.7,0,0,1-5.6,6.3,91.7,91.7,0,0,1-48.9,23.1h-1.4l1.4-1.1,1.5-1.1a74.6,74.6,0,0,0,7.8-6.5,2.7,2.7,0,0,1,1.2-.6,39.4,39.4,0,0,0,13.7-6.5,78.5,78.5,0,0,0,14.3-12.4l1.3-1.3h.2a9,9,0,0,1,2,1.4A10.9,10.9,0,0,0,385,176c-.5-2.3-3.1-5-7.2-7.2s-12-4.5-16-2.8l2.1.4a9.6,9.6,0,0,1,3.4,1h.2a2.6,2.6,0,0,1-.6,1.6c0,.1-.1.2-.2.3-3.9,7.1-9.3,13.8-16.6,20.8a158.7,158.7,0,0,1-29.8,22.3l-.7.5A5.6,5.6,0,0,1,318.1,213.8ZM284,162.4h-.4l-.8.2a1.7,1.7,0,0,0-.1.8,24.5,24.5,0,0,0,1.2,4.1,55.3,55.3,0,0,0,6.9,12.9c6.5,9.8,14.7,19.7,25.7,31.3l.8.8c.7.9.7.9,2,.1l.7-.5a158.6,158.6,0,0,0,29.7-22.2,91,91,0,0,0,16.6-20.6.5.5,0,0,1,.2-.4,2.1,2.1,0,0,0,.4-1.1,10.1,10.1,0,0,0-3.1-.8,17.4,17.4,0,0,1-2.9-.7l-.5-.2.5-.3c4.1-2.2,11.7-.4,17.2,2.5s7.3,5.4,7.5,8.1v.4h-.4a7.3,7.3,0,0,1-2.8-1.7l-1.8-1.2-1,1a80.2,80.2,0,0,1-14.4,12.5c-5,3.4-9.4,5.5-13.8,6.5l-1,.5a72.6,72.6,0,0,1-7.8,6.5l-1.5,1.2h-.3a91.3,91.3,0,0,0,48.5-22.9,29.9,29.9,0,0,0,5.4-6.2,3.3,3.3,0,0,0,.4-3.2,11.6,11.6,0,0,0-3.8-4.7,29.9,29.9,0,0,0-9.8-4.8c-10.2-2.9-21-3.2-33.1-.7h-.7c-1.1.2-1.1.2-.9,1.6v.6a13.7,13.7,0,0,1-3,10.5,14.3,14.3,0,0,1-9.8,5.1h-2.9c3.6,1.2,7.4.9,11.4.7h1.7l-.5.5c-1.7,1.7-4.8,2.3-9.7,2s-9-1.1-12-5.6c-4.6,4.1-9.3,5.7-14.6,4.9h-1.3l1.3-.4a27.3,27.3,0,0,0,10.4-5.1h-.2a15.8,15.8,0,0,1-11.5.4c-5.5-1.9-9.1-6.1-10.7-12.4a6,6,0,0,0-3.9-4.4h-.1l-2.8-1a49.1,49.1,0,0,0-14.3-2.1,40.6,40.6,0,0,0-10.9,1.1q-4.2,1.2-4.8,6a6.9,6.9,0,0,0-.1,2.5c.3,4.2,1.9,8.3,5.2,12.8,7.7,10.7,18.4,18,31.8,21.7a28.1,28.1,0,0,0,4.9,1l-6.1-7.3a1.3,1.3,0,0,0-.9-.5,17.3,17.3,0,0,1-5.8-3.1A56.5,56.5,0,0,1,272,169.5v-.3c-.9-1.8-.9-1.8-2.9-1.6a.4.4,0,0,1-.3-.2h-.1v-.2h.1v-.3a15.6,15.6,0,0,1,9.6-6.7,15.2,15.2,0,0,1,11.4,1.2h.1a1.7,1.7,0,0,1,1.1,1.4v.2h-.2a3.4,3.4,0,0,1-2.2.1l-.5-.2h-.8A16.3,16.3,0,0,0,284,162.4Zm-93.8,51.2a2.1,2.1,0,0,1-1.2-.4c-15.6-9.2-28.1-19.3-38.2-30.8a72,72,0,0,1-9.2-13l-.5-1-.4-.7.2-.2a10,10,0,0,1,3.6-1.1l2.1-.4c-2.4-1.3-6.8-1-11.7.9s-10.6,5.9-11.5,9.1a3.4,3.4,0,0,0,1.4-.8l.5-.4,1.5-1.1.6-.5h.3a2.9,2.9,0,0,1,1.2.9l.3.3a74.7,74.7,0,0,0,19,15.3,31.7,31.7,0,0,0,8.7,3.5h.2a1.3,1.3,0,0,1,1.1.5,110,110,0,0,0,9.8,8l.3.3c0,.1.1.1.1.2l.4.5h-.6a69.2,69.2,0,0,1-12.5-2.5,93.7,93.7,0,0,1-36.9-20.5,38.1,38.1,0,0,1-5.4-6.1,4.2,4.2,0,0,1-.3-4.6,12.2,12.2,0,0,1,4-4.6c4-2.9,8.9-4.8,15.3-6a71.9,71.9,0,0,1,28.4.8c1.2.2,1.5.7,1.4,1.9-.4,4.8.9,9,3.6,11.9s7.1,4.2,11.9,3.9a1.7,1.7,0,0,1,1,.1l.7.2-.7.3c-4,1.8-8.2,1.5-12.4,1.3h-.5c1.8,1.3,6.4,1.8,10.6,1.2s7.4-1.7,9.7-5.5v-.3l.3.3c4.1,3.7,8.3,5.4,13,5.1a24.4,24.4,0,0,1-9.8-5.4l-.9-1,1.2.5a18,18,0,0,0,8.4,1.3,14.8,14.8,0,0,0,11.7-7.1,21.4,21.4,0,0,0,2.7-6.5,4.3,4.3,0,0,1,2.4-3.2,33.2,33.2,0,0,1,11.1-3.3,55.3,55.3,0,0,1,15.7-.2c3.5.5,5.8,1.6,7.1,3.3s1.7,4.6,1.1,8.5-2.2,7.2-5.1,11.2c-8.1,11-19.2,18.4-33.1,22l-2.8.6-1.4.3h-.2v-.2a1,1,0,0,1,.4-1.2h.1l1.5-1.9,1.9-2.4c1.5-1.9,2.9-3.3,5.2-4a15.4,15.4,0,0,0,5.5-3.6,58.6,58.6,0,0,0,13.3-16.9l.2-.4.3-.9a4.8,4.8,0,0,1,.9-1.9c.4-.5,1-.3,1.6-.2l.9.2a14.9,14.9,0,0,0-11.7-6.9c-3.7-.4-8,.8-9.3,2.4a2.3,2.3,0,0,0,1.4-.1h.7l1.1-.2a25.8,25.8,0,0,1,2.9-.3,1.9,1.9,0,0,1,1.6.5c.3.3.3.8.2,1.5a39.6,39.6,0,0,1-2,6.1A90.6,90.6,0,0,1,213.6,187a274.6,274.6,0,0,1-21.9,25.8A2.2,2.2,0,0,1,190.2,213.6Zm-48.8-45.7.2.2a10.4,10.4,0,0,0,.4,1,78.4,78.4,0,0,0,9.2,12.9c10.1,11.5,22.5,21.6,38.1,30.7.8.5,1.2.4,2-.3a287.6,287.6,0,0,0,21.9-25.7,92.8,92.8,0,0,0,10.5-17,30,30,0,0,0,1.9-6c.1-.5.1-.9-.1-1.1s-.5-.2-1.1-.2a13.3,13.3,0,0,0-2.8.3l-1.2.2h-.6a2.8,2.8,0,0,1-2-.1l-.3-.2v-.2c1.2-2,5.8-3.4,10-3A15.7,15.7,0,0,1,240,167v.3h-.2a2.5,2.5,0,0,1-1.7,0c-.6-.2-.8-.3-1,0a2.9,2.9,0,0,0-.7,1.7l-.3.9-.3.5a59.7,59.7,0,0,1-13.4,17,16.2,16.2,0,0,1-5.8,3.8,9.2,9.2,0,0,0-4.8,3.8l-2,2.4-1.5,1.8a.2.2,0,0,1-.2.2c-.1.2-.2.2-.2.3l1.1-.2a14,14,0,0,0,2.8-.6c13.7-3.5,24.7-10.8,32.7-21.7,2.9-4,4.5-7.4,5-11s.3-6.3-1-8-3.3-2.7-6.6-3.1a51.2,51.2,0,0,0-15.6.2,32.4,32.4,0,0,0-11,3.2,4,4,0,0,0-2.1,2.8,17.8,17.8,0,0,1-2.8,6.7,15.5,15.5,0,0,1-12.1,7.4,18.8,18.8,0,0,1-7.3-.9,26.7,26.7,0,0,0,9.9,4.8l1.3.4-1.3.2c-5.3.7-10.1-.9-14.6-5-2.4,3.8-6.2,4.9-10,5.4s-10.2,0-11.6-1.8l-.3-.5h1.9c3.8.3,7.4.5,10.9-.7-4.9.2-9-1.2-11.9-4.1s-4.2-7.4-3.7-12.3c.1-.9-.1-1.2-1-1.4a70.9,70.9,0,0,0-28.2-.7c-6.3,1.1-11.1,3-15.1,5.9a11.2,11.2,0,0,0-3.8,4.4,3.3,3.3,0,0,0,.3,4,41.5,41.5,0,0,0,5.3,6,93.3,93.3,0,0,0,36.7,20.4,81,81,0,0,0,11.7,2.4,84.6,84.6,0,0,1-9.8-7.9c-.2-.3-.5-.3-.8-.4h-.2a33.3,33.3,0,0,1-8.9-3.6c-6.6-3.6-12.8-8.7-19.1-15.4l-.3-.3a1.8,1.8,0,0,0-.8-.7,1,1,0,0,0-.5.4l-1.6,1.1-.5.4a2.9,2.9,0,0,1-2.1.9h-.3v-.3c.9-4.1,6.6-7.9,12-10s9.9-2.6,12.7-.4l.4.3-.5.2-2.7.6A9,9,0,0,0,141.4,167.9Zm130,22.3H236.6l.6-.5c1.2-1.2,2.3-2.3,4.3-2.2,8.2.3,16.5.4,24.6.6h2.1a3.3,3.3,0,0,1,2.9,1.6Zm-33.3-.6h32.2a2.7,2.7,0,0,0-2.1-.9h-2.1l-24.6-.5A4.3,4.3,0,0,0,238.1,189.6Zm-84.6.3-.9-.4a25.7,25.7,0,0,1-7.2-4,1.9,1.9,0,0,1-.9-1.1,2,2,0,0,1,.5-1.4l.3-.5a4.7,4.7,0,0,1,1.2-1.3h.2Zm-6.9-8a1.8,1.8,0,0,0-.8.9l-.3.6a1.2,1.2,0,0,0-.4.9c0,.2.2.5.6.8a29,29,0,0,0,6.1,3.5Zm209.5,7.7h-.9l6.5-8.4.3.2h.2c1.2,1.3,1.8,2.1,1.7,2.8s-.8,1.3-2.2,2.3a33.5,33.5,0,0,1-3.6,2.1l-1.4.9Zm5.7-7.8-5.5,7.2h.1l1.4-.8c1.2-.7,2.4-1.4,3.5-2.2s1.9-1.3,2-1.8S362.9,183,361.8,181.8Zm-69.8,7-6.7-5.2,2.3-2.9,5,7.5Zm-5.9-5.3,5.4,4.2-4-6Zm-69.7,5.3-.6-.6,4.9-7.3.2.2a8.1,8.1,0,0,1,1.8,1.9l.4.6Zm4.4-7.1-3.9,6,5.4-4.2h0A8.3,8.3,0,0,0,220.8,181.7Zm145.3,2.1-.8-1.3-1.5-2.6a.9.9,0,0,1,0-1.2l1.5-2.8.9-1.5,4.7,5.1-.2.2a21.7,21.7,0,0,1-4.3,3.9Zm.2-8.5-.5.9a25.4,25.4,0,0,1-1.6,2.8.5.5,0,0,0,.1.6l1.5,2.6.5.8a20.2,20.2,0,0,0,3.8-3.5Zm-224,8.5-.3-.2a21.1,21.1,0,0,1-3.6-3.1l-.7-.7-.2-.2,4.6-5.1.2.3a14,14,0,0,1,1.6,2.6l.8,1.5a.7.7,0,0,1-.1.9Zm-4-4.2.5.5a22.1,22.1,0,0,0,3.3,2.9l2.1-3.5q.2-.3,0-.3l-.8-1.5a10.9,10.9,0,0,0-1.4-2.3Zm144.9,1.9-.2-.2a28.3,28.3,0,0,1-4.8-5.9l-.2-.3h.2a20.1,20.1,0,0,1,2.7-1.7l1.5-.8.2-.2.2.3a19.6,19.6,0,0,0,2.8,4.6,1.1,1.1,0,0,1,0,1.6l-.5.7a7.7,7.7,0,0,1-1.8,1.8Zm-4.4-6.2a26.8,26.8,0,0,0,4.4,5.4,5.7,5.7,0,0,0,1.5-1.6l.5-.7c.3-.3.2-.5-.1-.9a19.4,19.4,0,0,1-2.7-4.4l-1.3.7A18.2,18.2,0,0,0,278.8,175.3Zm-53.6,6.1H225a6.5,6.5,0,0,1-1.8-1.9l-.5-.7a1.1,1.1,0,0,1,.2-1.6,19.8,19.8,0,0,0,2.7-4.5l.2-.2,4.6,2.6v.2a29,29,0,0,1-4.9,6.1Zm.8-8.3a20.3,20.3,0,0,1-2.7,4.3c-.3.5-.4.7-.1,1l.5.7a4.6,4.6,0,0,0,1.5,1.6,29.5,29.5,0,0,0,4.5-5.5Zm146.5,5-1.3-1.4-2.7-3a1.2,1.2,0,0,1-.1-1.7c.6-1.1,1.3-2.2,1.9-3.4a1.1,1.1,0,0,1,1.4-.6,18.3,18.3,0,0,1,5.4,2.4c.6.4.9.7,1,1.2a2.4,2.4,0,0,1-.6,1.4l-.7.9a19.9,19.9,0,0,1-4.1,4.1Zm-1.2-9.6a.5.5,0,0,0-.5.4l-1.9,3.3c-.3.5-.3.8.1,1.1l2.6,3,1,1.1a16.5,16.5,0,0,0,3.7-3.8l.8-.9a1.9,1.9,0,0,0,.4-1c0-.3-.3-.6-.7-.8a20.7,20.7,0,0,0-5.3-2.4ZM135.7,178h-.2a23.6,23.6,0,0,1-4.8-5.2l-.2-.3a1.1,1.1,0,0,1,.4-1.7,16.8,16.8,0,0,1,5.9-2.7c.8-.2,1.1.2,1.2.5l.2.3c2.6,4.5,2.6,4.8-2.3,9.1Zm1.5-9.5H137a18,18,0,0,0-5.8,2.6c-.4.4-.5.6-.2,1l.2.3a20.8,20.8,0,0,0,4.5,4.9c4.5-3.9,4.5-4,2-8.2-.1-.1-.1-.3-.2-.4S137.4,168.5,137.2,168.5Zm39.4,6.8a16.5,16.5,0,0,1-3-.4,14.2,14.2,0,0,1-7.2-4.7c-4.1-4.7-3.4-11.8,1.6-16.1a11.4,11.4,0,0,1,15.7,1.1c2.6,2.9,3.6,6.5,3.1,11v.4l-.4-.2a5.8,5.8,0,0,0-4.3-1.1,3.1,3.1,0,0,0-2.1,1.8,3.1,3.1,0,0,0-.3,2.6c.4,1.2,1.5,2.2,3.2,3.1l.5.2-.4.3A12,12,0,0,1,176.6,175.3ZM175.2,152a10.7,10.7,0,0,0-6.9,2.5,11,11,0,0,0-1.5,15.4,13.8,13.8,0,0,0,7,4.4,10.4,10.4,0,0,0,8.4-1.2,5.7,5.7,0,0,1-3-3.2,3.8,3.8,0,0,1,.3-3.1,3.6,3.6,0,0,1,2.5-2,6,6,0,0,1,4.3.9,12.6,12.6,0,0,0-3-10.1A10.7,10.7,0,0,0,175.2,152Zm156.6,23.2a10.8,10.8,0,0,1-6.4-2l-.4-.3.5-.2a5.3,5.3,0,0,0,3.1-2.7,3.4,3.4,0,0,0-.1-2.8,3.8,3.8,0,0,0-2-1.8c-1.2-.4-2.7-.1-4.4.9l-.3.2v-.4a12.3,12.3,0,0,1,4.7-12.4,11.2,11.2,0,0,1,12.4-.8,12.4,12.4,0,0,1,5.8,12c-.6,4.6-5.6,9.3-10.7,10.2Zm-5.6-2.2a10,10,0,0,0,7.6,1.5c4.9-.8,9.7-5.3,10.2-9.7a11.6,11.6,0,0,0-5.5-11.4c-3.9-2.2-7.9-1.9-11.8.7a11.9,11.9,0,0,0-4.5,11.5,6.4,6.4,0,0,1,4.5-.8,4.4,4.4,0,0,1,2.5,5.4A5.9,5.9,0,0,1,326.2,173Zm-129.4.2a11.5,11.5,0,0,1-7.3-2.6,2,2,0,0,1-.8-2.7,12.6,12.6,0,0,0,0-9l-.2-.4h.5c5.2.6,8.3-1.3,9-5.4a6.7,6.7,0,0,0-5.4-7.5c-3.9-.8-6.8,1.7-8,6.9v.3l-1.1-.6-1.9-1.1c-.8-.3-.7-1-.7-1.5.7-7.1,2.8-12.6,6.4-17s9.5-5.6,14.4-1.6,9.9,11.7,10.5,19.1a25,25,0,0,1-5.6,18.1A12.5,12.5,0,0,1,196.8,173.2Zm-7.4-14a13.5,13.5,0,0,1-.1,8.9c-.4.9-.3,1.4.6,2.1,5,4,12,3,16.2-2.2a25.2,25.2,0,0,0,5.4-17.8c-.5-7.2-4.1-13.6-10.2-18.6s-9.8-3.3-13.7,1.4-5.6,9.8-6.2,16.8q-.2.8.3.9l2,1.1.5.3c1.3-5.2,4.4-7.7,8.6-6.9a7,7,0,0,1,5.7,8C197.9,157.5,194.5,159.7,189.4,159.2Zm87.5,14V173a23.1,23.1,0,0,1-3-6.1,1.9,1.9,0,0,1-.2-.8c.1-.9,1.5-1.9,2.2-2.2s2.8-1.3,3.6-.9a1.1,1.1,0,0,1,.6,1h0a46.3,46.3,0,0,0,1.5,5.1,1.2,1.2,0,0,1-.6,1.5l-2.6,1.7Zm1.9-9.7a6,6,0,0,0-2.8.9c-1,.6-1.8,1.3-1.8,1.8s0,.4.1.5a23.3,23.3,0,0,0,2.8,5.7l.9-.5,2.6-1.7c.4-.2.5-.4.3-.8a45.6,45.6,0,0,1-1.4-5.2h0c-.1-.3-.1-.5-.3-.6Zm32.8,9.6a11.9,11.9,0,0,1-7.2-2.3,18.3,18.3,0,0,1-5.9-8.3c-4.5-11.2-2.3-20.8,6.9-30.3a20.7,20.7,0,0,1,2.7-2,9,9,0,0,1,11.8,1.1c2.4,2.1,4.1,4.9,5.6,9a37.2,37.2,0,0,1,2.1,9.2,1.8,1.8,0,0,1-1.2,2l-1.5.9-.7.4-.4.2v-.4c-1-5-3.8-7.6-7.7-6.9a6.6,6.6,0,0,0-5.6,7.3c.6,4.2,3.6,6.1,8.8,5.6h.2v.2a1.1,1.1,0,0,1-.1,1.1.4.4,0,0,1-.1.3,11.9,11.9,0,0,0,.4,7.7c.5,1.3,0,2-.9,2.8A11.8,11.8,0,0,1,311.6,173.1Zm1.8-44a9.4,9.4,0,0,0-5,1.5,15.1,15.1,0,0,0-2.6,2c-9,9.3-11.2,18.7-6.8,29.7a17.8,17.8,0,0,0,5.7,8,11.4,11.4,0,0,0,13.8-.1,1.5,1.5,0,0,0,.6-2.1,12.4,12.4,0,0,1-.3-8.1c0-.1.1-.2.1-.3a1.7,1.7,0,0,0,.2-.5c-5.4.5-8.6-1.7-9.3-6.1a7.3,7.3,0,0,1,6.1-8c4.1-.6,7.2,2,8.3,7l.4-.2a8.3,8.3,0,0,1,1.6-.9,1.2,1.2,0,0,0,.8-1.5,32.4,32.4,0,0,0-2-9,22.5,22.5,0,0,0-5.4-8.8A9.2,9.2,0,0,0,313.4,129.1ZM231.6,173H231l-1.2-.7a7.1,7.1,0,0,1-2.6-1.8c-.6-1-.2-1.9.2-2.9a4.4,4.4,0,0,0,.5-1.5,4.3,4.3,0,0,1,.1-.5v-.2c.3-1.2.5-2,1.1-2.3s1.4,0,2.6.5l1.1.5c2.1,1.3,2.2,1.9,1.3,4.1l-1.5,3.2-.3.4a2.2,2.2,0,0,1-.5.8l-.2.4Zm-1.8-9.5h-.3c-.4.2-.6.7-.9,1.9v.2a.9.9,0,0,0-.1.5,7,7,0,0,1-.6,1.7c-.4.8-.7,1.6-.2,2.2a5.8,5.8,0,0,0,2.3,1.7l1.3.7h0c.1-.1.1-.2.2-.2a4.3,4.3,0,0,1,.4-.7l.2-.5c.6-1,1.1-2.1,1.6-3.1s.7-2.3-1.1-3.4l-1-.5A4.9,4.9,0,0,0,229.8,163.5Zm-47.5,5.8a1.3,1.3,0,0,1-1.4-1.3,1.3,1.3,0,0,1,1.3-1.5h0c.9.1,1.4.5,1.5,1.3a1.6,1.6,0,0,1-.3,1.1,1.9,1.9,0,0,1-1,.5Zm0-2.3c-.6.1-.9.4-.8.9a.7.7,0,0,0,.8.8.9.9,0,0,0,.7-.3c.1-.1.1-.4.1-.6A.7.7,0,0,0,182.3,167Zm143.8,2.3a1.4,1.4,0,0,1-1.4-1.4c0-.8.4-1.4,1.2-1.4s1.4.3,1.6,1.3h0C327.4,168.8,326.9,169.3,326.1,169.3Zm0-2.3H326c-.5.1-.8.4-.7.9a.7.7,0,0,0,.8.8c.3,0,.8-.1.9-.9S326.5,167,326.1,167Zm-163.8-9.5h-.7c-2.1-.3-3.3-1.4-3.9-3.7a66.3,66.3,0,0,1-3-13.9,17.5,17.5,0,0,1,.5-7.1v-.2c.2-.7.4-1.5,1.4-1.6s1.3.6,1.7,1.1v.2l1.4,2,.7,1.1.6.7c1.1,1.5,2.4,2.2,3.5,2s2.1-1.2,2.7-2.9a13.3,13.3,0,0,0,1-5.4V116.6a39.6,39.6,0,0,1,.9-9.2,10.4,10.4,0,0,1,4.8-7,2.9,2.9,0,0,1,2.7-.5c.7.3,1.1,1.1,1.3,2.3a17.2,17.2,0,0,1-.6,6.4v.4a22.4,22.4,0,0,0-.5,5.2c.2,1.9,1.2,3.2,2.7,3.4a3.6,3.6,0,0,0,4.1-2.1,31.2,31.2,0,0,0,1.5-3.9c.8-2.5,1.5-5.1,2.3-7.6,1.2-4.3,2.5-8.8,4-13.1a35.9,35.9,0,0,1,4.8-9.1c3.5-4.8,8.9-5.6,14.4-2.2,2.5,1.5,3.6,4.1,3.2,7.3a16.3,16.3,0,0,1-6,10.9l-1.6,1.3c-2.8,2.2-5.7,4.5-8.4,7a36.9,36.9,0,0,0-7.6,9.1,15.8,15.8,0,0,0-2.4,6.5c-.1,1.1-.6,1.7-1.7,1.7l-1.5.3h-1l-.5.3v.3c.1.7.3.9.7.8h.6a3.9,3.9,0,0,0,1.5-.2,1.7,1.7,0,0,1,1.6.1,1.9,1.9,0,0,1,.9,1.3,2,2,0,0,0,.4.8l.3.5v.2l-.2.2a19.7,19.7,0,0,0-7.9,9.6,31.5,31.5,0,0,0-2.5,12.1v.3h-4.3a13.7,13.7,0,0,0-10.4,6.5C163.4,157.3,163,157.5,162.3,157.5Zm-5.5-26h-.1c-.5.1-.7.6-.9,1.2v.3a16.4,16.4,0,0,0-.5,6.9,79.7,79.7,0,0,0,3,13.7c.6,2.1,1.6,3.1,3.5,3.3s1.3.1,1.8-.7a14.2,14.2,0,0,1,10.8-6.8,14.1,14.1,0,0,1,2.9.1h.9a31,31,0,0,1,2.6-12,20.1,20.1,0,0,1,7.9-9.8c-.1,0-.1-.1-.2-.2a9.3,9.3,0,0,1-.5-1,1.3,1.3,0,0,0-.5-.9,1.4,1.4,0,0,0-1.3,0l-1.5.2h-.7c-1,.1-1.2-.8-1.3-1.2s0-.7.2-.9a1.1,1.1,0,0,1,.9-.4l.9-.2,1.5-.2c.8-.1,1.1-.4,1.3-1.3a16.5,16.5,0,0,1,2.4-6.7,36.1,36.1,0,0,1,7.7-9.2c2.7-2.5,5.6-4.8,8.5-7.1l1.5-1.2a15,15,0,0,0,5.8-10.6,6.4,6.4,0,0,0-2.8-6.7c-2.6-1.6-8.9-4.5-13.7,2a36.7,36.7,0,0,0-4.7,9c-1.6,4.3-2.9,8.7-4.1,13-.7,2.5-1.5,5.1-2.3,7.7a32.5,32.5,0,0,1-1.5,4,4.4,4.4,0,0,1-4.7,2.4c-1.8-.3-2.9-1.8-3.1-3.9a16,16,0,0,1,.5-5.4v-.5a15.7,15.7,0,0,0,.5-6.1,2.2,2.2,0,0,0-1-1.9,2.5,2.5,0,0,0-2.1.4,9.9,9.9,0,0,0-4.5,6.7,34.6,34.6,0,0,0-1,9.1c.1,1.3.1,2.6.1,3.9v9.3a19.2,19.2,0,0,1-1,5.6c-.8,1.9-1.9,3-3.2,3.2s-2.7-.5-4-2.1l-.7-.8-.7-1.1c-.5-.7-.9-1.4-1.4-2h-.1C157.6,131.9,157.2,131.5,156.8,131.5Zm32.9,21.3h-.1a2.3,2.3,0,0,1-2.2-2.4,2.1,2.1,0,0,1,.8-1.6,2.3,2.3,0,0,1,3.9,1.8h0a2.5,2.5,0,0,1-.8,1.6A2.3,2.3,0,0,1,189.7,152.8Zm0-4a1.9,1.9,0,0,0-1.2.4,1.9,1.9,0,0,0-.5,1.3,1.7,1.7,0,0,0,1.6,1.8,1.9,1.9,0,0,0,1.3-.5,1.4,1.4,0,0,0,.6-1.2,1.7,1.7,0,0,0-1.6-1.8Zm129,4a2.5,2.5,0,0,1-1.7-.6,2.4,2.4,0,0,1-.7-1.7,2.8,2.8,0,0,1,.7-1.7,2.7,2.7,0,0,1,1.7-.6,2.3,2.3,0,1,1,0,4.6Zm0-4a1.5,1.5,0,0,0-1.3.5,1.7,1.7,0,0,0-.5,1.2,1.9,1.9,0,0,0,.5,1.3,2.1,2.1,0,0,0,1.3.5,1.8,1.8,0,0,0,1.7-1.8,1.6,1.6,0,0,0-1.7-1.7Zm14.8,1.2h-3.7v-.3c-.1-.4-.1-.9-.2-1.3a31.2,31.2,0,0,0-.5-4.4,26.7,26.7,0,0,0-3.6-9.6,4.2,4.2,0,0,1-.6-3.3A229.7,229.7,0,0,0,328,93.8a80.1,80.1,0,0,0-2.1-20,28.5,28.5,0,0,0-1.3-4.1,1.3,1.3,0,0,1,.9-2l.7-.3a5.4,5.4,0,0,0,2.2-1.5,13.1,13.1,0,0,0-5.2.7l-3.5,1a40,40,0,0,1-5.7,1.5,16.4,16.4,0,0,1-3.8.2,4,4,0,0,1-4-3.8,8.3,8.3,0,0,1,2.6-6.8c3-3.1,7-4.2,12.2-3.4,6.7,1.1,11.4,4.9,14.1,11.3a40.3,40.3,0,0,1,3.1,15.3,97.4,97.4,0,0,1-2.4,24.8v.3a2,2,0,0,0-.1.7c.5.1.9-.3,1.3-.7h.1a23.9,23.9,0,0,0,2.8-3.5l.7-1a62.5,62.5,0,0,1,4-5.4,10.5,10.5,0,0,1,6.3-3.6,3.7,3.7,0,0,1,4.1,1.5,3.8,3.8,0,0,1-.1,4.8,33.5,33.5,0,0,1-4.1,4.3l-1,1h-.2a68.3,68.3,0,0,0-7.3,7.9,18,18,0,0,0-3.5,7.3,6.8,6.8,0,0,0-.2,1.5v.4c0,.5,0,.8.4,1a1.8,1.8,0,0,0,1.7-.3,23.2,23.2,0,0,1,7.8-4,3.5,3.5,0,0,1,3.5.8,3.6,3.6,0,0,1,.9,4.3,7.2,7.2,0,0,1-2.8,3.2,31.6,31.6,0,0,0-9,8.1,1.7,1.7,0,0,1-2.1.8,5.7,5.7,0,0,0-2.6,0,2.9,2.9,0,0,0-2.5,2l4.7.4v.4a10.1,10.1,0,0,0-.7,1.5l-1.5,3.3a23.4,23.4,0,0,0-1.4,4.9h-.1C334.6,149.2,334.5,150,333.5,150Zm-1.4-.6h1.4c.5,0,.6-.2.7-.8h0a29.6,29.6,0,0,1,1.5-5c.5-1.1.9-2.2,1.5-3.3a6.1,6.1,0,0,1,.5-1.2l-4.6-.4v-.3a3.5,3.5,0,0,1,3-2.8,5.2,5.2,0,0,1,2.8.1,1.3,1.3,0,0,0,1.5-.6,32.9,32.9,0,0,1,9.2-8.3,6.4,6.4,0,0,0,2.6-3,3,3,0,0,0-.8-3.6,2.7,2.7,0,0,0-2.9-.6,20.8,20.8,0,0,0-7.6,3.8,2.2,2.2,0,0,1-2.3.4c-.8-.3-.8-1-.7-1.6v-.3a7.8,7.8,0,0,1,.2-1.6,16.9,16.9,0,0,1,3.5-7.5,63.4,63.4,0,0,1,7.5-8v-.2l1-.9a31.9,31.9,0,0,0,4-4.2,3.2,3.2,0,0,0,.1-4.2c-.7-1.2-1.8-1.5-3.5-1.2a9.8,9.8,0,0,0-6,3.4c-1.4,1.7-2.7,3.6-4,5.4l-.7,1a22.6,22.6,0,0,1-2.8,3.5h-.1a2.2,2.2,0,0,1-1.9.9h-.2a1.3,1.3,0,0,1,0-1.2v-.3a88.5,88.5,0,0,0,2.4-24.7c-.2-6.1-1.1-10.9-3-15.1-2.6-6.2-7.2-9.9-13.7-10.9s-8.8.2-11.7,3.2a7.3,7.3,0,0,0-2.4,6.3,3.5,3.5,0,0,0,3.4,3.3,15.3,15.3,0,0,0,3.7-.1c1.9-.4,3.8-1,5.6-1.5L323,66a16.8,16.8,0,0,1,5.9-.7h.4l-.2.3a4.3,4.3,0,0,1-2.7,2.2l-.7.3c-.7.3-.9.5-.5,1.3s.9,2.6,1.3,4.1a82.1,82.1,0,0,1,2.1,20.2,220.3,220.3,0,0,1-3.2,37.4,3.6,3.6,0,0,0,.6,2.9,29,29,0,0,1,3.7,9.8,34.9,34.9,0,0,1,.5,4.4c0,.4.1.7.1,1.1h1.8ZM200.3,127.9h-.5a12.1,12.1,0,0,0-8-.7.9.9,0,0,1-1-.5l-.2-.2h.2a2.8,2.8,0,0,1,1.4-.6,2,2,0,0,0,1.1-.3,5,5,0,0,1,6.3-.1c0-1-.5-1.2-1.3-1.6l-.9-.5-.3-.2.2-.3,2-1.8a33.5,33.5,0,0,1,4-3.3,1.9,1.9,0,0,1,2.2-.1,2.7,2.7,0,0,1,1,2.4,3.9,3.9,0,0,1-.9,2.3,31.6,31.6,0,0,1-3.7,4.5l-.7.7A1.3,1.3,0,0,1,200.3,127.9Zm-5.5-1.7a13,13,0,0,1,5.2,1c.3.2.5.1.8-.2l.7-.7a32.8,32.8,0,0,0,3.7-4.5,4.1,4.1,0,0,0,.8-1.9,2.5,2.5,0,0,0-.9-2c-.4-.3-.9-.2-1.5.2a20.2,20.2,0,0,0-3.9,3.2l-1.7,1.6.6.3a2.1,2.1,0,0,1,1.5,2.6v.4l-.4-.2c-2.1-1.6-4-1.6-6-.1l-1.3.4-.9.2h.2Z" fill="#7f7f7f"/><path d="M299.6,127.7a1.5,1.5,0,0,1,.3-2.1,15.8,15.8,0,0,1,8.2-4l6-1c.6-.1,1-.1,1.1.6s.1,1.2-.7,1.3l-4.5.9C304.6,124.2,303.7,124.6,299.6,127.7Z" fill="#7f7f7f"/><path d="M299.5,128.1l-.2-.2a2,2,0,0,1,.4-2.5,15.9,15.9,0,0,1,8.3-4.1l3.5-.6,2.5-.4a1.4,1.4,0,0,1,1.1.1,1,1,0,0,1,.4.8,1.2,1.2,0,0,1-.9,1.6l-1.4.3-3.2.6c-5.3.8-6.3,1.2-10.2,4.2Zm15-7.3h-.4l-2.5.4-3.4.6a15.1,15.1,0,0,0-8.1,3.9,1.3,1.3,0,0,0-.4,1.5c3.9-3,4.9-3.4,10.2-4.2a30.3,30.3,0,0,0,3.2-.6l1.3-.2c.5-.1.7-.4.6-1.1s-.1-.3-.2-.3Z" fill="#7f7f7f"/><path d="M323.3,178.6a4.5,4.5,0,0,1,3.4,3.4,1.9,1.9,0,0,1-1.3,2.4,1.7,1.7,0,0,1-2.3-1A4.4,4.4,0,0,1,323.3,178.6Z" fill="#7f7f7f"/><path d="M324.7,184.8a2.2,2.2,0,0,1-1.9-1.3,4.9,4.9,0,0,1,.2-5.1l.2-.2h.2c2,.7,3.2,1.8,3.5,3.6a2.2,2.2,0,0,1-1.4,2.8Zm-1.3-5.9a4.2,4.2,0,0,0-.1,4.3c.6,1,1.2,1.3,2,.9s1.3-1,1.1-2.1S325.2,179.6,323.4,178.9Z" fill="#7f7f7f"/><path d="M319.3,180.7a3.8,3.8,0,0,1-1.3,3,1.8,1.8,0,0,1-2.4.2,1.6,1.6,0,0,1-.7-2.2,4.1,4.1,0,0,1,2-2.5C318.7,178.3,319.3,178.7,319.3,180.7Z" fill="#7f7f7f"/><path d="M316.6,184.6a3,3,0,0,1-1.1-.4,2,2,0,0,1-.9-2.6,4.1,4.1,0,0,1,2.2-2.6c1-.6,1.6-.7,2.1-.4s.7.9.7,2.1a4.5,4.5,0,0,1-1.4,3.2A2.6,2.6,0,0,1,316.6,184.6Zm1.8-5.6a3.1,3.1,0,0,0-1.3.5,3.8,3.8,0,0,0-2,2.3,1.5,1.5,0,0,0,.7,1.9,1.4,1.4,0,0,0,2-.2,3.4,3.4,0,0,0,1.2-2.8h0c0-.9-.1-1.5-.4-1.6Z" fill="#7f7f7f"/><path d="M185,178.6a4.2,4.2,0,0,1,.2,5,1.6,1.6,0,0,1-2.2.8,1.8,1.8,0,0,1-1.3-2.1A4.3,4.3,0,0,1,185,178.6Z" fill="#7f7f7f"/><path d="M183.7,184.8h-.8a2.2,2.2,0,0,1-1.5-2.5c.2-1.8,1.4-3.1,3.5-3.9h.3a4.4,4.4,0,0,1,.2,5.3A2,2,0,0,1,183.7,184.8Zm1.2-5.9a4,4,0,0,0-2.9,3.4,1.6,1.6,0,0,0,3,1.1A3.9,3.9,0,0,0,184.9,178.9Z" fill="#7f7f7f"/><path d="M189.1,180.7c0-2.1.6-2.4,2.5-1.4a4.5,4.5,0,0,1,2,2.5,1.8,1.8,0,0,1-.8,2.1,1.8,1.8,0,0,1-2.3-.1A3.8,3.8,0,0,1,189.1,180.7Z" fill="#7f7f7f"/><path d="M191.8,184.6a2,2,0,0,1-1.4-.6,3.9,3.9,0,0,1-1.6-3.3h0c0-1.2.2-1.8.7-2.1s1.1-.1,2.2.4a4.1,4.1,0,0,1,2.1,2.7,2.1,2.1,0,0,1-.8,2.5A2.8,2.8,0,0,1,191.8,184.6ZM190,179h-.2c-.3.1-.4.7-.4,1.6h0a3.8,3.8,0,0,0,1.3,2.9,1.7,1.7,0,0,0,2,.1,1.5,1.5,0,0,0,.6-1.8,4.1,4.1,0,0,0-1.9-2.4A3.9,3.9,0,0,0,190,179Z" fill="#7f7f7f"/><path d="M160.8,149.2c-.7-2.7.2-4.6,2.2-5.5a13.4,13.4,0,0,1,5.9-1.3,3.3,3.3,0,0,1,3.3,2.5,17.5,17.5,0,0,1-4,.4c-2.1.2-4.2.5-5.1,3S161.6,148.6,160.8,149.2Z" fill="#7f7f7f"/><path d="M160.6,149.6v-.4c-.7-2.7.2-4.8,2.4-5.8a14.3,14.3,0,0,1,6-1.3,3.5,3.5,0,0,1,3.6,2.7v.3h-.2a15.5,15.5,0,0,1-2.9.4h-1.1c-2.4.2-4.1.5-4.9,2.8-.3.7-1,.7-1.5.8a1.6,1.6,0,0,0-1,.2Zm7.7-7a13.2,13.2,0,0,0-5.1,1.3,3.9,3.9,0,0,0-2.2,4.8h.9c.5,0,.8,0,1-.4.9-2.8,3.3-3,5.3-3.1h1.2a9.9,9.9,0,0,0,2.4-.3c-.4-1.3-1.3-1.9-2.9-2Z" fill="#7f7f7f"/><path d="M361.7,386.8c.2.3.5.2.8.3,2.2.7,3.1,2.5,3.3,4.7a1.7,1.7,0,0,1-.1,1,3.9,3.9,0,0,0,.2,2.6,2,2,0,0,1,.2,1.1v1.7a3.5,3.5,0,0,1-1.3,2.9,3.2,3.2,0,0,1-1.3,1A3.1,3.1,0,0,1,360,401a5.1,5.1,0,0,1-1.3-3.3,7.2,7.2,0,0,1,.7-3.3,1.2,1.2,0,0,0-.1-1.5,11.4,11.4,0,0,0-1.1-1.1,1.3,1.3,0,0,0-1.9-.1,11.3,11.3,0,0,0-3.3,3.9,31.4,31.4,0,0,0-2.9,13.5,3.2,3.2,0,0,1-.2,1.3,4.3,4.3,0,0,0,0,1.6,1.1,1.1,0,0,0,.9,1.1h5.8a1.9,1.9,0,0,1,1.7.6.6.6,0,0,0,.7.1l.6-.2c1.4-1,3.2-1.4,4.6-2.4l.5-.2a.9.9,0,0,1,1.1.7v.4c-.1,2.7.1,5.4.1,8s0,6.1,0,9.1,0,5.9-.1,8.9v1.8a24.4,24.4,0,0,0,.1,2.7.8.8,0,0,0,.7.8h1.8c1.5-.1,1.7.7,1.7,1.9s-.4,1.5-1.4,1.5H341c-.6-.1-.9-.3-.9-1v-1.4a.9.9,0,0,1,.7-.9h2.5c.6-.1.9-.3,1-.9v-22a2.2,2.2,0,0,0-1-2l-2.8-1.9-.4-.3c-.6-.4-.6-.9-.1-1.5a5.4,5.4,0,0,1,1.6-1.4,19.5,19.5,0,0,0,2.3-1.7,1.2,1.2,0,0,0,.4-.8,29.3,29.3,0,0,0,.5-2.9,24,24,0,0,1,1-4.8,35.4,35.4,0,0,1,3.5-8.5,10.7,10.7,0,0,1,2.5-3.1l1.2-1.4a12.8,12.8,0,0,1,5.3-3,1.4,1.4,0,0,0,1.2-.4Zm-11.9,43.5h0c0,2,.1,3.9,0,5.8s.1,1.8.1,2.7a19.3,19.3,0,0,0,0,3.4,1.1,1.1,0,0,0,1,1.2h7.4c1.8,0,1.8,0,1.8-2V421.1a2.2,2.2,0,0,0-.5-1.2l-2.3-1.9a2.8,2.8,0,0,0-2-.6h-4c-1-.1-1.5.5-1.5,1.5s0,.4,0,.6Z" fill="#7f7f7f"/><path d="M407.4,438.6c-.5.5-.3,1.1-.5,1.7a8.5,8.5,0,0,1-.9,2.2l-1.2,1.8a4.9,4.9,0,0,1-1.3,1.2l-1.8,1.1a8.9,8.9,0,0,1-5.3,1,12,12,0,0,1-4.2-1.2,11.8,11.8,0,0,1-1.8-1.3l-.5-.5a1.8,1.8,0,0,1-.9-1.8c0-.3,0-.8-.2-.8s-.4.4-.5.6a11,11,0,0,1-4.4,4.4,4.6,4.6,0,0,1-2,.5,6.5,6.5,0,0,1-6.5-2.4,8.7,8.7,0,0,1-1.6-3,10.8,10.8,0,0,1-.6-4c.1-1.5.1-3,.1-4.5s-.1-3.3-.1-5a5.5,5.5,0,0,1,.2-1.8,4.9,4.9,0,0,0,.1-1.2c0-1.9-.1-3.7,0-5.6a2.5,2.5,0,0,0-1.6-2.5l-1.7-.7a3.4,3.4,0,0,1-1.1-.7.7.7,0,0,1-.1-1.1,10.7,10.7,0,0,1,1.4-1.6l6.9-7.4c0-.1,0-.1.1-.1a.6.6,0,0,1,.7-.4.8.8,0,0,1,.5.8c-.1.9.2,1.9.1,2.8v2.7h0c.1,1,.2,1.2,1.1,1.2h8a.8.8,0,0,1,.5,1.2,14.2,14.2,0,0,0-.8,1.8,1.5,1.5,0,0,1-1.4,1.1h-6.7a.8.8,0,0,0-.7,1,16.1,16.1,0,0,1,0,2.2,58.6,58.6,0,0,1-.1,5.9c.2,3.4.1,6.7.1,10.1a7.2,7.2,0,0,0,1.4,4.1,4.8,4.8,0,0,0,2.3,1.3h1.7a7.8,7.8,0,0,0,4-2.1,2.9,2.9,0,0,0,.9-2,7.5,7.5,0,0,1,0-1.5,1.2,1.2,0,0,1,.3-.9c.2-.3.5-.3.6,0a11.9,11.9,0,0,1,.8,1.6,14.8,14.8,0,0,0,2.1,3.4,6.9,6.9,0,0,0,1.9,1.9,6,6,0,0,0,3.6,1.2,6.4,6.4,0,0,0,2.6-1l.4-.5a8.1,8.1,0,0,0,1.2-3.5.7.7,0,0,0-.1-.5,6.1,6.1,0,0,0-3.2-5l-3.4-2a20.1,20.1,0,0,1-2.7-1.7,9.6,9.6,0,0,1-2.9-4,7,7,0,0,1-.5-2.5c-.3-2-.1-2,.2-4a10.1,10.1,0,0,1,2.2-4.8,8.8,8.8,0,0,1,2.8-2.2,14.3,14.3,0,0,1,2.8-.7,2.2,2.2,0,0,1,.8,0,9.5,9.5,0,0,1,3.9,1.6c1.2.9,1,1.1,2.2,0l.9-.8a.7.7,0,0,1,1,.4c0,.2.1.4.1.6v9.2a1.4,1.4,0,0,1-.2.6.4.4,0,0,1-.7.2,2.2,2.2,0,0,1-.5-.8,26.6,26.6,0,0,0-2.9-4.5,6.7,6.7,0,0,0-4-2.6,2,2,0,0,0-1.5.2c-1.9,1-2.7,2.8-2.2,5.2a5.1,5.1,0,0,0,1.7,2.9,14.6,14.6,0,0,0,3.3,2.2c1.3.7,2.6,1.6,3.8,2.4a8.6,8.6,0,0,1,3.7,5.5l.3.4Z" fill="#7f7f7f"/><path d="M168.3,329.9a2.7,2.7,0,0,1,2.2-.6,11.1,11.1,0,0,0,2.6-.1h.2a17.8,17.8,0,0,0,4,0,10.5,10.5,0,0,0,2.5,0h.6a16.9,16.9,0,0,0,2.3.1,3.3,3.3,0,0,1,1.7,0h.7c1.1-.3,2.1.1,3.1,0s1.3.1,1.9,0h1.5a15,15,0,0,0,3,0h.6a2.6,2.6,0,0,0,2.1-.5,4.7,4.7,0,0,0,.9-.6,1.8,1.8,0,0,1,.9-.4c.6-.1.9.1.9.7v13.9a1,1,0,0,1-.4.5q-.3.1-.6-.3l-1.9-3.3a37,37,0,0,0-2.5-4.3,2.5,2.5,0,0,1-.4-.7,1.4,1.4,0,0,0-1.7-1.2c-.1.1-.2,0-.4,0h-10c-1.7.1-1.7.1-1.7,1.9s0,2.9.1,4.4-.1,1.9-.1,2.9c.1,3.2,0,6.3,0,9.5v.5a1.5,1.5,0,0,0,1.1,1.2h6a1.8,1.8,0,0,0,1.7-1l2.8-4.9.7-1.2.5-.2c.2.1.4.2.4.5a1.9,1.9,0,0,1,.1.8v16.4a1,1,0,0,1-.4.7h-.4c-.1-.1-.2-.2-.2-.3a22.5,22.5,0,0,1-1.2-2.1c-.6-1.2-1.3-2.2-1.9-3.4a2.4,2.4,0,0,0-2.5-1.6h-5.7a1.2,1.2,0,0,0-1,1v.7c.2,2.2-.1,4.4,0,6.5a5.7,5.7,0,0,0,.1,1.3v.5c-.3,3.4,0,6.7-.1,10.1,0,.8.1.9.8,1.2a3,3,0,0,0,1.3.2h4.6a1.1,1.1,0,0,1,.8.9,7.4,7.4,0,0,1,0,2.1c-.1.4-.4.6-.9.7H170.2a2.7,2.7,0,0,1-1.9-.6v-2.5a1.9,1.9,0,0,1,1.7-.6,22.5,22.5,0,0,1,2.6,0h.7c1-.3,1.1-.3,1.1-1.4a.9.9,0,0,1-.1-.5c.1-13.9.1-27.8.1-41.7a3.1,3.1,0,0,0-.1-1c0-.5-.2-.8-.7-.8h-3.5a1.4,1.4,0,0,1-1.3-.6l-.5-.3Z" fill="#7f7f7f"/><path d="M313.6,349.5V374c0,1.5,0,1.5,1.2,2.4s1,.8,1.6,1.1l1.3.7c.2.2.5,0,.5-.4a3.7,3.7,0,0,0,.1-1.1v-4.5c0-.4-.1-.8.1-1.1l.3-.3c.1,0,.3.1.3.2l1.1,2.1a14,14,0,0,0,2.6,3.9,6.6,6.6,0,0,0,2.3,1.7,4.8,4.8,0,0,0,3.1.4,3.8,3.8,0,0,0,2.6-1.8,5.9,5.9,0,0,0-.1-6.5,5.8,5.8,0,0,0-1.5-1.6l-3.1-1.9a15.8,15.8,0,0,1-5.3-4,8.6,8.6,0,0,1-1.3-2.3,11.6,11.6,0,0,1-.6-5.5,11.1,11.1,0,0,1,1.7-4.7,9.2,9.2,0,0,1,3.6-3.2,6.6,6.6,0,0,1,6.5.3l1.3.8c.7.5.9.5,1.7-.1a9.4,9.4,0,0,1,1.2-.9.5.5,0,0,1,.8.4,15.5,15.5,0,0,1,.1,4.3c0,.2-.1.4,0,.6s0,3.2.1,4.9a1.1,1.1,0,0,1-.1.5.8.8,0,0,1-.5.5.5.5,0,0,1-.5-.3c-.3-.6-.7-1.2-1-1.9a17.1,17.1,0,0,0-3.2-4.4,6.3,6.3,0,0,0-2.7-1.6,2.8,2.8,0,0,0-1.3.1h-.1a3.4,3.4,0,0,0-2.3,1.9,4.8,4.8,0,0,0-.3,3.9,8.2,8.2,0,0,0,1.2,2,11.9,11.9,0,0,0,3.1,2.3,26.2,26.2,0,0,1,5.4,3.5,9.3,9.3,0,0,1,2.2,2.9,9,9,0,0,1,.9,3.3v3a1.9,1.9,0,0,1-.1.8,13.4,13.4,0,0,1-1.6,3.9,9.5,9.5,0,0,1-6.8,4.8,10.3,10.3,0,0,1-4.6-.4,12.9,12.9,0,0,1-4.4-2.5,1.5,1.5,0,0,0-1.8-.2l-5.5,2.4-2.9,1.1a.6.6,0,0,1-.8-.6,11.3,11.3,0,0,1-.1-2.6c.1-.5-.2-.8-.8-.8s-.6.1-.9.3a11.7,11.7,0,0,1-4.1,2.7,8.1,8.1,0,0,1-4.6.5,8.8,8.8,0,0,1-4.2-1.8,13.9,13.9,0,0,1-4.6-6.5,25.9,25.9,0,0,1-1.2-4.8,21.8,21.8,0,0,1-.2-5.1,20.5,20.5,0,0,1,1.7-7.7,25.6,25.6,0,0,1,1.1-2.4,16.5,16.5,0,0,1,3.8-4.5,11.6,11.6,0,0,1,4.1-2.5,12.9,12.9,0,0,1,4.7-.8,28.9,28.9,0,0,1,2.9.4l1,.3c1.1.3,1.2.1,1.3-1s-.1-2.1,0-3.1a13.1,13.1,0,0,0,0-2.8,19.7,19.7,0,0,1,0-4.2,5.4,5.4,0,0,0,0-1.8V333a2,2,0,0,0-1.1-2.2c-1.3-.6-2.3-1.6-3.6-2.2s-.3-.1-.3-.2a.7.7,0,0,1,0-1l.3-.2c2.6-1.1,5-2.6,7.7-3.7l.9-.4.8-.2c.3-.1.5.1.7.4a3.6,3.6,0,0,1,.2,1.4v24.8Zm-20.2,14.7h0v1.5a16.2,16.2,0,0,0,.8,4.9c.2.6.6,1.2.8,1.9a8.5,8.5,0,0,0,1.9,3,9.2,9.2,0,0,0,5.4,2.8,2.6,2.6,0,0,0,1.5-.1l1.7-.6a5.1,5.1,0,0,0,2-1.6,1.9,1.9,0,0,0,.3-.8,8.6,8.6,0,0,0,.2-2.3c-.2-3,0-5.9,0-8.8s-.1-3.1,0-4.6-.1-1.1,0-1.6a5.5,5.5,0,0,0-.1-1.8V355a2.4,2.4,0,0,0-.3-1.4,6.5,6.5,0,0,0-4.4-3,7.4,7.4,0,0,0-3.6.3,8.3,8.3,0,0,0-2.3,1.5,7.5,7.5,0,0,0-2.6,3.9l-.3.8a17,17,0,0,0-1,5.9Z" fill="#7f7f7f"/><path d="M130.2,397.5h-2.8a.5.5,0,0,0-.4.7,3.6,3.6,0,0,0,.2,1c.5,2.1,1.1,4.2,1.7,6.4s.7,2.4.9,3.6a14.1,14.1,0,0,0,.6,2.2c.4,1.4.7,2.9,1.1,4.3s.9,3.6,1.5,5.3.7,2.9,1.1,4.3,1.3,5.1,2,7.6l.3.5c.1.1.2.2.3,0a20.9,20.9,0,0,0,.8-2.3c.8-2.5,1.4-5,2.2-7.5l2.4-8.2,2.4-8.2,1.9-6.7c.1-.4.3-.8.4-1.2a2.4,2.4,0,0,0,.2-.8c.1-.8-.1-1-.8-1a29.4,29.4,0,0,0-4.2,0c-1.5,0-1.9-.6-1.8-2v-.5c-.1-1.2.7-1.5,1.4-1.4s2.1,0,3.1,0a14.8,14.8,0,0,0,2.1.1,4.2,4.2,0,0,0,1.6-.1h1.2a15.8,15.8,0,0,0,3.1.1H154c1.4,0,1.7.3,1.7,1.9v.7c0,.9-.3,1.2-1.1,1.2h-3a.9.9,0,0,0-.9.6l-.6,1.8-1.2,4.3-2.7,9.1c-.7,2.3-1.4,4.5-2,6.7l-1.8,5.8-1.2,4.3c-.7,2.3-1.5,4.6-2.2,7s-.7,2.8-1.2,4.3a5.8,5.8,0,0,1-.5,1.4c-.5,1.8-1,3.6-1.6,5.4a.6.6,0,0,1-.1.4.6.6,0,0,1-1,0l-.6-1.8c-.8-2.9-1.4-5.7-2.3-8.6s-1.7-6.4-2.6-9.6-2.1-7.6-3.2-11.5a1.4,1.4,0,0,0-.2-.6.2.2,0,0,0-.2-.2s-.2,0-.2.1a.8.8,0,0,0-.2.5c-.5,1.4-.9,2.8-1.4,4.3l-.9,3.2a28,28,0,0,0-.9,3.1l-3.3,10.7c-.6,2.3-1.2,4.5-1.9,6.8s-.8,2.5-1.3,3.8-.3.3-.5.1a1.5,1.5,0,0,1-.7-1l-1.8-6c-1.1-3.7-2.1-7.3-3.2-10.9l-1.2-4.2c-.3-1.2-.8-2.3-1.1-3.5s-1.6-5.4-2.4-8.2-1.7-5.5-2.5-8.3l-1.5-5.2c-.3-1.2-.7-2.3-1-3.4a1.2,1.2,0,0,0-1.1-.8,8.9,8.9,0,0,1-2.3,0h-.9a1.3,1.3,0,0,1-.7-.6,3.2,3.2,0,0,1,.2-2.7.5.5,0,0,1,.5-.3h2a16.1,16.1,0,0,1,2.2,0h2.2c1.5-.1,3.1.1,4.6,0a3.8,3.8,0,0,0,1.5-.1h.7a4.9,4.9,0,0,0,1.7,0c.9-.2,1.4.3,1.5,1.3v1.4c-.1.7-.5,1.1-1.1,1.1h-2.9a4.8,4.8,0,0,0-1.2,0c-.4,0-.6.3-.5.8l.6,2.3,1.8,6.3a30.6,30.6,0,0,1,1.3,4.3c.8,2.9,1.7,5.7,2.6,8.6s1.5,5.2,2.3,7.8l1.5,5.2.3.8c.1.1.3.2.3,0a1.6,1.6,0,0,0,.4-.7c.8-2.4,1.5-4.8,2.2-7.3s.6-2.2,1-3.3l1.9-6.7,1.5-4.9a3.1,3.1,0,0,0,0-1.9,21.7,21.7,0,0,1-.7-2.4,46.1,46.1,0,0,0-1.5-5.3,9.4,9.4,0,0,0-.4-1.6,1.9,1.9,0,0,0-.2-.8,1.5,1.5,0,0,0-1.7-1.3,4.8,4.8,0,0,1-1.7,0c-.9,0-1.2-.4-1.2-1.4v-1a1,1,0,0,1,1-1.2c1.1,0,2.3-.4,3.5-.1s.5-.1.7-.1a15.1,15.1,0,0,0,3,.1,15.8,15.8,0,0,0,3.1-.1,4.9,4.9,0,0,1,1.7.1,15.1,15.1,0,0,0,3-.1h.7a1.2,1.2,0,0,1,1,1.1v1.6a1,1,0,0,1-1.1,1.1,22.5,22.5,0,0,1-2.6,0Z" fill="#7f7f7f"/><path d="M190.4,419.5V397.2a1.8,1.8,0,0,0-1-1.9l-3.4-2-.6-.4a.7.7,0,0,1,0-.9l.8-.5a7.5,7.5,0,0,1,2-1c1.6-.6,3.1-1.6,4.7-2.2l2.3-1c.4-.2.6,0,.7.5v.5c0,1.4.1,2.9.2,4.3a10.9,10.9,0,0,1-.1,1.8,24.2,24.2,0,0,0,.2,3.8c0,.4-.1.8-.1,1.2s0,2-.1,3a11.5,11.5,0,0,0,.1,2.6,5.7,5.7,0,0,1,0,1.3,28.1,28.1,0,0,1-.1,2.9,10.9,10.9,0,0,0,.1,1.8,20.5,20.5,0,0,1-.1,3.5,11.1,11.1,0,0,0,.2,1.9c0,.6.4.8.9.5l.5-.4,1.6-1.8a9.7,9.7,0,0,1,4.3-2.9,7.2,7.2,0,0,1,4.6-.1,5.1,5.1,0,0,1,1.6.9,9.8,9.8,0,0,1,2.9,4.6,11.8,11.8,0,0,1,.4,2,30.1,30.1,0,0,1,.2,6v3.5c-.1,1.8.1,3.6,0,5.4s.1,1.7,0,2.6.1,3.3,0,5a2.8,2.8,0,0,0,.1.9.8.8,0,0,0,.7.8h2.6a1.1,1.1,0,0,1,.8.9,4.3,4.3,0,0,1,.1.5c0,1.7,0,2-1.8,2H205.1c-1.3,0-1.5-.2-1.6-1.6s-.1-.5-.1-.8a1.1,1.1,0,0,1,.8-1h2.1c1.2,0,1.4-.3,1.4-1.5v-.6c0-5.2.1-10.4,0-15.6a12.4,12.4,0,0,0-.8-5.2,5.1,5.1,0,0,0-1.9-2.6,7.4,7.4,0,0,0-2.9-.8h-.7a11.8,11.8,0,0,0-2.9,1.6,15.4,15.4,0,0,0-1.9,1.7,1.6,1.6,0,0,0-.4,1.2,13.8,13.8,0,0,0-.1,2.9c-.3,1.2.1,2.5,0,3.7a25.3,25.3,0,0,1-.1,2.8,2.8,2.8,0,0,0,.1.9c0,.2.1.4,0,.6a9.6,9.6,0,0,0,0,2.4,4.5,4.5,0,0,1-.1,2,14.8,14.8,0,0,0,.1,2.1,4.8,4.8,0,0,0,0,1.2,24.4,24.4,0,0,0,.1,2.7.4.4,0,0,0,.4.4H199c.7-.1,1.1.2,1.3,1.2a2,2,0,0,1,0,1.1,1.2,1.2,0,0,1-1.2,1.1H187.6c-1.2-.1-1.4-.3-1.4-1.5a4.9,4.9,0,0,0-.1-1.2s0-.2-.1-.2h-.2a6,6,0,0,0-.8.8,6.2,6.2,0,0,1-2.7,2.1,7,7,0,0,1-7.7-.8,8.6,8.6,0,0,1-2-2.7,12.3,12.3,0,0,1-1.1-5.3v-9.4a4.1,4.1,0,0,1,.2-1.9v-7.4a1.7,1.7,0,0,0-.8-1.4l-2.3-1.2a3.3,3.3,0,0,1-1.3-.7.8.8,0,0,1-.1-1l.5-.7c1.4-1.7,3-3.1,4.4-4.8l3.8-3.9c.4-.5.7-.4.9.2a4.6,4.6,0,0,1,.2,2,6.1,6.1,0,0,0,0,1.9,12.7,12.7,0,0,1-.1,2c0,.9.3,1.3,1,1.3h7.8c.9.1,1.2.6.8,1.5a15.1,15.1,0,0,1-1.1,2.2,1.1,1.1,0,0,1-.9.6h-6.7c-.5,0-.7.3-.8.9v4.4a4.9,4.9,0,0,1-.1,1.2,3.3,3.3,0,0,0,0,1,1.3,1.3,0,0,1,.1.6,15.3,15.3,0,0,0,0,3.7c0,1.5-.1,3-.1,4.5a24.9,24.9,0,0,0,.4,4.7,4.8,4.8,0,0,0,2,3,4.2,4.2,0,0,0,2.7.7,9.5,9.5,0,0,0,3.9-1.6l.6-.5c.3-.3.6-.3.8-.1s.1.5,0,.8a9.4,9.4,0,0,1-.6,1.5c-.6,1.3-.3,1.2.8,1.2h1.8c.9-.1,1-.3,1.1-1.2V419.5Z" fill="#7f7f7f"/><path d="M232.1,420.2V399.4c0-1.8,0-1.8-1.6-1.8h-3.4a1.2,1.2,0,0,1-1-1.4,7.1,7.1,0,0,1,.1-1.4.9.9,0,0,1,.8-.9,26.1,26.1,0,0,1,2.8,0h1.3a6.6,6.6,0,0,1,2-.1h1.3c1.2,0,2.3-.1,3.5,0h.5c2-.4,4,.2,6,.1a19.6,19.6,0,0,1,6.8,1.8,12,12,0,0,1,4.1,3.3,9.7,9.7,0,0,1,1.9,4.1,17.7,17.7,0,0,1,.5,3.2,15.5,15.5,0,0,1-1.4,6,12.6,12.6,0,0,1-3.4,4.2,12.4,12.4,0,0,1-2.7,1.7l-.7.4a.3.3,0,0,0,0,.4l2.3.8a8.6,8.6,0,0,1,2.4,1.1,12.8,12.8,0,0,1,4.9,4.9,10.4,10.4,0,0,1,1.4,5.2,1.9,1.9,0,0,0,.1.8,3.7,3.7,0,0,1-.1,2.1,15.5,15.5,0,0,1-.4,2.1,13.1,13.1,0,0,1-2.5,5,13.6,13.6,0,0,1-7.3,5,14.4,14.4,0,0,1-4.6.8H227.3a1.2,1.2,0,0,1-1.2-1.2v-1.3a1.3,1.3,0,0,1,1.1-1.2h3.5c1.1,0,1.4-.4,1.4-1.6s0-.4,0-.7V420.2Zm10.2,22.9h2.4a8.7,8.7,0,0,0,3.9-1,8.8,8.8,0,0,0,4.6-4.7,11.2,11.2,0,0,0,1-3.9,14.1,14.1,0,0,0,0-2.9,8.5,8.5,0,0,0-1.5-4.7,8.9,8.9,0,0,0-4.5-3.6,14.1,14.1,0,0,0-4.1-.7h-3a7.5,7.5,0,0,1-1.5,0c-.7-.2-1.2.2-1.3,1a4.9,4.9,0,0,0-.1,1.2V438c0,1.1.1,2.1,0,3.1s.3,2.1,1.8,2Zm-4.1-35.3v8.7c0,1.1.3,1.3,1.2,1.4h1.9a11.3,11.3,0,0,0,3.6-.6,12.3,12.3,0,0,0,2.5-1.4,7.7,7.7,0,0,0,3.4-4.5,12.5,12.5,0,0,0,0-8.1,8.1,8.1,0,0,0-6.4-5.3,12.9,12.9,0,0,0-4.8-.4c-1.1,0-1.3.2-1.4,1.4v8.8Z" fill="#7f7f7f"/><path d="M229,362.9v13.7a6.6,6.6,0,0,0,.1,1.4c0,.6.2.8.8.9h2c1,0,1.3.4,1.3,1.4s.1,2-1.7,2H220.2a.7.7,0,0,1-.7-.4c-.6-.6-.4-1.3-.3-2a1.2,1.2,0,0,1,1.1-1h2.2c.5-.1.7-.3.8-.9a18.2,18.2,0,0,0,0-3.3v-1.1c.2-1.8-.1-3.5.1-5.3a18.5,18.5,0,0,0-.1-2.3c0-.5.1-1,.1-1.5s.1-.2,0-.4a13.1,13.1,0,0,1,0-2.8c-.1-1.3-.1-2.7-.1-4.1v-1a.9.9,0,0,0-.3-.6l-2.1-1.7c-.3-.3-.6-.2-.9.1l-.5.7-.8.7c-.8.6-1.1.8-2.1,0l-2.2-1.8-.7-.4a.9.9,0,0,0-1.3.1,13.7,13.7,0,0,1-1.7,1.7,11.4,11.4,0,0,1-1.1,1.1c-.7.4-.8,1.1-.9,1.9a3.7,3.7,0,0,0-.1,1.1v17.5a4.9,4.9,0,0,0,.1,1.2c0,.8.3,1.1,1,1.1h4.4a1.2,1.2,0,0,1,.6.8,8.1,8.1,0,0,1-.1,1.6c0,.6-.2.8-.8.9H200.5c-.5,0-1.1.2-1.4-.4a2.7,2.7,0,0,1-.2-2,1.1,1.1,0,0,1,1.1-1h2.5c.3,0,.5-.3.6-.6V357a2.7,2.7,0,0,0-1.1-2.1l-2.8-2.2c-.1-.1-.1-.2-.2-.2s-.8-1.3.1-1.7l1-.5,4.4-2.3,2.9-1.4c.7-.4,1.2,0,1.2.9s0,2.4.1,3.6v1a.7.7,0,0,0,1.1.4,9.3,9.3,0,0,0,1.6-1.8,16.5,16.5,0,0,1,3.7-3.3,3.7,3.7,0,0,1,3.4-.2,3.5,3.5,0,0,1,1.6,1.6c.6,1.1.8,1.2,1.9.6l4.3-2.1,1.8-.8a.7.7,0,0,1,.8.5,2.9,2.9,0,0,1,.1,1.3c.1,2.6,0,5.2,0,7.8v6.8Z" fill="#7f7f7f"/><path d="M266.2,367.6v9.1a3.4,3.4,0,0,0,.2,1.4.9.9,0,0,0,.9.8h2.5a.6.6,0,0,1,.5.6,4.4,4.4,0,0,1,.1,2c-.2.5-.3.7-.9.8H257.2a.9.9,0,0,1-.7-.8,3.8,3.8,0,0,1,0-1.5c.2-.7.5-1.1,1.2-1.1h2.1c.5-.1.8-.3.8-.9a3.1,3.1,0,0,0,.1-1V357.2a2.4,2.4,0,0,0-1-2.1,31.1,31.1,0,0,0-2.8-2.3l-.3-.3c-.8-.7-.8-1.1.1-1.7l2.8-1.5,4.4-2.1,1.2-.6a.8.8,0,0,1,1.1.7v4.5c.1.6.7,1,1.2.6a4.3,4.3,0,0,0,1-.9,9.9,9.9,0,0,1,4.2-3.7,6.7,6.7,0,0,1,6-.5,6.3,6.3,0,0,1,3.1,2.9,12.8,12.8,0,0,1,1.6,6,41.2,41.2,0,0,1,.1,6.1,22.5,22.5,0,0,1,0,2.6c-.1,1.4.3,2.8-.1,4.2v.7a7.1,7.1,0,0,1,.1,1.4,3.8,3.8,0,0,0,0,1.5,11.3,11.3,0,0,1,0,2.6,5,5,0,0,1-.1,2.1,4.3,4.3,0,0,1,.1.5c.2.8.3.9,1.1,1h1.9c.7,0,.8.2,1.1.9a2.5,2.5,0,0,1-.1,1.9c-.2.3-.4.6-.8.6H274.7a1.3,1.3,0,0,1-1.1-1.2v-.8c.2-1.1.3-1.5,1.4-1.4h1.7c.7,0,1-.3,1.2-1a1.1,1.1,0,0,1,.1-.5c0-1.2-.1-2.3-.2-3.5s-.1-.7-.1-1a26.8,26.8,0,0,0,.2-4,12.9,12.9,0,0,1,.1-3.4c-.2-1.7.2-3.4-.2-5.1a4.9,4.9,0,0,1-.1-1.2,8.3,8.3,0,0,0-1.4-4.6,4.7,4.7,0,0,0-1.9-1.5c-2.3-1-4.3-.3-6.1,1.3l-1.1,1.2a3.3,3.3,0,0,0-1,2.4v9.6Z" fill="#7f7f7f"/><path d="M292.6,446.8h-5.7c-.9,0-1.2-.3-1.3-1.3a3.3,3.3,0,0,1,.4-1.7.5.5,0,0,1,.6-.4h2.5c.3-.1.5-.2.6-.5a5,5,0,0,0,.2-1.7V421.4a2.4,2.4,0,0,0-.7-1.6,38.8,38.8,0,0,1-3.1-2.6,2.3,2.3,0,0,1-.7-.7.8.8,0,0,1,.1-1l.6-.4c1.8-.6,3.3-1.7,5-2.4a10.8,10.8,0,0,1,2.4-1.2l.8-.4c.7-.3,1.1,0,1.1.9s.1,2,.1,3v1.2a.7.7,0,0,0,.5.7.6.6,0,0,0,.9-.2,6.9,6.9,0,0,1,1.1-1.3,11.3,11.3,0,0,1,5.7-3.9,6.5,6.5,0,0,1,5.5,1.1,7.6,7.6,0,0,1,2.7,4c.3,1.4.5,2.8.8,4.2s.1,2-.1,3-.1.3,0,.4a21.8,21.8,0,0,1,.1,2.5,15.8,15.8,0,0,1-.1,3.1,5.6,5.6,0,0,0,0,1.3c.1,1.1.1,2.2.1,3.3a54.2,54.2,0,0,0,0,5.7,2.9,2.9,0,0,1,0,1.3v.5c.1,1.4.4,1.5,1.3,1.5h1.7c.7.1,1,.4,1.1,1.2v.4c0,1.5-.2,1.8-1.6,1.8H304.4c-1.2,0-1.5-.4-1.6-1.7v-.6a1,1,0,0,1,.6-.9l1-.2h1.7c.8-.1,1.1-.5,1.1-1.4s-.1-4.4-.1-6.6a25.4,25.4,0,0,0-.1-3.9,7.4,7.4,0,0,0,.2-2.6c-.1-1.2.1-2.3-.1-3.5a9.1,9.1,0,0,1-.1-1.7,7,7,0,0,0-1-4,4.1,4.1,0,0,0-2.4-2.1l-1-.4a3.2,3.2,0,0,0-1.4-.1,6.9,6.9,0,0,0-3,1.4l-1.8,1.6a2.9,2.9,0,0,0-.9,2.5v19.7c.1.8.3,1,1.1,1.1h2.5a.9.9,0,0,1,.6.8,9.1,9.1,0,0,1-.1,1.7.8.8,0,0,1-.7.8h-6.3Z" fill="#7f7f7f"/><path d="M246.9,361.6h-8.2a1,1,0,0,0-1,1,16.2,16.2,0,0,0,0,2.2,21.2,21.2,0,0,0,1.3,5.1,12,12,0,0,0,2.3,3.7,8.1,8.1,0,0,0,2.4,2.1,6.9,6.9,0,0,0,3.1.9H248a7.1,7.1,0,0,0,4.6-1.5,4.9,4.9,0,0,0,1.8-1.7l.2-.2c.3-.2.7-.8,1.1-.6s.2.9.1,1.3c-1.2,4.7-3.8,8.2-8.4,9.1a8.8,8.8,0,0,1-2.8.1,9.9,9.9,0,0,1-4.6-1.7,14.5,14.5,0,0,1-3.8-4,21.2,21.2,0,0,1-1.1-2.1,20.7,20.7,0,0,1-1.6-5.9l-.3-2.3a25.9,25.9,0,0,1,3.6-14.5,14.8,14.8,0,0,1,5.9-5.2l1.8-.4a8.7,8.7,0,0,1,6.6,1.4,10.6,10.6,0,0,1,2.7,2.9,16.3,16.3,0,0,1,2.7,8.7,4.3,4.3,0,0,1-.2,1.1.9.9,0,0,1-.8.5h-8.6Zm-1.8-10.4a4.3,4.3,0,0,0-1.9.2,8.7,8.7,0,0,0-2.6,1.8,12.5,12.5,0,0,0-2,3.8.7.7,0,0,0-.1.5c0,.4.1.6.5.7s2.2,0,3.3.2h1a1.4,1.4,0,0,0,.9,0,13.7,13.7,0,0,1,3.5,0,6.5,6.5,0,0,0,2.4-.2.7.7,0,0,0,.6-.9,8.6,8.6,0,0,0-1-3.2,5.3,5.3,0,0,0-2.5-2.6A4.9,4.9,0,0,0,245.1,351.2Z" fill="#7f7f7f"/><path d="M275.9,426.1h-7.6c-1.2,0-1.4.3-1.5,1.6a20.4,20.4,0,0,0,.3,3.4,29.6,29.6,0,0,0,1.4,4.2,9.5,9.5,0,0,0,1.7,2.7l1.3,1.2a7,7,0,0,0,4.5,1.9h.8a7.3,7.3,0,0,0,4.1-.9,5.8,5.8,0,0,0,2.6-2.1l.7-.8c.3-.3.7,0,.7.4a2,2,0,0,1,0,1.1c-.9,3-2.2,5.6-4.7,7.3a9.3,9.3,0,0,1-4.5,1.5,11.4,11.4,0,0,1-5.4-.9,10.5,10.5,0,0,1-2.5-1.8,18.3,18.3,0,0,1-4.5-7.6,11.5,11.5,0,0,1-.7-3.6,13.5,13.5,0,0,0-.4-2.9,9.6,9.6,0,0,1,0-1.7c.2-1.5.3-2.9.6-4.3a22.8,22.8,0,0,1,2.6-6.7,14.8,14.8,0,0,1,2.1-3,11.3,11.3,0,0,1,5.8-3.5,6.6,6.6,0,0,1,3.4-.1l1.4.3a9.7,9.7,0,0,1,3.6,2.3,13.4,13.4,0,0,1,2.7,4.4,14.7,14.7,0,0,1,1.1,4.6,5,5,0,0,1,.2,1.7,1.3,1.3,0,0,1-.7,1.2,3,3,0,0,1-1.3.1Zm-2-10.5a4.9,4.9,0,0,0-3.2,1.2,11.4,11.4,0,0,0-3.2,5.1.9.9,0,0,0,.7,1,2.1,2.1,0,0,0,1.1,0c1.6,0,3.2-.2,4.9-.1a41.7,41.7,0,0,0,5,0,.6.6,0,0,0,.6-.8,13.6,13.6,0,0,0-.6-2.9,5.8,5.8,0,0,0-3.4-3.3A8.4,8.4,0,0,0,273.9,415.6Z" fill="#7f7f7f"/><path d="M330.3,426.1H322c-.5.1-.7.3-.8.9a12.9,12.9,0,0,0,.3,3.9,18,18,0,0,0,.5,1.9,11.1,11.1,0,0,0,5.6,7.5,5.6,5.6,0,0,0,3,.8,10.1,10.1,0,0,0,3-.2A8.8,8.8,0,0,0,338,438l.7-.9c.3-.2.6-.1.6.2a2.2,2.2,0,0,1,0,1.4,11.7,11.7,0,0,1-.6,2,16.8,16.8,0,0,1-2.7,4.2,9.9,9.9,0,0,1-4.6,2.5,10.6,10.6,0,0,1-7-.9,12.8,12.8,0,0,1-2.6-2,13.3,13.3,0,0,1-2.4-3.3,19.9,19.9,0,0,1-2.3-6.3H317a32.8,32.8,0,0,1-.2-7,17.7,17.7,0,0,1,.8-4.6,26.2,26.2,0,0,1,1.9-4.6,15.6,15.6,0,0,1,2.3-3.4l2-1.7a9.2,9.2,0,0,1,5.1-2.1,7.8,7.8,0,0,1,5.7,1.5l1.1.8a4.9,4.9,0,0,1,1.2,1.3,17.9,17.9,0,0,1,3.1,8.4,7.1,7.1,0,0,1,.1,1.4,1.1,1.1,0,0,1-.8,1.2,2.9,2.9,0,0,1-1.3.1Zm-1.7-10.4a4.3,4.3,0,0,0-1.6.1,13.2,13.2,0,0,0-2.9,1.9c-1.1,1.2-1.5,2.7-2.2,4.2s0,.4.2.6a1,1,0,0,0,1,.5,7.6,7.6,0,0,1,2.6-.1,6.1,6.1,0,0,0,1.9-.1,4.5,4.5,0,0,0,2.3,0,.8.8,0,0,1,.7.1,2,2,0,0,0,1.1,0,3.2,3.2,0,0,1,1.3-.2h.8a.6.6,0,0,0,.4-.7,28,28,0,0,0-.6-2.8,5.2,5.2,0,0,0-3.5-3.4Z" fill="#7f7f7f"/><path d="M158.3,431.9V421.4a1.6,1.6,0,0,0-.5-1.4,21.9,21.9,0,0,0-2.2-2l-1.3-1c-.2-.1-.3-.3-.5-.6a.8.8,0,0,1,.2-1l1-.5a40.9,40.9,0,0,0,4.7-2.3l3.2-1.5c.5-.3.8-.1.9.4a3.8,3.8,0,0,1,.3,1.8c-.1,1,0,2-.1,3a22.6,22.6,0,0,0,.1,2.6c.1,3.5.1,7-.1,10.5a9.1,9.1,0,0,0,.1,1.7v2.6a16.2,16.2,0,0,0,0,2.2c.1,2.1-.1,4.3,0,6.5s.3.9,1,1h2.1a.9.9,0,0,1,.9.7,2.8,2.8,0,0,1,.2,1.8,1.1,1.1,0,0,1-.9.9H155.1a1,1,0,0,1-.8-.7,3.1,3.1,0,0,1-.1-1.9,1,1,0,0,1,.4-.5,2.4,2.4,0,0,1,1.2-.3h1.7c.6-.1.8-.3.8-.9a3.3,3.3,0,0,0,0-1v-9.6Z" fill="#7f7f7f"/><path d="M164.4,397.6a4.4,4.4,0,0,1-1,3.2,4.2,4.2,0,0,1-3,1.5H160a4.5,4.5,0,0,1-3-4.3v-1.2a4.6,4.6,0,0,1,1.9-3.5,3.4,3.4,0,0,1,4.1.4,4.3,4.3,0,0,1,1.4,3Z" fill="#7f7f7f"/><path d="M229.3,333a4.5,4.5,0,0,1-.6,2.8,5.7,5.7,0,0,1-2.2,1.9,2.5,2.5,0,0,1-1.2.1,4.5,4.5,0,0,1-2.7-2,3.7,3.7,0,0,1-.5-1.8,5.2,5.2,0,0,1,.6-4c1.9-2.8,4.8-2.1,6.1.3A4.2,4.2,0,0,1,229.3,333Z" fill="#7f7f7f"/></svg>