<svg xmlns="http://www.w3.org/2000/svg" width="177mm" height="177mm" viewBox="0 0 501.6 501.6"><text transform="translate(18.6 37.4)" font-size="6" fill="#295ba8" font-family="Helvetica">7ACF60266D413DDD<tspan x="59.4" y="0" letter-spacing="-0.07em">1</tspan><tspan x="62.3" y="0">16CCD53E034C3B3</tspan><tspan x="117.6" y="0" letter-spacing="-0.07em">1</tspan><tspan x="120.5" y="0">16F08</tspan><tspan x="137.5" y="0" letter-spacing="-0.05em">F</tspan><tspan x="140.9" y="0">A4B41A560E</tspan><tspan x="176.9" y="0" letter-spacing="-0.07em">1</tspan><tspan x="179.8" y="0">18DFE2C644F8D7</tspan><tspan x="0" y="7.2">Block Height: 13642944</tspan></text><rect x="18.6" y="16.5" width="27.5" height="10.27"/><rect x="50.3" y="16.5" width="27.5" height="10.27" fill="#dfc7b2"/><text transform="translate(220.4 355.2)" font-size="4.44" fill="#295ba8" font-family="Helvetica">SE<tspan x="5.9" y="0" letter-spacing="-0.07em">LV</tspan><tspan x="10.7" y="0">AGE EDGE</tspan></text><rect x="78" y="367.3" width="127.1" height="27.26" fill="#dfc7b2"/><path d="M109.1,378.6H107v-.2c.3,0,.4-.1.4-.9v-2.1c0-.9-.2-1.2-.8-1.2a1.5,1.5,0,0,0-1,.4,1.7,1.7,0,0,1,.1.8v2.1c0,.8.1.9.4.9v.2H104v-.2c.3,0,.5-.1.5-.9v-2.1c0-.9-.2-1.2-.8-1.2a1.3,1.3,0,0,0-1,.4v2.9c0,.8.2.9.5.9v.2H101v-.2c.3,0,.5-.1.5-.9v-2.4c0-.6,0-.8-.3-.9V374a3.7,3.7,0,0,0,1.5-.3v.6a2.6,2.6,0,0,1,1.5-.6,1.4,1.4,0,0,1,1.3.6,3.2,3.2,0,0,1,1.7-.6c.6,0,1.5.2,1.5,1.7v2.1c0,.8.1.9.4.9Z"/><path d="M114,378.1a1.1,1.1,0,0,1-.9.6,1,1,0,0,1-.8-.5,2.1,2.1,0,0,1-1.3.5c-.8,0-1.5-.4-1.5-1.2s.9-1.3,1.8-1.3l1,.2v-1.2c0-1-.3-1.2-.7-1.2s-.7.4-.7,1.3h-1.2c.1-1.3,1.1-1.6,2-1.6a1.6,1.6,0,0,1,1.8,1.8v2q0,.6.3.6h.2Zm-1.7-1.4-.7-.2c-.5,0-.8.2-.8.8s.3.9.7.9a1.1,1.1,0,0,0,.8-.3v-1.2Z"/><path d="M119.5,378.1a1.1,1.1,0,0,1-.9.5.8.8,0,0,1-.8-.4,1.6,1.6,0,0,1-1.2.4,2.3,2.3,0,0,1-2.3-2.4,2.5,2.5,0,0,1,2.5-2.5,1.2,1.2,0,0,1,.9.3v-1.7c0-.7,0-.9-.3-1h0a4.1,4.1,0,0,0,1.6-.3v6.5c0,.5,0,.6.2.6h.3Zm-1.8-3.7a.9.9,0,0,0-.8-.4c-.8,0-1.2.6-1.2,2.2s.5,2,1.2,2a.8.8,0,0,0,.8-.3v-3.5Z"/><path d="M124.2,377.5a2.2,2.2,0,0,1-1.9,1.2,2.5,2.5,0,0,1-.1-5,1.8,1.8,0,0,1,2,2h-3.1c0,1.4.7,2.2,1.7,2.2a1.9,1.9,0,0,0,1.3-.6Zm-1.2-2.1c0-.9-.3-1.4-.8-1.4s-1,.6-1.1,1.4Z"/><path d="M129.4,378.6h-2.1v-.2c.3,0,.4-.1.4-.9v-2.4c0-.6,0-.8-.3-.9V374a3.3,3.3,0,0,0,1.5-.3v3.8c0,.8.2.9.5.9Zm-1.1-5.3a.6.6,0,1,1,0-1.2c.4,0,.7.2.7.6S128.7,373.3,128.3,373.3Z"/><path d="M135.1,378.6H133v-.2c.3,0,.4-.1.4-.9v-2.1c0-.9-.3-1.2-.9-1.2a1.3,1.3,0,0,0-1,.4v2.9c0,.8.2.9.5.9v.2h-2.1v-.2c.3,0,.4-.1.4-.9v-2.4c0-.6,0-.8-.3-.9V374a3.3,3.3,0,0,0,1.5-.3v.6a2.2,2.2,0,0,1,1.5-.6c.7,0,1.6.2,1.6,1.7v2.1c0,.8.2.9.5.9Z"/><path d="M112.6,385.9c0-2.1-.1-2.3-.7-2.4v-.2h1.7v.2c-.5.1-.5.3-.5,2.4v2c0,1.6-.5,2.9-2.3,2.9a3,3,0,0,1-2.5-.9,2.8,2.8,0,0,1-.5-2v-3c0-1.1-.1-1.4-.5-1.4v-.2h2.3v.2c-.4,0-.5.3-.5,1.4v3c0,1.8.3,2.5,1.7,2.5s1.8-.8,1.8-2.7Z"/><path d="M114.7,390.7a.5.5,0,0,1-.5-.5.5.5,0,0,1,1,0A.5.5,0,0,1,114.7,390.7Z"/><path d="M120,385.3c-.3-1.3-.9-1.8-1.7-1.8a1.1,1.1,0,0,0-1.2,1.1c0,1.9,3.3,1.4,3.3,3.8a2.2,2.2,0,0,1-2.3,2.4l-1.5-.2h-.5c0-.2.1-.3.1-.5s-.1-.8-.1-1a1.7,1.7,0,0,1,.1-.7h.2c.1,1,.5,2,1.7,2s1.2-.5,1.2-1.3-3.2-1.5-3.2-3.8a2.1,2.1,0,0,1,2.2-2.1h1.8v2.1Z"/><path d="M121.7,390.7a.5.5,0,0,1-.5-.5.5.5,0,0,1,1,0A.5.5,0,0,1,121.7,390.7Z"/><path d="M129,390.7h-2.4v-.2a.4.4,0,0,0,.4-.4,3.1,3.1,0,0,0-.2-.8l-.3-1h-2.1l-.2.3a8.9,8.9,0,0,0-.3,1.4c0,.2.1.5.4.5v.2h-1.8v-.2c.5-.2.8-.6,1.4-2.1l2-5.2h.4l1.9,6.1c.3.7.5,1.1.8,1.2Zm-3.5-5.4-1,2.6h1.8Z"/><polyline points="78.7 397.7 78.7 401.2 141.6 401.2 204.5 401.2 204.5 397.7" fill="none" stroke="#295ba8" stroke-miterlimit="10" stroke-width="0.89"/><line x1="141.6" y1="404.6" x2="141.6" y2="401.2" fill="none" stroke="#295ba8" stroke-miterlimit="10" stroke-width="0.89"/><text transform="translate(130.1 410.4)" font-size="7.03" fill="#295ba8" font-family="Helvetica">50mm</text><polyline points="75.8 367.3 72.9 367.3 72.9 380.9 72.9 394.5 75.8 394.5" fill="none" stroke="#295ba8" stroke-miterlimit="10" stroke-width="0.74"/><line x1="70.1" y1="380.9" x2="72.9" y2="380.9" fill="none" stroke="#295ba8" stroke-miterlimit="10" stroke-width="0.74"/><text transform="translate(47.1 382.2)" font-size="7.03" fill="#295ba8" font-family="Helvetica">13mm</text><path d="M139,337.7v-2.3h.4v1.9h1v-1.7h.4v1.7h1.6v.4Z" fill="#295ba8"/><path d="M139.5,332a2,2,0,0,1,1.1-.3,1.8,1.8,0,0,1,1.3.4,1.5,1.5,0,0,1,.6,1.3,1.7,1.7,0,0,1-.5,1.2,2,2,0,0,1-1.3.4,2.1,2.1,0,0,1-1.2-.3,1.5,1.5,0,0,1-.6-1.3A1.7,1.7,0,0,1,139.5,332Zm2.1.4-1-.2a1.2,1.2,0,0,0-.9.3.9.9,0,0,0-.4.8,1,1,0,0,0,.4.9,1.5,1.5,0,0,0,1,.4,1.7,1.7,0,0,0,1-.3,1.2,1.2,0,0,0-.1-1.9Z" fill="#295ba8"/><path d="M139,331.1v-.4h3V329h.4v2.1Z" fill="#295ba8"/><path d="M139,328.5v-1.4a1.2,1.2,0,0,1,.5-1.1,2,2,0,0,1,1.1-.3,1.6,1.6,0,0,1,1,.2,1.2,1.2,0,0,1,.8,1.2v1.4Zm3-1.3v-.4a.8.8,0,0,0-.4-.4l-.5-.2h-.4a1.7,1.7,0,0,0-1,.3,1,1,0,0,0-.3.8v.8H142Z" fill="#295ba8"/><path d="M139,325v-.4h3v-1.7h.4V325Z" fill="#295ba8"/><path d="M139,322.3v-.5h3.4v.5Z" fill="#295ba8"/><path d="M139,321.1v-.6l2.7-1.7H139v-.4h3.4v.5l-2.8,1.7h2.8v.5Z" fill="#295ba8"/><path d="M139,317.6v-2.5h.4v2h1v-1.9h.4v1.9H142V315h.4v2.6Z" fill="#295ba8"/><line x1="141.6" y1="340.5" x2="141.6" y2="398.3" fill="none" stroke="#295ba8" stroke-miterlimit="10" stroke-width="0.37" stroke-dasharray="1.48 1.48"/><polyline points="202.9 366 202.9 353.6 218.4 353.6" fill="none" stroke="#295ba8" stroke-miterlimit="10" stroke-width="0.37" stroke-dasharray="1.48 1.48"/><text transform="translate(238.5 396.5)" font-size="4.44" fill="#295ba8" font-family="Helvetica">SE<tspan x="5.9" y="0" letter-spacing="-0.07em">LV</tspan><tspan x="10.7" y="0">AGE EDGE</tspan></text><line x1="206.9" y1="394.9" x2="236.6" y2="394.9" fill="none" stroke="#295ba8" stroke-miterlimit="10" stroke-width="0.37" stroke-dasharray="1.48 1.48"/><path d="M151,388.1c.1,0,0-.1,0-.1s0-.1.1-.2v-.2c0-.1.1-.1.2-.1h1.6c.1-.1.1-.1.1-.2a.3.3,0,0,1,.1-.2h0v-.2h.1v-.2a.1.1,0,0,1,.1-.1v-.2c0-.1.1-.2.1-.3h0c.1-.1,0-.1.1-.1h0v-.2a.3.3,0,0,0,.1-.2c0-.1,0-.1.1-.2a.4.4,0,0,1,.1-.3v-.4a.3.3,0,0,0,.1-.2.6.6,0,0,0,.1-.4.4.4,0,0,0,.1-.3c0-.1.1-.2.1-.3V383c0-.1.1-.1.1-.2v-.2a.4.4,0,0,0,.1-.3c0-.1,0-.1.1-.2h0v-.2c0-.1.1-.1.1-.2v-.2c.1,0,.1-.1.1-.2h.1v-.3c.1,0,.1-.1.1-.2s.1-.2.1-.3v-.2c.1,0,.1-.1.1-.2v-.3h-.1c-.1-.1-.1-.1-.2,0h-.7v-.2c.1,0,.1-.1.2-.2h.1a.1.1,0,0,1,.1-.1h.9a6181264102530.9,6181264102530.9,0,0,1,.2-.6c0-.1.1-.2.1-.3h.4c0-.1,0-.1.1-.2a.3.3,0,0,1,.1-.2v-.2h0c.1-.1.1-.1.1-.2h.1c0-.1,0-.1.1-.1h0a.1.1,0,0,1,.1-.1c0-.1,0-.1.1-.1v-.2h.2l.2-.2h.1c.1,0,.1,0,.1-.1l.3-.2c.1,0,.1,0,.1-.1l.5-.2h1a.1.1,0,0,0,.1.1h.2c0,.1.1.1.1.2h0c0,.1.1.1,0,.2v.4l-.2.2-.2.2h-.2l-.3-.2h-.7a.1.1,0,0,1-.1-.1H158a.3.3,0,0,0-.1.2v.6h-.1c0,.1,0,.2-.1.2v.2c0,.1-.1.1-.1.2h0c0,.1-.1.2-.1.3v.2h0c-.1.1-.1.1-.1.2v.2a.4.4,0,0,0-.1.3.4.4,0,0,0-.1.3c-.1.1-.1.1-.1.2v.2h0c.1,0,.1.1.2,0h1.4l.3-.2h.8v.4a.4.4,0,0,0-.1.3h0c0,.1-.1.2-.1.3v.2c0,.1-.1.2-.1.3v.4c-.1,0-.1.1-.1.2h0c0,.1,0,.1-.1.2v.3h0v.4a.4.4,0,0,1-.1.3h0v.2h0a.1.1,0,0,1-.1.1v.6h0c-.1.1-.1.2-.1.4h.2c0-.1.1-.1.1-.2h.1l.2-.3h.2c0-.1.1-.1.1-.2a.1.1,0,0,0,.1-.1c.1-.1.2-.2.2-.3h.2a.3.3,0,0,1,.1-.2l.2-.2c0-.1.1-.1.1-.2a.1.1,0,0,0,.1-.1h.1c0-.1.1-.1.1-.2s.1-.1.1-.2a.4.4,0,0,0,.1-.3h0c0-.1,0-.2.1-.2v-.2h0c0-.1.1-.1.1-.2V380h-1l.2-.2h0a.1.1,0,0,0,.1-.1h.1l.2-.2h.5l.4-.2h.7c0,.1-.1.3-.1.4v.3a.1.1,0,0,0-.1.1v.4c-.1,0-.1.1-.1.2a.4.4,0,0,1-.1.3h0v.3a.4.4,0,0,0-.1.3v.5h0v.2h0v.2c0,.1-.1.2-.1.3v.3a.4.4,0,0,0-.1.3v.2h-.1v.2a.4.4,0,0,0-.1.3h.1s0-.1.1,0h0c.1-.1.1-.2.2-.2l.2-.2.2-.2c0-.1.1-.1.1-.2s.1,0,.1-.1h.1c0-.1.1-.1.1-.2h.2c0-.1,0-.1.1-.2a.1.1,0,0,1,.1-.1h.2l.2-.3v-.2l.2-.3v-.2l.2-.2c0-.1,0-.1.1-.2v-.2a.3.3,0,0,0,.1-.2.3.3,0,0,0,.1-.2c0-.1,0-.2-.1-.2H163c0-.1,0-.2.1-.2a.5.5,0,0,1,.2-.4h.1c0-.1.1-.1.1-.2l.2-.2h.9a.6.6,0,0,1,.1.4c.1.2.1.3,0,.4v.3a.4.4,0,0,1-.1.3h0c-.1.1-.1.1-.1.2h-.1c0,.1-.1.2-.1.3a.3.3,0,0,1-.1.2h-.1v.2c-.1,0-.1.1-.1.2h-.1v.2c-.1.1-.1.2-.2.2v.2h-.2c0,.1-.1.2-.2.3H163l-.2.2-.2.2h-.1a.1.1,0,0,1-.1.1H162l-.2.2a.2.2,0,0,0-.2.2h-.9l-.2.2H160v-.2a.4.4,0,0,1,.1-.3v-.4a.3.3,0,0,0,.1-.2v-.2h.1v-.9h-.3c0,.1-.1.1-.1.2l-.2.2h-.1l-.2.3h-.1c-.1.1-.1.2-.2.2a.1.1,0,0,1-.1.1h-.2l-.3.2c0,.1,0,.1-.1.1a.1.1,0,0,1-.1.1H158a.1.1,0,0,0-.1.1h-.5s-.1,0,0-.1h0a.9.9,0,0,1,.1-.5v-.2a.4.4,0,0,1,.1-.3v-.3c0-.1.1-.2.1-.3v-.4h.1v-.2a.4.4,0,0,1,.1-.3v-.5c.1,0,.1-.1.1-.2h0v-.6h.1v-.3a.3.3,0,0,1,.1-.2,829303603156,829303603156,0,0,1-.2-.2h-.8c0-.1,0-.1-.1-.1h-.6a.1.1,0,0,0-.1.1c-.1,0-.1.1-.1.2v.2c0,.1-.1.2-.1.4s-.1.2-.1.3a.3.3,0,0,1-.1.2v.2a6181264102436.9,6181264102436.9,0,0,0-.2.6v.2h0a.1.1,0,0,0-.1.1v.2c0,.1-.1.2-.1.3v.2h0c0,.1-.1.1-.1.2s0,.2-.1.2a.6.6,0,0,1-.1.4h0a.1.1,0,0,0-.1.1c0,.1-.1.2-.1.3a.4.4,0,0,1-.1.3v.2c-.1,0-.1.1-.1.2h0c-.1.1-.1.1-.1.2a.3.3,0,0,0-.1.2h0a.4.4,0,0,0-.1.3c-.1,0-.1.1-.1.2s-.1.1-.1.2h-.1v.2H154c0,.1-.1.1-.1.2h0a.3.3,0,0,1-.1.2h-.1v.2a.1.1,0,0,0-.1.1v.2a.1.1,0,0,0-.1.1h-.1a.1.1,0,0,1-.1.1c0,.1,0,.1-.1.2a.1.1,0,0,0-.1.1l-.3.2c0,.1,0,.1-.1.1h-.1a.1.1,0,0,0-.1.1h-.5a.1.1,0,0,0-.1.1h-.7v-.2H151Z"/><path d="M166.3,380.9h.2c.1-.1.1-.2.2-.2h0c.1,0,.1-.1.2-.2a.1.1,0,0,1,.1-.1h.1a.1.1,0,0,0,.1-.1h.1v-.2h.1a.1.1,0,0,1,.1-.1.1.1,0,0,1,.1-.1l.2-.2h.1a.1.1,0,0,0,.1-.1h1.2l.3.3v.4h.1v1c-.1.1-.1.1-.1.2h0a.4.4,0,0,1-.1.3.4.4,0,0,1-.1.3.4.4,0,0,1-.1.3c0,.1-.1.2-.1.3v.3c-.1,0-.1,0-.1.1v.2h-.1c0,.1-.1.1-.1.2l-.2.2a.3.3,0,0,1-.1.2l-.2.2h-.2c-.1.1-.1.2-.2.2a.1.1,0,0,1-.1.1l-.2.2h-.2a.1.1,0,0,1-.1.1h-.2l-.3.3h-.2a.1.1,0,0,1-.1.1h-1.2a.1.1,0,0,1-.1-.1h-.4l-.3-.2-.2-.2h-.1c0-.1-.1-.1-.1-.2v-.3c0-.1.1-.1.1-.2h0a1.4,1.4,0,0,0,.2-.6h.1a.4.4,0,0,1,.1-.3h0a.4.4,0,0,0,.1-.3.3.3,0,0,0,.1-.2h0c0-.1.1-.2.1-.3a.1.1,0,0,1,.1-.1h0v-.2h.1c0-.1.1-.1.1-.2v-.2a.4.4,0,0,0,.1-.3c.1,0,.1-.1.1-.2s.1-.2.1-.4a.1.1,0,0,0,.1-.1h0a.4.4,0,0,0,.1-.3v-.2c0-.1.1-.2.1-.3a.3.3,0,0,1,.1-.2h0v-.6a.3.3,0,0,0,.1-.2v-.4c.1,0,.1-.1.1-.2a.3.3,0,0,1,.1-.2v-.2c.1,0,.1-.1.1-.2h.1v-.2a.3.3,0,0,0,.1-.2c0-.1.1-.1.1-.2h0c0-.1,0-.1-.1-.2h-.3l-.3-.2-.2-.2h1.8l.4-.2h.2c.1,0,.1,0,.1.1s-.1.2-.1.3v.4a.1.1,0,0,1-.1.1h0c0,.1-.1.1-.1.2h0a.4.4,0,0,1-.1.3h0a.3.3,0,0,0-.1.2h-.1v.2h0v.2c0,.1-.1.1-.1.2v.5h-.1a.4.4,0,0,1-.1.3.4.4,0,0,1-.1.3c0,.1,0,.1-.1.2h0c0,.1,0,.1-.1.2h0c-.1.1-.1.1-.1.2s-.1.1-.1.2h0c0,.1,0,.2-.1.2h0v.2c0,.1-.1.2-.1.3h0a.3.3,0,0,0-.1.2c0,.1-.1.1-.1.2h0Zm2.4-1.1v-.2H168c0,.1-.1.2-.2.3h-.2l-.2.2h-.1c0,.1-.1.1-.1.2h-.1l-.2.2h-.1a.1.1,0,0,1-.1.1h-.1c0,.1-.1.2-.2.3l-.2.3h-.1c0,.1-.1.2-.1.3l-.2.3c0,.1-.1.2-.1.3h0c0,.1-.1.1-.1.2a.3.3,0,0,0-.1.2h0s-.1.1,0,.1v.2l-.2.4h0v.4h1.1l.3-.2c.1-.1.2-.1.2-.2h.5c.1-.1.1-.2.2-.2h.2l.2-.2a.1.1,0,0,1,.1-.1v-.2c0-.1,0-.1.1-.2s.1-.2.1-.3h.1a.8.8,0,0,0,.1-.4c.1-.1.1-.1.1-.2s0-.2.1-.2v-.6a.3.3,0,0,0,.1-.2h0Z"/><rect x="321.7" y="426.1" width="104.8" height="20.97" fill="#dfc7b2"/><rect x="321.7" y="344.2" width="104.8" height="20.97" fill="#dfc7b2"/><rect x="321.7" y="316.9" width="104.8" height="20.97" fill="#dfc7b2"/><rect x="321.7" y="289.5" width="104.8" height="20.97" fill="#dfc7b2"/><rect x="321.7" y="371.6" width="104.8" height="20.97" fill="#dfc7b2"/><rect x="321.7" y="398.9" width="104.8" height="20.97" fill="#dfc7b2"/><path d="M352.1,360.3l1.4-.3V349.2l-1.5-.3v-.6h3.8l3.7,9.5.2,1,4.2-10.5h3.7v.6l-1.5.3V360l1.5.3v.6h-4.8v-.6l1.6-.3v-8.2l.3-2.1L360,360.9h-1.1l-3.6-9.1-.6-2.1V360l1.5.3v.6h-3.9Z"/><path d="M356.1,332.3l-.4-2.3h1.2l.6,1.5a3.6,3.6,0,0,0,2.5,1.1,2.1,2.1,0,0,0,2.3-2.2,2.5,2.5,0,0,0-1.8-2.3l-2.1-.9c-1.5-.7-2.2-1.6-2.2-2.8s1.4-2.9,4.1-3.5a5.7,5.7,0,0,1,3.1,1v2.3h-.9l-.4-1.5a2.7,2.7,0,0,0-2.1-.9,1.8,1.8,0,0,0-2.1,1.9,2.1,2.1,0,0,0,1.6,1.9l2,.9c1.7.7,2.5,1.7,2.5,3.2s-1.5,3.2-4.3,3.8A5.4,5.4,0,0,1,356.1,332.3Z"/><rect x="321.7" y="142.4" width="104.8" height="20.97" fill="#dfc7b2"/><path d="M352.1,158.5l1.4-.2V147.4l-1.5-.2v-.7h3.8l3.7,9.5.2,1,4.2-10.5h3.7v.7l-1.5.2v10.9l1.5.2v.6h-4.8v-.6l1.6-.2v-8.2l.3-2.1L360,159.1h-1.1l-3.6-9-.6-2.1v10.3l1.5.2v.6h-3.9Z"/><polyline points="321.7 170.3 321.7 173.2 374.1 173.2 426.5 173.2 426.5 170.3" fill="none" stroke="#295ba8" stroke-miterlimit="10" stroke-width="0.74"/><line x1="374.1" y1="176" x2="374.1" y2="173.2" fill="none" stroke="#295ba8" stroke-miterlimit="10" stroke-width="0.74"/><text transform="translate(362.6 182.4)" font-size="7.03" fill="#295ba8" font-family="Helvetica">50mm</text><path d="M371.9,126.8v-2.3h.4v1.9h1v-1.7h.5v1.7h1.5v.4Z" fill="#295ba8"/><path d="M372.4,121.1a2,2,0,0,1,1.1-.3,1.8,1.8,0,0,1,1.3.4,1.5,1.5,0,0,1,.6,1.3,1.7,1.7,0,0,1-.5,1.2,1.8,1.8,0,0,1-1.3.4,2.7,2.7,0,0,1-1.2-.3,1.5,1.5,0,0,1-.6-1.3A1.7,1.7,0,0,1,372.4,121.1Zm2.2.4-1.1-.2a1.2,1.2,0,0,0-.9.3,1,1,0,0,0-.4.9.9.9,0,0,0,.4.8,1.5,1.5,0,0,0,1,.4,1.7,1.7,0,0,0,1-.3,1.1,1.1,0,0,0,.4-1A1.3,1.3,0,0,0,374.6,121.5Z" fill="#295ba8"/><path d="M371.9,120.2v-.4h3v-1.7h.4v2.1Z" fill="#295ba8"/><path d="M371.9,117.6v-1.4a1.4,1.4,0,0,1,.5-1.1,2,2,0,0,1,1.1-.3,1.6,1.6,0,0,1,1,.2,1.2,1.2,0,0,1,.8,1.2v1.4Zm3-1.3v-.4a.8.8,0,0,0-.4-.4l-.5-.2h-.4a1.7,1.7,0,0,0-1,.3,1,1,0,0,0-.3.8v.8h2.6Z" fill="#295ba8"/><path d="M371.9,114.1v-.4h3V112h.4v2.1Z" fill="#295ba8"/><path d="M371.9,111.4v-.5h3.4v.5Z" fill="#295ba8"/><path d="M371.9,110.2v-.6l2.8-1.7h-2.8v-.4h3.4v.5l-2.8,1.7h2.8v.5Z" fill="#295ba8"/><path d="M371.9,106.7v-2.5h.4v2h1v-1.9h.4v1.9h1.2v-2.1h.4v2.6Z" fill="#295ba8"/><path d="M350.4,305.2l1.3-.2,3.7-5.1-3.5-5.3-1.4-.2v-.6h4.9v.6l-1.5.2,2.1,3.5.2.7,2.8-4.2-1.4-.2v-.6h4v.6l-1.3.2-3.5,4.8,3.8,5.6,1.2.2v.6h-4.8v-.6l1.4-.2-2.3-3.7-.2-.7-3,4.4,1.4.2v.6h-3.9Z"/><path d="M363,305l-.3-2.4h1.1l.6,1.5a3.3,3.3,0,0,0,2.5,1.1,2.1,2.1,0,0,0,2.3-2.2,2.5,2.5,0,0,0-1.8-2.3l-2.1-.9c-1.5-.6-2.2-1.5-2.2-2.8s1.4-2.9,4.1-3.5a5.5,5.5,0,0,1,3.1,1v2.3h-.8l-.5-1.5a2.7,2.7,0,0,0-2.1-.9,1.9,1.9,0,0,0-2.1,1.9c0,.9.5,1.5,1.6,2l2,.8c1.7.7,2.5,1.8,2.5,3.2s-1.5,3.2-4.3,3.8A5.5,5.5,0,0,1,363,305Z"/><path d="M355.2,387.4l1.5-.2V376.8l-1.5-.2V376h4.7v.6l-1.5.2v10.4h4.3l1.1-2.3h.7L364,388h-8.8Z"/><path d="M348.2,414.8l1.3-.2,3.7-5.1-3.5-5.4-1.4-.2v-.6h4.9v.6l-1.5.3,2.1,3.5.3.6,2.8-4.1-1.5-.2v-.6h4v.6l-1.3.2-3.5,4.8,3.8,5.6,1.2.2v.6h-4.8v-.6l1.4-.3-2.3-3.6-.2-.7-3,4.3,1.4.3v.6h-3.9Z"/><path d="M360.6,414.8l1.6-.3V404.2l-1.6-.2v-.6h4.7v.6l-1.5.2v10.4h4.2l1.2-2.3h.6l-.6,3.2h-8.7Z"/><path d="M348.2,442l1.3-.2,3.7-5.1-3.5-5.4-1.4-.2v-.5h4.9v.5l-1.5.3,2.1,3.5.3.6,2.8-4.1-1.5-.2v-.6h4v.6l-1.3.2-3.5,4.8,3.8,5.6,1.2.2v.6h-4.8V442l1.4-.3-2.3-3.6-.2-.7-3,4.3,1.4.3v.6h-3.9Z"/><path d="M360.6,442l1.6-.3V431.4l-1.6-.2v-.6h4.7v.6l-1.5.2v10.4h4.2l1.2-2.3h.6l-.6,3.2h-8.7Z"/><path d="M335.8,442l1.4-.2,3.7-5.1-3.6-5.4-1.3-.2v-.5h4.8v.5l-1.4.3,2.1,3.5.2.6,2.8-4.1-1.5-.2v-.6h4v.6l-1.4.2-3.5,4.8,3.8,5.6,1.3.2v.6h-4.8V442l1.5-.3-2.3-3.6-.3-.7-3,4.3,1.4.3v.6h-3.9Z"/><polyline points="316.3 142.4 313.4 142.4 313.4 152.9 313.4 163.4 316.3 163.4" fill="none" stroke="#295ba8" stroke-miterlimit="10" stroke-width="0.74"/><line x1="310.5" y1="152.9" x2="313.4" y2="152.9" fill="none" stroke="#295ba8" stroke-miterlimit="10" stroke-width="0.74"/><text transform="translate(286.1 155.7)" font-size="7.03" fill="#295ba8" font-family="Helvetica">10mm</text><line x1="374.1" y1="170.6" x2="374.1" y2="130.8" fill="none" stroke="#295ba8" stroke-miterlimit="10" stroke-width="0.37" stroke-dasharray="1.48 1.48"/><text transform="translate(438.9 133.2)" font-size="4.44" fill="#295ba8" font-family="Helvetica">SE<tspan x="5.9" y="0" letter-spacing="-0.07em">LV</tspan><tspan x="10.7" y="0">AGE EDGE</tspan></text><polyline points="421.4 138.8 421.4 131.2 436.9 131.2" fill="none" stroke="#295ba8" stroke-miterlimit="10" stroke-width="0.37" stroke-dasharray="1.48 1.48"/><text transform="translate(438.2 169)" font-size="4.44" fill="#295ba8" font-family="Helvetica">SE<tspan x="5.9" y="0" letter-spacing="-0.07em">LV</tspan><tspan x="10.7" y="0">AGE EDGE</tspan></text><polyline points="436.3 167.4 422.8 167.4 422.8 165" fill="none" stroke="#295ba8" stroke-miterlimit="10" stroke-width="0.37" stroke-dasharray="1.48 1.48"/><polyline points="80 223.8 80 227.3 142.9 227.3 205.8 227.3 205.8 223.8" fill="none" stroke="#295ba8" stroke-miterlimit="10" stroke-width="0.74"/><line x1="142.9" y1="230.7" x2="142.9" y2="227.3" fill="none" stroke="#295ba8" stroke-miterlimit="10" stroke-width="0.74"/><text transform="translate(131.4 236.5)" font-size="7.03" fill="#295ba8" font-family="Helvetica">60mm</text><text transform="translate(57.8 229.3)" font-size="7.03" fill="#c10230" font-family="Helvetica">10mm</text><text transform="translate(19.9 158.8)" font-size="7.03" fill="#295ba8" font-family="Helvetica">55mm</text><polyline points="48.9 98.6 45.5 98.6 45.5 156.2 45.5 213.9 48.9 213.9" fill="none" stroke="#295ba8" stroke-miterlimit="10" stroke-width="0.74"/><line x1="42" y1="156.2" x2="45.5" y2="156.2" fill="none" stroke="#295ba8" stroke-miterlimit="10" stroke-width="0.74"/><rect x="59" y="98.6" width="168.2" height="115.32"/><path d="M102.4,203.6c.2-.4.6-.6.9-.9a16.6,16.6,0,0,1,3.5-1.8l2.7-1.1c-2.8.3-5.4,1.1-8.2,1.6a1.3,1.3,0,0,1,.6-.5,21.8,21.8,0,0,1,6.5-1.8l5.3-.6c.1-.2,0-.3-.1-.5q-1.5-3.5-2.7-6.9a.6.6,0,0,0-.5-.5c-6.2-1.5-8.7-6.1-9.2-10.6a.6.6,0,0,0-.2-.5,13,13,0,0,1-1.9-3.7l-.2-.3-.4.4-.8.5c-1.1.4-1.4.2-1.3-.9s-.2-3.7.4-5.6c-.4.1-.4.3-.5.4a15.5,15.5,0,0,1-1.9,2.4l-.9.7c-.7.3-1.2,0-1.2-.8a9.5,9.5,0,0,1,.5-3.3A29,29,0,0,1,97,160a15.9,15.9,0,0,1,2-2.4l-.4-.4a21.3,21.3,0,0,1-5-3.8,13,13,0,0,1-1.8-2.3,2,2,0,0,1-.1-1.7,5.3,5.3,0,0,1,2.4-3.1,13.1,13.1,0,0,1,5.8-1.8,25.5,25.5,0,0,1,7.3,0h.6c-.3-1.3-.7-2.5-.9-3.8a15.5,15.5,0,0,1-.2-4.3,2.6,2.6,0,0,1,.9-1.6.9.9,0,0,1,1.5,0l.7,1.1a3.6,3.6,0,0,0,.7,1,.4.4,0,0,0,.5.2.7.7,0,0,0,.4-.5,7.5,7.5,0,0,0,0-1.5,33.7,33.7,0,0,1,0-5.5,11.1,11.1,0,0,1,.8-3.6,4.3,4.3,0,0,1,2.2-2.2,1.8,1.8,0,0,1,2.6,1.7,12.6,12.6,0,0,1-.4,2.8,5,5,0,0,0-.2,1.2c0,.2.1.3.3.4l.3-.2a3.5,3.5,0,0,0,.6-1.4l1.8-5.8a26.7,26.7,0,0,1,1.4-3.6,9.6,9.6,0,0,1,1.8-2.3,3.8,3.8,0,0,1,3.4-.8,7.7,7.7,0,0,1,2.5,1,3.2,3.2,0,0,1,1.4,3.9,8.2,8.2,0,0,1-2.5,3.9,41.5,41.5,0,0,1-3.2,2.7,12.1,12.1,0,0,0-3,3.4,5,5,0,0,0-.8,2,1.4,1.4,0,0,0,1.4-.4l1.5-1.4a3.6,3.6,0,0,1,1.6-1.1,1.8,1.8,0,0,1,2.3,2.3,2.4,2.4,0,0,1-.7,1.3l-1.6,1.8c3.2,3.4,3.2,3.4,3.9,9.1.1.1.2,0,.4-.1a20,20,0,0,1,10-.9h.5c2.3.8,3.2,2.1,3,4.6a9.6,9.6,0,0,1-1.9,4.8,21.9,21.9,0,0,1-2.1,2.3l8.4.2a.7.7,0,0,0-.4-.5,15.5,15.5,0,0,1-3-4.1,7.8,7.8,0,0,1-.6-4,3.2,3.2,0,0,1,2.1-2.9,8.9,8.9,0,0,1,3.2-.8,20.8,20.8,0,0,1,8.5,1.4h.1c.1-.9.1-1.7.2-2.6a10.8,10.8,0,0,1,1.8-4.6,6.1,6.1,0,0,1,3.4-2.7,4.5,4.5,0,0,1,3.9.3l.4.3h.2c.1-1,.3-1.9.4-2.9a82.7,82.7,0,0,0,.8-8.7,26.9,26.9,0,0,0-.6-6.9,7,7,0,0,0-.8-2c-.1-.4-.3-.5-.7-.3l-2.7.7h-1.4a1.9,1.9,0,0,1-1.9-2,4.7,4.7,0,0,1,4.9-5,10.9,10.9,0,0,1,4,.7,5.4,5.4,0,0,1,3.5,3.1,14,14,0,0,1,1.4,5.6,30.2,30.2,0,0,1-.3,6,2,2,0,0,1-.1.7,10,10,0,0,1,1.3-1.5,3.5,3.5,0,0,1,3.1-1.1,2.4,2.4,0,0,1,2.1,2,1.5,1.5,0,0,1-.5,1.7l-2.6,2.4a21.8,21.8,0,0,0-2.1,2.2,3.9,3.9,0,0,0-.7,1.6c.3.1.4-.1.6-.2a6.5,6.5,0,0,1,2.4-.6,2,2,0,0,1,1.9,2.8,3.9,3.9,0,0,1-1,1.6,10.9,10.9,0,0,1-1.7,1.3,5.5,5.5,0,0,0-1.8,1.6,1.6,1.6,0,0,1,.8,1.9c-.5,0-.9-.1-1.1-.6s-.2-.3-.4-.4a6.6,6.6,0,0,0-.9,1.9,7.5,7.5,0,0,0-.4,1.6c-.1.3,0,.4.3.5a4.5,4.5,0,0,1,2.3,2,.6.6,0,0,0,.8.3,25.2,25.2,0,0,1,11.9-.3,9.8,9.8,0,0,1,3.7,1.4,5.5,5.5,0,0,1,2.8,3.5v.8a10.8,10.8,0,0,1-2.1,3,26.4,26.4,0,0,1-5,3.8,1,1,0,0,0-.5.4,24,24,0,0,1,5.7,11.2,15.4,15.4,0,0,1,.4,3c-.1.8-.6,1.1-1.3.7a1.6,1.6,0,0,1-.9-.7,12.4,12.4,0,0,1-1.8-2.2l-.4-.4h-.1a14,14,0,0,0,.7,4,6.5,6.5,0,0,1,.5,2c.1,1.2-.4,1.5-1.5,1l-.7-.6-.4-.2c-.1.1-.1.3-.2.5a19.6,19.6,0,0,1-1.7,3.2,3,3,0,0,0-.4.8,11.7,11.7,0,0,1-9.1,10.5c-.3,0-.4.2-.5.5-.8,2.3-1.8,4.6-2.7,6.9a.8.8,0,0,0-.2.5,46.4,46.4,0,0,1,6.4.7c2.7.5,5.5,1.5,6,2.1-2.7-.4-5.4-1.2-8.1-1.5l2.6,1.1a15.2,15.2,0,0,1,3.6,1.8c.3.3.7.5.8.9h-.1l-.6-.3-6.7-2.6a16.4,16.4,0,0,0-6.2-1.3h-2a.6.6,0,0,1-.5-.2c.2-.3.5-.3.8-.4h2.5c.3,0,.4,0,.5-.2a52.6,52.6,0,0,0,2.5-6.6c0-.2.2-.4,0-.6a66.5,66.5,0,0,1-7.7.6,41.1,41.1,0,0,1-7.8-.7c0,.3-.1.6,0,.8a17.7,17.7,0,0,0,.7,4.6c.3,1.1.3,1.1,1.4,1.1a6.9,6.9,0,0,1,2.4.5c.3.1.7.3.5.9l-.6-.2a10.6,10.6,0,0,0-3.1-.2l-11,2.3h-.7a7.6,7.6,0,0,1,1.9-1.2,23.3,23.3,0,0,1,6.3-1.6c-3.2-.5-6.4.5-9.7.7,3.6-2.1,7.5-2.3,11.5-1.7.1-.2,0-.4,0-.6s-.6-2.8-.7-4.2.2-1.1-.1-1.4-.8-.3-1.3-.5a20.2,20.2,0,0,1-7.2-3.9,9.1,9.1,0,0,1-3.3-6.3,12,12,0,0,1,.8-5.9,31.3,31.3,0,0,1,5.5-9.3.6.6,0,0,0,.3-.5l-17.9-.6c0,.3.2.4.3.6l2.4,3.1a28.8,28.8,0,0,1,4,8.5c1.1,4.9-.4,8.8-4.6,11.7a20.1,20.1,0,0,1-2.5,1.4,28.6,28.6,0,0,1-4.1,1.5c-.2.1-.4.2-.4.5a20.2,20.2,0,0,1-.4,4.3,7.6,7.6,0,0,0-.3,1.6c4-.6,7.9-.4,11.5,1.7-3.2-.2-6.4-1.2-9.7-.7a16.7,16.7,0,0,1,8.2,2.7h-.5l-9-1.9a11,11,0,0,0-5.7-.1h-.2c-.1-.5.3-.7.7-.9a8,8,0,0,1,2.7-.4.7.7,0,0,0,.8-.5,24.5,24.5,0,0,0,.8-3.7,8.9,8.9,0,0,0,.1-2.3,51,51,0,0,1-15.6.1.8.8,0,0,0,.1.7,56.9,56.9,0,0,0,2.4,6.5c.1.2.3.2.6.2h2.5c.3.1.6.1.7.5l-1.9.2a14.3,14.3,0,0,0-6.1,1.1c-1.6.7-3.3,1.2-4.9,1.8l-3.1,1.3Zm3.8-39.7-.3,1a55.7,55.7,0,0,0-2.5,7.9,24.7,24.7,0,0,0-.5,9,8.6,8.6,0,0,0,4.8,6.7l2.4.9a31.6,31.6,0,0,0,8.6,1.4,33.5,33.5,0,0,0,10.9-1.2,17.6,17.6,0,0,0,8.1-5,7.7,7.7,0,0,0,1.8-6,15.6,15.6,0,0,0-1.6-5.7,66,66,0,0,0-6.8-11.1l-.8-1.1h.1l1.7,1.7a2.6,2.6,0,0,0,2.2,1l17.6.4a.7.7,0,0,0,.8-.3l1.9-1.9c.1-.1.2-.3.4-.3l-.4.6a80.4,80.4,0,0,0-5.1,7.8,29.3,29.3,0,0,0-2.9,6.5c-1.1,4.2-.1,7.6,3.4,10.2a18.3,18.3,0,0,0,7,3.4,36.6,36.6,0,0,0,15.8.4,18.4,18.4,0,0,0,6.3-2.3,7.7,7.7,0,0,0,3.3-4.2,10.7,10.7,0,0,0,.7-3.9,31.4,31.4,0,0,0-1.6-10.1l-.2-.4a3.1,3.1,0,0,1-1.1-2,20.2,20.2,0,0,0-.6-3.4h0c.2,0,.2.3.4.3a10.3,10.3,0,0,1,.5-2.4l-.6-.8c-.2-.2-.3-.2-.6-.1a20.5,20.5,0,0,1-4.8,1,8.8,8.8,0,0,0-5.6,2.3,11.8,11.8,0,0,1-2.9,1.6,1.4,1.4,0,0,1-1.4-.2l-3.9-3.7a.9.9,0,0,0-.7-.3,23.3,23.3,0,0,1-9.4-3.8l-.9-.2H136.2a2,2,0,0,0-1.1.3,24.7,24.7,0,0,1-9.4,3.7.6.6,0,0,0-.6.3l-4.1,3.8a1.2,1.2,0,0,1-1,.2,10.3,10.3,0,0,1-3.1-1.7l-2.5-1.8-.6-.2a31.2,31.2,0,0,1-7.4-1.4c-.1,0-.3-.1-.4.1l-1.4,1.7v.3a25.3,25.3,0,0,1,.3,3A11.6,11.6,0,0,1,106.2,163.9Zm67.2-2.8h.2a32.9,32.9,0,0,0,17.3-8.2,20.9,20.9,0,0,0,2-2.2,1.5,1.5,0,0,0,.1-1.3,4.6,4.6,0,0,0-1.4-1.7,10.4,10.4,0,0,0-3.5-1.7,24.8,24.8,0,0,0-11.8-.3c-.8.2-.7.1-.6,1a4.9,4.9,0,0,1-4.5,5.4h-1.5c1.6.7,3.2.5,4.9.4-.6.6-1.7.8-3.4.7a5,5,0,0,1-4.2-2,6.3,6.3,0,0,1-5.2,1.8,11,11,0,0,0,4-2.1h-.4a5.5,5.5,0,0,1-4,.1,5.7,5.7,0,0,1-3.8-4.3,2.2,2.2,0,0,0-1.4-1.7l-1.1-.3a14.4,14.4,0,0,0-5.1-.8,17.2,17.2,0,0,0-3.9.4,2.5,2.5,0,0,0-1.8,2.2v.9a8.6,8.6,0,0,0,1.9,4.6,19.7,19.7,0,0,0,11.3,7.8,12,12,0,0,0,2,.3l-2.3-2.7c-.1-.2-.2-.2-.4-.2a7.8,7.8,0,0,1-2-1.1,19.4,19.4,0,0,1-5.5-6.9c-.4-.8-.3-.8-1.2-.7h0a5.7,5.7,0,0,1,7.3-1.9c.2.1.4.2.4.4s-.7,0-1,0l-1.5-.2c-.3,0-.4.2-.4.5a8.3,8.3,0,0,0,.4,1.5,23,23,0,0,0,2.5,4.6,88.1,88.1,0,0,0,9.1,11.1c.7.7.5.7,1.4.2a63.5,63.5,0,0,0,10.6-7.9,32.6,32.6,0,0,0,5.9-7.4,1.1,1.1,0,0,0,.2-.6c-.6-.4-1.4-.3-2.2-.6,2.4-1.3,8.4,1.4,8.6,3.7-.6-.2-1-.8-1.7-1l-.3.4a42.3,42.3,0,0,1-5.1,4.4,14.7,14.7,0,0,1-4.9,2.3l-.4.2a20.1,20.1,0,0,1-2.8,2.3ZM120.1,151a9.2,9.2,0,0,0,3.9,2.1,6.2,6.2,0,0,1-5.2-1.8,4.5,4.5,0,0,1-3.5,1.9c-1.7.3-3.6,0-4.1-.6,1.7.1,3.3.3,4.8-.4h-.3c-3.6.3-5.9-2.1-5.6-5.7.1-.4,0-.5-.4-.6a25.9,25.9,0,0,0-10-.3,14.2,14.2,0,0,0-5.4,2.1,5.2,5.2,0,0,0-1.4,1.6,1.3,1.3,0,0,0,.1,1.6,9.5,9.5,0,0,0,1.9,2.1,31.5,31.5,0,0,0,17.4,8.2c0-.1,0-.2-.1-.2s-2.4-1.8-3.5-2.8-.2-.2-.4-.2a12,12,0,0,1-3.1-1.3,27.5,27.5,0,0,1-6.8-5.4c-.1-.2-.2-.4-.5-.4l-.7.5c-.3.2-.5.5-.9.5.5-2.5,6.7-5.1,8.6-3.7-.7.3-1.5.2-2.2.6l.3.6a34.6,34.6,0,0,0,3.2,4.6,55.3,55.3,0,0,0,13.6,10.9c.3.2.5.1.8-.1a86.1,86.1,0,0,0,7.8-9.2,28.5,28.5,0,0,0,3.7-6,8.1,8.1,0,0,0,.7-2.2c.1-.5-.1-.6-.5-.6l-1.4.2c-.3,0-.6.2-.9,0s2-1.1,3.4-1a5.4,5.4,0,0,1,4.3,2.6c-.3.2-.7-.2-.9,0a4.2,4.2,0,0,0-.4,1c0,.1-.1.1-.1.2a21.2,21.2,0,0,1-4.7,6,6.3,6.3,0,0,1-2,1.3,3.6,3.6,0,0,0-1.8,1.4l-1.2,1.5c-.1.1-.3.2-.2.4l1.5-.4a20.3,20.3,0,0,0,11.7-7.7,11.2,11.2,0,0,0,1.8-4c.4-2.6-.5-3.7-2.8-4a21,21,0,0,0-5.6,0,10.4,10.4,0,0,0-3.9,1.2,1.2,1.2,0,0,0-.8,1.1,6.7,6.7,0,0,1-1,2.3,5.6,5.6,0,0,1-4.2,2.6A6,6,0,0,1,120.1,151Zm49.3-38.4c-.3.5-.8.6-1.2.8a.4.4,0,0,0-.2.6c.2.5.3,1,.5,1.4a29.3,29.3,0,0,1,.7,7.2,84,84,0,0,1-1.1,13.2,1.4,1.4,0,0,0,.2,1.1,14.8,14.8,0,0,1,1.3,3.5,15,15,0,0,1,.2,2H171a.4.4,0,0,0,.4-.4,8.4,8.4,0,0,1,.5-1.7,14.2,14.2,0,0,1,.8-1.8H171a1.2,1.2,0,0,1,1-.9h1c.3.1.4,0,.6-.2a13,13,0,0,1,3.2-3,1.8,1.8,0,0,0,1-1.1,1.1,1.1,0,0,0-.3-1.3.9.9,0,0,0-1.1-.3,10.5,10.5,0,0,0-2.8,1.4.8.8,0,0,1-.7.1c-.3-.1-.2-.4-.2-.6s.1-.3.1-.5a6.9,6.9,0,0,1,1.2-2.6,25,25,0,0,1,2.7-2.9,16.2,16.2,0,0,0,1.8-1.9,1.3,1.3,0,0,0-1.3-2.1,3.8,3.8,0,0,0-2.2,1.3l-1.5,2.1a17.1,17.1,0,0,1-1.1,1.4c-.2.2-.4.4-.7.3s0-.3.1-.4a37.8,37.8,0,0,0,.8-8.9,14.9,14.9,0,0,0-1.1-5.4,6,6,0,0,0-4.9-3.9,4.8,4.8,0,0,0-4.3,1.2,2.7,2.7,0,0,0-.8,2.3,1.3,1.3,0,0,0,1.3,1.3h1.3l3.3-.9A4.3,4.3,0,0,1,169.4,112.6Zm-49.7,22.1-.3-.5c-.1-.5-.3-.5-.7-.4h-.8c-.2.1-.3-.1-.3-.3s0-.3.3-.3l.8-.2c.4,0,.5-.2.5-.5a7,7,0,0,1,.9-2.4,13.9,13.9,0,0,1,2.7-3.2c1.1-1.1,2.4-2,3.6-3a6,6,0,0,0,2.1-3.8,2.5,2.5,0,0,0-1.1-2.5c-1.6-1-3.6-1.2-5,.8a12.3,12.3,0,0,0-1.7,3.2c-.8,2.4-1.5,4.9-2.2,7.3-.2.5-.3,1-.5,1.4a1.4,1.4,0,0,1-1.6.8,1.3,1.3,0,0,1-1.1-1.3,11,11,0,0,1,.2-1.8,6.6,6.6,0,0,0,.3-2.4c-.2-.8-.6-1-1.3-.6a4.1,4.1,0,0,0-1.7,2.4,18.4,18.4,0,0,0-.3,3.3v4.7a6.3,6.3,0,0,1-.3,1.9c-.5,1.3-1.5,1.5-2.4.4l-.2-.3-.8-1.1a.7.7,0,0,0-.5-.4c-.3,0-.4.3-.5.6a6.9,6.9,0,0,0-.2,2.5,31.1,31.1,0,0,0,1.1,4.9,1.4,1.4,0,0,0,1.3,1.2c.4,0,.6,0,.8-.3a4.8,4.8,0,0,1,3.7-2.4H116a11.2,11.2,0,0,1,.9-4.4A6.7,6.7,0,0,1,119.7,134.7Zm0,11a4.4,4.4,0,0,1,0,3.2.8.8,0,0,0,.3.9,4.2,4.2,0,0,0,5.9-.8,8.8,8.8,0,0,0,1.9-6.4,9.4,9.4,0,0,0-3.6-6.7,3.3,3.3,0,0,0-5,.5,10.4,10.4,0,0,0-2.3,6.1.4.4,0,0,0,.2.4l1,.5c.4-1.9,1.5-2.8,2.9-2.5a2.4,2.4,0,0,1,2,2.8C122.8,145.2,121.6,145.9,119.7,145.7Zm48-2.3.8-.4a.4.4,0,0,0,.3-.6,12.1,12.1,0,0,0-.7-3.3,7.1,7.1,0,0,0-1.9-3.1,3.1,3.1,0,0,0-4.1-.4l-1,.7c-3.1,3.3-4,6.6-2.4,10.7a6.5,6.5,0,0,0,2.1,2.8,4.1,4.1,0,0,0,5,0,.6.6,0,0,0,.2-.9,5.3,5.3,0,0,1-.1-2.8c.1-.1.2-.3.1-.4q-2.9.3-3.3-2.1a2.5,2.5,0,0,1,2.1-2.7C166.3,140.7,167.3,141.6,167.7,143.4Zm-74.6,29a1.9,1.9,0,0,0,.8-.7l1.7-2.2,1.8-2.7c.1-.1.2-.4.5-.4s.1.4.1.7-.1,1.1-.2,1.6-.4,2.5-.5,3.7a1.5,1.5,0,0,0,.1,1.3,1.2,1.2,0,0,0,.6-.6l.9-1.9,2.1-5.8c.1-.2.1-.5.5-.7s1.2,2.6,1.9,3.8a11.7,11.7,0,0,0-.5-7.4.7.7,0,0,1,.8.2c.2.1.2.4.4.6l1.2-1.5-4.9-2.1a.7.7,0,0,0-.6.1,10.9,10.9,0,0,0-2.2,2.6,37.2,37.2,0,0,0-4.4,10A1.7,1.7,0,0,0,93.1,172.4Zm88.9-12a11.7,11.7,0,0,0-.5,7.4c.7-1.3,1-2.7,1.9-3.8s.4.5.5.8l2,5.4a14.7,14.7,0,0,0,1,2.2c.2.2.3.5.7.5a10.8,10.8,0,0,0,0-1.8c-.2-1.4-.5-2.8-.7-4.2a2.5,2.5,0,0,1,.1-1.2c.3.1.4.3.6.5l1.3,1.9A19.4,19.4,0,0,0,191,171a1.3,1.3,0,0,0,.9.7,4.1,4.1,0,0,0-.2-1.6,46.7,46.7,0,0,0-3.8-8.9,10.5,10.5,0,0,0-2-2.7.8.8,0,0,0-.8-.1c-1.3.7-2.7,1.2-4.1,1.8s-.4,0-.5.2a1,1,0,0,0,.4.5C181.2,160.5,181.4,160.2,182,160.4Zm-63.1-12.1a5.3,5.3,0,0,0-1.1-3.9,4,4,0,0,0-5.5-.3,4,4,0,0,0-.5,5.6,6,6,0,0,0,2.5,1.6,3.7,3.7,0,0,0,3.2-.6c-1.1-.5-1.5-1.3-1-2.2S117.8,147.6,118.9,148.3Zm49.3,2.4a3.9,3.9,0,0,0,3,.6,4.7,4.7,0,0,0,3.7-3.5,4.2,4.2,0,0,0-2-4.1,3.8,3.8,0,0,0-4.3.2,4.5,4.5,0,0,0-1.7,4.3c1.2-.6,2-.5,2.4.4S169.3,150.2,168.2,150.7Zm-66.8,27.1a.1.1,0,0,0,.1-.1,34.2,34.2,0,0,1,1.6-7.2.3.3,0,0,0,0-.4,8.6,8.6,0,0,1-1.3-2c0-.2,0-.3-.3-.4l-.6,1.7-.6,1.7-.9,1.6a8.3,8.3,0,0,1-1.1,1.5c-.3.5-.9.7-1.2,1.2s1.7-.8,2.5-1.4C100.3,175.3,100.5,176.7,101.4,177.8Zm82.9.1c1-1.2,1.2-2.7,1.9-3.9a8.7,8.7,0,0,0,1.1.9,2.2,2.2,0,0,0,1.3.6,2.5,2.5,0,0,0-.4-1.4c-.4.5-.8.3-1.2-.1a13.9,13.9,0,0,1-3.1-5.4,11.5,11.5,0,0,0-.6-1.7l-1.1,2.1v.3A36,36,0,0,1,184.3,177.9Zm-60.7-44a1.8,1.8,0,0,0-2.3,0c-.2.2-.6.1-.9.3h.3a4.8,4.8,0,0,1,2.9.2c.2.1.3.1.4-.1s1.1-1.1,1.6-1.8l.3-.8a.8.8,0,0,0-.4-.7c-.2-.2-.4-.1-.7,0s-1.3,1.2-2,1.8S123.7,133.2,123.6,133.9Zm25.2,22.8a1.1,1.1,0,0,0-.9-.5l-9.5-.2c-.7-.1-1,.3-1.5.7Zm-48-4.3c1.7-1.5,1.7-1.6.8-3.1s0-.1-.1-.2h-.3a5.4,5.4,0,0,0-2,1c-.2.1-.3.2-.2.4A17.1,17.1,0,0,0,100.8,152.4Zm84.1,0a9.6,9.6,0,0,0,1.7-1.8c.3-.3.2-.5-.1-.7a8.2,8.2,0,0,0-1.9-.9c-.2,0-.3,0-.4.2a7.5,7.5,0,0,1-.7,1.2c-.1.2-.1.3.1.5Zm-50.1-1.8.3-.4.6-1.3c.3-.7.2-.9-.4-1.3l-.4-.2c-.8-.3-1-.3-1.2.6v.2c0,.5-.5,1.1-.2,1.5a4.3,4.3,0,0,0,1.3.9Zm16.2,0,1.3-.8c.2-.1.2-.2.2-.4a12.1,12.1,0,0,1-.5-1.8c-.1-.2-.1-.3-.2-.3s-1.9.5-1.9,1v.2A10.6,10.6,0,0,0,151,150.6Zm2.2,3,.8-.9a.5.5,0,0,0,0-.5,6.4,6.4,0,0,1-1.1-1.6,6.7,6.7,0,0,0-1.4.9A8.3,8.3,0,0,0,153.2,153.6Zm-20.6,0a17.3,17.3,0,0,0,1.7-2.1l-1.5-.9a5.4,5.4,0,0,1-1,1.6c-.1.2-.2.3,0,.5A3.2,3.2,0,0,0,132.6,153.6Zm50.1.8a10,10,0,0,0,1.5-1.4l-1.5-1.6a10,10,0,0,0-.8,1.4.2.2,0,0,0,0,.3Zm-79.6,0,.8-1.3c0-.1.1-.2,0-.3s-.5-.9-.8-1.4l-1.5,1.6A10,10,0,0,0,103.1,154.4Zm3.7,2.1-2.1-2.8a1.3,1.3,0,0,0-.5.6.5.5,0,0,0,.1.8A20.1,20.1,0,0,0,106.8,156.5Zm74.3-2.8-2.2,2.8h.3l1.8-1.1c.9-.6.9-.8.2-1.6A.1.1,0,0,0,181.1,153.7Zm-49.4.7a2.3,2.3,0,0,0-.7-.7l-1.6,2.4h.1Zm23-.8-.6.8,2.2,1.8h.1Zm11.8-10.9a.7.7,0,0,0-.7-.7.8.8,0,0,0-.8.7.7.7,0,0,0,.8.7A.7.7,0,0,0,166.5,142.7Zm-45.8,0a.7.7,0,0,0-1.4,0c0,.4.2.7.6.7S120.7,143.2,120.7,142.7Zm48.1,6.2a.4.4,0,0,0-.8,0,.4.4,0,0,0,.4.4A.4.4,0,0,0,168.8,148.9Zm-51.5-.4c-.2,0-.4.2-.3.4a.4.4,0,0,0,.4.4.3.3,0,0,0,.3-.5C117.7,148.6,117.6,148.5,117.3,148.5Z" fill="#d6bda9"/><path d="M183.5,203.7H183l-.4-.2-2.2-.8-4.5-1.8a16.4,16.4,0,0,0-6.2-1.3h-2l-.6-.3h.1l.8-.4h2.5c.2,0,.4,0,.4-.2l.3-.6a37.7,37.7,0,0,0,2.2-5.9h0a.6.6,0,0,0,.1-.4,57.4,57.4,0,0,1-7.7.6,39,39,0,0,1-7.8-.7v.7a18.5,18.5,0,0,0,.8,4.6c.3,1,.3,1,1.3,1h.1a5.9,5.9,0,0,1,2.3.4c.3.1.8.3.6,1h-.7a8.4,8.4,0,0,0-3.1-.2l-8.6,1.7-2.4.6h-1l.3-.3a10,10,0,0,1,1.9-1.2,23.3,23.3,0,0,1,5.6-1.5,21.9,21.9,0,0,0-5.7.4l-3.2.4h-.5l.4-.2c3.1-1.8,6.8-2.4,11.4-1.7.1-.1,0-.3,0-.4h0l-.3-1.3c-.1-1-.3-1.9-.4-2.9v-.5a1.1,1.1,0,0,0,0-.8,1.2,1.2,0,0,0-.9-.3l-.4-.2a19.4,19.4,0,0,1-7.3-3.9,9.8,9.8,0,0,1-3.3-6.4,12.6,12.6,0,0,1,.8-5.9,31.8,31.8,0,0,1,5.5-9.3h.1c.1-.1.2-.2.2-.3l-17.7-.6.2.3h.1c.9,1.1,1.7,2.2,2.3,3.1a25.7,25.7,0,0,1,4.1,8.6,10.5,10.5,0,0,1-4.6,11.7,11,11,0,0,1-2.6,1.5,20.8,20.8,0,0,1-4,1.5c-.3.1-.4.2-.4.4a15,15,0,0,1-.4,4.2v.5a3.6,3.6,0,0,0-.2,1.1c4.7-.7,8.3-.1,11.5,1.7l.3.2h-.4l-3.2-.4a21.9,21.9,0,0,0-5.7-.4,15.5,15.5,0,0,1,7.5,2.7h-.6l-2.5-.5-6.6-1.4a10.6,10.6,0,0,0-5.6-.1h-.3c-.1-.6.3-.8.8-1a8.4,8.4,0,0,1,2.7-.4c.3,0,.5-.1.7-.5a18.2,18.2,0,0,0,.8-3.6,7.9,7.9,0,0,0,.1-2.2,49.4,49.4,0,0,1-15.4.1v.5h.1a36.6,36.6,0,0,0,2.2,5.8l.2.6c.1.2.2.2.5.2h2.6a.7.7,0,0,1,.7.4h0l-2,.2a15.5,15.5,0,0,0-6.1,1.1l-3.1,1.2-1.8.6-.7.3-2.3,1h-.3v-.2a1.6,1.6,0,0,1,.7-.7c0-.1.1-.1.1-.2a20.2,20.2,0,0,1,3.6-1.8l.9-.3,1.1-.5-4.4.8-3.1.7h-.2v-.2a.7.7,0,0,1,.6-.4h.1a23.5,23.5,0,0,1,6.5-1.8,38.8,38.8,0,0,1,5.3-.6c0-.1-.1-.1-.1-.2V198a66.4,66.4,0,0,1-2.7-6.9c-.1-.3-.2-.4-.4-.4-7.2-1.7-8.9-7.4-9.3-10.7,0-.2,0-.3-.1-.4a11.6,11.6,0,0,1-2-3.8.1.1,0,0,1-.1-.1h-.1c-.1.1-.1.2-.2.2l-.9.6a1.7,1.7,0,0,1-1.2.1c-.2-.2-.3-.5-.2-1.1a6.7,6.7,0,0,0,0-2,13.1,13.1,0,0,1,.3-3.4l-.2.2h0l-.2.3c-.6.7-1.1,1.4-1.8,2.1a3.5,3.5,0,0,1-.9.7h-.9a1,1,0,0,1-.4-.9,9.1,9.1,0,0,1,.5-3.3,28.7,28.7,0,0,1,4.2-9.4,22,22,0,0,1,2-2.3l-.3-.2h-.1a22.8,22.8,0,0,1-5-3.9,9,9,0,0,1-1.8-2.3,2,2,0,0,1-.1-1.7,5.6,5.6,0,0,1,2.5-3.2,13.9,13.9,0,0,1,5.7-1.8,30.5,30.5,0,0,1,7.4,0h.4c0-.2-.1-.4-.1-.7s-.5-2-.7-3a15.2,15.2,0,0,1-.2-4.3,2.8,2.8,0,0,1,.9-1.7,1.1,1.1,0,0,1,1.7.1,7,7,0,0,1,.6.9c0,.1.1.1.1.2a7,7,0,0,0,.6.9.4.4,0,0,0,.5.2c.1,0,.2-.2.3-.4a6.5,6.5,0,0,0,0-1.4h0v-1a23.6,23.6,0,0,1,0-4.6,9.8,9.8,0,0,1,.8-3.6,4.3,4.3,0,0,1,2.3-2.3,1.8,1.8,0,0,1,2.7,1.8,7.1,7.1,0,0,1-.3,2.1c0,.3-.1.5-.1.8h-.1c0,.4-.1.7-.1,1s.1.3.2.3l.2-.2a3.5,3.5,0,0,0,.6-1.4c.3-.8.5-1.7.8-2.5a29.9,29.9,0,0,1,1-3.2,18,18,0,0,1,1.4-3.6,6.2,6.2,0,0,1,1.8-2.3,3.9,3.9,0,0,1,3.5-.9,6.9,6.9,0,0,1,2.5,1,3.4,3.4,0,0,1,1.5,4,9.2,9.2,0,0,1-2.5,4l-2.2,1.9-1.1.8a13.5,13.5,0,0,0-2.9,3.3,8.4,8.4,0,0,0-.8,1.9,1.2,1.2,0,0,0,1.2-.3l.2-.2,1.3-1.3a3.7,3.7,0,0,1,1.7-1,1.7,1.7,0,0,1,1.9.4,1.8,1.8,0,0,1,.5,1.9,3.1,3.1,0,0,1-.7,1.4l-1.1,1.2-.4.5c3,3.3,3.1,3.4,3.7,9.1h.3a19.8,19.8,0,0,1,10.1-.9h.5c2.4.8,3.3,2.1,3.1,4.7a9.8,9.8,0,0,1-1.9,4.9L139,155l8,.2-.2-.2h-.1a14.2,14.2,0,0,1-3.1-4.2,7,7,0,0,1-.6-4,3.4,3.4,0,0,1,2.1-3,8.9,8.9,0,0,1,3.3-.8,19.3,19.3,0,0,1,8.5,1.4h0c0-.2.1-.4.1-.7a10.9,10.9,0,0,1,.1-1.8,11,11,0,0,1,1.8-4.7,6.9,6.9,0,0,1,3.4-2.7,4.7,4.7,0,0,1,4,.3l.5.3h0a1.9,1.9,0,0,1,.1-.8l.3-2a77.9,77.9,0,0,0,.8-8.7,28.4,28.4,0,0,0-.6-6.9,8.4,8.4,0,0,0-.8-2c-.1-.3-.2-.4-.6-.2l-2.7.7a6.5,6.5,0,0,1-1.4,0,2,2,0,0,1-2-2.1,5.5,5.5,0,0,1,1.3-3.7,5.1,5.1,0,0,1,3.7-1.4,11.6,11.6,0,0,1,4,.7,5.7,5.7,0,0,1,3.6,3.2,14.4,14.4,0,0,1,1.4,5.6,29.4,29.4,0,0,1-.3,6v.3l1-1.2a3.7,3.7,0,0,1,3.2-1.1,2.4,2.4,0,0,1,2.2,2,1.8,1.8,0,0,1-.5,1.9l-.3.3-2.3,2.1a13.9,13.9,0,0,0-2.1,2.1,3.5,3.5,0,0,0-.7,1.5h.5a6.5,6.5,0,0,1,2.4-.6,2,2,0,0,1,1.8.9,2.2,2.2,0,0,1,.2,2.1,4.4,4.4,0,0,1-1,1.5,9.4,9.4,0,0,1-1.8,1.4,8,8,0,0,0-1.7,1.5,1.6,1.6,0,0,1,.8,1.9h-.1c-.5,0-1,0-1.2-.7s-.1-.2-.3-.2a6.5,6.5,0,0,0-.8,1.7,9.4,9.4,0,0,0-.4,1.6h0c-.1.2,0,.3.2.4a5.2,5.2,0,0,1,2.4,2c.2.3.3.4.7.3a26.7,26.7,0,0,1,11.9-.3,11.5,11.5,0,0,1,3.8,1.4,5.7,5.7,0,0,1,2.8,3.6h0v.9a9.7,9.7,0,0,1-2.2,3,26.1,26.1,0,0,1-5,3.8h-.3a25.6,25.6,0,0,1,5.6,11.3,13.6,13.6,0,0,1,.4,3,1.3,1.3,0,0,1-.5.9,1.2,1.2,0,0,1-1-.1l-.9-.7a17.3,17.3,0,0,1-1.7-2.1v-.2h-.1l-.2-.2h0c.1.4.1.9.2,1.3a5.8,5.8,0,0,0,.5,2.6,9.3,9.3,0,0,1,.5,2.1,1.7,1.7,0,0,1-.3,1.2c-.3.2-.7.1-1.3-.2l-.8-.5H187a.1.1,0,0,0-.1-.1h-.1v.3a12.1,12.1,0,0,1-1.8,3.3l-.3.7a11.7,11.7,0,0,1-9.2,10.6.7.7,0,0,0-.5.4c-.8,2.5-1.8,4.9-2.6,6.9h-.1a.4.4,0,0,0-.1.3l6.3.7c2.9.6,5.5,1.5,6.1,2.2l.2.2h-.3l-3.1-.6L177,200l1.1.5.9.3a19.4,19.4,0,0,1,3.5,1.8l.2.2a1.6,1.6,0,0,1,.7.7Zm-13.7-4.4a16.4,16.4,0,0,1,6.2,1.3l4.5,1.8,2.2.8.4.2h0c-.1-.2-.3-.3-.5-.5h-.2a16.6,16.6,0,0,0-3.5-1.8l-.9-.4-1.7-.7-.6-.3h.6l5.1.9,2.7.6a20.6,20.6,0,0,0-5.7-1.9l-6.4-.7h-.1c0-.2.1-.3.1-.5h.1c.8-2,1.8-4.3,2.7-6.9.1-.3.2-.4.6-.5,5.2-1.3,8.4-5,9.1-10.4a1.1,1.1,0,0,1,.3-.8,13,13,0,0,0,1.7-3.3c0-.1.1-.2.1-.3v-.2h.1l.4.2h.1l.7.5c.5.2.9.3,1.1.1s.2-.5.2-1a8.3,8.3,0,0,0-.5-2,6.5,6.5,0,0,1-.5-2.7c-.1-.4-.1-.8-.2-1.2v-.2h.1l.4.3h0l.2.2,1.6,2.1.9.7h.8c.2-.1.3-.4.4-.7a15.4,15.4,0,0,0-.4-3,25.2,25.2,0,0,0-5.6-11.2h0c0-.2.2-.2.3-.3a.1.1,0,0,0,.1-.1,22.6,22.6,0,0,0,5-3.8,9.4,9.4,0,0,0,2.1-2.9v-.8a5.8,5.8,0,0,0-2.7-3.5,10.8,10.8,0,0,0-3.7-1.3,26.7,26.7,0,0,0-11.9.3c-.4.1-.6,0-.9-.4a4.5,4.5,0,0,0-2.2-1.9c-.3-.1-.5-.3-.4-.6h0a8.3,8.3,0,0,1,.4-1.5,8.2,8.2,0,0,1,.9-1.9h.1c.3.1.5.3.5.5s.4.5.9.5-.1-1.4-.8-1.7h0a9.3,9.3,0,0,1,1.8-1.6,6.3,6.3,0,0,0,1.7-1.3,3.6,3.6,0,0,0,1.1-1.5,2.5,2.5,0,0,0-.2-1.9,2.1,2.1,0,0,0-1.7-.8,7.1,7.1,0,0,0-2.4.6h-.1a.4.4,0,0,1-.5.1h-.1a3.4,3.4,0,0,1,.8-1.7,13.3,13.3,0,0,1,2-2.2l2.4-2.1.3-.3a1.5,1.5,0,0,0,.4-1.6,2.3,2.3,0,0,0-2-1.9,3.6,3.6,0,0,0-3.1,1.1l-1.2,1.4-.2.3v-.3a.4.4,0,0,0,.1-.3v-.4a29.4,29.4,0,0,0,.3-6,14.3,14.3,0,0,0-1.4-5.5,5.4,5.4,0,0,0-3.4-3.1,11.6,11.6,0,0,0-4-.7,4.5,4.5,0,0,0-3.5,1.4,4.5,4.5,0,0,0-1.3,3.5,1.9,1.9,0,0,0,1.8,1.9h1.4a18,18,0,0,0,2.7-.7c.4-.2.6-.1.8.3a10.4,10.4,0,0,1,.8,2,30,30,0,0,1,.6,7.1c-.1,2.5-.4,5.3-.8,8.6l-.3,2c-.1.3-.1.6-.2.9h-.2l-.5-.3a4.2,4.2,0,0,0-3.8-.3,7.3,7.3,0,0,0-3.4,2.6,12.6,12.6,0,0,0-1.7,4.6,12.1,12.1,0,0,0-.1,1.9,1.5,1.5,0,0,0-.1.7h-.3a20.4,20.4,0,0,0-8.4-1.3,8.4,8.4,0,0,0-3.2.8,3.2,3.2,0,0,0-2,2.8,6.7,6.7,0,0,0,.6,3.9,15.3,15.3,0,0,0,3,4.1.1.1,0,0,0,.1.1,1.1,1.1,0,0,1,.3.5h0l-8.7-.2.2-.2a13.1,13.1,0,0,0,2-2.3,7.7,7.7,0,0,0,1.9-4.7c.2-2.5-.7-3.8-3-4.5h-.4a19.3,19.3,0,0,0-10,.9h-.5c-.7-5.8-.7-5.8-3.9-9.2h0c.2-.2.4-.3.5-.5l1.2-1.3a3.4,3.4,0,0,0,.6-1.2,1.9,1.9,0,0,0-.4-1.8,2.1,2.1,0,0,0-1.8-.4,4,4,0,0,0-1.5,1l-1.3,1.3-.2.2a1.6,1.6,0,0,1-1.5.4h-.1a10.2,10.2,0,0,1,.8-2.1,12.1,12.1,0,0,1,3-3.3l1.1-.9,2.2-1.9a9.3,9.3,0,0,0,2.4-3.8,3.2,3.2,0,0,0-1.4-3.8,6.4,6.4,0,0,0-2.4-1,3.7,3.7,0,0,0-3.3.8,7.1,7.1,0,0,0-1.8,2.3,19.6,19.6,0,0,0-1.4,3.5c-.4,1.1-.7,2.2-1,3.2l-.8,2.6a3.5,3.5,0,0,1-.6,1.4.6.6,0,0,1-.5.3.7.7,0,0,1-.3-.5c0-.3.1-.7.1-1v-.2c0-.2.1-.5.1-.7a7.6,7.6,0,0,0,.3-2.1,1.5,1.5,0,0,0-.7-1.5,1.7,1.7,0,0,0-1.7-.1,4,4,0,0,0-2.2,2.2,9.3,9.3,0,0,0-.8,3.5,23.6,23.6,0,0,0,0,4.6v.9h0a7.5,7.5,0,0,1,0,1.5.8.8,0,0,1-.5.5c-.2.1-.4.1-.6-.3l-.6-.9-.2-.2a4.7,4.7,0,0,0-.6-.9.9.9,0,0,0-1.4-.1,3.4,3.4,0,0,0-.8,1.6,15.4,15.4,0,0,0,.2,4.3c.2,1,.4,2,.7,3a3.1,3.1,0,0,0,.2.8h-.7a25.5,25.5,0,0,0-7.3,0,12.4,12.4,0,0,0-5.7,1.8,4.9,4.9,0,0,0-2.4,3.1,1.6,1.6,0,0,0,.1,1.5,8.5,8.5,0,0,0,1.7,2.3,29.9,29.9,0,0,0,5,3.9h.1l.4.4h0a14.3,14.3,0,0,0-2,2.3,28.7,28.7,0,0,0-4.2,9.4,8.6,8.6,0,0,0-.5,3.2.8.8,0,0,0,.3.7h.7a2.2,2.2,0,0,0,.9-.7,12,12,0,0,0,1.7-2.1l.2-.2a.1.1,0,0,1,.1-.1c0-.1.1-.3.4-.4h.2v.2a11.1,11.1,0,0,0-.4,3.6,13.3,13.3,0,0,1,0,2c-.1.5,0,.8.2.9s.4.1.9-.1a2,2,0,0,0,.9-.5c0-.1.1-.1.2-.2l.2-.2h.2a14.8,14.8,0,0,0,2,3.7.7.7,0,0,1,.2.6c.4,3.2,2.1,8.8,9.1,10.5.3.1.5.2.6.5a68.6,68.6,0,0,0,2.7,7h.1a.8.8,0,0,1,0,.5h-.1a35.6,35.6,0,0,0-5.2.6,21.8,21.8,0,0,0-6.6,1.8h-.1l-.3.2,2.9-.6,5-.9h.7l-.6.3-1.8.7-.8.4a16.6,16.6,0,0,0-3.5,1.8h-.2l-.6.5,2.2-.9.7-.2,1.8-.7,3.1-1.2a15.7,15.7,0,0,1,6.2-1.1l1.8-.2c-.1-.2-.3-.2-.5-.2h-2.6c-.3,0-.5,0-.7-.3l-.2-.6a37.7,37.7,0,0,1-2.2-5.9h0a.7.7,0,0,1-.1-.6h.1a50,50,0,0,0,15.5-.1h.2a8.7,8.7,0,0,1-.1,2.3,20.7,20.7,0,0,1-.8,3.7,1,1,0,0,1-.9.6,8.4,8.4,0,0,0-2.7.4c-.3.2-.6.3-.6.7h.1a10.1,10.1,0,0,1,5.7,0l6.5,1.4,2.6.5h.1a17.4,17.4,0,0,0-7.9-2.5h0a23.5,23.5,0,0,1,6.5.3,24,24,0,0,0,2.8.3c-3-1.6-6.6-2.1-11-1.4H128a5.1,5.1,0,0,1,.2-1.3.4.4,0,0,1,.1-.3h0a15,15,0,0,0,.4-4.2.5.5,0,0,1,.5-.5,30.3,30.3,0,0,0,4-1.6,15.9,15.9,0,0,0,2.6-1.4c4.1-2.8,5.6-6.7,4.5-11.6a27.9,27.9,0,0,0-4-8.5l-2.4-3.1h0c-.1-.2-.3-.3-.3-.6h.1l17.9.6h.1a.6.6,0,0,1-.2.5h-.1a32.8,32.8,0,0,0-5.5,9.2,12.6,12.6,0,0,0-.8,5.9,9.3,9.3,0,0,0,3.3,6.3,19.4,19.4,0,0,0,7.2,3.8l.4.2a1.1,1.1,0,0,1,.9.4c.2.2.2.5.1.9v.4c.1,1,.3,2,.4,3l.3,1.3h0c0,.1.1.3,0,.5h-.1c-4.5-.7-8-.2-11,1.4l2.8-.3a22.9,22.9,0,0,1,6.4-.3h0a19.5,19.5,0,0,0-6.3,1.6l-1.5.9h.3l2.4-.5c2.8-.6,5.7-1.3,8.6-1.8a8.4,8.4,0,0,1,3.1.2h.6a.7.7,0,0,0-.6-.7,7.9,7.9,0,0,0-2.2-.5h-.1c-1.1,0-1.2-.1-1.5-1.1a19.8,19.8,0,0,1-.7-4.7.4.4,0,0,1,0-.5v-.3h.1a39,39,0,0,0,7.8.7,57.4,57.4,0,0,0,7.7-.6h.1a.8.8,0,0,1,0,.7h0a59.5,59.5,0,0,1-2.2,5.9l-.3.6c-.1.3-.4.3-.6.3H168c-.2.1-.5.1-.6.3h2.4Zm-4.4-8.3a34.1,34.1,0,0,1-8.5-1.1,20.7,20.7,0,0,1-7-3.4c-3.4-2.6-4.5-6.1-3.3-10.3a27,27,0,0,1,2.8-6.6c1.3-2.3,3-4.8,5.1-7.8l.2-.3h-.1l-.2.2-1.6,1.7a1.1,1.1,0,0,1-.9.3h-3l-14.6-.4a2.9,2.9,0,0,1-2.3-1,6.9,6.9,0,0,0-1.1-1.3l-.3-.2h0l.6.7a71.4,71.4,0,0,1,6.8,11.1,16,16,0,0,1,1.6,5.7,7.9,7.9,0,0,1-1.9,6.2,17.5,17.5,0,0,1-8.1,5,33.1,33.1,0,0,1-10.9,1.2,31.7,31.7,0,0,1-8.7-1.4l-2.3-.9a8.4,8.4,0,0,1-4.9-6.8,24,24,0,0,1,.5-9,81.4,81.4,0,0,1,2.5-7.9l.2-.6-.6,1-.4.7-.2.2v-.3a15,15,0,0,0-.2-2.2c0-.3-.1-.6-.1-.8a.6.6,0,0,1,.1-.4l1.3-1.7a.5.5,0,0,1,.5-.1h.1a24.9,24.9,0,0,0,7.3,1.4.7.7,0,0,1,.6.3,12.2,12.2,0,0,1,1.9,1.2l.6.5a13.8,13.8,0,0,0,3.1,1.7,1,1,0,0,0,.9-.2,32.6,32.6,0,0,0,3.3-3.1l.8-.7a1.5,1.5,0,0,1,.7-.3,25.2,25.2,0,0,0,9.4-3.7,1.8,1.8,0,0,1,1.1-.3h13.5a1.6,1.6,0,0,1,.9.3,25,25,0,0,0,9.5,3.7,1.5,1.5,0,0,1,.7.3l.4.4,3.5,3.3a1.2,1.2,0,0,0,1.3.2,9,9,0,0,0,2.8-1.6,9.3,9.3,0,0,1,5.7-2.3,21.7,21.7,0,0,0,4.8-1c.3-.2.5-.1.7.2l.4.5.2.3h0a4.2,4.2,0,0,0-.4,1.5c0,.3-.1.6-.1.8h-.3a6.3,6.3,0,0,1,.3,1.9c.1.4.1.8.2,1.2a3.1,3.1,0,0,0,1.1,1.9c.1.2.1.3.2.4a34.1,34.1,0,0,1,1.6,10.2,12.3,12.3,0,0,1-.7,3.9,8.2,8.2,0,0,1-3.4,4.3,16.8,16.8,0,0,1-6.3,2.2A38.1,38.1,0,0,1,165.4,191ZM155,161.2h.2l-.2.4-.3.3a77.7,77.7,0,0,0-5.1,7.8,31.9,31.9,0,0,0-2.9,6.5c-1.1,4.2,0,7.5,3.4,10.1a17.2,17.2,0,0,0,6.9,3.4,36.3,36.3,0,0,0,15.8.4,19,19,0,0,0,6.2-2.3,7.3,7.3,0,0,0,3.3-4.2,11.2,11.2,0,0,0,.7-3.8,32.9,32.9,0,0,0-1.6-10.1l-.2-.3a3.9,3.9,0,0,1-1.1-2.1c0-.4-.1-.8-.1-1.2a7.2,7.2,0,0,0-.5-2.1.1.1,0,0,1,0-.2h.1c.2,0,.2.1.3.2h0a1.7,1.7,0,0,0,.1-.7,4.7,4.7,0,0,1,.4-1.6v-.2c-.2-.1-.3-.3-.5-.5s-.2-.2-.5-.2a17,17,0,0,1-4.8,1.1,9.3,9.3,0,0,0-5.6,2.3,8.4,8.4,0,0,1-2.9,1.6,1.2,1.2,0,0,1-1.4-.3l-3.5-3.2-.5-.4-.6-.4a22.1,22.1,0,0,1-9.5-3.7l-.8-.2H136.2a1.7,1.7,0,0,0-1,.3,23.2,23.2,0,0,1-9.5,3.6l-.6.4-.7.7c-1.1,1-2.2,2.1-3.4,3a.9.9,0,0,1-1.1.2,10.2,10.2,0,0,1-3.1-1.6l-.6-.5-1.9-1.3-.5-.2a29.5,29.5,0,0,1-7.4-1.4h-.3l-1.4,1.8h0c0,.3.1.6.1.8a13.6,13.6,0,0,1,.2,2c.1-.2.2-.3.2-.4a7.1,7.1,0,0,1,1-1.4l.2-.2v.3c0,.2,0,.3-.1.4a6.4,6.4,0,0,0-.2.7,73.5,73.5,0,0,0-2.5,7.9,22.9,22.9,0,0,0-.5,8.8,8.2,8.2,0,0,0,4.8,6.7l2.3.9a30.9,30.9,0,0,0,8.6,1.4,32.2,32.2,0,0,0,10.8-1.2,16.7,16.7,0,0,0,8.1-5,7.5,7.5,0,0,0,1.8-5.9,15,15,0,0,0-1.6-5.7,71.4,71.4,0,0,0-6.8-11.1,1.8,1.8,0,0,1-.5-.7l-.3-.4.2-.2h.1c.1.2.3.3.5.5l1.2,1.2a2.3,2.3,0,0,0,2.1,1l14.6.4h3c.3.1.5,0,.7-.3l1.6-1.6.3-.3h0A.9.9,0,0,1,155,161.2Zm29.2,17v-.3a34.1,34.1,0,0,0-2.1-8.5c0-.2-.1-.3,0-.5l.8-1.5.4-.8v.2a1.4,1.4,0,0,1,.2.6,7.6,7.6,0,0,1,.4,1.1,12.2,12.2,0,0,0,3.1,5.4c.4.4.7.5,1.1.2h.1a2.3,2.3,0,0,1,.4,1.4h-.1a1.8,1.8,0,0,1-1.3-.6l-.8-.6-.3-.3a9.4,9.4,0,0,0-.6,1.5,7.1,7.1,0,0,1-1.3,2.4Zm-.9-11.1-.2.4-.8,1.5v.3a33,33,0,0,1,2,8.4,11.3,11.3,0,0,0,1.1-2.2,11.1,11.1,0,0,1,.7-1.6h.1l.4.3.8.7a1.6,1.6,0,0,0,1.1.5,2,2,0,0,0-.3-1.1c-.5.4-.9.1-1.2-.2a12.2,12.2,0,0,1-3.1-5.5l-.5-1.1ZM101.4,178h-.1a9.7,9.7,0,0,1-1.1-2.3l-.6-1.5-.5.4a2.7,2.7,0,0,1-1.9,1H97v-.2c.1-.3.4-.5.7-.8l.5-.5h.1l1-1.3.8-1.6c.1-.4.3-.8.4-1.2l.2-.5.7-1.8h.1c.2.1.2.2.3.3h0l.3.5a3.8,3.8,0,0,0,.9,1.5.5.5,0,0,1,.1.5,37.2,37.2,0,0,0-1.6,7.2h-.2Zm-1.8-4.2h.1a11.1,11.1,0,0,1,.7,1.6,8.8,8.8,0,0,0,1,2.2,37.2,37.2,0,0,1,1.6-7.2q.1-.3,0-.3a4.7,4.7,0,0,1-1-1.6c-.1-.2-.2-.3-.2-.5h-.1v-.2l-.6,1.6c-.1.2-.1.4-.2.6l-.5,1.2a4.8,4.8,0,0,1-.8,1.6,6.4,6.4,0,0,1-1,1.3v.2l-.5.5-.6.5a3.5,3.5,0,0,0,1.7-.9l.6-.5Zm-2.2,0h-.1a1.3,1.3,0,0,1-.1-1.2h0l.3-2.5c.1-.4.1-.8.2-1.2a9.9,9.9,0,0,0,.2-1.7h0c0-.2.1-.4,0-.5s-.3.2-.4.3h-.1L96,169l-.4.7L94,171.8a3.5,3.5,0,0,1-.9.7H93a1.7,1.7,0,0,1,.1-1.4,40.2,40.2,0,0,1,4.4-10,10,10,0,0,1,2.3-2.7c.1-.1.3-.2.7-.1l4.8,2.1h.2l-1.4,1.8H104l-.2-.4-.2-.3a.6.6,0,0,0-.6-.1,11.4,11.4,0,0,1,.5,7.3v.3l-.2-.2-.7-1.6a15.1,15.1,0,0,0-1.1-2.2l-.4.5h0l-1.1,2.9c-.3,1-.7,2-1.1,3a7.5,7.5,0,0,1-.8,1.8h0a2.2,2.2,0,0,1-.7.6Zm.6-7.5h0a.9.9,0,0,1,.1.7h0c-.1.5-.1,1.1-.2,1.6s-.1.8-.2,1.2l-.3,2.5v.2a1.8,1.8,0,0,0,.1,1,.8.8,0,0,0,.5-.5h0a15,15,0,0,0,.9-1.8c.3-1,.7-2,1.1-3l1-2.8h0a1.2,1.2,0,0,1,.5-.7h.2a16.7,16.7,0,0,1,1.2,2.3l.6,1.4c.7-2.5.1-4.9-.6-7.2h.1a1,1,0,0,1,.9.2l.2.3a.4.4,0,0,0,.1.3l1-1.4-4.7-2c-.2-.1-.3-.1-.5.1a9.2,9.2,0,0,0-2.2,2.6,37.5,37.5,0,0,0-4.4,9.9,1.9,1.9,0,0,0-.2,1.3l.7-.6,1.6-2.1.5-.7c.4-.7.9-1.4,1.4-2.1h0a.7.7,0,0,1,.6-.4Zm89.6,6.8h0a.7.7,0,0,1-.7-.5h-.1c-.4-.8-.7-1.6-1-2.3s-.7-1.9-1-2.9l-1-2.5h0c-.1-.2-.1-.4-.4-.6a15.1,15.1,0,0,0-1.1,2.2l-.7,1.5v0c-.8-2.6-.2-5.1.4-7.3-.3-.1-.5.1-.8.5h-.1a1,1,0,0,1-.4-.5h-.1c.1-.2.3-.2.4-.3h.1l4.2-1.8c.4-.2.6-.1.9.2a11.3,11.3,0,0,1,2,2.6,48.7,48.7,0,0,1,3.8,9,4.1,4.1,0,0,1,.2,1.6h-.2a1.7,1.7,0,0,1-.8-.6h-.1a22.7,22.7,0,0,1-1.8-2.5l-.3-.5a21.4,21.4,0,0,1-1.3-1.9l-.5-.4a3.4,3.4,0,0,0,0,1h0l.3,1.8c.1.8.3,1.6.4,2.4h0a10.8,10.8,0,0,1,0,1.8Zm-4.2-9.3h.1a1.5,1.5,0,0,1,.5.7v.2l.9,2.5c.4.9.7,1.9,1.1,2.9l1,2.2h.1c.1.2.2.4.4.4a8.6,8.6,0,0,0,0-1.6h0c-.1-.8-.3-1.6-.4-2.3l-.3-1.9h0a2.6,2.6,0,0,1,.1-1.2h.1a1,1,0,0,1,.6.5,12.7,12.7,0,0,1,1.3,1.9l.4.5a10.8,10.8,0,0,0,1.8,2.4h0a1.8,1.8,0,0,0,.7.5,3.4,3.4,0,0,0-.2-1.4,47.7,47.7,0,0,0-3.8-8.9,14,14,0,0,0-2-2.6c-.2-.2-.3-.2-.6-.1l-4.2,1.8h-.4l.3.4a.9.9,0,0,1,1.1-.5h.1c-.7,2.3-1.3,4.6-.6,7.1l.6-1.3a16.7,16.7,0,0,1,1.2-2.3Zm-17.8,1.4c-.2,0-.3-.1-.5-.3l-.2-.3a87.8,87.8,0,0,1-9.2-11.1,25.5,25.5,0,0,1-2.5-4.7,15.5,15.5,0,0,1-.4-1.5c0-.2,0-.3.1-.4l.4-.2,1.3.2h1.1l-.3-.3h-.1a5.1,5.1,0,0,0-3.9-.4,5.2,5.2,0,0,0-3.2,2.3h0c.7-.1.8,0,1.2.7h0a20.4,20.4,0,0,0,5.5,6.8,5.6,5.6,0,0,0,2,1.1l.4.2c.5.6,1,1.3,1.6,1.9l.8,1.1h-.2a5.4,5.4,0,0,1-2-.4,20.4,20.4,0,0,1-11.4-7.7,8.9,8.9,0,0,1-1.9-4.7v-.9a2.6,2.6,0,0,1,1.9-2.3,15.6,15.6,0,0,1,3.9-.4,18.9,18.9,0,0,1,5.2.8l1,.3h0a2.2,2.2,0,0,1,1.5,1.6,5.7,5.7,0,0,0,3.7,4.3,5.3,5.3,0,0,0,3.9-.1h.5a8.6,8.6,0,0,1-3.5,1.9,6.2,6.2,0,0,0,4.6-1.8h.2c1,1.6,2.6,1.9,4.1,2a5.1,5.1,0,0,0,3.1-.5h-.1a9.6,9.6,0,0,1-4.5-.4h1.5a4.7,4.7,0,0,0,3.3-1.7,5.2,5.2,0,0,0,1.1-3.6v-.2c-.1-.6-.1-.7.4-.8h.3a25.9,25.9,0,0,1,11.8.3,9.4,9.4,0,0,1,3.6,1.8,4.4,4.4,0,0,1,1.4,1.7,1.5,1.5,0,0,1-.1,1.3,10.2,10.2,0,0,1-2,2.2,32.9,32.9,0,0,1-17.4,8.3.1.1,0,0,1-.1-.1h-.4l.5-.4a1,1,0,0,0,.5-.4,12.7,12.7,0,0,0,2.8-2.3l.4-.2a15.3,15.3,0,0,0,4.9-2.3,25.9,25.9,0,0,0,5.1-4.4l.3-.3v-.2h.1a1.8,1.8,0,0,1,.7.5l.8.5c-.1-.9-1.1-1.8-2.5-2.6s-4.3-1.6-5.7-1l.7.2a2.8,2.8,0,0,1,1.3.3h0a1.4,1.4,0,0,1-.2.6h-.1a27.5,27.5,0,0,1-5.9,7.3,55.9,55.9,0,0,1-10.5,8h-.3Zm-12.1-18.3H153v.3a8.3,8.3,0,0,0,.4,1.5,20.6,20.6,0,0,0,2.5,4.5,79.8,79.8,0,0,0,9.1,11.1q.1.3.3.3c.2.3.2.3.7.1l.3-.2a58.9,58.9,0,0,0,10.5-7.9,31.5,31.5,0,0,0,5.9-7.3v-.5a2,2,0,0,0-1.1-.3,3.8,3.8,0,0,1-1-.3h-.2l.2-.2c1.4-.7,4.1-.1,6.1.9s2.6,2,2.6,2.9v.2h-.2a2.1,2.1,0,0,1-1-.6l-.6-.4h-.1l-.3.3a26.6,26.6,0,0,1-5.1,4.5,15.3,15.3,0,0,1-4.9,2.3.5.5,0,0,0-.4.2,32.3,32.3,0,0,1-2.7,2.3l-.6.4h-.1a32,32,0,0,0,17.2-8.1,10,10,0,0,0,2-2.2,1.1,1.1,0,0,0,.1-1.1,4.1,4.1,0,0,0-1.3-1.7,11.4,11.4,0,0,0-3.5-1.7,24.5,24.5,0,0,0-11.8-.3h-.6a1.8,1.8,0,0,0,.1.5v.2a5.4,5.4,0,0,1-1.1,3.7,5.2,5.2,0,0,1-3.5,1.8h-1a10.7,10.7,0,0,0,4,.2h.6v.2c-.6.6-1.8.8-3.5.7s-3.2-.4-4.2-2a6.4,6.4,0,0,1-5.2,1.8h0a10.1,10.1,0,0,0,3.7-1.9h-.1a5.8,5.8,0,0,1-4.1.1,5.9,5.9,0,0,1-3.8-4.4,2.1,2.1,0,0,0-1.4-1.6h0l-1-.3a15.6,15.6,0,0,0-5.1-.8,14.8,14.8,0,0,0-3.8.4,2.3,2.3,0,0,0-1.8,2.1v.9a8.6,8.6,0,0,0,1.9,4.6,20.4,20.4,0,0,0,11.2,7.7l1.8.3-.6-.6-1.6-2-.3-.2a5.4,5.4,0,0,1-2-1,21,21,0,0,1-5.6-6.9h0c-.3-.7-.3-.7-1.1-.6H148a5.9,5.9,0,0,1,7.4-2h.1a1.1,1.1,0,0,1,.4.5h-2.4Zm-33.3,18.2h-.5a53.9,53.9,0,0,1-13.5-11,24.3,24.3,0,0,1-3.3-4.6l-.2-.3v-.3h.1a1.9,1.9,0,0,1,1.2-.4l.8-.2c-.9-.5-2.4-.3-4.2.3s-3.8,2.1-4.1,3.3l.5-.3h.2l.6-.4.2-.2H98c.2,0,.3.2.4.3h.1a24.9,24.9,0,0,0,6.7,5.4,15.8,15.8,0,0,0,3.1,1.3h.1l.4.2c1.1,1,2.3,1.9,3.5,2.8h.1v.2h-.2l-4.4-.9a33.1,33.1,0,0,1-13.1-7.3,13,13,0,0,1-1.9-2.2,1.3,1.3,0,0,1-.1-1.6,4.4,4.4,0,0,1,1.4-1.7,13.3,13.3,0,0,1,5.4-2.1,24.7,24.7,0,0,1,10.1.3c.4.1.6.3.5.7a4.8,4.8,0,0,0,5.5,5.6h.4a11.1,11.1,0,0,1-4.4.5h-.2a5.2,5.2,0,0,0,3.7.4c1.4-.2,2.7-.5,3.5-1.9h.1a6.4,6.4,0,0,0,4.7,1.8,8,8,0,0,1-3.5-1.9l-.3-.4.4.2a6.3,6.3,0,0,0,3,.5,5.5,5.5,0,0,0,4.1-2.5,8.2,8.2,0,0,0,1-2.4,1.5,1.5,0,0,1,.8-1.1,13,13,0,0,1,4-1.2,17.5,17.5,0,0,1,5.6,0,3.2,3.2,0,0,1,2.5,1.2,3.9,3.9,0,0,1,.4,3,9.4,9.4,0,0,1-1.9,3.9,19.5,19.5,0,0,1-11.7,7.8l-1,.3h-.6c-.1-.2,0-.3.1-.4h.1l.5-.6.7-.9a3.1,3.1,0,0,1,1.8-1.4,4.9,4.9,0,0,0,2-1.3,18.7,18.7,0,0,0,4.7-6h.1v-.3c.1-.3.1-.5.3-.7s.4-.1.6-.1h.3a5.5,5.5,0,0,0-4.2-2.5,4.5,4.5,0,0,0-3.3.9h2.2a.7.7,0,0,1,.6.2q.2.2,0,.6a8.6,8.6,0,0,1-.7,2.1,30,30,0,0,1-3.7,6.1,97.9,97.9,0,0,1-7.8,9.1Zm-17.4-16.2h.1l.2.3a22.5,22.5,0,0,0,3.2,4.6,53.3,53.3,0,0,0,13.5,10.9c.3.2.5.2.7-.1a84.7,84.7,0,0,0,7.8-9.1,30,30,0,0,0,3.7-6.1,8.6,8.6,0,0,0,.7-2.1c.1-.2.1-.3,0-.4h-2a.8.8,0,0,1-.8,0h0c.4-.7,2-1.2,3.5-1.1a5.5,5.5,0,0,1,4.4,2.7h0c-.2.1-.4,0-.6,0h-.4a1.4,1.4,0,0,0-.2.6.4.4,0,0,0-.1.3.3.3,0,0,0-.1.2,22.4,22.4,0,0,1-4.8,6.1,4.9,4.9,0,0,1-2,1.3,3.1,3.1,0,0,0-1.7,1.3l-.7.9-.6.7h.2l1.1-.3a20.2,20.2,0,0,0,11.6-7.7,9.1,9.1,0,0,0,1.8-3.9,3.4,3.4,0,0,0-.4-2.8,3,3,0,0,0-2.4-1.1,16.9,16.9,0,0,0-5.5,0,12.4,12.4,0,0,0-3.9,1.2,1.3,1.3,0,0,0-.7,1,8.2,8.2,0,0,1-1,2.4,5.9,5.9,0,0,1-6.9,2.3A9.5,9.5,0,0,0,124,153h0a6.2,6.2,0,0,1-5.2-1.8,4.5,4.5,0,0,1-3.5,1.9c-1.8.3-3.7,0-4.1-.6l-.2-.2h.7a12.9,12.9,0,0,0,3.9-.3,5.1,5.1,0,0,1-4.2-1.5,5.3,5.3,0,0,1-1.4-4.3c.1-.4,0-.4-.3-.5a24.2,24.2,0,0,0-10-.3,12.7,12.7,0,0,0-5.4,2.1,5.2,5.2,0,0,0-1.4,1.6,1.4,1.4,0,0,0,.1,1.4,19,19,0,0,0,1.9,2.1,33.1,33.1,0,0,0,13.1,7.3,19.8,19.8,0,0,0,4.1.8,23,23,0,0,1-3.4-2.8h-.4a14.4,14.4,0,0,1-3.2-1.3,29.9,29.9,0,0,1-6.8-5.5h-.1L98,151h-.2l-.6.4-.2.2a1.5,1.5,0,0,1-.7.3h-.1c.3-1.5,2.3-2.8,4.2-3.6s3.5-.9,4.6-.1h-.1l-.9.3A2.7,2.7,0,0,0,102.8,148.9Zm46.2,7.9H136.7v-.2c.5-.4.9-.8,1.6-.7l8.7.2h.8a1.1,1.1,0,0,1,1,.5Zm-11.8-.2h11.4a.7.7,0,0,0-.7-.3h-.8l-8.7-.2A1.2,1.2,0,0,0,137.2,156.6Zm-30.1.1h-.3a16.5,16.5,0,0,1-2.6-1.4l-.3-.5.2-.4v-.2a1,1,0,0,1,.4-.5h.1Zm-2.4-2.9c-.2.1-.2.3-.3.4v.2l-.2.3q0,.2.3.3l2.1,1.3Zm74.4,2.8h-.3l2.2-2.9h.2c.5.5.7.7.6,1s-.3.5-.8.8l-1.2.8-.5.2Zm2-2.8-2,2.6h.1l.5-.3,1.2-.8c.5-.3.7-.5.7-.6S181.5,154.2,181.1,153.8Zm-24.8,2.5-2.4-1.8.8-1,1.8,2.6Zm-2.1-1.9,1.9,1.5-1.4-2.1Zm-24.7,1.9-.2-.2,1.7-2.6h.1l.6.7v.2Zm1.5-2.5-1.4,2.1,2-1.5h-.1Zm51.6.7-.3-.4a2.6,2.6,0,0,0-.5-.9.5.5,0,0,1,0-.5l.5-1,.4-.5,1.6,1.8h-.1a9.6,9.6,0,0,1-1.5,1.4Zm.1-3-.2.3a9.3,9.3,0,0,0-.5,1,.2.2,0,0,0,0,.3,3.5,3.5,0,0,0,.5.8l.2.3A4.7,4.7,0,0,0,184,153Zm-79.6,3h0a6.9,6.9,0,0,1-1.3-1.1l-.3-.3h-.1l1.7-1.8h0a2.7,2.7,0,0,1,.6,1l.3.5c.1.1,0,.2,0,.3Zm-1.4-1.5.2.2a3.8,3.8,0,0,0,1.2,1l.7-1.2c.1-.1,0-.1,0-.1l-.3-.5a2,2,0,0,0-.4-.8Zm51.5.7h-.1a10.9,10.9,0,0,1-1.7-2.2h0l.9-.6.6-.3h.1l1,1.6a.4.4,0,0,1,0,.6v.2a4.6,4.6,0,0,1-.7.7Zm-1.6-2.2a9.4,9.4,0,0,0,1.6,2l.5-.6.2-.3a.2.2,0,0,0,0-.3,4.7,4.7,0,0,1-1-1.6l-.5.3Zm-19,2.2h-.1c-.3-.2-.4-.5-.6-.7l-.2-.3c-.2-.2,0-.4.1-.5a8.9,8.9,0,0,0,.9-1.6h.1l1.6.9h0a9.6,9.6,0,0,1-1.7,2.1Zm.3-2.9-1,1.5a.2.2,0,0,0,0,.3v.3l.6.5a10.6,10.6,0,0,0,1.6-1.9Zm52,1.7-.4-.5-1-1a.6.6,0,0,1-.1-.7,3.5,3.5,0,0,0,.7-1.2c.1-.2.3-.2.5-.2a8.2,8.2,0,0,1,1.9.9l.4.4c0,.2-.1.3-.2.5l-.3.3a6.6,6.6,0,0,1-1.4,1.5Zm-.5-3.4h-.1l-.7,1.2c-.1.2-.1.3,0,.4l1,1.1.3.4a6.2,6.2,0,0,0,1.4-1.4l.2-.3c.1-.2.2-.3.2-.4l-.3-.3a7.7,7.7,0,0,0-1.9-.8Zm-83.6,3.4h-.1a7.3,7.3,0,0,1-1.7-1.8h0c-.3-.3,0-.5.1-.6a6.8,6.8,0,0,1,2.1-1c.3-.1.4.1.4.2h.1c.9,1.6.9,1.7-.8,3.2Zm.5-3.4h0a6.7,6.7,0,0,0-2.1.9c-.1.2-.2.3-.1.4h.1a6.5,6.5,0,0,0,1.6,1.7c1.6-1.4,1.6-1.4.7-2.9a.1.1,0,0,0-.1-.1Zm14,2.4h-1a5,5,0,0,1-2.6-1.7,4,4,0,0,1,.6-5.7,4.1,4.1,0,0,1,5.6.4,5.1,5.1,0,0,1,1.1,3.9h-.2a1.9,1.9,0,0,0-1.5-.4,1.6,1.6,0,0,0-.8.6,1.4,1.4,0,0,0-.1.9,2.6,2.6,0,0,0,1.2,1.1h0A3.9,3.9,0,0,1,115.3,151.5Zm-.5-8.3a3.8,3.8,0,0,0-2.4.9,3.9,3.9,0,0,0-.5,5.5,4.9,4.9,0,0,0,2.4,1.6,3.9,3.9,0,0,0,3-.5,2.3,2.3,0,0,1-1.1-1.1,1.5,1.5,0,0,1,.2-1.1,1.3,1.3,0,0,1,.8-.7,2.4,2.4,0,0,1,1.6.3,4.6,4.6,0,0,0-1.1-3.6A3.9,3.9,0,0,0,114.8,143.2Zm55.6,8.3a3.6,3.6,0,0,1-2.2-.7h0a1.6,1.6,0,0,0,1.1-1,1.4,1.4,0,0,0,0-.9,1.2,1.2,0,0,0-.7-.7,2.4,2.4,0,0,0-1.6.3h-.2a4.7,4.7,0,0,1,1.7-4.5,4.1,4.1,0,0,1,4.4-.2,4.4,4.4,0,0,1,2.1,4.2,4.8,4.8,0,0,1-3.8,3.6Zm-2-.8a3.6,3.6,0,0,0,2.7.5,4.5,4.5,0,0,0,3.7-3.4,4,4,0,0,0-2-4,3.8,3.8,0,0,0-4.2.2,4.2,4.2,0,0,0-1.6,4.1,2.5,2.5,0,0,1,1.6-.3c.4.1.6.4.8.8a1.4,1.4,0,0,1,.1,1.1A1.8,1.8,0,0,1,168.4,150.7Zm-17.4.1h-.1a9,9,0,0,1-1.1-2.2v-.2c0-.4.6-.7.7-.8s1-.5,1.3-.3.2.2.3.3h0a6.1,6.1,0,0,0,.5,1.8c0,.3,0,.5-.2.6l-1,.6Zm.6-3.5-1,.3c-.3.3-.6.5-.6.7v.2a9.3,9.3,0,0,0,1,2l.3-.2,1-.6c.1-.1.1-.1.1-.3a7,7,0,0,1-.5-1.8h0v-.2Zm-29.1,3.5a4.3,4.3,0,0,1-2.6-.9.9.9,0,0,1-.3-1,4.4,4.4,0,0,0,0-3.2h.1c1.9.2,3-.5,3.2-1.9A2.4,2.4,0,0,0,121,141c-1.4-.3-2.4.6-2.8,2.4v.2h-.4l-.6-.4a.6.6,0,0,1-.3-.6,10.9,10.9,0,0,1,2.3-6,3.3,3.3,0,0,1,5.1-.6,9.7,9.7,0,0,1,3.7,6.8,8.7,8.7,0,0,1-2,6.4,3.9,3.9,0,0,1-2.9,1.7Zm-2.6-5a5,5,0,0,1-.1,3.2c-.1.3-.1.5.2.7a4.1,4.1,0,0,0,5.8-.8,8.9,8.9,0,0,0,1.9-6.3,9.4,9.4,0,0,0-3.6-6.6,3.2,3.2,0,0,0-4.9.5,11.6,11.6,0,0,0-2.2,6,.4.4,0,0,0,.1.3l.7.4h.2c.5-1.9,1.6-2.8,3.1-2.5a2.6,2.6,0,0,1,2,2.9C122.9,145.2,121.7,146,119.9,145.8Zm43.4,5a4.3,4.3,0,0,1-2.6-.9,6.4,6.4,0,0,1-2.1-2.9c-1.6-4-.8-7.4,2.5-10.8l.9-.7a3.2,3.2,0,0,1,4.2.4,6.3,6.3,0,0,1,2,3.2,13.2,13.2,0,0,1,.7,3.2c.1.4-.1.6-.4.8l-.5.3h-.4c-.4-1.8-1.4-2.7-2.8-2.5a2.4,2.4,0,0,0-2,2.6c.2,1.5,1.3,2.2,3.2,2h.1c0,.2,0,.3-.1.4h0a4.4,4.4,0,0,0,.1,2.8c.2.5.1.7-.3,1A3.8,3.8,0,0,1,163.3,150.8Zm.6-15.7a3.2,3.2,0,0,0-1.8.6,2.8,2.8,0,0,0-.9.7c-3.2,3.3-4,6.6-2.4,10.5a7.1,7.1,0,0,0,2,2.9,4.2,4.2,0,0,0,4.9-.1c.3-.2.4-.4.2-.7a4.8,4.8,0,0,1-.1-2.9h.1v-.2c-1.9.2-3-.6-3.3-2.2a2.6,2.6,0,0,1,2.2-2.8c1.4-.2,2.5.7,2.9,2.5h.2l.5-.3c.3-.1.4-.2.3-.5a11.4,11.4,0,0,0-.7-3.2,7.6,7.6,0,0,0-1.9-3.2A3.3,3.3,0,0,0,163.9,135.1Zm-29.1,15.6h-.2l-.4-.3c-.3-.2-.7-.3-.9-.6a.9.9,0,0,1,.1-1c0-.2.1-.4.1-.6s.1-.1.1-.2h0c.1-.5.2-.7.4-.8a1,1,0,0,1,.9.1l.4.2c.7.5.8.7.5,1.5l-.6,1.1v.6Zm-.6-3.4h-.1a1.5,1.5,0,0,0-.3.7h-.1a1.4,1.4,0,0,1-.2.6c-.1.3-.2.6,0,.8s.5.5.8.6l.4.3h.1c.1-.1.1-.2.2-.2V150a5.4,5.4,0,0,1,.5-1.1c.3-.7.3-.8-.4-1.2l-.4-.2Zm-16.9,2.1a.5.5,0,0,1-.4-.5c-.1-.3.1-.5.4-.5h0a.5.5,0,0,1,.5.4c.1.2,0,.3-.1.4l-.3.2Zm0-.8c-.2,0-.3.1-.2.3a.3.3,0,0,0,.3.3h.2c0-.1.1-.2,0-.3S117.6,148.6,117.3,148.6Zm51.1.8a.5.5,0,0,1,0-1c.3,0,.5.1.5.4h0A.5.5,0,0,1,168.4,149.4Zm0-.8h0a.3.3,0,1,0,0,.6.3.3,0,0,0,.3-.3C168.7,148.6,168.5,148.6,168.4,148.6Zm-58.2-3.4H110a1.5,1.5,0,0,1-1.4-1.3,26.8,26.8,0,0,1-1.1-4.9,7.8,7.8,0,0,1,.2-2.6h.1c0-.2.1-.5.4-.5a1,1,0,0,1,.7.4h0l.5.8c.1.1.2.2.2.3l.3.3c.4.5.8.8,1.2.7s.7-.4,1-1a5.8,5.8,0,0,0,.3-1.9v-4.7a13.5,13.5,0,0,1,.3-3.3,3.9,3.9,0,0,1,1.7-2.5,1.3,1.3,0,0,1,1-.2,1.5,1.5,0,0,1,.5.9,8.2,8.2,0,0,1-.2,2.2v.2a11,11,0,0,0-.2,1.8,1.3,1.3,0,0,0,1,1.2,1.5,1.5,0,0,0,1.5-.7l.5-1.4c.3-.9.5-1.8.8-2.7s.9-3.1,1.4-4.6a17.1,17.1,0,0,1,1.7-3.3c1.3-1.7,3.2-2,5.2-.8a2.8,2.8,0,0,1,1.1,2.6,5.9,5.9,0,0,1-2.2,3.9l-.5.4-3,2.5a12.7,12.7,0,0,0-2.7,3.3,5.5,5.5,0,0,0-.9,2.3.5.5,0,0,1-.6.6h-1v.2c0,.2.1.3.2.2h1.3c.2.1.3.2.3.4l.2.3v.2h0a6,6,0,0,0-2.8,3.4,10,10,0,0,0-.9,4.3h-1.6a5.3,5.3,0,0,0-3.7,2.3A.5.5,0,0,1,110.2,145.2Zm-1.9-9.2h0c-.2,0-.3.2-.4.4h0a6.7,6.7,0,0,0-.2,2.4,26.8,26.8,0,0,0,1.1,4.9A1.4,1.4,0,0,0,110,145c.4,0,.5,0,.7-.3a5.1,5.1,0,0,1,3.8-2.4h1.4a10,10,0,0,1,.9-4.3,7.7,7.7,0,0,1,2.8-3.5h-.1a.4.4,0,0,1-.1-.3l-.2-.3h-1.3c-.3.1-.4-.2-.4-.4v-.3h1.2c.3,0,.4-.1.4-.4a5.9,5.9,0,0,1,.9-2.4,15.1,15.1,0,0,1,2.7-3.3l3.1-2.5.5-.4a5.8,5.8,0,0,0,2.1-3.8,2.2,2.2,0,0,0-1.1-2.4,3.3,3.3,0,0,0-4.8.7,12.3,12.3,0,0,0-1.7,3.2c-.5,1.5-1,3.1-1.4,4.6s-.6,1.9-.8,2.8a14.7,14.7,0,0,1-.6,1.4,1.4,1.4,0,0,1-1.6.8,1.4,1.4,0,0,1-1.2-1.3,12.3,12.3,0,0,1,.2-2h.1a8.2,8.2,0,0,0,.2-2.2c-.1-.4-.2-.6-.4-.7s-.4,0-.8.2a3.6,3.6,0,0,0-1.6,2.4,12.3,12.3,0,0,0-.3,3.2v4.7a6.4,6.4,0,0,1-.3,2,1.8,1.8,0,0,1-1.2,1.1c-.4.1-.9-.2-1.4-.8l-.2-.3-.3-.3a3.5,3.5,0,0,0-.5-.8h0C108.6,136.1,108.5,136,108.3,136Zm11.7,7.5h-.1a.8.8,0,0,1-.7-.8,1.4,1.4,0,0,1,.2-.6l.6-.2a.8.8,0,0,1,.8.8h0a.8.8,0,0,1-.2.6A.7.7,0,0,1,120,143.5Zm0-1.4-.4.2c-.2.1-.2.2-.2.4s.2.6.5.6a.4.4,0,0,0,.5-.1.8.8,0,0,0,.2-.5h0a.6.6,0,0,0-.6-.6Zm45.8,1.4c-.3,0-.5,0-.6-.2a.6.6,0,0,1-.3-.6.9.9,0,0,1,.3-.6l.6-.2a.8.8,0,0,1,.8.8h0a.7.7,0,0,1-.8.8Zm0-1.4-.5.2a.5.5,0,0,0-.2.4.8.8,0,0,0,.2.5h.5a.6.6,0,0,0,.6-.6h0a.6.6,0,0,0-.6-.6Zm5.3.4h-1.4V142c-.1-.6-.1-1.1-.2-1.6a10.5,10.5,0,0,0-1.3-3.4,1.6,1.6,0,0,1-.2-1.2,83.5,83.5,0,0,0,1.1-13.2,30.4,30.4,0,0,0-.7-7.1,13.1,13.1,0,0,0-.5-1.5c-.2-.4,0-.6.3-.7h.2a1.4,1.4,0,0,0,.8-.5,3.7,3.7,0,0,0-1.8.2l-1.3.4-2,.5h-1.3a1.4,1.4,0,0,1-1.4-1.4,2.8,2.8,0,0,1,.9-2.4,4.5,4.5,0,0,1,4.3-1.2,6.1,6.1,0,0,1,5,4,14.4,14.4,0,0,1,1.1,5.4,34.5,34.5,0,0,1-.9,8.9h0v.2l.4-.2h.1a5.8,5.8,0,0,0,1-1.2l.2-.4,1.4-1.9a3.7,3.7,0,0,1,2.3-1.2,1.1,1.1,0,0,1,1.4.5,1.4,1.4,0,0,1,0,1.7,10.6,10.6,0,0,1-1.5,1.5l-.3.3h-.1a34.5,34.5,0,0,0-2.6,2.8,5.1,5.1,0,0,0-1.2,2.6,4.3,4.3,0,0,0-.1.5v.2c0,.1,0,.3.2.3s.3.1.6-.1a7.8,7.8,0,0,1,2.7-1.4,1.3,1.3,0,0,1,1.3.3,1.4,1.4,0,0,1,.3,1.5,2.7,2.7,0,0,1-1,1.1,12.6,12.6,0,0,0-3.2,2.9c-.2.3-.4.4-.7.3h-1a1,1,0,0,0-.8.7l1.6.2h0l-.3.5-.5,1.2a7.8,7.8,0,0,0-.5,1.8h0C171.4,142.3,171.4,142.5,171.1,142.5Zm-.5-.2h.4c.2,0,.2-.1.3-.3h0a9.5,9.5,0,0,1,.5-1.8,5.4,5.4,0,0,0,.5-1.1c.1-.2.2-.3.2-.5h-1.6a1.3,1.3,0,0,1,1.1-1h1a.4.4,0,0,0,.5-.2,11.3,11.3,0,0,1,3.3-2.9,3.1,3.1,0,0,0,.9-1.1,1.1,1.1,0,0,0-.3-1.3c-.2-.3-.6-.3-1-.2a7.8,7.8,0,0,0-2.7,1.4c-.2.1-.5.3-.8.1s-.3-.4-.3-.6h0c0-.2.1-.4.1-.6a6.3,6.3,0,0,1,1.3-2.6,13.9,13.9,0,0,1,2.6-2.8h.1l.3-.3,1.4-1.5a1.2,1.2,0,0,0,.1-1.5,1.2,1.2,0,0,0-1.3-.5,3.7,3.7,0,0,0-2.1,1.2,24.3,24.3,0,0,0-1.4,2l-.3.3a11.3,11.3,0,0,1-1,1.3h0c-.2.2-.4.4-.7.3h-.1v-.5a.1.1,0,0,0,.1-.1,37.6,37.6,0,0,0,.8-8.7,14,14,0,0,0-1.1-5.4,6,6,0,0,0-4.8-3.9,4.3,4.3,0,0,0-4.2,1.2,2.7,2.7,0,0,0-.9,2.2,1.4,1.4,0,0,0,1.3,1.2h1.3l2-.5,1.2-.4a5,5,0,0,1,2.1-.2h.1a1.9,1.9,0,0,1-1,.8h-.2c-.3.1-.3.2-.2.4s.3,1,.5,1.5a30.8,30.8,0,0,1,.7,7.2,84.7,84.7,0,0,1-1.1,13.3,1.2,1.2,0,0,0,.2,1,11.1,11.1,0,0,1,1.3,3.5c.1.5.1,1,.2,1.5v.4h.7Zm-46.9-7.6h-.1a5.7,5.7,0,0,0-2.9-.2c-.1,0-.2,0-.3-.2h0l.5-.2h.3a1.8,1.8,0,0,1,2.3,0c0-.4-.2-.5-.5-.6l-.3-.2h0l.7-.7,1.4-1.2c.1,0,.5-.3.8,0a1.2,1.2,0,0,1,.4.8,1.5,1.5,0,0,1-.4.8,7,7,0,0,1-1.3,1.7l-.2.2Zm-1.9-.6a3.7,3.7,0,0,1,1.8.4h.3l.3-.3c.4-.5.9-1,1.3-1.6l.3-.7a.7.7,0,0,0-.3-.6c-.2-.2-.4-.1-.6,0a7.5,7.5,0,0,0-1.4,1.2l-.6.5h.2c.3.2.7.3.6,1h-.2a1.5,1.5,0,0,0-2.1,0h.4Z" fill="#d6bda9"/><path d="M159,134.6a.5.5,0,0,1,.1-.7,5.3,5.3,0,0,1,2.9-1.4l2.1-.4c.2,0,.4-.1.5.2s0,.4-.3.5l-1.6.3A5.9,5.9,0,0,0,159,134.6Z" fill="#d6bda9"/><path d="M159,134.8h-.1a.7.7,0,0,1,.2-.9,5.3,5.3,0,0,1,2.9-1.4l1.2-.3h1.3l.2.3a.6.6,0,0,1-.4.6h-.4l-1.2.2a5.6,5.6,0,0,0-3.6,1.5Zm5.3-2.6h-1.1l-1.2.2a5.7,5.7,0,0,0-2.8,1.4.7.7,0,0,0-.2.6,5.9,5.9,0,0,1,3.7-1.5l1.1-.2h.5c.1,0,.2-.1.2-.4h-.2Z" fill="#d6bda9"/><path d="M167.4,152.7c.7.2,1.1.5,1.2,1.2a.7.7,0,0,1-.4.9.8.8,0,0,1-.9-.4A1.7,1.7,0,0,1,167.4,152.7Z" fill="#d6bda9"/><path d="M167.9,154.9a1,1,0,0,1-.7-.5,1.9,1.9,0,0,1,.1-1.8h.1a1.5,1.5,0,0,1,1.3,1.3.7.7,0,0,1-.5.9Zm-.4-2.1a1.4,1.4,0,0,0-.1,1.5c.2.4.4.5.7.4s.5-.4.4-.8A1.4,1.4,0,0,0,167.5,152.8Z" fill="#d6bda9"/><path d="M166,153.4a1.2,1.2,0,0,1-.5,1.1.6.6,0,0,1-.8.1.7.7,0,0,1-.3-.8,1.8,1.8,0,0,1,.8-.9C165.8,152.6,166,152.7,166,153.4Z" fill="#d6bda9"/><path d="M165.1,154.8h-.5a.8.8,0,0,1-.3-.9,1.6,1.6,0,0,1,.8-1c.4-.2.6-.2.8-.1a1,1,0,0,1,.2.7,1.7,1.7,0,0,1-.5,1.2Zm.6-2-.5.2a1.8,1.8,0,0,0-.7.8.6.6,0,0,0,.2.7c.3.2.5.1.8-.1a1.1,1.1,0,0,0,.4-.9h0a1.5,1.5,0,0,0-.1-.6Z" fill="#d6bda9"/><path d="M118.3,152.7a1.7,1.7,0,0,1,.1,1.8.8.8,0,0,1-.8.3.7.7,0,0,1-.5-.8A1.6,1.6,0,0,1,118.3,152.7Z" fill="#d6bda9"/><path d="M117.8,154.9h-.2a1,1,0,0,1-.6-.9,1.7,1.7,0,0,1,1.3-1.4h.1a1.7,1.7,0,0,1,.1,1.9A.8.8,0,0,1,117.8,154.9Zm.5-2.1c-.7.3-1,.6-1.1,1.2a.7.7,0,0,0,.4.7c.3.1.5,0,.7-.3A1.5,1.5,0,0,0,118.3,152.8Z" fill="#d6bda9"/><path d="M119.8,153.4c0-.7.2-.8.8-.5a1.3,1.3,0,0,1,.7.9.6.6,0,0,1-.2.8.6.6,0,0,1-.8-.1C119.9,154.3,119.8,153.9,119.8,153.4Z" fill="#d6bda9"/><path d="M120.7,154.8l-.5-.2a1.5,1.5,0,0,1-.5-1.2c0-.4,0-.6.2-.7s.4-.1.8.2a1.3,1.3,0,0,1,.7.9.7.7,0,0,1-.3.9Zm-.6-2H120c-.1,0-.1.2-.1.5h0a1.4,1.4,0,0,0,.4,1.1c.3.1.5.2.7,0s.3-.4.3-.6a2.2,2.2,0,0,0-.7-.9Z" fill="#d6bda9"/><path d="M109.7,142.2a1.5,1.5,0,0,1,.8-1.9,5.4,5.4,0,0,1,2.1-.5,1.3,1.3,0,0,1,1.2.9,7.8,7.8,0,0,1-1.4.2,1.7,1.7,0,0,0-1.9,1C110.4,142.3,110,142,109.7,142.2Z" fill="#d6bda9"/><path d="M109.6,142.4h0a1.7,1.7,0,0,1,.9-2.1,4.6,4.6,0,0,1,2.1-.5,1.4,1.4,0,0,1,1.3,1h-.1l-1,.2h-.4c-.9,0-1.5.2-1.8,1s-.3.2-.5.2h-.5Zm2.8-2.5a4.8,4.8,0,0,0-1.8.5,1.3,1.3,0,0,0-.8,1.7h.6a1.8,1.8,0,0,1,1.9-1.1h1.3c-.1-.5-.4-.7-1-.8Z" fill="#d6bda9"/><polyline points="59 217.4 59 220.8 69.5 220.8 80 220.8 80 217.4" fill="none" stroke="#c10230" stroke-miterlimit="10" stroke-width="0.74"/><polyline points="206.3 217.4 206.3 220.8 216.8 220.8 227.2 220.8 227.2 217.4" fill="none" stroke="#c10230" stroke-miterlimit="10" stroke-width="0.74"/><line x1="206.3" y1="92.3" x2="206.3" y2="215.6" fill="none" stroke="#295ba8" stroke-miterlimit="10" stroke-width="0.37" stroke-dasharray="1.48 1.48"/><line x1="80" y1="92.3" x2="80" y2="215.6" fill="none" stroke="#295ba8" stroke-miterlimit="10" stroke-width="0.37" stroke-dasharray="1.48 1.48"/><path d="M204.6,89.5V87.1h.4v2h1V87.4h.4v1.7H208v.4Z" fill="#295ba8"/><path d="M205,83.8a2.1,2.1,0,0,1,1.2-.3,2,2,0,0,1,1.3.4,1.5,1.5,0,0,1,.6,1.3,1.7,1.7,0,0,1-.5,1.2,2,2,0,0,1-1.3.4,2.1,2.1,0,0,1-1.2-.3,1.6,1.6,0,0,1-.6-1.3A2,2,0,0,1,205,83.8Zm2.2.4-1-.2a1.7,1.7,0,0,0-1,.3,1.1,1.1,0,0,0-.3.8,1.2,1.2,0,0,0,.3.9,1.8,1.8,0,0,0,1.1.3l1-.2a1.3,1.3,0,0,0,.4-1A1.1,1.1,0,0,0,207.2,84.2Z" fill="#295ba8"/><path d="M204.6,82.9v-.4h3V80.7h.4v2.2Z" fill="#295ba8"/><path d="M204.6,80.3V78.9a1.2,1.2,0,0,1,.5-1.1,1.8,1.8,0,0,1,1.1-.3,1.6,1.6,0,0,1,1,.2,1.2,1.2,0,0,1,.8,1.2v1.4Zm3-1.3c0-.2,0-.3-.1-.4s-.1-.3-.3-.4l-.5-.2h-.4a1.5,1.5,0,0,0-1,.3,1,1,0,0,0-.3.8v.8h2.6Z" fill="#295ba8"/><path d="M204.6,76.8v-.4h3V74.6h.4v2.2Z" fill="#295ba8"/><path d="M204.6,74.1v-.5H208v.5Z" fill="#295ba8"/><path d="M204.6,72.8v-.5l2.7-1.7h-2.7v-.5H208v.6l-2.8,1.7H208v.4Z" fill="#295ba8"/><path d="M204.6,69.4V66.9h.4v2h1V67h.4v1.9h1.2V66.8h.4v2.6Z" fill="#295ba8"/><text transform="translate(240.5 90.7)" font-size="4.44" fill="#295ba8" font-family="Helvetica">SE<tspan x="5.9" y="0" letter-spacing="-0.07em">LV</tspan><tspan x="10.7" y="0">AGE EDGE</tspan></text><polyline points="223 96.2 223 88.6 238.5 88.6" fill="none" stroke="#295ba8" stroke-miterlimit="10" stroke-width="0.37" stroke-dasharray="1.48 1.48"/><text transform="translate(261.1 215.6)" font-size="4.44" fill="#295ba8" font-family="Helvetica">SE<tspan x="5.9" y="0" letter-spacing="-0.07em">LV</tspan><tspan x="10.7" y="0">AGE EDGE</tspan></text><line x1="229.4" y1="214" x2="259.1" y2="214" fill="none" stroke="#295ba8" stroke-miterlimit="10" stroke-width="0.37" stroke-dasharray="1.48 1.48"/></svg>